<svg xmlns="http://www.w3.org/2000/svg" viewBox="0 0 160 54">
	<path d="m 90.745078,7.094981 1.534876,0.315664 c 0.127623,0.02444 0.255246,0.03055 0.382191,0.03055 0.382191,-0.0061 0.753521,-0.152062 1.050178,-0.394411 l 2.88171,-2.463539 C 96.745416,4.450191 96.775964,4.255361 96.721656,4.085649 L 81.340318,1.56169 c -0.02376,0 -0.04209,0 -0.06653,0.0061 L 79.338393,1.252804 c -0.351644,0 -0.564123,0.387623 -0.369972,0.679527 l 2.378004,3.71262 3.2768,5.10901 4.799455,7.474117 c 0.145274,0.224699 0.486055,0.158172 0.539684,-0.102506 0.07264,-0.382191 0.163603,-0.891327 0.243028,-1.480567 0.260678,-1.893307 0.41274,-4.53199 -0.455507,-5.879503 L 88.324983,8.52123 87.869476,7.816586 c -0.304124,-0.473157 0.0054,-1.061039 0.509136,-1.128245" style="fill:#31e2b8" />
	<path d="m 114.5757,7.098307 -1.53488,0.315664 c -0.12762,0.02444 -0.25524,0.03055 -0.38219,0.03055 -0.38219,-0.0061 -0.75284,-0.152062 -1.05018,-0.39441 l -2.88171,-2.46354 c -0.15138,-0.133054 -0.18193,-0.327883 -0.12762,-0.497595 l 15.38134,-2.523957 c 0.0238,0 0.0421,0 0.0665,0.0061 l 1.93539,-0.314985 c 0.35165,0 0.56412,0.387622 0.36997,0.679527 l -2.378,3.71262 -3.27612,5.10901 -4.79946,7.474117 c -0.14595,0.224698 -0.48605,0.158171 -0.54036,-0.102506 -0.0726,-0.382192 -0.1636,-0.891328 -0.24303,-1.480568 -0.26067,-1.893307 -0.41206,-4.531989 0.45551,-5.879503 l 1.42558,-2.244271 0.45483,-0.704645 c 0.3048,-0.473157 -0.005,-1.061039 -0.50914,-1.128245" style="fill:#6acbf3" />
	<path style="fill:#1e2548" d="m 154.56311,23.459495 -17.44504,0 0,-17.394123 17.44504,0 0,17.394123 z m 1.71409,-22.822871 -21.47875,0 c -1.73039,0 -3.13357,1.403858 -3.13357,3.143066 l 0,34.56219 c 0,0.310912 0.17582,0.587882 0.44465,0.705323 0,0 0,0.0088 0.009,0.0088 0.0414,0.02512 0.0923,0.04141 0.14256,0.05024 1.55524,-1.588504 4.58019,-4.974599 4.80692,-7.49584 0.017,-0.03326 0.017,-0.05838 0.0251,-0.09232 l 0,-0.125587 0.0251,-0.966679 0,-1.545737 17.44504,0 0,9.461783 c 0,0.03326 0,0.05024 0.008,0.0835 0.0339,0.303445 0.22742,0.555298 0.50439,0.655768 0,-0.01629 0.009,-0.01629 0.009,-0.01629 0.008,-0.0088 0.0333,-0.01765 0.0421,-0.02512 l 0.008,-0.01765 c 1.53759,-1.562708 4.57136,-4.949481 4.80624,-7.461897 0.009,-0.02512 0.009,-0.05838 0.017,-0.09232 l 0,-0.125587 0.0339,-1.268767 0.008,-0.420886 0,-25.301344 c 0,-2.041975 -1.66386,-3.714657 -3.7228,-3.714657 M 102.247,38.912655 c 0.0862,0.137807 0.23285,0.208407 0.37541,0.202976 0.14188,0.0054 0.28919,-0.06517 0.37472,-0.202976 l 2.16485,-3.414605 5.62697,-8.770717 1.43576,-2.234088 c 0.0183,-0.02987 0.0353,-0.05567 0.0516,-0.08621 0.0136,-0.02104 0.0265,-0.04345 0.0353,-0.06042 1.01013,-1.834927 0.42089,-5.638512 0.11473,-7.216155 -0.0509,-0.262035 -0.39441,-0.326526 -0.53901,-0.101827 l -4.78927,7.469365 -4.12672,6.42869 c -0.0821,0.125587 -0.21519,0.194151 -0.34892,0.198224 -0.13442,-0.0041 -0.26747,-0.07264 -0.34961,-0.198224 l -4.126727,-6.42869 -4.789273,-7.469364 c -0.144594,-0.224699 -0.487413,-0.160208 -0.539005,0.101827 -0.306161,1.577643 -0.895401,5.381228 0.115404,7.216154 0.0081,0.01697 0.02172,0.03937 0.03462,0.06042 0.01697,0.03055 0.03394,0.05634 0.05159,0.08621 l 1.435763,2.234089 5.627658,8.770717 2.16416,3.414605 z M 51.577719,53.942826 c 1.665893,-2.983537 1.470385,-7.218191 0.403236,-9.285962 -0.0081,-0.04141 -0.03394,-0.05838 -0.03394,-0.09097 l -0.07535,-0.118119 -0.68903,-1.14318 -2.680771,-4.201391 -0.587883,-0.924591 -0.495559,-0.781354 -0.252531,-0.39509 -2.60474,-4.025568 c -0.06789,-0.06585 -0.101148,-0.133733 -0.101148,-0.208407 l 0,-0.0095 c 0,-0.126265 0.101148,-0.226735 0.260677,-0.226735 l 11.378172,0 c 2.109181,0 3.814447,-1.697799 3.814447,-3.806301 l 0,-24.613671 c 0,-1.773151 -1.319002,-3.23539 -3.024947,-3.470272 l -12.663231,0.0258 -0.126266,0 c -0.03394,0.0075 -0.05906,0.0075 -0.09232,0.01629 -1.02506,0.09232 -2.185212,0.655767 -3.319567,1.386208 -1.646885,1.058324 -3.209593,2.479153 -4.151155,3.403744 0.243706,0.377439 0.672738,0.629971 1.151326,0.629971 l 16.201387,0 c 0.04209,0 0.09232,0.0081 0.134412,0.01697 0.226735,0.05906 0.395089,0.259999 0.395089,0.51253 l 0,19.873276 c 0,0.302087 -0.23556,0.529502 -0.529501,0.529502 l -15.865357,0 c -0.940884,0 -1.705267,0.764382 -1.705267,1.705945 l 0,0.890648 c 0,0.437178 0.06721,0.865531 0.192793,1.285738 0.159529,0.546473 0.420207,1.059682 0.782033,1.513153 l 0.898795,1.293884 3.318888,5.158566 3.890478,6.077048 5.689425,8.855572 c 0.142558,0.168355 0.33603,0.244386 0.487413,0.126266 M 31.687947,0.570369 27.377262,0.553399 7.7388675,0.586659 l -0.1255869,0 c -0.033942,0.0088 -0.05906,0.0088 -0.093002,0.01697 -1.0250606,0.093 -2.184533,0.655767 -3.318888,1.386887 C 2.5287089,3.065814 0.94088337,4.519228 0,5.444497 0.18464666,5.796819 0.54579382,6.023555 0.94088337,6.023555 l 4.17627303,0 6.3112506,-0.0027 0,32.271078 c 0,0.353001 0.1765,0.680206 0.445324,0.865531 0.0081,-0.0088 0.03326,-0.01697 0.04209,-0.02444 1.545737,-1.57968 4.612773,-4.992249 4.848333,-7.529783 0.0081,-0.03394 0.0081,-0.06789 0.01697,-0.101148 l 0,-0.126266 0.09232,-3.411211 0.01697,-0.874356 0,-21.071443 7.999545,-0.0034 0.134412,0 c 0.02512,-0.01697 0.05906,-0.01697 0.09232,-0.0258 1.02574,-0.09164 2.185212,-0.654409 3.319567,-1.386207 1.672003,-1.075296 3.260507,-2.528709 4.201391,-3.4533 C 32.453002,0.805934 32.091855,0.570374 31.68794,0.570374 m 42.583126,30.939308 0,-0.126945 0.03191,-1.27284 0,-28.42744 c 0,-0.58924 -0.473836,-1.062397 -1.063076,-1.062397 l -3.315494,0 c -0.578379,0 -1.052215,0.473157 -1.052215,1.062397 l 0,36.468395 c 0.01086,0.399842 0.24167,0.747412 0.568196,0.925949 1.536233,-1.568139 4.578151,-4.956948 4.809638,-7.471402 0.01018,-0.03258 0.01018,-0.06381 0.02105,-0.09572" />
</svg>