<svg xmlns="http://www.w3.org/2000/svg" viewBox="0 0 160 160">
	<path d="m 39.890665,36.210904 5.16671,1.06259 c 0.42961,0.08227 0.85921,0.102838 1.28653,0.102838 1.28654,-0.02053 2.53651,-0.511872 3.53512,-1.327669 l 9.70043,-8.29278 c 0.50959,-0.447888 0.61242,-1.103726 0.42961,-1.675011 L 8.2323015,17.584705 c -0.07998,0 -0.141683,0 -0.223953,0.02053 l -6.514939,-1.060308 c -1.18370699,0 -1.89895499,1.304819 -1.24540199,2.287428 L 8.2528595,31.3298 19.283245,48.527782 l 16.15596,25.15942 c 0.48902,0.756384 1.63616,0.53244 1.81668,-0.345056 0.24452,-1.286534 0.55073,-3.000391 0.81809,-4.983894 0.87749,-6.373262 1.38936,-15.255614 -1.53333,-19.79162 l -4.79652,-7.554683 -1.53333,-2.371977 c -1.02374,-1.592744 0.0182,-3.571677 1.71386,-3.797906" style="fill:#31e2b8" />
	<path d="m 120.10945,36.2221 -5.16672,1.06259 c -0.4296,0.08227 -0.85919,0.102838 -1.28653,0.102838 -1.28653,-0.02053 -2.53422,-0.511872 -3.53512,-1.327665 l -9.70043,-8.292784 c -0.509575,-0.447888 -0.612415,-1.103722 -0.429595,-1.675008 l 51.776765,-8.49616 c 0.0801,0 0.14171,0 0.22385,0.02053 l 6.51492,-1.060305 c 1.18373,0 1.89894,1.304816 1.2454,2.287428 l -8.00484,12.497446 -11.0281,17.197982 -16.15597,25.15942 c -0.4913,0.75638 -1.63615,0.532436 -1.81897,-0.345056 -0.24438,-1.286538 -0.55071,-3.000394 -0.81808,-4.983898 -0.87747,-6.373262 -1.38708,-15.25561 1.53334,-19.79162 l 4.79879,-7.55468 1.53105,-2.37198 c 1.02602,-1.592744 -0.0168,-3.571676 -1.71387,-3.797906" style="fill:#6acbf3" />
	<path style="fill:#1e2548" d="m 78.608505,143.31576 c 0.29017,0.46389 0.78382,0.70154 1.26371,0.68326 0.4776,0.0182 0.97347,-0.21937 1.26139,-0.68326 l 7.28733,-11.49426 18.941535,-29.52405 4.83306,-7.520398 c 0.0616,-0.100549 0.11883,-0.187397 0.1737,-0.290201 0.0458,-0.07082 0.0892,-0.146262 0.11883,-0.203386 3.4003,-6.176743 1.4168,-18.980395 0.3862,-24.291067 -0.17134,-0.882064 -1.32766,-1.099154 -1.81442,-0.342771 L 94.938175,94.793051 81.046785,116.43335 c -0.27636,0.42275 -0.72437,0.65355 -1.17454,0.66726 -0.45248,-0.0138 -0.90035,-0.24452 -1.17685,-0.66726 L 64.803975,94.793051 48.682295,69.64963 c -0.48673,-0.756383 -1.64073,-0.539293 -1.8144,0.342771 -1.0306,5.310672 -3.01411,18.114324 0.38847,24.291064 0.0273,0.05712 0.0731,0.132527 0.11654,0.203386 0.0571,0.102838 0.11425,0.189652 0.17366,0.290201 l 4.83308,7.520408 18.94385,29.52404 7.28501,11.49427 z" />
</svg>