<?xml version="1.0" encoding="UTF-8" standalone="no"?>
<svg xmlns:svg="http://www.w3.org/2000/svg" xmlns="http://www.w3.org/2000/svg" viewBox="0 0 160 160">
  <path d="m 156.48365,10.325912 h -22.0184 V 3.9205602 h 22.0184 z m -25.82157,9.40786 c 0,1.801505 -1.40117,3.202676 -3.20268,3.202676 h -12.8107 c -1.80151,0 -3.20268,-1.401171 -3.20268,-3.202676 V 3.9310954 h 19.21606 z m 9.20769,39.032613 v 7.005854 c 0,3.202676 -1.40117,6.005017 -3.60301,8.206857 V 62.169228 c 0,-0.600501 -0.20017,-1.201003 -0.80067,-1.601338 l -11.80987,-9.007526 2.40201,-2.802341 z m -7.40619,18.826256 v 10.20853 l -22.81906,-0.01053 V 64.97157 l 22.81906,0.01054 z m -2.60217,-16.413714 h -17.61472 l 8.80736,-6.805686 z m -11.6097,-16.01338 V 26.750161 h 5.60468 v 18.415386 l -2.80234,3.402844 z m -11.80987,15.412878 c -0.40033,0.400335 -0.80067,1.000837 -0.80067,1.601338 v 11.809868 c -2.20184,-2.001673 -3.60301,-5.004181 -3.60301,-8.206857 V 58.77692 l 13.81154,-10.208529 2.40201,2.802341 z m 1.00084,-50.252513 H 4.356543 V 3.9205602 H 107.44268 Z M 158.48532,-0.07224852 H 2.3548706 c -1.0008363,0 -2.0016725,0.80066898 -2.0016725,2.00167252 v 10.408695 c 0,1.000836 0.800669,2.001673 2.0016725,2.001673 H 107.44268 v 5.404515 c 0,3.803178 3.00251,7.005854 6.80568,7.206021 V 45.165547 L 99.035654,56.374913 c -0.400334,0.400335 -0.800669,1.000836 -0.800669,1.601338 v 8.00669 c 0,5.404516 3.002505,10.20853 7.406185,12.810704 v 11.009198 c 0,1.000837 0.80067,2.001673 2.00167,2.001673 h 26.82241 c 1.00084,0 2.00168,-0.800669 2.00168,-2.001673 V 78.793645 c 4.60384,-2.602174 7.40619,-7.606356 7.40619,-12.810704 v -8.00669 c 0,-0.600502 -0.20017,-1.201003 -0.80067,-1.601338 L 127.85974,45.165547 V 26.950328 c 3.80317,-0.200167 6.80568,-3.202676 6.80568,-7.206021 v -5.404515 h 24.02007 c 1.00084,0 2.00167,-0.800669 2.00167,-2.001673 l 0.0105,-10.408695 c -0.2107,-1.21153865 -1.01137,-2.00167252 -2.21238,-2.00167252 z M 137.66793,148.25168 c -6.00502,0 -11.0092,-5.00418 -11.0092,-11.0092 0,-6.00502 5.00418,-11.0092 11.0092,-11.0092 6.00502,0 11.0092,5.00418 11.0092,11.0092 0,6.20519 -4.80401,11.0092 -11.0092,11.0092 m -47.239467,0 c 3.002509,-2.80234 4.804014,-6.60552 4.804014,-11.0092 0,-4.40368 -1.801505,-8.20686 -4.804014,-11.0092 H 127.6701 c -3.00251,2.80234 -4.80401,6.60552 -4.80401,11.0092 0,4.40368 1.8015,8.20686 4.80401,11.0092 z m -10.008362,0 c -6.005018,0 -11.009199,-5.00418 -11.009199,-11.0092 0,-6.00502 5.004181,-11.0092 11.009199,-11.0092 6.005017,0 11.009198,5.00418 11.009198,11.0092 0,6.20519 -5.004181,11.0092 -11.009198,11.0092 m -47.250006,0 c 3.002509,-2.80234 4.804014,-6.60552 4.804014,-11.0092 0,-4.40368 -1.801505,-8.20686 -4.804014,-11.0092 h 37.241643 c -3.002508,2.80234 -4.804014,6.60552 -4.804014,11.0092 0,4.40368 1.801506,8.20686 4.804014,11.0092 z m -10.008366,0 c -6.005017,0 -11.009199,-5.00418 -11.009199,-11.0092 0,-6.00502 5.004182,-11.0092 11.009199,-11.0092 6.005021,0 11.009203,5.00418 11.009203,11.0092 0,6.20519 -5.004182,11.0092 -11.009203,11.0092 M 137.66793,122.4301 H 23.161729 c -8.206857,0 -15.0125434,6.60552 -15.0125434,15.01255 0,8.40702 6.6055194,15.01254 15.0125434,15.01254 H 137.85756 c 8.20686,0 15.01255,-6.60552 15.01255,-15.01254 0.0105,-8.40703 -6.79515,-15.01255 -15.20218,-15.01255 z m 0,33.6281 H 23.161729 c -10.408697,0 -18.8157211,-8.40702 -18.8157211,-18.81572 0,-10.4087 8.4070241,-18.81572 18.8157211,-18.81572 H 138.0472 c 10.40869,0 18.81572,8.40702 18.81572,18.81572 -0.37927,10.4087 -8.78629,18.81572 -19.19499,18.81572 z M 28.376617,91.804516 h 22.819066 v 22.819064 l -22.819066,0.0105 z m 40.633951,0 h 22.819066 v 22.819064 l -22.819066,0.0105 z M 137.66793,114.62358 H 95.632811 V 89.802843 c 0,-1.000836 -0.800669,-2.001672 -2.001672,-2.001672 H 67.008895 c -1.000836,0 -2.001672,0.800669 -2.001672,2.001672 v 24.820737 h -9.808195 l -0.01054,-24.820737 c 0,-1.000836 -0.800669,-2.001672 -2.001672,-2.001672 H 26.575111 c -1.000836,0 -2.001676,0.800669 -2.001676,2.001672 v 24.820737 h -1.401171 c -12.610536,0 -22.8190659,10.20853 -22.8190659,22.81907 0,12.61053 10.2085299,22.6189 22.8190659,22.6189 H 137.8681 c 12.41037,0 22.6189,-10.20853 22.6189,-22.81907 0,-12.61054 -10.20853,-22.6189 -22.81907,-22.6189 z" />
</svg>
