<svg xmlns="http://www.w3.org/2000/svg" viewBox="0 0 160 160"><path d="M69.834 150.166v-5.57c0-.317 1.124-1.079 2.04-1.427.197-.07.319-.125.505-.216l25.894-12.279c2.058-.973 3.377-5.078 3.402-7.353a5.956 5.956 0 0 0-3.283-5.386c-2.016-1.012-4.68-1.512-8.856-2.235-.99-.174-2.344-.418-3.658-.68 1.703-3.821 3.585-9.167 4.326-15.214.183-1.505.418-3.2.68-5.076a422.49 422.49 0 0 0 1.558-12.108c1.038-9.192 7.882-15.765 18.046-15.765h.048c10.163 0 15.985 6.573 17.022 15.767a423.18 423.18 0 0 0 1.558 12.108c.262 1.876.497 3.57.68 5.076.74 6.045 2.624 11.39 4.326 15.214-1.314.262-2.668.506-3.658.68-4.176.723-6.84 1.223-8.856 2.234a5.957 5.957 0 0 0-3.284 5.387c.027 2.275 1.345 6.38 3.403 7.352l25.894 12.28c.186.09.308.145.506.215.915.348 1.905 1.11 2.04 1.427l.002 5.57H69.834zm83.733-12.422l-28.006-13.28c3.736-1.873 18.328-2.467 19.535-5.76 0 0-5.767-8.852-7.175-20.348-.547-4.462-1.483-10.317-2.413-18.563-1.51-13.376-10.76-22.77-24.97-22.77h-.052c-14.21 0-24.485 9.394-25.992 22.768-.93 8.246-1.867 14.101-2.414 18.563-1.408 11.498-7.174 20.348-7.174 20.348 1.206 3.293 15.797 3.887 19.535 5.76l-28.008 13.282S60 140.004 60 145.334v8.5c0 3.558 2.879 6.166 6.433 6.166h87.134c3.555 0 6.433-2.608 6.433-6.166v-8.5c0-5.33-6.433-7.59-6.433-7.59zm-30.05-126.73C84.203-11.686 33.752 1.835 11.054 41.148c-21.335 36.954-10.7 84.299 24.094 108.6l-18.248-.994c-2.295-.05-4.575 1.502-4.523 3.798l-.247 1.579c.057 2.298 1.957 4.198 4.245 4.25l30.526 1.54c.041-.003.07.02.111.018l2.081.047a3.966 3.966 0 0 0 2.916-1.165 3.924 3.924 0 0 0 1.164-2.915l-.05-2.078c.003-.038-.015-.074-.017-.111l-1.423-31.142c-.051-2.296-1.946-4.193-4.244-4.25l-1.603.136c-2.293-.055-3.828 2.337-3.774 4.628l.896 18.277c-.045-.03-.077-.07-.12-.099C11.893 120.59 2.257 79.102 20.89 46.828c19.568-33.892 63.059-45.545 96.948-25.98 8.474 4.893 16.176 13.25 21.258 20.81 3.98 4.965 13.561.952 9.774-5.419-6.734-9.72-15.524-19.551-25.353-25.226z"/></svg>