<svg xmlns="http://www.w3.org/2000/svg" viewBox="0 0 160 160"><path d="M80.049 82.858V34.877c0-2.76-2.24-5.001-4.999-5.001a5.002 5.002 0 0 0-4.998 5V84.89c0 1.415.592 2.688 1.54 3.596.082.097.15.202.24.295l24.739 24.756a5 5 0 1 0 7.068-7.074l-23.59-23.603zM80.017.002C59.541.007 39.063 7.808 23.472 23.414-5.005 51.92-7.45 96.74 16.1 128.064H5.072a4.999 5.002 0 1 0 0 10.002h22.055a4.999 5.002 0 0 0 .5-.033 4.999 5.002 0 0 0 4.499-4.97v-23.068a4.999 5.002 0 0 0-5.061-5.064 4.999 5.002 0 0 0-4.936 5.064v9.252c-18.527-27.255-15.731-64.58 8.435-88.77 27.362-27.39 71.595-27.379 98.97 0 27.373 27.377 27.361 71.633 0 99.023-18.844 18.862-46.738 25.353-71.979 16.785a4.999 5.002 0 1 0-3.186 9.471c28.825 9.785 60.737 2.349 82.256-19.192 31.18-31.213 31.163-81.984-.032-113.183C120.996 7.782 100.493-.003 80.017 0z"/></svg>