<svg xmlns="http://www.w3.org/2000/svg" viewBox="0 0 160 160"><path d="M141.353 143.98h12.835a5.508 5.508 0 0 0 5.502-5.506v-8.258c0-3.239-5.502-5.506-5.502-5.506l-20.518-11.365c7.626-6 9.697-17.79 9.697-24.4v-13.76c0-9.112-12.107-19.26-24.267-19.26-6.079 0-12.225 2.537-16.851 6.214l8.388 5.153c3.095-2.394 4.198-1.873 8.453-1.873 8.666 0 16.34 7.319 16.34 11.73v12.67c0 4.7-1.46 13.673-6.636 17.746a6.01 6.01 0 0 0-2.271 5.219c.17 2.01 1.336 6.175 3.105 7.143l18.89 10.463c.166.092.378.19.553.267.443.188.987.501 1.386.777v3.052h-9.103zm-15.586 6.526H69.233v-2.989a9.782 9.782 0 0 1 1.506-.894c.141-.064.282-.132.416-.208l19.378-10.51c1.767-.959 2.939-5.112 3.117-7.113a6.011 6.011 0 0 0-2.223-5.22c-5.031-4.033-7.187-12.968-7.187-17.733V93.17c0-4.31 4.251-11.73 12.76-11.73 8.666 0 13.74 7.318 13.74 11.73v12.669c0 4.7-1.46 13.673-6.636 17.746a6.01 6.01 0 0 0-2.271 5.219c.17 2.01 1.336 6.175 3.105 7.143l18.89 10.463c.166.092.377.19.553.267.443.188.987.501 1.386.777zm3.73-9.775l-20.517-11.366c7.626-5.999 9.697-17.79 9.697-24.4v-13.76c0-9.112-9.507-19.26-21.667-19.26-12.157 0-20.711 10.15-20.711 19.26v13.76c0 6.011 2.543 18.171 10.247 24.348L65.5 140.731S60 143.18 60 146.236v8.258A5.507 5.507 0 0 0 65.5 160h63.997a5.508 5.508 0 0 0 5.503-5.506v-8.258c0-3.239-5.503-5.505-5.503-5.505zM123.39 11C84.116-11.672 33.717 1.835 11.043 41.108-10.27 78.022.353 125.318 35.113 149.595l-18.23-.994c-2.293-.05-4.57 1.5-4.52 3.794l-.245 1.577c.057 2.296 1.954 4.194 4.24 4.246l30.495 1.538c.04-.003.07.021.11.019l2.08.047a3.963 3.963 0 0 0 2.912-1.165 3.92 3.92 0 0 0 1.163-2.911l-.05-2.076c.003-.038-.015-.074-.017-.111l-1.421-31.11c-.052-2.293-1.945-4.189-4.24-4.246l-1.602.136c-2.29-.055-3.824 2.335-3.77 4.623l.896 18.259c-.045-.03-.077-.07-.12-.099C11.881 120.464 2.254 79.02 20.87 46.78c19.547-33.857 62.993-45.498 96.847-25.953 8.465 4.888 16.16 13.237 21.236 20.789 3.977 4.96 13.548.95 9.764-5.414-6.727-9.71-15.508-19.531-25.327-25.2z"/></svg>