<svg xmlns="http://www.w3.org/2000/svg" viewBox="0 0 160 160"><path d="M140 150h-25v-30h25zm-60-30h25v30H80zM70 95.418h35V110H70zM150 110h-35V95.418h35zM85.524 69.52c7.648 0 15.628 8.99 19.997 15.477H95.11c-7.17 0-15.083-3.78-15.083-10.61 0-3.366 1.696-4.868 5.498-4.868zm50.638 0c3.802 0 5.498 1.596 5.498 4.963 0 6.83-7.624 10.515-14.794 10.515h-10.41c4.37-6.489 12.06-15.479 19.706-15.479zM160 95.417C160 90 155 85 150 85h-6.646c4.13 0 6.642-6.48 6.646-10.518C150 65 145 60 135 60c-11.3 0-25 10-24.012 22.144C110 70 96.298 60 85 60c-10 0-15 5-15 14.483 0 4.325 5 10.517 8.435 10.519H70c-5 0-10 4.998-10 10.416V120h10v30c0 3.396 6.604 10 10 10h59.998c3.396 0 10.002-6.602 10.002-9.998V120h10zm-36.54-84.404c-39.317-22.7-89.772-9.178-112.471 30.138C-10.348 78.108.288 125.457 35.085 149.761l-18.25-.995c-2.296-.05-4.576 1.502-4.524 3.798l-.246 1.579c.057 2.298 1.956 4.199 4.244 4.25l30.53 1.54c.04-.002.07.021.11.019l2.081.047a3.967 3.967 0 0 0 2.916-1.166 3.924 3.924 0 0 0 1.165-2.915l-.05-2.077c.002-.039-.016-.075-.017-.112l-1.423-31.145c-.052-2.295-1.947-4.192-4.245-4.25l-1.603.136c-2.293-.055-3.829 2.338-3.774 4.628l.896 18.28c-.045-.03-.077-.071-.12-.1-30.947-20.68-40.584-62.17-21.95-94.446C40.395 12.937 83.888 1.283 117.78 20.85c8.474 4.893 16.177 13.251 21.26 20.812 3.98 4.965 13.562.951 9.774-5.42-6.734-9.722-15.525-19.553-25.355-25.228z"/></svg>