<svg xmlns="http://www.w3.org/2000/svg" viewBox="0 0 160 160"><path d="M90.124 80c-5.516 0-9.951 4.475-9.985 10h69.71l.166 49.917c5.516-.034 10.008-4.56 9.985-10.084L159.833 90c-.023-5.524-4.468-10-9.985-10zm-19.63 20c-5.517 0-9.986 4.475-9.986 10v40c0 5.525 4.47 10 9.985 10h59.386c5.516 0 9.985-4.475 9.985-10v-40c0-5.525-4.47-10-9.985-10zm0 10h59.385v40H70.493zm27.46 5c-1.032 2.265-2.498 4.207-4.326 5.75-1.828 1.543-4.35 2.817-7.655 3.917v8.25c2.24-.706 4.089-1.479 5.575-2.25a29.73 29.73 0 0 0 4.66-3V145h9.818v-30zm30.693-101.568C90.135-11.599 38.437-.629 13.406 37.884-10.122 74.084-1.902 122.49 31.958 148.9l-18.385-1.978c-2.317-.173-4.703 1.274-4.773 3.596l-.333 1.582c-.065 2.325 1.753 4.347 4.062 4.521l30.762 3.184c.042 0 .07.025.111.025l2.1.158a4.014 4.014 0 0 0 3.008-1.022 3.97 3.97 0 0 0 1.333-2.883l.06-2.102c.005-.038-.012-.076-.011-.113l.223-31.543c.07-2.322-1.743-4.34-4.062-4.52l-1.627.051c-2.314-.177-3.993 2.158-4.06 4.475l-.07 18.516c-.043-.032-.073-.076-.115-.106-30.164-22.545-37.688-64.979-17.14-96.595 21.58-33.201 66.145-42.656 99.344-21.079 8.3 5.396 15.637 14.251 20.37 22.161 3.757 5.229 13.651 1.685 10.164-4.955-6.285-10.18-14.643-20.583-24.272-26.841z"/></svg>