<svg xmlns="http://www.w3.org/2000/svg" viewBox="0 0 160 160"><path d="M123.407 11.077c-39.3-22.69-89.733-9.174-112.423 30.126C-10.343 78.143.288 125.472 35.07 149.765l-18.242-.995c-2.295-.05-4.574 1.502-4.522 3.797l-.246 1.579c.056 2.297 1.955 4.196 4.243 4.248l30.515 1.54c.041-.003.07.02.111.018l2.08.047a3.965 3.965 0 0 0 2.915-1.165 3.922 3.922 0 0 0 1.164-2.914l-.05-2.077c.003-.038-.015-.074-.017-.111L51.6 122.6c-.052-2.294-1.946-4.19-4.243-4.248l-1.603.136c-2.292-.055-3.827 2.337-3.772 4.626l.896 18.271c-.045-.029-.077-.07-.12-.098C11.823 120.615 2.19 79.142 20.817 46.88 40.376 13 83.852 1.35 117.73 20.91c8.47 4.89 16.17 13.245 21.251 20.802 3.98 4.963 13.556.951 9.77-5.417-6.731-9.718-15.519-19.545-25.344-25.218zM94.605 95L95 84.14 105.855 95zM110 149.834H70L70.395 80H85l-.395 25H110zM70.395 70c-5.522 0-9.968 4.478-10 10L60 149.834c-.031 5.523 4.477 10 10 10h40c5.522 0 10-4.477 10-10V95.002L95 70zm64.21 5V63.562L145.855 75zm0-25H107.85c-5.523 0-10 4.477-10 10H125v25h25v45h-24.471v10H150c5.522 0 10-4.477 10-10V75.002z"/></svg>