<svg xmlns="http://www.w3.org/2000/svg" viewBox="0 0 160 160"><path d="m 40,45 a 5,5 0 0 0 -3.535156,1.464844 l -15,15 a 5.0005,5.0005 0 0 0 0,7.070312 l 15,15 a 5,5 0 0 0 7.070312,0 5,5 0 0 0 0,-7.070312 L 37.070312,70 H 55 c 5.833328,0 10.724479,2.886569 14.361328,7.042969 C 72.998178,81.199368 75,86.66667 75,90 v 45 a 5,5 0 0 0 5,5 5,5 0 0 0 5,-5 V 90 C 85,86.66667 87.001822,81.199368 90.638672,77.042969 94.275521,72.886569 99.166673,70 105,70 h 17.92969 l -6.46485,6.464844 a 5,5 0 0 0 0,7.070312 5,5 0 0 0 7.07032,0 l 15,-15 A 5.0005,5.0005 0 0 0 140,65 5.0005,5.0005 0 0 0 138.53516,61.464844 l -15,-15 a 5,5 0 0 0 -7.07032,0 5,5 0 0 0 0,7.070312 L 122.92969,60 H 105 C 95.833342,60 88.22447,64.613441 83.111328,70.457031 81.949671,71.784639 80.933033,73.189005 80,74.621094 79.066967,73.189005 78.050329,71.784639 76.888672,70.457031 71.77553,64.613441 64.166657,60 55,60 H 37.070312 l 6.464844,-6.464844 a 5,5 0 0 0 0,-7.070312 A 5,5 0 0 0 40,45 Z M 4.667,158.556 C -0.28,155.554 0,160.274 0.004,79.853 0.007,9.882 0.06,6.917 1.398,4.736 4.453,-0.251 0.254,0.002 79.95,0.002 c 78.109,0 75.108,-0.155 78.443,4.066 L 160,6.1 V 80 c 0,73.827 -0.001,73.904 -1.547,75.86 -3.446,4.36 0.746,4.14 -78.6,4.136 -70.912,0 -72.877,-0.04 -75.186,-1.441 z M 150,89.402 V 30 H 10 v 120.415 h 140 z m 0,-74.838 V 10 H 10 v 10 h 140 z" /></svg>