<svg xmlns="http://www.w3.org/2000/svg" viewBox="0 0 160 160"><path d="M 79.949219 0.001953125 C 0.25321875 0.001953125 4.4534375 -0.25067188 1.3984375 4.7363281 C 0.0604375 6.9173281 0.00690625 9.8825156 0.00390625 79.853516 C -9.375e-05 160.27452 -0.27903125 155.55464 4.6679688 158.55664 L 4.6679688 158.55469 C 6.9769687 159.95569 8.9415156 159.99609 79.853516 159.99609 C 159.19952 160.00009 155.00713 160.21938 158.45312 155.85938 C 159.99912 153.90337 160 153.827 160 80 L 160 6.0996094 L 158.39258 4.0683594 C 155.05758 -0.15264062 158.05822 0.001953125 79.949219 0.001953125 z M 10 10 L 150 10 L 150 14.564453 L 150 20 L 10 20 L 10 10 z M 10 30 L 150 30 L 150 89.402344 L 150 150.41406 L 10 150.41406 L 10 30 z M 80 50 A 5 5 0 0 0 75 55 L 75 85 L 45 85 A 5 5 0 0 0 40 90 A 5 5 0 0 0 45 95 L 75 95 L 75 125 A 5 5 0 0 0 80 130 A 5 5 0 0 0 85 125 L 85 95 L 115 95 A 5 5 0 0 0 120 90 A 5 5 0 0 0 115 85 L 85 85 L 85 55 A 5 5 0 0 0 80 50 z " /></svg>
