<svg xmlns="http://www.w3.org/2000/svg" viewBox="0 0 160 160"><path d="M80 110c-2.642-.037-5.071 2.358-5.071 5s2.43 5.037 5.071 5h40c2.642.037 5.071-2.358 5.071-5s-2.43-5.037-5.071-5zM32 54.937c-1.976.004-3.889 1.297-4.628 3.13-.74 1.832-.26 4.09 1.16 5.464L55 90l-26.469 26.469c-2.007 1.811-2.097 5.336-.185 7.248 1.911 1.912 5.436 1.821 7.248-.186l30-30c1.846-1.85 1.846-5.212 0-7.062l-30-30A5.063 5.063 0 0 0 32 54.937zM4.667 158.556C-.28 155.554 0 160.274.004 79.853.007 9.882.06 6.917 1.398 4.736 4.453-.251.254.002 79.95.002c78.109 0 75.108-.155 78.443 4.066L160 6.1V80c0 73.827-.001 73.904-1.547 75.86-3.446 4.36.746 4.14-78.6 4.136-70.912 0-72.877-.04-75.186-1.441zM150 89.402V30H10V150.415h140zm0-74.838V10H10v10h140z"/></svg>