<svg xmlns="http://www.w3.org/2000/svg" viewBox="0 0 160 160"><path d="M79.809 72.924l-21.12-21.118a4.994 4.994 0 0 0-7.063 7.06l21.122 21.121-21.281 21.277a4.994 4.994 0 1 0 7.063 7.063L79.809 87.05l21.435 21.436a4.997 4.997 0 0 0 7.066 0 5.003 5.003 0 0 0 0-7.064L86.872 79.987l21.12-21.12a5 5 0 0 0 0-7.06 4.997 4.997 0 0 0-7.065 0zM80 0C35.815 0 0 35.818 0 80c0 44.185 35.815 80 80 80 44.182 0 80-35.815 80-80 0-44.182-35.817-80-80-80zm0 10c38.597 0 70 31.402 70 70 0 38.597-31.402 70.156-70 70.156-38.597 0-70-31.559-70-70.156 0-38.597 31.403-70 70-70z"/></svg>