<svg xmlns="http://www.w3.org/2000/svg" viewBox="0 0 160 160">
<path d="m 137.50058,80 c 6.34607,0 12.14121,2.12472 16.219,6.05777 4.07781,3.93305 6.28074,9.52245 6.28074,15.64325 0,7.79012 -5.78304,12.6616 -10.00454,17.14043 -4.22151,4.47882 -10.26137,11.48859 -10.26137,16.0792 0.041,2.79354 -2.2956,5.07935 -5.19225,5.07935 -2.89665,0 -5.23326,-2.28581 -5.19224,-5.07935 0,-8.76388 8.53072,-18.11406 12.96295,-22.81643 4.43223,-4.70239 7.68745,-8.17747 7.68745,-10.40322 0,-3.89505 -1.64307,-6.65216 -3.62289,-8.5617 -1.97981,-1.90954 -4.83843,-3.12344 -8.87685,-3.12344 -4.0384,0 -6.89703,1.2139 -8.87684,3.12344 -1.97983,1.90954 -3.2384,4.66667 -3.2384,8.56172 0.041,2.79355 -2.2956,5.07936 -5.19225,5.07936 -2.89665,0 -5.23327,-2.28581 -5.19224,-5.07936 0,-6.1208 2.20291,-11.7102 6.28072,-15.64325 C 125.35937,82.12472 131.1545,80 137.50058,80 Z m -2.50026,70 c 2.76142,0 5,2.23858 5,5 0,2.76142 -2.23858,5 -5,5 -2.76142,0 -5,-2.23858 -5,-5 0,-2.76142 2.23858,-5 5,-5 z m -15.527,-0.42001 c 5.96139,-3.24376 0.90866,-12.15058 -4.93422,-8.69792 -10.81464,6.13552 -22.685973,9.11797 -34.366251,9.2042 C 41.4025,150.15625 10,118.5975 10,80 10,41.4025 41.4025,10 79.712751,9.9831579 112.11673,9.6998387 140.58841,32.032371 148.11796,63.845782 c 0.63627,2.687768 3.33092,4.350833 6.01869,3.714567 2.68776,-0.636265 4.35084,-3.330921 3.71457,-6.018688 C 155.70334,52.466593 152.05255,44.061643 147.20409,36.563594 132.65875,14.069445 107.32089,-0.2625151 79.672236,-0.01723448 35.815,0 0,35.8175 0,80 c 0,44.185 35.815,80 80.128114,79.99734 13.539973,-0.0428 27.052066,-3.44302 39.345206,-10.41735 z M 79.808855,72.92395 58.68868,51.806285 c -1.94559,-1.950588 -5.112485,-1.950592 -7.063075,-5e-6 -1.948088,1.94809 -1.948088,5.112485 0,7.060575 L 72.748275,79.98703 51.46671,101.2636 c -1.948094,1.95059 -1.948091,5.11499 -5e-6,7.06308 1.950595,1.95059 5.117485,1.95058 7.06308,0 l 21.27907,-21.27658 21.435465,21.43547 c 1.94809,1.95059 5.11499,1.95059 7.06558,0 1.94558,-1.94809 1.94558,-5.11248 -1e-5,-7.06308 L 86.87193,79.98703 107.9921,58.866855 c 1.94559,-1.948085 1.94559,-5.11248 0,-7.06057 -1.95059,-1.950592 -5.11749,-1.950588 -7.06558,0 z" />
</svg>
