<svg xmlns="http://www.w3.org/2000/svg" viewBox="0 0 160 160"><path d="M40 70c0-3.047-1.411-5.224-3.094-6.906S33.047 60 30 60H10c-3.047 0-5.224 1.411-6.906 3.094S0 66.953 0 70v80c0 3.047 1.411 5.224 3.094 6.906S6.953 160 10 160h20c3.047 0 5.224-1.411 6.906-3.094S40 153.047 40 150zm10 80h25c2.63 0 5.838 1.75 9.844 4.25S93.655 160 100 160h40c5.404 0 10.095-2.72 13.688-6.313S160 145.405 160 140V80c0-5.404-2.72-10.095-6.313-13.688S145.405 60 140 60h-20V20c0-3.333-.863-6.404-2.656-8.75s-4.432-3.768-7-4.281a14.38 14.38 0 0 0-3.813-.25c-3.767.257-7.303 1.99-10.062 4.75-2.694 2.693-3.716 5.73-5.313 9.906s-3.273 9.286-5 14.75c-3.454 10.928-7.206 23.359-10.781 31.937-.303.728-.78 1.558-1.094 1.938H50z"/></svg>