<svg xmlns="http://www.w3.org/2000/svg" viewBox="0 0 160 160"><path d="M106.531 6.719c-3.767.257-7.303 1.99-10.062 4.75-2.694 2.693-3.716 5.73-5.313 9.906-1.597 4.177-3.273 9.286-5 14.75-3.454 10.928-7.206 23.359-10.781 31.937-.303.728-.78 1.558-1.094 1.938H50c0-3.047-1.411-5.224-3.094-6.906C45.224 61.41 43.047 60 40 60H10c-3.047 0-5.224 1.411-6.906 3.094C1.41 64.776 0 66.953 0 70v80c0 3.047 1.411 5.224 3.094 6.906C4.776 158.59 6.953 160 10 160h30c3.047 0 5.224-1.411 6.906-3.094C48.59 155.224 50 153.047 50 150h25c2.63 0 5.838 1.75 9.844 4.25C88.85 156.75 93.655 160 100 160h40c5.404 0 10.095-2.72 13.688-6.313C157.28 150.095 160 145.405 160 140V80c0-5.404-2.72-10.095-6.313-13.688C150.095 62.72 145.405 60 140 60h-20V20c0-3.333-.863-6.404-2.656-8.75-1.794-2.346-4.432-3.768-7-4.281a14.38 14.38 0 0 0-3.813-.25zm2.844 10.625c.238.31.625.99.625 2.656v45c0 2.618 2.382 5 5 5h25c1.667 0 4.486 1.236 6.625 3.375C148.765 75.515 150 78.333 150 80v60c0 1.667-1.236 4.486-3.375 6.625-2.14 2.14-4.958 3.375-6.625 3.375h-40c-2.63 0-5.838-1.75-9.844-4.25C86.15 143.25 81.345 140 75 140H50V80h25c3.176 0 5.471-1.812 6.844-3.406 1.372-1.595 2.187-3.231 2.781-4.657 3.928-9.428 7.674-21.991 11.094-32.812 1.71-5.41 3.332-10.365 4.781-14.156 1.45-3.791 2.5-5.969 3.031-6.438 1.469-1.531 4.11-2.413 5.844-1.187zM10.406 70h29.188c.02.009.136.042.25.156.114.114.147.23.156.25v79.188c-.01.02-.042.136-.156.25-.114.114-.23.147-.25.156H10.406c-.02-.01-.136-.042-.25-.156-.114-.114-.147-.23-.156-.25V70.406c.01-.02.042-.136.156-.25.114-.114.23-.147.25-.156z"/></svg>