<svg xmlns:svg="http://www.w3.org/2000/svg" xmlns="http://www.w3.org/2000/svg" viewBox="0 0 160 160"><path d="m 142.73222,160 c 5.52945,0 13.83297,-4.8484 15.67612,-10.2416 2.13714,-6.2535 1.84315,-12.9474 0.74475,-21.0464 -0.61361,-4.5243 -3.15386,-8.6498 -6.46038,-11.6761 C 138.97813,104.48334 120.63315,98.73147 101.4382,94.02845 95.908758,104.81488 89.28091,111.461 80.000003,120.4497 70.719093,111.461 64.091244,104.81488 58.561798,94.02845 39.366852,98.73147 21.021869,104.48334 7.3072909,117.0359 c -3.3065216,3.0263 -5.8467778,7.1518 -6.4603786,11.6761 -1.09840423,8.099 -1.39238904,14.7929 0.7447445,21.0464 C 3.4348056,155.1516 11.738331,160 17.267777,160 Z M 102.9277,80.55453 c 8.60897,-8.91973 12.73035,-21.72346 14.7639,-33.8121 1.547,-9.19627 2.08806,-19.55369 -2.21552,-27.87408 C 107.05459,2.58653 92.799735,-0.06571 80.000003,0.00122 67.200267,-0.06568 52.94541,2.58653 44.523924,18.86835 c -4.303576,8.32039 -3.762516,18.67781 -2.215521,27.87408 2.033547,12.08864 6.15493,24.89237 14.763902,33.8121 5.838318,6.04907 13.193638,11.2345 22.927698,11.13138 9.734056,0.10312 17.089377,-5.08231 22.927697,-11.13138 z"/></svg>
