<svg xmlns="http://www.w3.org/2000/svg" viewBox="0 0 160 160"><path d="M109.979 55a5 5 0 0 0-3.514 1.465l-40 40a5 5 0 0 0 0 7.07 5 5 0 0 0 7.07 0l40-40a5 5 0 0 0 0-7.07A5 5 0 0 0 109.98 55zm-40 0a5 5 0 0 0-3.514 1.465 5 5 0 0 0 0 7.07l40 40a5 5 0 0 0 7.07 0 5 5 0 0 0 0-7.07l-40-40A5 5 0 0 0 69.98 55zM45 20a5 5 0 0 0-4.043 2.059l-40 55a5 5 0 0 0 0 5.882l40 55A5 5 0 0 0 45 140h110a5 5 0 0 0 5-5V25a5 5 0 0 0-.004-.188 5 5 0 0 0-.01-.187 5 5 0 0 0-.018-.188 5 5 0 0 0-.025-.187 5 5 0 0 0-.031-.186 5 5 0 0 0-.04-.183 5 5 0 0 0-.097-.363 5 5 0 0 0-.125-.354 5 5 0 0 0-.15-.344 5 5 0 0 0-.086-.168 5 5 0 0 0-.092-.164 5 5 0 0 0-.201-.318 5 5 0 0 0-.11-.152 5 5 0 0 0-.234-.293 5 5 0 0 0-.127-.141 5 5 0 0 0-.13-.135 5 5 0 0 0-.136-.129 5 5 0 0 0-.91-.664 5 5 0 0 0-.334-.174 5 5 0 0 0-.17-.078 5 5 0 0 0-.894-.287 5 5 0 0 0-.184-.037 5 5 0 0 0-.185-.03 5 5 0 0 0-.563-.048A5 5 0 0 0 155 20zm2.547 10H150v100H47.547L11.182 80z"/></svg>