<svg xmlns="http://www.w3.org/2000/svg" viewBox="0 0 160 160"><path d="m 134.56641,85 c -4.12989,0 -7.95143,0.8272 -11.40235,2.509766 -3.49268,1.702928 -6.26125,4.291002 -8.13086,7.685546 -1.83436,3.29881 -2.77734,6.942178 -2.77734,10.779298 0,3.46684 0.75886,6.70675 2.26172,9.57617 l 0.004,0.0117 0.0176,0.0332 0.008,0.0137 0.006,0.0137 c 1.56476,2.87593 3.90746,5.23793 6.90039,7.08984 2.44679,1.53262 6.25279,2.95453 11.64454,4.49805 0.002,6.8e-4 0.004,9e-4 0.006,0.002 l 0.01,0.002 0.0254,0.008 0.0586,0.0176 h -0.006 c 5.23057,1.46909 8.7252,2.61329 9.98632,3.19336 h 0.002 l 0.0117,0.006 h 0.002 c 0.006,0.003 0.009,0.007 0.0156,0.01 2.19946,0.99055 3.6188,2.16505 4.38086,3.33398 l 0.002,0.002 0.004,0.008 0.008,0.01 c 0.81616,1.22785 1.20898,2.57052 1.20898,4.33399 0,1.70456 -0.41541,3.18646 -1.33008,4.67773 0,0 -0.002,0.002 -0.002,0.002 l -0.002,0.004 c -0.83503,1.36975 -2.1519,2.52543 -4.13868,3.43555 -1.97343,0.904 -4.30569,1.38476 -7.0332,1.38476 -3.06118,0 -5.73732,-0.61524 -8.10156,-1.8125 l -0.002,-0.002 -0.004,-0.002 c -2.38156,-1.23854 -4.01011,-2.76035 -5.04688,-4.53711 -1.04406,-1.86562 -1.76891,-4.35814 -2.08789,-7.54297 l -0.20898,-2.06055 -10.85547,1.11914 0.0469,1.98047 c 0.11254,4.87977 1.25027,9.36479 3.4082,13.3125 l 0.0371,0.11328 0.0664,0.0684 c 2.13372,3.75092 5.10135,6.60232 8.72071,8.55078 v 0.34961 h 0.60156 c 3.83945,1.89855 8.43202,2.82227 13.7832,2.82227 4.38275,0 8.40156,-0.94457 11.97656,-2.86719 l 0.004,-0.002 0.006,-0.006 c 3.59435,-1.95223 6.44245,-4.73452 8.4043,-8.2832 l 0.0156,-0.0332 C 159.0023,145.27012 160,141.41646 160,137.38867 c 0,-4.01817 -0.89947,-7.69187 -2.70898,-10.8457 l -0.002,-0.004 c -1.83047,-3.2208 -4.63097,-5.80055 -8.24414,-7.76562 l -0.006,-0.004 c -0.001,-8e-4 -0.004,-9e-4 -0.006,-0.002 -2.61134,-1.39953 -6.91983,-2.8195 -13.18554,-4.47461 l -0.0273,-0.01 -0.0195,-0.006 c -3.05347,-0.82467 -5.52483,-1.68573 -7.33984,-2.46679 -1.81501,-0.78108 -2.99799,-1.53919 -3.33594,-1.90235 l -0.008,-0.008 -0.006,-0.004 c -1.1622,-1.22695 -1.66211,-2.54006 -1.66211,-4.52734 0,-2.25542 0.70984,-3.92902 2.49414,-5.613281 l 0.002,-0.002 c 1.61362,-1.527847 4.54731,-2.53125 8.9375,-2.53125 4.17409,0 7.03817,1.036024 8.8418,2.792964 l 0.006,0.006 c 1.87809,1.80845 3.02533,4.45877 3.38672,8.41016 l 0.1914,2.0625 11.01758,-0.97852 -0.0684,-2.02929 v -0.002 c -0.14295,-4.34254 -1.18766,-8.330152 -3.13281,-11.824224 -1.9672,-3.533672 -4.82815,-6.227928 -8.42188,-7.996094 C 143.14826,85.870839 139.08322,85 134.56641,85 Z M 80,150 c -20.3,0 -38.8,-2.2 -51.8,-5.7 -6.5,-1.7 -11.6,-3.8 -14.7,-5.8 -3.1,-2 -3.5999999,-3.3 -3.5999999,-3.6 v -16.9 0 0 C 14.1,120.3 19.4,122.3 25.6,123.9 c 14.2,3.8 33.2,6 54.3,6 6.2,0 12.2,-0.2 18,-0.6 v -10 c -5.8,0.4 -11.8,0.6 -18,0.6 -20.3,0 -38.8,-2.2 -51.8,-5.7 -6.5,-1.7 -11.6,-3.8 -14.7,-5.8 -3.1,-2 -3.5999999,-3.3 -3.5999999,-3.6 v -16.7 0 0 C 14,90.4 19.3,92.4 25.5,94 c 14.2,3.8 33.2,6 54.3,6 6.2,0 12.2,-0.2 18,-0.6 V 90 89.4 C 92.3,89.8 86.2,90 80,90 59.7,90 41.2,87.8 28.2,84.3 21.7,82.6 16.6,80.5 13.5,78.5 10.4,76.5 9.9000001,75.2 9.9000001,74.9 v -16.8 0 0 C 14.1,60.4 19.4,62.4 25.6,64 c 14.2,3.8 33.2,6 54.3,6 21.1,0 40.1,-2.2 54.3,-6 6.2,-1.7 11.5,-3.6 15.7,-5.9 V 75 h 10 V 45 c 0,-5.3 -3.7,-9.2 -8.2,-12 -4.5,-2.8 -10.4,-5.1 -17.5,-7 C 120,22.2 101,20 79.9,20 58.8,20 39.8,22.2 25.6,26 18.5,27.9 12.6,30.1 8.1,33 3.7,35.8 1.1335007e-8,39.7 1.1335007e-8,45 v 90 C 1.1335007e-8,140.3 3.7,144.2 8.2000001,147 12.7,149.8 18.6,152.1 25.7,154 c 14.2,3.8 33.2,6 54.3,6 6.2,0 12.2,-0.2 18,-0.6 v -10 C 92.3,149.8 86.2,150 80,150 Z M 13.6,41.4 c 3.1,-2 8.2,-4 14.7,-5.8 C 41.2,32.2 59.7,30 80,30 c 20.3,0 38.8,2.2 51.8,5.7 6.5,1.7 11.6,3.8 14.7,5.8 3.1,2 3.6,3.3 3.6,3.6 0,0.3 -0.5,1.6 -3.6,3.6 -3.1,2 -8.2,4 -14.7,5.8 C 118.8,58 100.4,60.2 80,60.2 59.6,60.2 41.2,58 28.2,54.5 21.7,52.8 16.6,50.7 13.5,48.7 10.4,46.7 9.9000001,45.4 9.9000001,45.1 9.9000001,44.8 10.5,43.4 13.6,41.4 Z" /></svg>