<?xml version="1.0" encoding="utf-8"?>
<!-- Generator: Adobe Illustrator 27.7.0, SVG Export Plug-In . SVG Version: 6.00 Build 0)  -->
<svg version="1.1" id="Warstwa_1" xmlns="http://www.w3.org/2000/svg" xmlns:xlink="http://www.w3.org/1999/xlink" x="0px" y="0px"
	 viewBox="0 0 160 160" style="enable-background:new 0 0 160 160;" xml:space="preserve">
<style type="text/css">
	.st0{fill:none;}
</style>
<g>
	<path class="st0" d="M13.6,48.6c3.1,2,8.2,4,14.7,5.8C41.2,57.8,59.7,60,80,60s38.8-2.2,51.8-5.7c6.5-1.7,11.6-3.8,14.7-5.8
		c3.1-2,3.6-3.3,3.6-3.6s-0.5-1.6-3.6-3.6c-3.1-2-8.2-4-14.7-5.8c-13-3.5-31.4-5.7-51.8-5.7s-38.8,2.2-51.8,5.7
		c-6.5,1.7-11.6,3.8-14.7,5.8c-3.1,2-3.6,3.3-3.6,3.6S10.5,46.6,13.6,48.6z"/>
	<path class="st0" d="M13.6,78.6c3.1,2,8.2,4,14.7,5.8C41.2,87.8,59.7,90,80,90s38.8-2.2,51.8-5.7c6.5-1.7,11.6-3.8,14.7-5.8
		c3.1-2,3.6-3.3,3.6-3.6V58.1c-4.2,2.3-9.5,4.3-15.7,5.9c-14.2,3.8-33.2,6-54.3,6c-21.1,0-40.1-2.2-54.3-6
		c-6.2-1.7-11.5-3.6-15.7-5.9V75C10,75.2,10.5,76.6,13.6,78.6z"/>
	<path class="st0" d="M96,129.6c-5.2,0.3-10.5,0.4-16,0.4c-21.1,0-40.1-2.2-54.3-6c-6.2-1.7-11.5-3.6-15.7-5.9V135
		c0,0.2,0.5,1.6,3.6,3.6c3.1,2,8.2,4,14.7,5.8c13,3.5,31.4,5.7,51.8,5.7c6.8,0,13.4-0.3,19.7-0.7c-2.4-4.9-3.8-10.5-3.8-16.4
		C95.8,131.8,95.9,130.7,96,129.6z"/>
	<path class="st0" d="M132.9,95.8c6.2,0,12,1.5,17.1,4.2v-12c-4.2,2.3-9.5,4.3-15.7,5.9c-14.2,3.8-33.2,6-54.3,6
		c-21.1,0-40.1-2.2-54.3-6c-6.2-1.7-11.5-3.6-15.7-5.9V105c0,0.2,0.5,1.6,3.6,3.6c3.1,2,8.2,4,14.7,5.8c13,3.5,31.4,5.7,51.8,5.7
		c6.4,0,12.5-0.2,18.4-0.6C103.8,105.6,117.3,95.8,132.9,95.8z"/>
	<path d="M80,150c-20.3,0-38.8-2.2-51.8-5.7c-6.5-1.7-11.6-3.8-14.7-5.8c-3.1-2-3.6-3.3-3.6-3.6v-16.9v0v0c4.2,2.3,9.5,4.3,15.7,5.9
		c14.2,3.8,33.2,6,54.3,6c5.5,0,10.8-0.2,16-0.4c0.3-3.6,1.2-7,2.4-10.2c-5.9,0.4-12.1,0.6-18.4,0.6c-20.3,0-38.8-2.2-51.8-5.7
		c-6.5-1.7-11.6-3.8-14.7-5.8c-3.1-2-3.6-3.3-3.6-3.6V88.1v0v0c4.2,2.3,9.5,4.3,15.7,5.9c14.2,3.8,33.2,6,54.3,6
		c21.1,0,40.1-2.2,54.3-6c6.2-1.7,11.5-3.6,15.7-5.9v12c3.8,2,7.1,4.5,10,7.6V45c0-5.3-3.7-9.2-8.2-12c-4.5-2.8-10.4-5.1-17.5-7
		c-14.2-3.8-33.2-6-54.3-6c-21.1,0-40.1,2.2-54.3,6c-7.1,1.9-13,4.1-17.5,7C3.7,35.8,0,39.7,0,45v90c0,5.3,3.7,9.2,8.2,12
		c4.5,2.8,10.4,5.1,17.5,7c14.2,3.8,33.2,6,54.3,6c9.3,0,18.1-0.4,26.4-1.2c-2.7-2.8-5-6-6.7-9.5C93.4,149.7,86.8,150,80,150z
		 M13.6,41.4c3.1-2,8.2-4,14.7-5.8C41.2,32.2,59.7,30,80,30s38.8,2.2,51.8,5.7c6.5,1.7,11.6,3.8,14.7,5.8c3.1,2,3.6,3.3,3.6,3.6
		s-0.5,1.6-3.6,3.6c-3.1,2-8.2,4-14.7,5.8c-13,3.5-31.4,5.7-51.8,5.7s-38.8-2.2-51.8-5.7c-6.5-1.7-11.6-3.8-14.7-5.8
		c-3.1-2-3.6-3.3-3.6-3.6S10.5,43.4,13.6,41.4z M10,58.1L10,58.1L10,58.1c4.2,2.3,9.5,4.3,15.7,5.9c14.2,3.8,33.2,6,54.3,6
		c21.1,0,40.1-2.2,54.3-6c6.2-1.7,11.5-3.6,15.7-5.9V75c0,0.2-0.5,1.6-3.6,3.6c-3.1,2-8.2,4-14.7,5.8c-13,3.5-31.4,5.7-51.8,5.7
		s-38.8-2.2-51.8-5.7c-6.5-1.7-11.6-3.8-14.7-5.8c-3.1-2-3.6-3.3-3.6-3.6V58.1z"/>
</g>
<circle cx="133" cy="133" r="27"/>
</svg>
