<svg xmlns:svg="http://www.w3.org/2000/svg" xmlns="http://www.w3.org/2000/svg" viewBox="0 0 160 160"><path d="M79.9 10c-21.1 0-40.1 2.2-54.3 6-7.1 1.9-13 4.1-17.5 7C3.7 25.8 0 29.7 0 35v90c0 5.3 3.7 9.2 8.2 12 4.5 2.8 10.4 5.1 17.5 7 14.2 3.8 33.2 6 54.3 6 6.2 0 14.3-.2 20.1-.6v-10c-5.7.4-13.9.6-20.1.6-20.3 0-38.8-2.2-51.8-5.7-6.5-1.7-11.6-3.8-14.7-5.8-3.1-2-3.6-3.3-3.6-3.6V108c4.2 2.3 9.5 4.3 15.7 5.9 14.2 3.8 33.2 6 54.3 6 6.2 0 14.3-.2 20.1-.6v-10c-5.8.4-13.9.6-20.1.6-20.3 0-38.8-2.2-51.8-5.7-6.5-1.7-11.6-3.8-14.7-5.8-3.1-2-3.6-3.3-3.6-3.6V78.1c4.2 2.3 9.5 4.3 15.7 5.9 14.2 3.8 33.2 6 54.3 6 6.2 0 14.3-.2 20.1-.6v-10c-5.5.4-13.7.6-19.9.6-20.3 0-38.8-2.2-51.8-5.7-6.5-1.7-11.6-3.8-14.7-5.8-3.1-2-3.6-3.3-3.6-3.6V48.1c4.2 2.3 9.5 4.3 15.7 5.9 14.2 3.8 33.2 6 54.3 6 21.1 0 40.1-2.2 54.3-6 6.2-1.7 11.5-3.6 15.7-5.9V70h10V35c0-5.3-3.7-9.2-8.2-12-4.5-2.8-10.4-5.1-17.5-7-14.2-3.8-33.2-6-54.3-6zm.1 10c20.3 0 38.8 2.2 51.8 5.7 6.5 1.7 11.6 3.8 14.7 5.8 3.1 2 3.6 3.3 3.6 3.6 0 .3-.5 1.6-3.6 3.6s-8.2 4-14.7 5.8c-13 3.5-31.4 5.7-51.8 5.7S41.2 48 28.2 44.5c-6.5-1.7-11.6-3.8-14.7-5.8-3.1-2-3.6-3.3-3.6-3.6 0-.3.6-1.7 3.7-3.7s8.2-4 14.7-5.8C41.2 22.2 59.7 20 80 20zm30 60v70h10V95l10 30h10l10-30v55h10V80h-15l-10 30-10-30h-15z"/></svg>