<svg xmlns="http://www.w3.org/2000/svg" viewBox="0 0 160 160"><path d="M80 20c-21.071 0-40.128 2.249-54.313 6.031C18.596 27.922 12.71 30.17 8.22 33 3.729 35.831 0 39.705 0 45v90c0 5.295 3.728 9.169 8.219 12 4.49 2.831 10.376 5.078 17.468 6.969C39.873 157.75 58.93 160 80 160c21.071 0 40.128-2.249 54.313-6.031 7.092-1.891 12.978-4.138 17.468-6.969 4.49-2.831 8.219-6.705 8.219-12V45c0-5.295-3.728-9.169-8.219-12-4.49-2.831-10.376-5.078-17.469-6.969C120.129 22.25 101.072 20 80 20zm0 10c20.35 0 38.79 2.231 51.75 5.688 6.48 1.728 11.587 3.795 14.688 5.75C149.537 43.392 150 44.772 150 45c0 .228-.462 1.608-3.563 3.563-3.1 1.954-8.207 4.021-14.687 5.75C118.79 57.769 100.35 60 80 60s-38.79-2.231-51.75-5.688c-6.48-1.728-11.587-3.795-14.688-5.75C10.463 46.608 10 45.228 10 45c0-.228.462-1.608 3.563-3.563 3.1-1.954 8.207-4.021 14.687-5.75C41.21 32.231 59.65 30 80 30zM10 58.063c4.226 2.343 9.5 4.256 15.688 5.906C39.871 67.75 58.928 70 80 70c21.071 0 40.128-2.249 54.313-6.031 6.187-1.65 11.461-3.563 15.687-5.907V75c0 .228-.462 1.608-3.563 3.563-3.1 1.954-8.207 4.021-14.687 5.75C118.79 87.769 100.35 90 80 90s-38.79-2.231-51.75-5.688c-6.48-1.728-11.587-3.795-14.688-5.75C10.463 76.609 10 75.228 10 75V58.062zm0 30c4.226 2.343 9.5 4.256 15.688 5.906C39.871 97.75 58.928 100 80 100c21.071 0 40.128-2.249 54.313-6.031 6.187-1.65 11.461-3.563 15.687-5.906V105c0 .228-.462 1.608-3.563 3.563-3.1 1.954-8.207 4.021-14.687 5.75C118.79 117.769 100.35 120 80 120s-38.79-2.231-51.75-5.688c-6.48-1.728-11.587-3.795-14.688-5.75C10.463 106.609 10 105.228 10 105V88.062zm0 30c4.226 2.343 9.5 4.256 15.688 5.906C39.871 127.75 58.928 130 80 130c21.071 0 40.128-2.249 54.313-6.031 6.187-1.65 11.461-3.563 15.687-5.906V135c0 .228-.462 1.608-3.563 3.563-3.1 1.954-8.207 4.021-14.687 5.75C118.79 147.768 100.35 150 80 150s-38.79-2.231-51.75-5.688c-6.48-1.728-11.587-3.795-14.688-5.75C10.463 136.608 10 135.228 10 135v-16.938z"/></svg>