<svg xmlns="http://www.w3.org/2000/svg" viewBox="0 0 160 160"><path d="M105 30c-14.212 0-27.074 1.688-36.793 4.604-4.86 1.457-8.939 3.188-12.17 5.48C52.806 42.376 50 45.677 50 50v90c0 2.822 1.305 5.363 3.016 7.262 1.71 1.898 3.857 3.366 6.377 4.675 5.039 2.619 11.678 4.582 19.753 5.981 16.151 2.797 35.557 2.797 51.708 0 8.075-1.399 14.714-3.362 19.753-5.98 2.52-1.31 4.667-2.778 6.377-4.676 1.711-1.899 3.016-4.44 3.016-7.262V50c0-4.323-2.806-7.624-6.037-9.916-3.231-2.292-7.31-4.023-12.17-5.48C132.074 31.688 119.213 30 105 30zm0 10c13.402 0 25.54 1.668 33.918 4.182 4.189 1.256 7.43 2.76 9.26 4.058C150.007 49.538 150 50.18 150 50c0-.18.007.462-1.822 1.76-1.83 1.297-5.071 2.802-9.26 4.058C130.54 58.332 118.402 60 105 60c-13.402 0-25.54-1.668-33.918-4.182-4.189-1.256-7.43-2.76-9.26-4.058C59.993 50.462 60 49.82 60 50c0 .18-.007-.462 1.822-1.76 1.83-1.297 5.071-2.802 9.26-4.058C79.46 41.668 91.598 40 105 40zM60 62.26c2.418 1.2 5.158 2.222 8.207 3.136C77.926 68.312 90.787 70 105 70c14.212 0 27.074-1.688 36.793-4.604 3.049-.914 5.79-1.936 8.207-3.136v17.705c-.012.039-.085.202-.445.601-.56.621-1.762 1.563-3.559 2.496-3.593 1.868-9.455 3.722-16.85 5.002-14.79 2.562-33.503 2.562-48.292 0-7.395-1.28-13.257-3.134-16.85-5.001-1.797-.934-2.999-1.876-3.559-2.497-.368-.409-.436-.572-.445-.605zm0 29.972c4.963 2.469 11.383 4.341 19.146 5.686 16.151 2.797 35.557 2.797 51.708 0 7.763-1.345 14.183-3.217 19.146-5.686v17.733c-.012.039-.085.202-.445.601-.56.621-1.762 1.563-3.559 2.497-3.593 1.867-9.455 3.72-16.85 5.001-14.79 2.562-33.503 2.562-48.292 0-7.395-1.28-13.257-3.134-16.85-5.001-1.797-.934-2.999-1.876-3.559-2.497-.368-.409-.436-.572-.445-.605zm0 30c4.963 2.469 11.383 4.341 19.146 5.686 16.151 2.797 35.557 2.797 51.708 0 7.763-1.345 14.183-3.217 19.146-5.686v17.733c-.012.039-.085.202-.445.601-.56.621-1.762 1.563-3.559 2.497-3.593 1.867-9.455 3.72-16.85 5.001-14.79 2.562-33.503 2.562-48.292 0-7.395-1.28-13.257-3.134-16.85-5.001-1.797-.934-2.999-1.876-3.559-2.497-.368-.409-.436-.572-.445-.605zM55 0C40.788 0 27.926 1.688 18.207 4.604c-4.86 1.457-8.939 3.188-12.17 5.48C2.806 12.376 0 15.677 0 20v90c0 2.822 1.305 5.363 3.016 7.262 1.71 1.898 3.857 3.366 6.377 4.675 5.039 2.619 11.678 4.582 19.753 5.981 3.483.603 7.134 1.051 10.854 1.394v-10.064c-3.151-.306-6.239-.68-9.146-1.184-7.395-1.28-13.257-3.134-16.85-5.001-1.797-.934-2.999-1.876-3.559-2.497-.368-.409-.436-.572-.445-.605V92.232c4.963 2.469 11.383 4.341 19.146 5.686 3.483.603 7.134 1.051 10.854 1.394V89.249c-3.151-.306-6.239-.68-9.146-1.184-7.395-1.28-13.257-3.134-16.85-5.001-1.797-.934-2.999-1.876-3.559-2.497-.368-.409-.436-.572-.445-.605V62.232c4.963 2.469 11.383 4.341 19.146 5.686 3.483.603 7.134 1.051 10.854 1.394V59.248c-3.151-.306-6.239-.68-9.146-1.184-7.395-1.28-13.257-3.134-16.85-5.002-1.797-.933-2.999-1.875-3.559-2.496-.368-.409-.436-.572-.445-.605V32.26c2.418 1.2 5.158 2.222 8.207 3.136 6.89 2.068 15.38 3.502 24.791 4.17 2.019-3.304 4.754-5.865 7.254-7.638a38.08 38.08 0 0 1 3.078-1.953c-12.732-.133-24.223-1.75-32.248-4.157-4.189-1.256-7.43-2.76-9.26-4.058C9.993 20.462 10 19.82 10 20c0 .18-.007-.462 1.822-1.76 1.83-1.297 5.071-2.802 9.26-4.058C29.46 11.668 41.598 10 55 10c13.402 0 25.54 1.668 33.918 4.182 4.189 1.256 7.43 2.76 9.26 4.058C100.007 19.538 100 20.18 100 20c0-.02-.048.072-.05.072A190.61 190.61 0 0 1 105 20c1.686 0 3.35.03 5 .072V20c0-4.323-2.806-7.624-6.037-9.916-3.231-2.292-7.31-4.023-12.17-5.48C82.074 1.688 69.213 0 55 0z"/></svg>