<svg xmlns="http://www.w3.org/2000/svg" viewBox="0 0 160 160"><path d="M85 70a5 5 0 0 1-5 5 5 5 0 0 1-5-5 5 5 0 0 1 5-5 5 5 0 0 1 5 5zM10.499 35.443a5 5 0 0 0 2.047 6.553l8.787 4.767c5.827 3.069 10.518-5.58 4.768-8.79l-8.786-4.767a5 5 0 0 0-6.816 2.237zM150.792 40.1a5 5 0 0 1-2.518 6.387l-9.11 4.115c-6.036 2.637-10.085-6.33-4.117-9.114l9.11-4.115a5 5 0 0 1 6.635 2.727zm-23.776-28.279a5 5 0 0 1 .43 6.852l-6.503 7.592c-4.346 4.95-11.818-1.451-7.595-6.505l6.503-7.592a5 5 0 0 1 7.165-.347zM140.714 70c-6.714-.095-6.714 10.096 0 10h9.93c6.713.096 6.713-10.095 0-10zM38.198 9.523a5 5 0 0 0-1.311 6.74l5.468 8.368c3.67 5.469 11.906.087 8.371-5.47l-5.468-8.369a5 5 0 0 0-7.06-1.269zM9.714 70C3 69.904 3 80.096 9.714 80h9.93c6.713.096 6.713-10.095 0-10zm70.3-45.284a80.113 80.113 0 0 0-8.303.717l-.012.002C49.033 29.046 32.108 47.709 32.082 69.76v.013C32.105 83.447 38.932 96.546 50 105v50c-.105 2.832 2.166 5 5 5h50c2.742 0 4.973-2.258 5-5v-50c10.78-10.556 17.34-22.964 17.56-35.285 0-24.963-21.484-45-47.5-45-.013.003-.043 0-.046 0zM79.47.477a5 5 0 0 0-4.819 4.89l-.07 9.996c.035 6.586 9.873 6.655 10 .07l.07-9.995A5 5 0 0 0 79.471.476zM60 140h40v10H60zM80.078 34.717c20.92.009 37.483 15.783 37.483 34.998-.019 11.403-5.963 22.12-16.123 28.701-1.375.89-1.384 2.397-1.438 4.033V130H85V84.698c5.675-2.235 10.145-7.866 10.145-14.323 0-8.357-6.804-15.356-15.145-15.355-8.34 0-15.016 6.998-15.016 15.355 0 6.74 3.946 12.59 10.016 14.605V130H60v-27.83c-.013-1.648-1.023-3.184-2.389-4.106-9.806-6.618-15.506-17.132-15.529-28.293v-.005c.023-16.938 13.003-31.553 31.18-34.455 2.329-.23 4.72-.55 6.816-.594z"/></svg>