<svg xmlns="http://www.w3.org/2000/svg" viewBox="0 0 160 160"><path d="M109.984 59.547c-27.602 0-49.996 22.465-49.996 50.209C59.988 137.5 82.382 160 109.984 160c27.638 0 50.032-22.5 50.032-50.244s-22.394-50.209-50.032-50.209zm0 10.028c22.11 0 40.004 18 40.004 40.18 0 22.217-17.894 40.182-40.004 40.182-22.075 0-39.968-17.965-39.968-40.181 0-22.181 17.893-40.181 39.968-40.181zm40.004-9.567h10.028v-44.93c0-8.326-6.733-15.094-15.024-15.094H14.988C6.697-.016 0 6.752 0 15.08v79.866c0 8.327 6.697 15.059 14.988 15.059h35.008V99.94H14.988a4.99 4.99 0 0 1-4.996-4.996V15.079c0-2.8 2.232-5.032 4.996-5.032h130.004c2.764 0 4.996 2.233 4.996 5.032zM30.012 50.05h9.992V60.08c0 2.799 2.232 5.031 4.996 5.031 2.764 0 4.819-2.267 4.996-5.031V50.05h9.992c2.764 0 4.996-2.268 4.996-5.031 0-2.764-2.232-5.032-4.996-5.032h-9.992V29.961c0-2.764-2.232-5.032-4.996-5.032-2.764 0-4.996 2.268-4.996 5.032v10.027h-9.992c-2.764 0-4.996 2.268-4.996 5.032 0 2.763 2.232 4.96 4.996 5.031zm69.98 0h30.012c2.764 0 4.996-2.268 4.996-5.031 0-2.764-2.232-5.032-4.996-5.032H99.992c-2.764 0-4.996 2.268-4.996 5.032 0 2.763 2.232 5.031 4.996 5.031zM95 115h30c2.76 0 5-2.24 5-5s-2.24-5-5-5H95c-2.76 0-5 2.24-5 5s2.24 5 5 5z"/></svg>