<svg xmlns="http://www.w3.org/2000/svg" viewBox="0 0 160 160"><path d="M110 59.538c-27.614 0-50 22.49-50 50.231C60 137.511 82.386 160 110 160s50-22.49 50-50.23c0-27.742-22.386-50.232-50-50.232zm0 10.047c22.091 0 40 17.99 40 40.184s-17.909 40.185-40 40.185-40-17.991-40-40.185c0-22.193 17.909-40.184 40-40.184zm-.083 10.046c-2.78 0-5.084 2.23-5.084 5.023v26.371c0 1.432.63 2.765 1.584 3.684.083.098.16.157.25.25L122 129.863a4.978 4.978 0 0 0 7.083 0c1.967-1.976 2.006-5.181 0-7.116l-14.166-13.73V84.654c0-2.793-2.22-5.023-5-5.023zM150.003 60H160V15.065C160 6.745 153.287 0 145.004 0H14.996C6.713 0 0 6.744 0 15.065v79.87C0 103.255 6.713 110 14.996 110H50V99.957H14.996c-2.76 0-4.999-2.25-4.999-5.022v-79.87c0-2.772 2.242-5.022 4.999-5.022h130.008c2.76 0 4.999 2.25 4.999 5.022zM30 50.046h10v10.046c0 2.773 2.24 5.023 5 5.023s4.832-2.255 5-5.023V50.046h10c2.76 0 5-2.25 5-5.023C65 42.25 62.76 40 60 40H50V29.954c0-2.773-2.24-5.023-5-5.023s-5 2.25-5 5.023V40H30c-2.76 0-5 2.25-5 5.023 0 2.773 2.241 4.947 5 5.023zm70 0h30c2.76 0 5-2.25 5-5.023 0-2.773-2.24-5.023-5-5.023h-30c-2.76 0-5 2.25-5 5.023 0 2.773 2.24 5.023 5 5.023z"/></svg>