<svg xmlns="http://www.w3.org/2000/svg" viewBox="0 0 160 160"><path d="M139.672 84.676q0 .068-.034.12-.035.042-.111.077-.077.034-.214.05-.137.018-.342.018-.213 0-.35-.017-.137-.017-.214-.051-.077-.035-.11-.077-.035-.052-.035-.12v-4.503q0-.658-.103-1.06-.102-.401-.299-.692-.196-.29-.512-.444-.308-.154-.718-.154-.53 0-1.06.376t-1.11 1.102v5.375q0 .068-.035.12-.034.042-.11.077-.078.034-.214.05-.137.018-.35.018-.206 0-.343-.017-.136-.017-.222-.051-.077-.035-.11-.077-.026-.052-.026-.12V73.26q0-.068.025-.12.034-.05.111-.085.086-.034.222-.051.137-.017.342-.017.214 0 .35.017.137.017.214.051.077.034.111.085.034.052.034.12v4.606q.607-.641 1.222-.949.616-.316 1.24-.316.768 0 1.29.265.53.256.854.692.325.436.462 1.026.145.58.145 1.41v4.682zm-8.51-1.17q0 .145-.01.256-.009.102-.034.18-.017.068-.051.127-.026.052-.137.163-.103.102-.359.265-.256.153-.581.282-.316.12-.692.196-.376.077-.778.077-.829 0-1.47-.273-.64-.274-1.076-.795-.427-.53-.658-1.29-.222-.77-.222-1.77 0-1.136.273-1.947.282-.82.76-1.342.488-.521 1.137-.769.658-.256 1.419-.256.367 0 .709.068.35.068.64.18.291.11.513.256.231.145.334.248.102.102.136.162.043.06.069.145.025.077.034.18.009.102.009.256 0 .333-.077.47-.077.128-.188.128-.128 0-.299-.136-.162-.146-.419-.317-.256-.17-.624-.307-.358-.146-.854-.146-1.017 0-1.564.787-.538.777-.538 2.264 0 .743.137 1.307.145.556.418.932.274.376.667.564.401.18.914.18.487 0 .855-.155.367-.153.632-.333.273-.188.453-.333.188-.154.29-.154.06 0 .103.034t.068.12q.035.077.043.205.017.12.017.29zm-9.75 1.384l-1.026 2.828q-.051.137-.265.205-.205.077-.632.077-.222 0-.36-.026-.136-.017-.213-.068-.068-.051-.077-.137-.009-.085.043-.205l1.06-2.674q-.077-.034-.146-.111-.068-.077-.094-.163l-2.743-7.348q-.068-.18-.068-.282 0-.103.068-.163.069-.06.223-.077.153-.025.41-.025.256 0 .401.017.146.008.231.043.085.034.12.102.042.06.085.171l2.196 6.17h.026l2.119-6.204q.051-.162.12-.205.076-.051.222-.069.145-.025.418-.025.24 0 .393.025.154.018.223.077.077.06.077.163 0 .102-.052.256l-2.76 7.648zm-5.768-.214q0 .068-.035.12-.034.042-.11.077-.078.034-.214.05-.137.018-.342.018-.214 0-.35-.017-.137-.017-.214-.051-.077-.035-.111-.077-.034-.052-.034-.12v-4.503q0-.658-.103-1.06-.103-.401-.299-.692-.197-.29-.513-.444-.307-.154-.718-.154-.53 0-1.06.376-.529.376-1.11 1.102v5.375q0 .068-.034.12-.034.042-.111.077-.077.034-.214.05-.137.018-.35.018-.205 0-.342-.017-.137-.017-.222-.051-.077-.035-.111-.077-.026-.052-.026-.12v-7.69q0-.069.026-.111.025-.052.102-.086.077-.043.197-.051.12-.017.316-.017.188 0 .308.017.128.008.196.051.069.034.094.086.034.042.034.11v1.018q.65-.727 1.29-1.06.65-.342 1.308-.342.77 0 1.29.265.53.256.855.692.325.436.461 1.026.145.58.145 1.401v4.691zm-9.203.009q0 .102-.069.153-.068.052-.188.077-.12.026-.35.026-.222 0-.359-.026-.128-.025-.188-.077-.06-.05-.06-.153v-.77q-.504.539-1.128.838-.615.3-1.307.3-.607 0-1.102-.163-.487-.154-.838-.453-.342-.3-.538-.735-.188-.436-.188-.991 0-.65.265-1.128.265-.479.76-.795.496-.316 1.214-.47.717-.162 1.615-.162h1.06v-.598q0-.445-.095-.786-.094-.342-.307-.564-.205-.231-.539-.342-.333-.12-.82-.12-.521 0-.94.128-.41.12-.726.274-.308.145-.522.273-.205.12-.307.12-.069 0-.12-.034-.051-.035-.094-.103-.034-.068-.051-.17-.017-.112-.017-.24 0-.214.025-.333.035-.128.146-.24.12-.11.401-.256.282-.154.65-.273.367-.129.803-.205.436-.086.88-.086.829 0 1.41.188t.94.556q.359.358.521.897.163.538.163 1.256v5.187zm-1.402-3.512h-1.205q-.58 0-1.008.102-.427.094-.71.29-.281.189-.418.462-.128.265-.128.615 0 .599.376.957.385.35 1.068.35.556 0 1.026-.281.478-.282 1-.863v-1.632zm-6.998 3.503q0 .068-.034.12-.026.051-.103.085-.068.026-.188.043-.12.017-.29.017-.18 0-.3-.017-.119-.017-.196-.043-.077-.034-.11-.085-.035-.052-.035-.12V83.66q-.607.658-1.265 1.026-.65.367-1.427.367-.846 0-1.444-.325-.598-.333-.974-.888-.367-.564-.538-1.316-.171-.76-.171-1.598 0-.991.213-1.786.214-.803.633-1.367.418-.564 1.034-.863.623-.308 1.435-.308.675 0 1.23.3.565.29 1.112.862v-4.469q0-.06.025-.11.034-.06.12-.086.085-.034.213-.052.137-.025.342-.025.214 0 .35.025.137.018.214.052.077.025.111.085.043.051.043.111v11.382zm-1.418-5.409q-.573-.71-1.111-1.077-.53-.375-1.111-.375-.538 0-.914.256t-.616.675q-.23.419-.341.948-.103.53-.103 1.077 0 .581.085 1.137.094.555.317.99.222.428.59.693.367.256.922.256.282 0 .538-.077.265-.077.539-.256.273-.18.572-.461.3-.291.633-.71v-3.076zm-10.784 5.4q0 .069-.034.12-.035.051-.12.086-.077.034-.222.05-.145.018-.368.018-.23 0-.384-.017-.145-.009-.248-.034-.102-.034-.17-.086-.06-.06-.112-.136l-3.247-4.256v4.264q0 .068-.034.12-.034.042-.111.077-.077.034-.214.05-.137.018-.35.018-.205 0-.342-.017-.137-.017-.222-.051-.077-.035-.111-.077-.026-.052-.026-.12V73.26q0-.068.026-.12.034-.05.11-.085.086-.034.223-.051.137-.017.342-.017.213 0 .35.017.137.017.214.051.077.034.11.085.035.052.035.12v6.956l2.905-3.196q.069-.086.146-.137.076-.06.179-.094.111-.043.256-.051.146-.017.35-.017.214 0 .36.017.145.008.23.043.094.025.128.076.043.043.043.12 0 .103-.06.205-.05.103-.179.24l-2.786 2.785 3.128 4.059q.11.145.154.24.05.085.05.162zm-8.895.018q0 .102-.069.153-.068.052-.188.077-.12.026-.35.026-.222 0-.359-.026-.128-.025-.188-.077-.06-.05-.06-.153v-.77q-.504.539-1.128.838-.615.3-1.307.3-.607 0-1.102-.163-.487-.154-.838-.453-.342-.3-.538-.735-.188-.436-.188-.991 0-.65.265-1.128.265-.479.76-.795.496-.316 1.214-.47.717-.162 1.615-.162h1.06v-.598q0-.445-.095-.786-.094-.342-.307-.564-.205-.231-.539-.342-.333-.12-.82-.12-.521 0-.94.128-.41.12-.726.274-.308.145-.522.273-.205.12-.307.12-.069 0-.12-.034-.051-.034-.094-.103-.034-.068-.051-.17-.017-.112-.017-.24 0-.214.025-.333.035-.128.146-.24.12-.11.401-.256.282-.154.65-.273.367-.128.803-.205.436-.086.88-.086.829 0 1.41.188t.94.556q.359.358.521.897.163.538.163 1.256v5.187zm-1.402-3.512h-1.205q-.58 0-1.008.102-.427.094-.71.29-.281.189-.418.462-.128.265-.128.615 0 .599.376.957.384.35 1.068.35.555 0 1.025-.281.479-.282 1-.863v-1.632zm-5.674-3.683q0 .188-.008.316-.009.128-.034.205-.026.068-.069.111-.034.034-.102.034-.069 0-.171-.034-.094-.043-.222-.077-.12-.042-.274-.077-.154-.034-.333-.034-.214 0-.419.086-.205.085-.435.282-.223.196-.47.52-.248.326-.547.796v5.058q0 .068-.034.12-.035.042-.112.077-.076.034-.213.05-.137.018-.35.018-.206 0-.342-.017-.137-.017-.222-.051-.077-.035-.112-.077-.025-.052-.025-.12v-7.69q0-.069.025-.111.026-.052.103-.086.077-.043.197-.051.12-.017.316-.017.188 0 .307.017.128.008.197.051.068.034.094.086.034.042.034.11v1.12q.316-.461.59-.752.282-.29.53-.453.247-.17.486-.23.248-.069.496-.069.111 0 .248.017.145.009.299.043.154.034.273.077.129.043.18.085.051.043.068.086.017.034.026.094.017.06.017.18.008.11.008.307zm-6.58 4.23q0 .52-.136.965-.128.436-.367.786-.24.35-.581.615-.334.265-.76.445-.42.18-.907.273-.478.086-1.102.086h-2.888q-.197 0-.376-.128-.171-.137-.171-.47V74.43q0-.334.17-.462.18-.136.377-.136h2.512q.991 0 1.624.188.632.188 1.05.546.428.36.641.88.214.522.214 1.18 0 .393-.094.752t-.282.666q-.18.3-.461.539-.274.239-.633.393.453.085.846.316.393.222.684.572.299.35.47.82.17.47.17 1.035zm-2.212-4.948q0-.402-.111-.726-.112-.325-.35-.547-.24-.23-.625-.35-.384-.12-1.016-.12h-1.521v3.58h1.674q.573 0 .923-.145.35-.154.581-.402.231-.256.334-.59.11-.341.11-.7zm.666 5.033q0-.496-.162-.872-.154-.376-.462-.632-.299-.256-.76-.384-.453-.137-1.145-.137h-1.76v3.896h2.136q.504 0 .88-.12.376-.119.658-.35.29-.239.453-.59.162-.35.162-.811zm-19.99-9.31a2.247 2.247 0 0 0-2.027 3.217l-1.498 1.498a2.234 2.234 0 0 0-2.449.342l-3.048-1.69a2.247 2.247 0 1 0-4.462-.37c0 .683.31 1.292.791 1.704l-2.229 5.792c-.02 0-.04-.005-.06-.005a2.247 2.247 0 1 0 2.247 2.247c0-.684-.31-1.292-.791-1.704l2.228-5.792c.02 0 .04.005.061.005.57 0 1.088-.216 1.485-.567l3.043 1.69a2.247 2.247 0 1 0 4.242-.595l1.498-1.497a2.247 2.247 0 1 0 .97-4.275zM22.266 68a.75.75 0 0 0-.52.22l-1.498 1.498a.75.75 0 1 0 1.058 1.059l.22-.22v19.168a.75.75 0 0 0 .75.75h19.169l-.22.22a.75.75 0 1 0 1.058 1.058l1.498-1.499a.75.75 0 0 0 0-1.058l-1.498-1.498a.75.75 0 0 0-.539-.23.75.75 0 0 0-.52 1.288l.22.22h-18.42v-18.42l.22.22a.75.75 0 1 0 1.059-1.058l-1.498-1.498a.75.75 0 0 0-.539-.22z"/></svg>