<svg xmlns="http://www.w3.org/2000/svg" viewBox="0 0 160 160"><path d="M125.646 76.864a4.673 4.673 0 0 0 0 6.62l17.27 16.299H93.289c-2.593 0-5.288 2.416-5.288 5s2.4 5 4.992 5h49.925l-17.269 17.226a4.673 4.673 0 0 0 0 6.62 4.68 4.68 0 0 0 3.318 1.371 4.68 4.68 0 0 0 3.317-1.372L160 105.246l-27.717-28.382a4.702 4.702 0 0 0-6.637 0zM19.03 0c-5.107-.017-9.25 4.892-9.25 10v20h4.75s-.118 8.277-1.656 13.875C10.208 53.581 0 61.122 0 71.188v79.562A9.251 9.251 0 0 0 9.25 160H70c5.108 0 10-4.142 10-9.25V71.187C80 61 68.695 53.558 65.531 43.876 63.711 38.305 62.625 30 62.625 30H70V10C70 4.892 64.357-.06 59.25 0H19.031zM80 0v10h20.031v10H80v10h14.125s1.086 8.305 2.906 13.875c2.488 7.614 9.047 13.859 11.75 21.125h9.938c-2.901-7.268-9.95-13.51-12.438-21.125-1.82-5.57-2.906-13.875-2.906-13.875H110V10c0-5.108-4.861-10.06-9.969-10H80zM20 10h40v10H20V10zm3.781 20h29.594s1.086 8.305 2.906 13.875C59.446 53.558 69.874 61.001 70 71.188v79.562H10V71.187c0-10.065 9.458-17.606 12.125-27.312C23.663 38.277 23.781 30 23.781 30zM110 145v5H90v10h20.75a9.251 9.251 0 0 0 9.25-9.25V145h-10z"/></svg>