<svg xmlns="http://www.w3.org/2000/svg" viewBox="0 0 160 160"><path d="M37.999 76.864a4.668 4.668 0 0 0 0 6.62L55 100.42H5.296c-2.596 0-5.296 2.415-5.296 5 0 2.584 2.403 5 5 5h50l-16.999 16.589a4.668 4.668 0 0 0 0 6.62A4.69 4.69 0 0 0 41.324 135a4.69 4.69 0 0 0 3.323-1.372l27.758-28.382-27.758-28.382a4.714 4.714 0 0 0-6.648 0zM59.03 0c-5.107-.017-9.25 4.892-9.25 10v20h4.75s-.118 8.277-1.656 13.875C50.782 51.492 44.055 57.784 41.25 65h9.938c2.604-7.22 8.843-13.505 10.937-21.125C63.663 38.277 63.781 30 63.781 30h29.594s1.086 8.305 2.906 13.875c3.165 9.683 13.593 17.126 13.719 27.313V150H50v-5H40v5.75a9.251 9.251 0 0 0 9.25 9.25H110c5.108 0 10-4.142 10-9.25V71.187c0-10.187-11.305-17.629-14.469-27.312-1.82-5.57-2.906-13.875-2.906-13.875H110V10c0-5.108-5.643-10.06-10.75-10zM120 0v10h20.031v10H120v10h14.125s1.086 8.305 2.906 13.875C140.196 53.558 150 61 150 71.188V150h-20v10h20.75a9.251 9.251 0 0 0 9.25-9.25V71.187c0-10.187-10.555-17.629-13.719-27.312-1.82-5.57-2.906-13.875-2.906-13.875H150V10c0-5.108-4.861-10.06-9.969-10zM60 10h40v10H60z"/></svg>