<svg xmlns="http://www.w3.org/2000/svg" viewBox="0 0 160 160"><path d="M10 150.749V71.19c0-10.065 9.466-17.604 12.133-27.31C23.672 38.282 23.796 30 23.796 30h29.579s1.09 8.31 2.91 13.88C59.449 53.563 69.874 61.004 70 71.19v79.559H37.914zM20 20V10h40v10zM19.038.003c-5.108-.017-9.25 4.892-9.25 10v20h4.759s-.124 8.281-1.663 13.879C10.217 53.588 0 61.127 0 71.192v79.559A9.25 9.25 0 0 0 9.249 160h60.749C75.105 160 80 155.859 80 150.751v-79.56c0-10.187-11.304-17.627-14.469-27.31C63.711 38.31 62.622 30 62.622 30H70V10C70 4.892 64.37-.06 59.262 0zM134.128 30s1.09 8.31 2.91 13.88C140.202 53.563 150 61.003 150 71.19V150h-20v10h20.751a9.25 9.25 0 0 0 9.249-9.25V71.192c0-10.187-10.551-17.627-13.715-27.31-1.82-5.57-2.91-13.881-2.91-13.881H150V10c0-5.108-4.877-10.06-9.984-10H120v10h20.016v10H120v10zm-40 0s1.09 8.31 2.91 13.88C100.202 53.563 110 61.003 110 71.19V150H90v10h20.751a9.25 9.25 0 0 0 9.249-9.249v-79.56c0-10.187-10.551-17.627-13.715-27.31-1.82-5.57-2.91-13.881-2.91-13.881H110V10c0-5.108-4.877-10.06-9.984-10H80v10h20.016v10H80v10z"/></svg>