<svg xmlns="http://www.w3.org/2000/svg" viewBox="0 0 160 160"><path d="M10 10.01c-3.047 0-5.224 1.38-6.906 3.062C1.41 14.754 0 16.962 0 20.009v105c0 3.048 1.411 5.224 3.094 6.907 1.682 1.682 3.859 3.094 6.906 3.093h80v20a5 5 0 0 0 8.531 3.532L110 147.07l11.469 11.47a5 5 0 0 0 8.531-3.532v-20h20c3.047 0 5.224-1.411 6.906-3.093 1.682-1.683 3.094-3.86 3.094-6.907v-105c0-3.047-1.411-5.255-3.094-6.937-1.682-1.683-3.859-3.063-6.906-3.063H10zm.344 10h139.312c.051.019.1.037.188.124.114.114.147.262.156.281v104.157c-.009.02-.042.167-.156.281-.114.114-.23.147-.25.156H130v-7.687c6.13-5.502 10-13.47 10-22.313 0-16.51-13.49-30-30-30-16.51 0-30 13.49-30 30 0 8.842 3.87 16.811 10 22.313v7.687H10.407c-.02-.01-.137-.042-.25-.156-.115-.114-.148-.261-.157-.281V20.415c.01-.02.042-.167.156-.28.088-.088.137-.106.188-.126zm14.156 10c-2.618.13-4.88 2.631-4.75 5.25.13 2.617 2.632 4.88 5.25 4.75h110c2.642.037 5.063-2.359 5.063-5 0-2.643-2.421-5.038-5.063-5H25a5.211 5.211 0 0 0-.5 0zm0 30c-2.618.13-4.88 2.631-4.75 5.25.13 2.617 2.632 4.88 5.25 4.75h50c2.642.037 5.063-2.359 5.063-5 0-2.643-2.421-5.038-5.063-5H25a5.211 5.211 0 0 0-.5 0zm85.5 15c11.105 0 20 8.894 20 20a19.874 19.874 0 0 1-7.438 15.562 5 5 0 0 0-.03.03 5 5 0 0 0-1.063.813 5 5 0 0 0-.094.094c-3.22 2.212-7.145 3.5-11.375 3.5a19.992 19.992 0 0 1-11.375-3.531c-.024-.017-.038-.046-.062-.062a5 5 0 0 0-1.22-.906 5 5 0 0 0-.093-.062c-4.44-3.66-7.25-9.192-7.25-15.439 0-11.105 8.895-20 20-20zm-10 48.28a29.707 29.707 0 0 0 10 1.72c3.506 0 6.866-.603 10-1.72v19.626l-6.469-6.47a5 5 0 0 0-7.062 0l-6.469 6.47V123.29z"/></svg>