<svg xmlns="http://www.w3.org/2000/svg" viewBox="0 0 160 160"><path d="M33.062.108C25.054.752 17.481 5.22 13.25 12.691 7.01 23.708 10.21 37.486 20.062 44.85l-.03 5.214H5c-2.618 0-5 2.38-5 4.995v19.982c0 2.616 2.382 4.996 5 4.996v4.996c0 2.615 2.382 4.995 5 4.995h50c2.618 0 5-2.38 5-4.995v-4.996c2.618 0 5-2.38 5-4.996V55.06c0-2.615-2.382-4.995-5-4.995H50.03l.063-5.433c2.665-2.042 5.012-4.433 6.656-7.337 6.77-11.955 2.528-27.269-9.438-34.032A24.836 24.836 0 0 0 33.062.108zm.75 9.929a14.95 14.95 0 0 1 8.563 1.904c7.262 4.105 9.796 13.164 5.687 20.42a14.88 14.88 0 0 1-5.5 5.557c-1.486.872-2.458 2.556-2.468 4.278L40 55.028c-.016 2.626 2.372 5.027 5 5.027h15v9.99H10v-9.99h15c2.607 0 4.983-2.36 5-4.965l.062-12.738c.01-1.765-.995-3.5-2.53-4.371-7.162-4.036-9.703-13.102-5.595-20.357 2.568-4.535 7.084-7.215 11.875-7.587zM70 20.028h79.656c.051.02.1.038.188.125.114.114.147.261.156.281v104.157c-.009.02-.042.166-.156.28-.114.115-.23.148-.25.157H130v-7.687c6.13-5.502 10-13.47 10-22.313 0-16.51-13.49-30-30-30-16.51 0-30 13.49-30 30 0 8.842 3.87 16.811 10 22.313v7.687H10.407c-.02-.01-.137-.042-.25-.156-.115-.115-.148-.262-.157-.281v-24.563H0v25c0 3.047 1.411 5.224 3.094 6.906 1.682 1.683 3.859 3.095 6.906 3.094h80v20c.004 1.96 1.276 3.86 3.088 4.61 1.812.75 4.055.306 5.443-1.079L110 147.091l11.469 11.468c1.388 1.385 3.631 1.83 5.443 1.08 1.812-.75 3.084-2.65 3.088-4.611v-20h20c3.047 0 5.224-1.411 6.906-3.094 1.682-1.682 3.094-3.859 3.094-6.906v-105c0-3.047-1.411-5.255-3.094-6.937-1.682-1.683-3.859-3.063-6.906-3.063H70zm14.5 10c-2.618.13-4.88 2.632-4.75 5.25.13 2.618 2.632 4.881 5.25 4.75h50c2.642.037 5.063-2.358 5.063-5s-2.421-5.037-5.063-5H85a5.211 5.211 0 0 0-.5 0zm25.5 45c11.105 0 20 8.895 20 20a19.874 19.874 0 0 1-7.438 15.563l-.03.03a5.009 5.009 0 0 0-1.157.907c-3.22 2.212-7.145 3.5-11.375 3.5a19.992 19.992 0 0 1-11.375-3.531c-.024-.017-.038-.046-.062-.062a5.012 5.012 0 0 0-1.22-.906 3.852 3.852 0 0 0-.093-.062c-4.44-3.66-7.25-9.192-7.25-15.439 0-11.105 8.895-20 20-20zm-10 48.281a29.707 29.707 0 0 0 10 1.719c3.506 0 6.866-.602 10-1.719v19.625l-6.469-6.468c-1.85-1.846-5.212-1.846-7.062 0L100 142.934z"/></svg>