<svg xmlns="http://www.w3.org/2000/svg" viewBox="0 0 160 160"><path d="M110.256 20c-3.047 0-5.224 1.38-6.906 3.063-1.682 1.682-3.094 3.89-3.094 6.937v40c0 3.047 1.412 5.224 3.094 6.906C105.032 78.59 107.21 80 110.256 80h40c3.048 0 5.224-1.411 6.907-3.094 1.682-1.682 3.093-3.859 3.093-6.906V30c0-3.047-1.411-5.255-3.093-6.938-1.683-1.682-3.86-3.062-6.907-3.062h-40zM4.756 30a5.006 5.006 0 1 0 .5 10h80a5 5 0 1 0 0-10h-80a5 5 0 0 0-.5 0zM110.6 30h39.313c.05.02.1.038.187.125.114.114.147.261.156.281v39.157c-.009.02-.042.167-.156.28-.114.115-.23.148-.25.157h-39.187c-.02-.009-.136-.042-.25-.156-.115-.114-.147-.262-.157-.281V30.406c.01-.02.042-.167.157-.281.087-.087.136-.106.187-.125zm29.438 4.938a5 5 0 0 0-4.25 2.812l-6.907 13.781-5.093-5.093a5.005 5.005 0 1 0-7.063 7.093l10 10a5 5 0 0 0 8-1.312l10-20a5 5 0 0 0-4.687-7.282zM4.756 50a5.006 5.006 0 1 0 .5 10h40a5 5 0 1 0 0-10h-40a5 5 0 0 0-.5 0zm105.5 50c-3.047 0-5.224 1.38-6.906 3.063-1.682 1.682-3.094 3.89-3.094 6.937v40c0 3.047 1.412 5.224 3.094 6.906 1.682 1.683 3.859 3.094 6.906 3.094h40c3.048 0 5.224-1.411 6.907-3.094 1.682-1.682 3.093-3.859 3.093-6.906v-40c0-3.047-1.411-5.255-3.093-6.938-1.683-1.682-3.86-3.062-6.907-3.062h-40zm-105.5 10a5.006 5.006 0 1 0 .5 10h80a5 5 0 1 0 0-10h-80a5 5 0 0 0-.5 0zm105.844 0h39.313c.05.02.1.038.187.125.114.114.147.261.156.281v39.156c-.009.02-.042.167-.156.282-.114.114-.23.147-.25.156h-39.187c-.02-.01-.136-.042-.25-.156-.115-.115-.147-.262-.157-.282v-39.156c.01-.02.042-.167.157-.281.087-.087.136-.106.187-.125zM4.756 130a5.006 5.006 0 1 0 .5 10h40a5 5 0 1 0 0-10h-40a5 5 0 0 0-.5 0z"/></svg>