<svg xmlns="http://www.w3.org/2000/svg" viewBox="0 0 160 160"><path d="M120.57 159.985c25.011-.66 39.43-24.533 39.43-45.993-.005-23.071-18.1-41.502-40.723-43.933-6.976-18.496-21.973-30.21-44.623-30.21-28.823 0-48.99 21.381-50.723 49.278C10.032 93.567 0 107.73 0 123.773 0 143.41 15.452 160 33.738 160h4.447zm-82.385-9.98h-4.447c-12.866 0-23.891-12.012-23.891-26.232 0-12.567 8.819-23.904 19.881-25.803l4.54-.782-.405-4.583-.038-.057c.003-24.344 16.04-42.705 40.829-42.705 19.869 0 31.031 9.78 36.196 26.463l1.068 3.44 3.607.078c18.58.39 34.873 15.452 34.873 34.168 0 17.032-11.297 36.013-28.405 36.013h-1.423z"/></svg>