<svg xmlns="http://www.w3.org/2000/svg" viewBox="0 0 160 160"><path d="M125.488 81.448a4.668 4.668 0 0 0 0 6.62l17 16.936H89.553c-2.597 0-4.552 2.412-4.552 4.996 0 2.584 1.955 5 4.552 5h53.233l-17.295 17.226a4.668 4.668 0 0 0 0 6.62 4.69 4.69 0 0 0 3.323 1.371 4.69 4.69 0 0 0 3.322-1.371L160 110l-27.865-28.552a4.714 4.714 0 0 0-6.647 0zm8.404 67.683l-96.87-.11c-14.119-.031-26.217-13.192-26.217-28.811 0-13.802 9.678-26.254 21.817-28.34l4.981-.86-.445-5.033-.04-.063c.002-26.737 17.6-46.904 44.801-46.904 21.803 0 34.052 10.742 39.72 29.065l1.171 3.779 3.958.085c5.097.107 8.864.77 14.58 3.154l14.61.406c-6.212-12.724-16.25-14.054-25.073-14.286-7.655-20.315-24.111-33.181-48.966-33.181-31.628 0-53.757 23.485-55.66 54.125C11.01 87.034 0 102.59 0 120.21c0 21.57 16.956 39.813 37.021 39.79l95-.109c3.03 0 .283.093.283.093 5.19-.578 20.132-.32 27.696-14.977l-13.211.576c-3.92 2.197-8.21 3.52-12.897 3.548z"/></svg>