<!-- Generator: Adobe Illustrator 19.1.0, SVG Export Plug-In . SVG Version: 6.00 Build 0)  -->
<svg version="1.1" id="Layer_1" xmlns="http://www.w3.org/2000/svg" xmlns:xlink="http://www.w3.org/1999/xlink" x="0px" y="0px"
	 viewBox="0 0 39.6 33.7" style="enable-background:new 0 0 39.6 33.7;" xml:space="preserve">
<style type="text/css">
	.st0{fill:none;stroke:#00A5BA;stroke-width:0.75;stroke-miterlimit:10;}
	.st1{fill:#00A5BA;}
</style>
<g>
	<path class="st0" d="M22.8,33.3c-7.1,0-13.3-4.5-15.6-11.2c0-0.1,0-0.1,0-0.2c0,0,0.1-0.1,0.1-0.1c2.5-0.6,4.3-2.9,4.3-5.5
		c0-0.9-0.2-1.8-0.6-2.6c0-0.1,0-0.1,0-0.2s0.1-0.1,0.1-0.1C13.9,13.2,16,10.8,16,8c0-0.2,0-0.5-0.1-0.8c0-0.1,0-0.1,0-0.1
		c0,0,0.1-0.1,0.1-0.1c2.9-0.2,5.1-2.7,5.1-5.6c0-0.3,0-0.5-0.1-0.8c0-0.1,0-0.1,0-0.1c0,0,0.1-0.1,0.1-0.1c0.5,0,0.9-0.1,1.4-0.1
		c4.4,0,8.5,1.7,11.7,4.8c3.1,3.1,4.8,7.3,4.8,11.7s-1.7,8.5-4.8,11.7C31.3,31.6,27.2,33.3,22.8,33.3z M7.6,22.3
		C9.9,28.7,16,33,22.8,33c8.9,0,16.1-7.2,16.1-16.1S31.7,0.8,22.8,0.8c-0.4,0-0.8,0-1.2,0c0,0.2,0,0.4,0,0.6c0,1.5-0.6,3-1.6,4.1
		c-1,1.1-2.3,1.7-3.7,1.9c0,0.2,0,0.4,0,0.6c0,2.9-2.1,5.4-5,5.9c0.4,0.8,0.6,1.7,0.6,2.5c0,1.4-0.5,2.7-1.3,3.7
		C9.9,21.2,8.8,21.9,7.6,22.3z"/>
	<path class="st1" d="M21.2,25.2c0,0.9-0.7,1.7-1.6,1.6c-3.3-0.7-0.9-1.1-0.8-2c0.2-1.9,0-1.5,0.8-1.5
		C20.5,23.3,21.2,24.3,21.2,25.2z"/>
	<path class="st1" d="M29.9,12.5c-0.3,0.9-0.7,1.3-1.8,1.8c-0.9,0.4-1.7-0.8-1.8-1.8c-0.1-1.1,0.8-1.8,1.8-1.8
		C29.1,10.7,30.6,10.1,29.9,12.5z"/>
	<path class="st1" d="M31,21.6c0,1,0.7,1.8-1.8,1.8c-1,0-1.8-0.8-1.8-1.8s0.8-2.2,1.8-2.2S31,20.6,31,21.6z"/>
	<path class="st1" d="M20.5,16.1c0,0.5-0.4,1.4-0.8,1.4c-0.5,0-0.8-0.9-0.8-1.4s0.4-0.8,0.8-0.8C20.1,15.3,20.5,15.6,20.5,16.1z"/>
	<path class="st0" d="M4.4,17.4c0,1.1-1.3,1.1-2,2c-2.4,3-2-0.9-2-2c0-1.1,1-1.7,2-2C3.5,15.1,4.4,16.3,4.4,17.4z"/>
	<path class="st0" d="M5.1,5.9c-0.2,0.5-1,0.3-1.6,0.5c-3,0.8-1-0.9-0.8-1.5c0.2-0.5,0.9-0.6,1.6-0.5C5,4.6,5.3,5.4,5.1,5.9z"/>
	<path class="st0" d="M11.6,6.3c-1.2,0-0.9,0.4-1.7,0.1c-3.7-1.4,0.2-2.6,1-3s0.9,0.2,1.4,0.9C12.9,5,12.4,6.3,11.6,6.3z"/>
</g>
</svg>
