<svg xmlns="http://www.w3.org/2000/svg" viewBox="0 0 160 160"><path d="M87.956 98.105l-12.008-4.373-.01-.01c-.848-.513-1.696-1.019-2.541-1.534-.493-.3-.98-.618-1.463-.935a32.948 32.948 0 0 1-.404-.288c4.905-3.777 8.18-10.535 8.18-18.267 0-11.864-7.703-21.48-17.204-21.48-9.502 0-17.2 9.616-17.2 21.48 0 7.69 3.245 14.42 8.111 18.216-.771.912-1.55 1.639-2.327 2.26a1.906 1.906 0 0 0-.79.109l-13.245 4.821c-2.743.999-4.894 4.098-4.894 7.056v1.402c0 3.227 2.59 5.852 5.768 5.852h49.147c3.182 0 5.769-2.625 5.769-5.852v-1.402c.006-2.958-2.145-6.057-4.889-7.056zm47.326-87.21c2.43 0 4.482 2.08 4.482 4.545v27.224c0 2.603-1.604 4.546-3.039 4.546-13.522 0-25.642 11.816-25.642 26.338v70.993c0 2.465-2.052 4.546-4.482 4.546H15.229c-2.43 0-4.482-2.081-4.482-4.546V15.443c0-2.465 2.052-4.546 4.482-4.546l120.053-.002m0-10.894H15.226C6.85 0 0 6.95 0 15.443v129.098c0 8.493 6.85 15.44 15.226 15.44h91.372c8.374 0 15.225-6.95 15.225-15.44V73.548c0-8.493 7.322-15.444 14.9-15.444 7.58 0 13.781-6.947 13.781-15.44V15.44C150.507 6.95 143.656 0 135.282 0zM137.865 160c-2.964 0-5.372-2.44-5.372-5.449v-28.87c0-3.005 2.408-5.448 5.372-5.448 2.965 0 5.372 2.44 5.372 5.449v28.87c0 3.009-2.404 5.448-5.372 5.448zm0-50.239c-2.964 0-5.372-2.44-5.372-5.445V75.449c0-3.006 2.408-5.448 5.372-5.448 2.965 0 5.372 2.439 5.372 5.448v28.867c0 3.006-2.404 5.445-5.372 5.445z"/></svg>