<svg xmlns="http://www.w3.org/2000/svg" viewBox="0 0 160 160"><path d="M37.497-.01C16.846-.01.005 16.858.005 37.51.005 58.16 16.845 75 37.497 75c20.652 0 37.492-16.84 37.492-37.492C74.99 16.858 58.15-.01 37.497-.01zm0 10.002c15.247 0 27.49 12.27 27.49 27.517A27.409 27.409 0 0 1 37.498 65a27.409 27.409 0 0 1-27.49-27.49c0-15.247 12.243-27.517 27.49-27.517zm-1.985 11.446c-1.035 2.265-2.503 4.207-4.333 5.75-1.83 1.543-4.356 2.817-7.667 3.917v8.25c2.244-.706 4.095-1.479 5.583-2.25a29.781 29.781 0 0 0 4.667-3v17.333h9.833v-30zm15.579 58.375c-2.97 0-5.305 1.553-6.813 3.187-1.507 1.634-2.443 3.49-3 5.469-.94 3.343-.187 5.58-.187 6.344.004.443.067.885.187 1.312.774 2.818 2.339 3.583 3.563 4.344 1.224.76 2.526 1.34 4.031 1.937 3.01 1.194 6.82 2.359 11.188 3.625 6.646 1.927 14.7 4.212 22.437 6.5-1.688 2.156-3.755 4.74-5.156 6.344-2.708 3.099-4.954 5.035-8.125 6.313-4.597 1.852-16.605 1.46-27.313-.313-4.434-.734-9.031-2.594-13.843-4.656-2.309-.99-6.31-4.015-10.188-6.656-1.938-1.321-3.872-2.585-6.125-3.438-2.252-.853-5.558-1.389-8.437.531C.006 112.86.222 115.24.06 117.313c-.163 2.072.011 4.276.468 6.656.915 4.759 2.902 10.165 6.97 14.344 5.015 5.153 11.571 10.43 18.343 14.53 6.772 4.101 13.597 7.235 20.437 6.97 4.156-.162 12.899.493 20.157 0 10.016-.681 33.943-5.296 51.031-10.188 2.072-.593 3.627-2.657 3.625-4.812v-45a5.037 5.037 0 0 0-.813-2.72c-6.274-9.65-15.03-15.835-23.375-17.218a5.003 5.003 0 0 0-.812-.062zm.531 10h43.844c4.078.754 10.804 4.929 15.625 11.718v39.407c-16.129 4.317-38.057 8.38-45.344 8.875-6.044.41-14.35-.214-19.844 0-2.997.116-8.98-1.944-14.906-5.532s-11.956-8.493-16.312-12.968c-2.027-2.082-3.68-5.924-4.313-9.22-.114-.591-.07-.904-.125-1.437.693.4 1.159.583 2 1.157 3.387 2.307 7.333 5.646 11.875 7.593 4.877 2.09 10.192 4.357 16.156 5.344 11.328 1.875 23.57 3.362 32.688-.312 5.002-2.016 8.69-5.288 11.906-8.97 3.217-3.68 6.12-7.822 10.031-12.437a5.09 5.09 0 0 0 .977-4.59 5.09 5.09 0 0 0-3.258-3.378c-10.211-3.282-21.27-6.158-29.781-8.625-4.255-1.234-7.893-2.397-10.281-3.344-.784-.31-1.138-.52-1.594-.75-.027-.24-.05-1.231-.063-1.188a4.18 4.18 0 0 1 .72-1.343zm-1.437 2.125c.007.006.024.054.031.062-.014-.009-.08-.023-.094-.031-.176-.11-.113-.198.063-.031zM135 80c-2.618 0-5 2.382-5 5v70c0 2.618 2.382 5 5 5h20c2.618 0 5-2.382 5-5V85c0-2.618-2.382-5-5-5zm5 10h10v60h-10z"/></svg>