<svg xmlns="http://www.w3.org/2000/svg" viewBox="0 0 160 160"><path d="M147.034 100H155c2.618 0 5-2.382 5-5V35c0-2.618-2.382-5-5-5H5c-2.618 0-5 2.382-5 5v60c0 2.618 2.382 5 5 5h37.203l5-10H10V40h140v50h-7.424zM95 70c-24.794 0-45 20.206-45 45s20.206 45 45 45 45-20.206 45-45-20.206-45-45-45zm0 10c19.39 0 35 15.61 35 35s-15.61 35-35 35-35-15.61-35-35 15.61-35 35-35zm.009 9.938c-2.618.032-4.97 2.444-4.938 5.062v14.929h-15.07c-2.642-.038-5.072 2.358-5.072 5s2.43 5.037 5.071 5h15.072V135c-.038 2.642 2.358 5.071 5 5.071 2.641 0 5.037-2.43 5-5.071v-15.071H115c2.642.037 5.072-2.358 5.072-5s-2.43-5.038-5.072-5h-14.928V95c.033-2.66-2.403-5.096-5.063-5.063z"/></svg>