<svg xmlns="http://www.w3.org/2000/svg" viewBox="0 0 160 160"><path d="M115 70c-24.794 0-45 20.206-45 45s20.206 45 45 45 45-20.206 45-45-20.206-45-45-45zm0 10c19.39 0 35 15.61 35 35s-15.61 35-35 35-35-15.61-35-35 15.61-35 35-35zm.009 9.938c-2.618.032-4.97 2.444-4.938 5.062v14.929h-15.07c-2.642-.038-5.072 2.358-5.072 5s2.43 5.037 5.071 5h15.072V135c-.038 2.642 2.358 5.071 5 5.071 2.641 0 5.037-2.43 5-5.071v-15.071H135c2.642.037 5.072-2.358 5.072-5s-2.43-5.038-5.072-5h-14.928V95c.033-2.66-2.403-5.096-5.063-5.063zM120 60V40L80.583 0H9.833C4.388 0 0 4.475 0 10v140c0 5.525 4.388 10 9.833 10H70v-10H9.833V10H70.75v40h39.417v10zM80.583 14.167L106.083 40h-25.5z"/></svg>