<svg xmlns="http://www.w3.org/2000/svg" width="160" height="160"><path d="M115.004 70c24.794 0 45 20.206 45 45s-20.206 45-45 45-45-20.206-45-45 20.206-45 45-45zm0 10c-19.39 0-35 15.61-35 35s15.61 35 35 35 35-15.61 35-35-15.61-35-35-35zm-.01 9.938c2.62.032 4.97 2.444 4.94 5.062l-.002 14.93h15.072c2.64-.04 5.07 2.357 5.07 5 0 2.64-2.43 5.036-5.07 5h-15.072V135c.038 2.642-2.358 5.07-5 5.07-2.64 0-5.037-2.428-5-5.07v-15.07H95.004c-2.642.036-5.072-2.36-5.072-5 0-2.643 2.43-5.04 5.072-5h14.928V95c-.033-2.66 2.403-5.096 5.063-5.062zm38.14-42.205c4.646-4.923 7.072-11.576 6.857-18.905C159.496 12.56 145.863-.308 129.6.139L32.928 0C13.153.556-.629 16.989.022 39.09c.294 9.906 4.95 19.703 12.78 26.891 7.75 7.112 17.888 11.032 27.822 10.754l31.88.227c2.762.016 4.996-2.22 5-4.982a5.01 5.01 0 0 0-4.997-5.01l-32.029-.228c-7.504.21-15.074-2.75-20.922-8.115-5.85-5.37-9.325-12.594-9.543-19.814C9.61 25.25 16.663 10.45 33.081 9.996l96.672.14c10.9-.302 19.92 8.214 20.244 18.97.147 5.042-1.494 9.311-4.784 12.4-3.259 3.056-8.065 4.818-13.535 4.97l-70.1-.229c-3.655.103-11.832-.478-12.057-7.957-.127-4.231 1.45-5.634 1.967-6.097 1.483-1.315 4.058-2.056 7.448-2.148l44.32.139c2.766.005 5.008-2.229 4.999-4.986a5.007 5.007 0 0 0-4.995-5.008l-44.467-.139c-5.986.158-10.626 1.72-13.93 4.648-2.579 2.286-5.55 6.5-5.328 13.87.327 10.935 9.246 18.032 22.195 17.672l70.095.225c8.06-.22 15.19-2.94 20.23-7.662.373-.344.732-.703 1.08-1.071z"/></svg>