<svg xmlns="http://www.w3.org/2000/svg" viewBox="0 0 160 160"><path d="M65.06 80a4.989 5 0 1 0 0 10h49.88a4.989 5 0 1 0 0-10H65.06zM50 85a5 5 0 0 1-5 5 5 5 0 0 1-5-5 5 5 0 0 1 5-5 5 5 0 0 1 5 5zm15.06 15a4.989 5 0 1 0 0 10h49.88a4.989 5 0 1 0 0-10H65.06zM50 105a5 5 0 0 1-5 5 5 5 0 0 1-5-5 5 5 0 0 1 5-5 5 5 0 0 1 5 5zm15.06 15a4.989 5 0 1 0 0 10h49.88a4.989 5 0 1 0 0-10H65.06zM50 125a5 5 0 0 1-5 5 5 5 0 0 1-5-5 5 5 0 0 1 5-5 5 5 0 0 1 5 5zM95 0H30c-5.523 0-10 4.477-10 10v140c0 5.522 4.477 10 10 10h100c5.522 0 10-4.478 10-10V45zm35 49.143v.855H90V10h.86zM30 150V10h50v49.998h50V150z"/></svg>