<svg xmlns="http://www.w3.org/2000/svg" viewBox="0 0 160 160"><path d="M110.071 109.245v-24.21A5.038 5.038 0 0 0 105.036 80 5.038 5.038 0 0 0 100 85.036v26.253c0 1.425.597 2.707 1.551 3.621.083.098.151.204.242.297L117.146 130a5.04 5.04 0 0 0 7.12 0c1.967-1.966 2-5.19 0-7.123zM110 60c-27.614 0-50 22.386-50 50s22.386 50 50 50 50-22.386 50-50-22.386-50-50-50zm0 10c22.091 0 40 17.909 40 40s-17.909 40-40 40-40-17.909-40-40 17.909-40 40-40zM10 0C4.478 0 0 4.478 0 10v110c0 5.522 4.478 10 10 10h40v-10H10V10h60v40.25l50-.25.063-14.75L85 0zm70 10h.937l29.126 29.313v.937H80z"/></svg>