<svg xmlns="http://www.w3.org/2000/svg" viewBox="0 0 160 160"><path d="M105.079 90.006a5.02 5.02 0 0 0-2.125.438l-45 20c-1.748.784-2.954 2.647-2.954 4.562 0 1.916 1.206 3.779 2.954 4.563l22.031 9.781v15.656c0 1.841 1.106 3.64 2.75 4.469l20 10c1.39.7 3.11.7 4.5 0l20-10c1.644-.829 2.751-2.628 2.75-4.469V129.35l15-6.656v13.656a9.967 9.967 0 0 0-5 8.656c0 5.523 4.477 10 10 10s10-4.477 10-10a9.967 9.967 0 0 0-5-8.656v-21.094a5.052 5.052 0 0 0-.031-.75 4.668 4.668 0 0 0-.031-.25 4.668 4.668 0 0 0-.031-.25 5.017 5.017 0 0 0-.063-.219 5.009 5.009 0 0 0-.344-.937 4.997 4.997 0 0 0-.218-.438 5.007 5.007 0 0 0-.282-.437 5.047 5.047 0 0 0-2.781-1.875l-44.188-19.656a5.017 5.017 0 0 0-1.937-.438zm-.094 10.469l32.688 14.531-32.688 14.531-32.687-14.53zm-15 33.344l12.969 5.75a5.068 5.068 0 0 0 4.062 0l12.97-5.75v8.093l-15 7.5-15-7.5zM105 80l-.167-40-40-40h-55C4.388 0 0 4.475 0 10v120c0 5.525 4.388 10 9.833 10H50v-10H9.833V10H55v40h40l.167 30zM64.833 14.167L90.917 40H64.833z"/></svg>