<svg xmlns="http://www.w3.org/2000/svg" viewBox="0 0 160 160"><path d="M150.011 150l-70.037.015V90.42h9.974v3.444a4.988 4.988 0 0 0 4.987 4.992 4.988 4.988 0 0 0 4.987-4.992v-3.441l29.921-.318v3.444a4.988 4.988 0 0 0 4.987 4.993c2.755 0 5.968-2.415 4.987-4.993v-3.444h10.21zm.015-69.88h-10.21v-5.187a4.988 4.988 0 0 0-4.986-4.993c-2.755 0-4.526 2.273-4.987 4.993v5.184l-29.922.318V75.25a4.988 4.988 0 0 0-4.986-4.992c-2.756 0-4.566 2.266-4.987 4.992v5.185h-9.974c-5.508 0-9.974 4.47-9.974 9.985v59.595c0 5.514 4.466 10.01 9.974 9.985l70.052-.317c5.508-.026 9.974-4.471 9.974-9.986V90.103c0-5.512-4.49-10.504-9.974-9.983zm-55.068 35.523l-9-1.614c.748-2.871 2.186-5.071 4.313-6.6 2.127-1.53 5.139-2.294 9.035-2.294 4.472 0 7.706.835 9.7 2.505 1.995 1.669 2.993 3.767 2.993 6.295 0 1.482-.405 2.824-1.216 4.025-.81 1.202-2.033 2.255-3.67 3.16 1.325.327 2.338.71 3.04 1.146a7.419 7.419 0 0 1 2.652 2.774c.631 1.146.947 2.516.947 4.107 0 1.997-.522 3.912-1.566 5.745-1.044 1.834-2.548 3.246-4.512 4.236-1.963.991-4.542 1.486-7.737 1.486-3.117 0-5.575-.366-7.375-1.1-1.8-.733-3.28-1.805-4.442-3.217-1.16-1.412-2.053-3.187-2.676-5.325l9.514-1.263c.374 1.919.954 3.249 1.741 3.99.787.74 1.788 1.111 3.004 1.111 1.278 0 2.342-.468 3.19-1.404.85-.936 1.275-2.184 1.275-3.744 0-1.592-.41-2.824-1.227-3.698-.819-.874-1.929-1.31-3.331-1.31-.749 0-1.777.187-3.086.561l.49-6.81c.53.078.944.117 1.24.117 1.246 0 2.287-.398 3.12-1.194.834-.795 1.251-1.74 1.251-2.831 0-1.046-.312-1.88-.935-2.505-.623-.624-1.48-.936-2.571-.936-1.122 0-2.034.34-2.735 1.018-.702.68-1.177 1.869-1.426 3.57zm44.859-10.508v34.894h-9.974v-22.864c-1.558 1.185-3.261 2.145-4.718 2.878-1.458.733-3.285 1.436-5.482 2.106v-7.816c3.241-1.046 5.758-2.301 7.55-3.768 1.793-1.467 3.39-3.277 4.403-5.43zM104.917 60l-.084-20-40-40h-55C4.388 0 0 4.475 0 10v120c0 5.525 4.388 10 9.833 10H60v-10H9.833V10H55v40h40l.083 10zM64.833 14.167L90.917 40H64.833z"/></svg>