<svg xmlns="http://www.w3.org/2000/svg" viewBox="0 0 160 160"><path d="M58 78.083c-.29.035-.556.164-.833.25-.313.098-.63.176-.917.334a4.938 4.938 0 0 0-.833.5c-.03.024-.054.057-.083.083-.087.08-.17.164-.25.25-.247.226-.471.478-.667.75-.034.05-.052.116-.083.167a4.934 4.934 0 0 0-.167.25l-18.75 32.5c-.827 1.484-.81 3.403.042 4.873.852 1.47 2.509 2.439 4.208 2.46h37.416c1.7-.02 3.356-.99 4.208-2.46.852-1.47.869-3.389.042-4.873L68.667 91 90 96.75V150H71c-2.76 0-5 2.24-5 5s2.24 5 5 5h48.083c2.76 0 5-2.24 5-5s-2.24-4.95-5-5H100V99.417l24 6.416-15.5 26.834c-.827 1.484-.81 3.403.042 4.873.852 1.47 2.509 2.44 4.208 2.46h37.416c1.7-.02 3.356-.99 4.208-2.46.852-1.47.869-3.389.042-4.873L136.25 101a5.163 5.163 0 0 0-1.334-2 4.938 4.938 0 0 0-.833-.583 4.93 4.93 0 0 0-1.333-.584 4.943 4.943 0 0 0-.5-.083l-72.416-19.5a5.034 5.034 0 0 0-1-.167c-.29-.017-.552-.033-.834 0zM58.417 93l10.166 17.667H48.25zm73.083 19.5l10.166 17.667h-20.333zM9.833 0C4.388 0 0 4.475 0 10v120c0 5.525 4.388 10 9.833 10H40v-10H9.833V10H55v40h40v30h9.833V40l-40-40zm55 14.167L90.917 40H64.833z"/></svg>