<svg xmlns="http://www.w3.org/2000/svg" viewBox="0 0 160 160">
  <path
     d="m 95,100 c 0,19.32997 -15.670034,35 -35,35 -19.329966,0 -35,-15.67003 -35,-35 0,-19.329966 15.670034,-35 35,-35 19.329966,0 35,15.670034 35,35 z M 60,55 c -24.852814,0 -45,20.147186 -45,45 0.0029,10.20659 3.475405,20.10902 9.847656,28.08203 L 1.4648438,151.46484 c -4.9079872,4.71255 2.3577604,11.9783 7.0703124,7.07032 L 31.943359,135.12695 C 39.906194,141.50289 49.799066,144.98416 60,145 84.852814,145 105,124.85281 105,100 105,75.147186 84.852814,55 60,55 Z m 20,95 h 15 v 10 H 80 Z m 55,0 c 2.76142,0 5,2.23858 5,5 0,2.76142 -2.23858,5 -5,5 -2.76142,0 -5,-2.23858 -5,-5 0,-2.76142 2.23858,-5 5,-5 z m 2.5039,-70 c 6.34607,0 12.14121,2.124719 16.219,6.05777 4.07781,3.933049 6.28074,9.522449 6.28074,15.64325 0,7.79012 -5.78304,12.6616 -10.00454,17.14043 -4.22151,4.47882 -10.26137,11.48859 -10.26137,16.0792 0.041,2.79354 -2.2956,5.07935 -5.19225,5.07935 -2.89665,0 -5.23326,-2.28581 -5.19224,-5.07935 0,-8.76388 8.53072,-18.11406 12.96295,-22.81643 4.43223,-4.70239 7.68745,-8.17747 7.68745,-10.40322 0,-3.895051 -1.64307,-6.652161 -3.62289,-8.561701 -1.97981,-1.90954 -4.83843,-3.12344 -8.87685,-3.12344 -4.0384,0 -6.89703,1.2139 -8.87684,3.12344 -1.97983,1.90954 -3.2384,4.66667 -3.2384,8.561721 0.041,2.79355 -2.2956,5.07936 -5.19225,5.07936 -2.89665,0 -5.23327,-2.28581 -5.19224,-5.07936 0,-6.120801 2.20291,-11.710201 6.28072,-15.643251 4.0778,-3.93305 9.87293,-6.05777 16.21901,-6.057769 z M 120,15 145,40 H 120 Z M 40,0 C 34.555,0 30,4.475 30,10 V 50 H 40 V 10 h 70 v 40 h 40 v 5 h 10 V 40 L 120,0 Z"
  />
</svg>
