<svg xmlns="http://www.w3.org/2000/svg" viewBox="0 0 160 160"><path d="M127.297 77.082c1.835 1.828 1.877 4.834 0 6.62l-17 16.935H155.3c2.597 0 4.7 2.097 4.7 4.681 0 2.585-2.103 4.682-4.7 4.682H110l17.295 17.226a4.668 4.668 0 0 1 0 6.62 4.69 4.69 0 0 1-3.323 1.371 4.69 4.69 0 0 1-3.323-1.371l-27.758-28.382 27.758-28.382a4.714 4.714 0 0 1 6.648 0zM23.81 115.168a.725.725 0 0 0-.654.404l-1.132 2.35-2.604.387a.72.72 0 0 0-.575.473.69.69 0 0 0 .168.714l1.907 1.906-.442 2.642a.697.697 0 0 0 .296.69.735.735 0 0 0 .766.04l2.27-1.222 2.27 1.222a.74.74 0 0 0 .766-.04.697.697 0 0 0 .296-.69l-.443-2.642 1.91-1.906a.69.69 0 0 0 .166-.714.719.719 0 0 0-.575-.473l-2.604-.387-1.132-2.35a.723.723 0 0 0-.654-.404zm10.184 11.599a.725.725 0 0 0-.653.404l-1.132 2.35-2.604.387a.72.72 0 0 0-.576.473.689.689 0 0 0 .168.714L31.104 133l-.443 2.642a.697.697 0 0 0 .297.69.735.735 0 0 0 .765.04l2.27-1.222 2.27 1.222a.74.74 0 0 0 .766-.04.697.697 0 0 0 .296-.69l-.442-2.642 1.909-1.906a.69.69 0 0 0 .167-.714.718.718 0 0 0-.576-.473l-2.603-.387-1.133-2.35a.723.723 0 0 0-.654-.404zm33.949-.283a.725.725 0 0 0-.654.405l-1.132 2.35-2.604.386a.72.72 0 0 0-.576.473.689.689 0 0 0 .168.714l1.908 1.906-.442 2.642a.697.697 0 0 0 .296.69.735.735 0 0 0 .766.04l2.27-1.222 2.27 1.222a.74.74 0 0 0 .766-.04.697.697 0 0 0 .296-.69l-.443-2.642 1.909-1.906a.69.69 0 0 0 .167-.714.719.719 0 0 0-.575-.473l-2.604-.387-1.132-2.35a.723.723 0 0 0-.654-.404zm10.467-12.448a.725.725 0 0 0-.654.405l-1.131 2.35-2.604.387a.72.72 0 0 0-.576.472.689.689 0 0 0 .168.714l1.908 1.906-.443 2.643a.697.697 0 0 0 .297.689.735.735 0 0 0 .765.04l2.27-1.222 2.27 1.223a.74.74 0 0 0 .766-.041.697.697 0 0 0 .296-.69l-.443-2.642 1.91-1.906a.69.69 0 0 0 .167-.714.718.718 0 0 0-.576-.472l-2.604-.388-1.132-2.35a.723.723 0 0 0-.654-.404zm-2.546-29.139a.725.725 0 0 0-.654.405l-1.131 2.35-2.604.387a.72.72 0 0 0-.576.472.689.689 0 0 0 .168.714l1.908 1.906-.443 2.643a.697.697 0 0 0 .297.689.735.735 0 0 0 .765.04l2.27-1.222 2.27 1.222a.74.74 0 0 0 .766-.04.697.697 0 0 0 .296-.69l-.443-2.642 1.91-1.906a.69.69 0 0 0 .167-.714.719.719 0 0 0-.576-.472l-2.604-.388-1.132-2.35a.723.723 0 0 0-.654-.404zM64.264 74.713a.725.725 0 0 0-.654.404l-1.131 2.35-2.604.387a.72.72 0 0 0-.576.472.689.689 0 0 0 .168.715l1.908 1.906-.443 2.642a.697.697 0 0 0 .296.69.735.735 0 0 0 .766.04l2.27-1.222 2.27 1.222a.74.74 0 0 0 .766-.04.697.697 0 0 0 .296-.69l-.443-2.642 1.91-1.906a.69.69 0 0 0 .167-.715.719.719 0 0 0-.576-.472l-2.604-.387-1.132-2.35a.723.723 0 0 0-.654-.404zm-29.705.565a.725.725 0 0 0-.654.405l-1.131 2.35-2.604.387a.72.72 0 0 0-.576.472.689.689 0 0 0 .168.714l1.908 1.906-.443 2.643a.697.697 0 0 0 .297.689.735.735 0 0 0 .765.04l2.27-1.222 2.27 1.223a.74.74 0 0 0 .766-.041.697.697 0 0 0 .296-.69l-.442-2.642 1.908-1.906a.69.69 0 0 0 .168-.714.719.719 0 0 0-.576-.472l-2.604-.387-1.132-2.35a.723.723 0 0 0-.654-.405zM24.375 85.463a.725.725 0 0 0-.654.405l-1.132 2.35-2.604.386a.72.72 0 0 0-.576.473.69.69 0 0 0 .168.714l1.908 1.906-.442 2.642a.697.697 0 0 0 .296.69.735.735 0 0 0 .766.04l2.27-1.222 2.27 1.222a.74.74 0 0 0 .766-.04.697.697 0 0 0 .296-.69l-.443-2.642 1.909-1.906a.69.69 0 0 0 .167-.714.718.718 0 0 0-.576-.473l-2.603-.387-1.132-2.35a.723.723 0 0 0-.654-.404zm-4.244 14.71a.725.725 0 0 0-.654.406l-1.131 2.35-2.604.386a.72.72 0 0 0-.576.473.69.69 0 0 0 .168.714l1.908 1.906-.443 2.642a.697.697 0 0 0 .297.69.735.735 0 0 0 .765.04l2.27-1.222 2.27 1.222a.74.74 0 0 0 .766-.04.697.697 0 0 0 .296-.69l-.443-2.642 1.91-1.906a.69.69 0 0 0 .167-.714.719.719 0 0 0-.576-.473l-2.604-.387-1.132-2.35a.723.723 0 0 0-.654-.404zm59.693-.848a.725.725 0 0 0-.654.405l-1.132 2.35-2.604.387a.72.72 0 0 0-.576.472.689.689 0 0 0 .168.714l1.908 1.906-.442 2.643a.697.697 0 0 0 .296.689.735.735 0 0 0 .766.04l2.27-1.222 2.27 1.223a.74.74 0 0 0 .766-.041.697.697 0 0 0 .296-.69l-.443-2.642 1.909-1.906a.69.69 0 0 0 .167-.714.719.719 0 0 0-.576-.472l-2.603-.388-1.132-2.35a.723.723 0 0 0-.654-.404zm-29.14 31.685a.725.725 0 0 0-.653.405l-1.132 2.35-2.604.387a.72.72 0 0 0-.576.472.689.689 0 0 0 .168.714l1.908 1.906-.442 2.643a.697.697 0 0 0 .296.689.735.735 0 0 0 .766.04l2.27-1.222 2.27 1.223a.74.74 0 0 0 .766-.041.697.697 0 0 0 .296-.69l-.443-2.642 1.909-1.906a.69.69 0 0 0 .167-.714.718.718 0 0 0-.576-.472l-2.603-.387-1.132-2.35a.723.723 0 0 0-.654-.405zm-.565-58.844a.725.725 0 0 0-.654.405l-1.132 2.35-2.604.387a.72.72 0 0 0-.575.472.689.689 0 0 0 .167.715L47.23 78.4l-.442 2.643a.697.697 0 0 0 .296.689.735.735 0 0 0 .766.04l2.27-1.221 2.27 1.222a.74.74 0 0 0 .766-.041.697.697 0 0 0 .296-.689l-.443-2.643 1.909-1.905a.69.69 0 0 0 .167-.715.719.719 0 0 0-.575-.472l-2.604-.387-1.132-2.35a.723.723 0 0 0-.654-.405zm54.88-18.021V55H60V10h.86zM105 150H10V10h40v55h55L105 75l10.007.175L115 50.003 65 0H10C4.478 0 0 4.478 0 10v140c0 5.522 4.478 10 10 10h95c5.522 0 10-4.478 10-10v-9.971l-9.966.174z"/></svg>