<svg xmlns="http://www.w3.org/2000/svg" viewBox="0 0 160 160"><path d="M124.924 69.93A5 5 0 0 0 120 75v5h-5c-6.762-.096-6.762 10.096 0 10h5v5c-.096 6.762 10.096 6.762 10 0v-5h5c6.762.096 6.762-10.096 0-10h-5v-5a5 5 0 0 0-5.076-5.07zM70 80c-6.762-.096-6.762 10.096 0 10h20c6.762.096 6.762-10.096 0-10zm-.053 29.95c-4.487.002-6.7 5.457-3.482 8.585L72.93 125l-6.465 6.465c-4.908 4.712 2.358 11.978 7.07 7.07L80 132.07l6.465 6.465c4.712 4.908 11.978-2.358 7.07-7.07L87.07 125l6.465-6.465c3.27-3.179.926-8.718-3.633-8.584a5 5 0 0 0-3.437 1.514L80 117.93l-6.465-6.465a5 5 0 0 0-3.588-1.516zM115 110c-6.762-.096-6.762 10.096 0 10h20c6.762.096 6.762-10.096 0-10zm0 20c-6.762-.096-6.762 10.096 0 10h20c6.762.096 6.762-10.096 0-10zM9.832.268C4.387.292 0 4.743 0 10.268v120c0 5.525 4.387 10 9.832 10h35.072v15.04c-.019 3.233 3.038 5.6 6.162 4.774H153.98a4.962 4.962 0 0 0 2.295-.523 4.822 4.822 0 0 0 4.48-4.893v-97.84a4.822 4.822 0 0 0-.241-1.565c.582-3.106-1.827-5.224-4.987-5.179H100V30L70 0zm0 10H60v30h29.935l.13 9.814H51.051a4.907 4.907 0 0 0-1.315-.164c-2.708.041-4.87 1.525-4.832 4.233v76.116H9.832zM70 13.862L85.934 30H70zM55.096 60H150v90H55.096z"/></svg>