<svg xmlns="http://www.w3.org/2000/svg" viewBox="0 0 160 160"><path d="M35 75h24.198c4.79 0 8.362.2 10.716.599 2.354.399 4.46 1.232 6.318 2.498 1.858 1.266 3.407 2.953 4.646 5.059 1.238 2.106 1.858 3.93 1.858 6.545 0 2.835-.764 5.437-2.292 7.804-1.528 2.368-3.6 4.143-6.215 5.327 3.69 1.074 6.525 2.904 8.507 5.492 1.982 2.588 2.973 5.63 2.973 9.126 0 2.753-.64 5.43-1.92 8.032-1.28 2.601-3.028 4.68-5.245 6.235-2.216 1.556-4.948 2.512-8.196 2.87-2.038.22-6.952.358-14.742.413H35zm10 10.275v13.462l10.234-.2c4.762-.092 7.722-.068 8.878-.206 2.092-.248 3.737-.97 4.935-2.168 1.197-1.197 1.796-2.773 1.796-4.728 0-1.872-.516-2.856-1.548-4.026-1.033-1.17-2.568-1.879-4.605-2.127-1.211-.137-4.788-1.245-10.447-.206zm0 23.538V125l13.538-.2c4.404-.065 7.198-.123 8.382-.371 1.817-.33 3.297-1.136 4.44-2.416 1.142-1.28 1.713-2.994 1.713-5.141 0-1.817-.44-3.359-1.321-4.625s-2.155-2.189-3.82-2.767c-1.666-.578-5.34-1.686-10.84-.867zM75 0H10C4.477 0 0 4.477 0 10v140c0 5.522 4.477 10 10 10h100c5.522 0 10-4.478 10-10V45zm35 49.143v.855H70V10h.86zM10 150V10h50v49.998h50V150z"/></svg>