<svg xmlns="http://www.w3.org/2000/svg" viewBox="0 0 160 160"><path d="M125 80c-13.88 0-25 12.32-25 26.688v17.53c0 4.812-3.581 10.209-7.031 14.938-.648.89-1.491 1.994-2.188 3.094-.93 1.46-1.02 3.414-.25 4.969.771 1.554 2.389 2.65 4.094 2.75.365.023.802.031 1.313.031h15.187c2.045 5.793 7.471 10 13.813 10 6.342 0 11.799-4.208 13.843-10h15.75c.232 0 .474.005.688 0 1.788-.046 3.501-1.17 4.281-2.813.78-1.642.605-3.727-.469-5.187a75.215 75.215 0 0 0-2.031-2.625c-3.569-4.426-7-9.827-7-15.156v-17.532C150 92.297 138.88 80 125 80zm0 10c8.248 0 15 7.167 15 16.688v17.53c0 6.414 2.344 11.609 5.156 15.782h-40.531c2.838-4.02 5.375-9.218 5.375-15.781v-17.531C110 97.142 116.752 90 125 90zm-5-20V50.002L65 0H10C4.478 0 0 4.477 0 10v140c0 5.522 4.478 10 10 10h70v-10H10V10h40v55h60v5zm-10-15.855V55H60V10h.86z"/></svg>