<svg xmlns="http://www.w3.org/2000/svg" viewBox="0 0 160 160"><path d="M84.06 113.976a.725.725 0 0 0-.655.405l-1.131 2.35-2.604.386a.72.72 0 0 0-.576.473.689.689 0 0 0 .168.714l1.908 1.906-.443 2.642a.697.697 0 0 0 .297.69.735.735 0 0 0 .765.04l2.27-1.222 2.27 1.222a.74.74 0 0 0 .766-.04.697.697 0 0 0 .296-.69l-.443-2.642 1.91-1.906a.69.69 0 0 0 .167-.714.719.719 0 0 0-.576-.473l-2.604-.387-1.132-2.35a.723.723 0 0 0-.654-.404zm10.184 11.599a.725.725 0 0 0-.654.405l-1.132 2.35-2.604.386a.72.72 0 0 0-.576.473.689.689 0 0 0 .168.714l1.908 1.906-.442 2.642a.697.697 0 0 0 .296.69.735.735 0 0 0 .766.04l2.27-1.222 2.27 1.222a.74.74 0 0 0 .766-.04.697.697 0 0 0 .296-.69l-.443-2.642 1.909-1.906a.69.69 0 0 0 .167-.714.719.719 0 0 0-.576-.473l-2.603-.387-1.132-2.35a.723.723 0 0 0-.654-.404zm33.948-.283a.725.725 0 0 0-.654.405l-1.132 2.35-2.604.386a.72.72 0 0 0-.575.473.689.689 0 0 0 .168.714l1.907 1.906-.442 2.643a.697.697 0 0 0 .296.689.735.735 0 0 0 .766.04l2.27-1.222 2.27 1.222a.74.74 0 0 0 .766-.04.697.697 0 0 0 .296-.69l-.443-2.642 1.91-1.906a.689.689 0 0 0 .167-.714.718.718 0 0 0-.576-.473l-2.604-.387-1.132-2.35a.723.723 0 0 0-.654-.404zm10.467-12.448a.725.725 0 0 0-.654.405l-1.131 2.35-2.604.387a.72.72 0 0 0-.576.472.689.689 0 0 0 .168.714l1.908 1.906-.443 2.643a.697.697 0 0 0 .297.689.735.735 0 0 0 .765.04l2.27-1.222 2.27 1.223a.74.74 0 0 0 .766-.041.697.697 0 0 0 .296-.69l-.442-2.642 1.908-1.906a.689.689 0 0 0 .168-.714.719.719 0 0 0-.576-.472l-2.603-.388-1.133-2.349a.723.723 0 0 0-.654-.405zm-2.546-29.139a.725.725 0 0 0-.654.405l-1.131 2.35-2.604.387a.72.72 0 0 0-.576.472.689.689 0 0 0 .168.714l1.908 1.906-.443 2.643a.697.697 0 0 0 .297.689.735.735 0 0 0 .765.04l2.27-1.222 2.27 1.223a.74.74 0 0 0 .766-.041.697.697 0 0 0 .296-.69l-.443-2.642 1.91-1.906a.689.689 0 0 0 .167-.714.718.718 0 0 0-.576-.472l-2.604-.388-1.132-2.349a.723.723 0 0 0-.654-.405zm-11.599-10.184a.725.725 0 0 0-.654.404l-1.131 2.35-2.604.387a.72.72 0 0 0-.576.473.689.689 0 0 0 .168.714l1.908 1.906-.443 2.642a.697.697 0 0 0 .297.69.735.735 0 0 0 .765.04l2.27-1.222 2.27 1.222a.74.74 0 0 0 .766-.04.697.697 0 0 0 .296-.69l-.442-2.642 1.908-1.906a.69.69 0 0 0 .168-.714.719.719 0 0 0-.576-.473l-2.604-.387-1.132-2.35a.723.723 0 0 0-.654-.404zm-29.705.565a.725.725 0 0 0-.654.405l-1.131 2.35-2.604.387a.72.72 0 0 0-.576.472.689.689 0 0 0 .168.715l1.908 1.905-.443 2.643a.697.697 0 0 0 .297.69.735.735 0 0 0 .765.04l2.27-1.222 2.27 1.222a.74.74 0 0 0 .766-.04.697.697 0 0 0 .296-.69L97.7 80.32l1.908-1.905a.69.69 0 0 0 .168-.715.719.719 0 0 0-.576-.472l-2.603-.387-1.133-2.35a.723.723 0 0 0-.654-.405zM84.625 84.271a.725.725 0 0 0-.654.405l-1.132 2.35-2.604.387a.72.72 0 0 0-.575.472.689.689 0 0 0 .167.714l1.908 1.906-.442 2.643a.697.697 0 0 0 .296.689.735.735 0 0 0 .766.04l2.27-1.222 2.27 1.222a.74.74 0 0 0 .766-.04.697.697 0 0 0 .296-.69l-.443-2.642 1.909-1.906a.69.69 0 0 0 .167-.714.718.718 0 0 0-.575-.473l-2.604-.387-1.132-2.35a.723.723 0 0 0-.654-.404zM80.38 98.982a.725.725 0 0 0-.654.405l-1.131 2.35-2.604.386a.72.72 0 0 0-.576.473.689.689 0 0 0 .168.714l1.908 1.906-.443 2.643a.697.697 0 0 0 .297.689.735.735 0 0 0 .765.04l2.27-1.222 2.27 1.222a.74.74 0 0 0 .766-.04.697.697 0 0 0 .296-.69l-.442-2.642 1.908-1.906a.69.69 0 0 0 .168-.714.719.719 0 0 0-.576-.473l-2.603-.387-1.133-2.35a.723.723 0 0 0-.654-.404zm59.693-.849a.725.725 0 0 0-.654.405l-1.132 2.35-2.604.387a.72.72 0 0 0-.575.472.689.689 0 0 0 .167.714l1.908 1.906-.442 2.643a.697.697 0 0 0 .296.689.735.735 0 0 0 .766.04l2.27-1.222 2.27 1.223a.74.74 0 0 0 .766-.041.697.697 0 0 0 .296-.69l-.443-2.642 1.909-1.906a.689.689 0 0 0 .167-.714.718.718 0 0 0-.575-.472l-2.604-.387-1.132-2.35a.723.723 0 0 0-.654-.405zm-29.14 31.685a.725.725 0 0 0-.653.405l-1.132 2.35-2.604.387a.72.72 0 0 0-.575.472.689.689 0 0 0 .167.715l1.908 1.905-.442 2.643a.697.697 0 0 0 .296.69.735.735 0 0 0 .766.04l2.27-1.222 2.27 1.222a.74.74 0 0 0 .766-.041.697.697 0 0 0 .296-.689l-.443-2.643 1.909-1.905a.69.69 0 0 0 .167-.715.719.719 0 0 0-.575-.472l-2.604-.387-1.132-2.35a.723.723 0 0 0-.654-.405zm-.565-58.843a.725.725 0 0 0-.654.404l-1.131 2.35-2.604.387a.72.72 0 0 0-.576.472.689.689 0 0 0 .168.715l1.908 1.906-.443 2.642a.697.697 0 0 0 .296.69.735.735 0 0 0 .766.04l2.27-1.222 2.27 1.222a.74.74 0 0 0 .766-.04.697.697 0 0 0 .296-.69l-.443-2.642 1.91-1.906a.689.689 0 0 0 .167-.715.718.718 0 0 0-.576-.472l-2.604-.387-1.132-2.35a.723.723 0 0 0-.654-.404zM150 54.145V55h-45V10h.86zM55 10h40v55h55v85H55v-9.72l-9.986-.026L45 150c0 5.522 4.477 10 10 10h95c5.522 0 10-4.478 10-10V50.002L110 0H55c-5.523 0-10 4.478-10 10v59.915L55.056 70zM35.594 77.082a4.668 4.668 0 0 0 0 6.62l17 16.935H4.7c-2.597 0-4.7 2.097-4.7 4.681C0 107.903 2.103 110 4.7 110h48.19l-17.294 17.226a4.668 4.668 0 0 0 0 6.62 4.69 4.69 0 0 0 3.323 1.371 4.69 4.69 0 0 0 3.322-1.371L70 105.464 42.241 77.082c-1.812-1.853-4.81-1.829-6.647 0z"/></svg>