<svg xmlns="http://www.w3.org/2000/svg" viewBox="0 0 160 160"><path d="M10 150V10h40v55h60v85zM10 0C4.477 0 0 4.478 0 10v140c0 5.522 4.477 10 10 10h100c5.523 0 10-4.478 10-10V50L65 0H10zm50 10h.875L110 54.125V55H60V10zM40 80c-8.284 0-15 6.716-15 15 0 8.284 6.716 15 15 15 8.284 0 15-6.716 15-15 0-8.284-6.716-15-15-15zm0 10a5 5 0 1 1 0 10 5 5 0 0 1 0-10zm40 20c-8.284 0-15 6.716-15 15 0 8.284 6.716 15 15 15 8.284 0 15-6.716 15-15 0-8.284-6.716-15-15-15zm0 10a5 5 0 1 1 0 10 5 5 0 0 1 0-10zm-48.294 11.822l49.497-49.498c1.415-1.414 4.849-2.02 7.071 0 2.223 2.02 1.415 5.657 0 7.071l-49.497 49.498c-1.414 1.414-4.998 2.17-7.071 0-2.174-2.069-1.414-5.657 0-7.071z"/></svg>