<svg xmlns="http://www.w3.org/2000/svg" viewBox="0 0 160 160"><path d="M110 55l-.167-15-40-40h-60C4.388 0 0 4.475 0 10v120c0 5.525 4.388 10 9.833 10H50v-10H9.833V10H60v40h40l.167 5zM69.833 14.167L95.917 40H69.833zM109.983 60C82.387 60 60 82.363 60 109.982 60 137.602 82.388 160 109.982 160c27.63 0 50.018-22.399 50.018-50.018S137.612 60 109.982 60zm0 9.982c22.103 0 39.992 17.92 39.992 40 0 22.117-17.889 40-39.993 40-22.068 0-39.957-17.883-39.957-40 0-22.08 17.889-40 39.957-40zm-14.98 45.22h29.99c2.76 0 5-2.23 5-4.977 0-2.747-2.24-4.977-5-4.977h-29.99c-2.76 0-5 2.23-5 4.977 0 2.748 2.24 4.978 5 4.978z"/></svg>