<svg xmlns="http://www.w3.org/2000/svg" viewBox="0 0 160 160"><path d="M122.703 77.082a4.668 4.668 0 0 0 0 6.62L140 100H90.296C87.7 100 85 102.416 85 105s2.403 5 5 5h50l-17.295 17.226a4.668 4.668 0 0 0 0 6.62 4.69 4.69 0 0 0 3.323 1.371 4.69 4.69 0 0 0 3.323-1.371l27.758-28.382-27.758-28.382a4.714 4.714 0 0 0-6.648 0zm-17.704-22.937V55H60V10h.86zM105 150H10V10h40v55h55L105 75l10.007.175L115 50.003 65 0H10C4.477 0 0 4.478 0 10v140c0 5.522 4.477 10 10 10h95c5.522 0 10-4.478 10-10v-9.971l-9.966.174z"/></svg>