<svg xmlns="http://www.w3.org/2000/svg" viewBox="0 0 160 160"><path d="M50 137.404v-2.595l-1.605-.297c-2.635-.487-5.704-1.516-7.62-2.554-2.473-1.34-5.218-3.985-6.313-6.083-.872-1.671-1.769-4.974-1.769-6.516v-.796h10.552l.344 1.373c.638 2.542 2.002 4.261 4.213 5.31 2.354 1.117 2.217 1.507 2.133-6.078l-.075-6.716-1.535-.354c-9.137-2.106-13.106-5.07-14.39-10.743-1.582-6.989 1.886-13.781 8.562-16.77 1.996-.894 3.935-1.456 6.875-1.993.613-.113.628-.198.628-3.509V75.69h10v3.537c0 2.604.092 3.563.349 3.635l2.721.768c6.96 1.966 11.577 6.887 12.182 12.983l.181 1.82H64.792l-.303-1.32c-.5-2.184-2.243-2.258-3.582-4.668L60 91.862v12.77l2.167.439c6.832 1.382 11.572 4.004 13.44 7.434 1.43 2.626 1.868 7.365.978 10.595-1.13 4.108-4.23 7.557-8.695 9.676-1.404.666-6.309 1.996-7.362 1.996-.483 0-1.049.282-.528 2.614V140H50v-2.596zm12.652-12.037c3.799-1.54 4.995-6.308 2.18-8.691-.554-.47-4.051-2.034-4.547-2.034-.185 0-.285 2.01-.285 5.756v5.756l.768-.167c.422-.092 1.27-.37 1.884-.62zM50 96.865c0-4.218-.08-5.49-.349-5.49-.657 0-3.698 1.5-4.313 2.126-2.075 2.113-1.864 5.726.424 7.251.842.562 3.297 1.564 3.889 1.589.269.011.349-1.25.349-5.476zM65 0H10C4.478 0 0 4.477 0 10v140c0 5.522 4.478 10 10 10h100c5.522 0 10-4.477 10-10V50.002zm45 54.145V55H60V10h.86zM10 150V10h40v55h60v85z"/></svg>