<svg xmlns="http://www.w3.org/2000/svg" viewBox="0 0 160 160"><path d="M65 50c-24.786 0-45 20.214-45 45 0 10.597 3.709 20.36 9.875 28.063L1.469 151.469a5 5 0 1 0 7.062 7.062l28.407-28.406C44.639 136.291 54.403 140 65 140c24.786 0 45-20.214 45-45S89.786 50 65 50zm0 11.25A33.665 33.665 0 0 1 98.75 95 33.665 33.665 0 0 1 65 128.75 33.665 33.665 0 0 1 31.25 95 33.665 33.665 0 0 1 65 61.25zM40 45V10h70v40h40v100H80v10h70c5.445 0 10-4.475 10-10V40L120 0H40c-5.445 0-10 4.475-10 10v35zm80-30l25 25h-25z"/></svg>