<svg xmlns="http://www.w3.org/2000/svg" viewBox="0 0 160 160"><path d="M110 40H75V10zm10-4.998L80 0H10C4.478 0 0 4.477 0 10v140c0 5.522 4.478 10 10 10V10h55v40h55zM90.406 60C82.16 60 75.47 66.69 75.47 74.938v25.093H44.53c-8.246 0-14.59 6.691-14.531 14.938l.156 20.094C30.215 143.309 36.441 150 44.688 150h7.03c2.83 5.888 8.858 10 15.782 10 6.786 0 12.696-3.956 15.594-9.656h23.812c2.898 5.7 8.808 9.656 15.594 9.656 6.924 0 12.951-4.112 15.781-10h6.594c8.247 0 17.073-6.972 14.938-14.938l-16.97-60.125C140.709 66.972 136.154 60 127.907 60zm-.5 9.969c.167-.017.329 0 .5 0h37.5c2.747 0 4.258 2.315 4.969 4.969l6.969 25.093H85.438V74.937c0-2.575 1.96-4.713 4.468-4.968zM44.97 110H142.5l7.375 25.063c.711 2.653-2.253 4.968-5 4.968h-5.063C138.595 131.582 131.267 125 122.5 125c-8.831 0-16.21 6.678-17.344 15.219H84.844C83.71 131.679 76.33 125 67.5 125c-8.766 0-16.095 6.582-17.313 15.031h-5.062c-2.747 0-4.95-2.221-4.969-4.969L40 114.97c-.02-2.747 2.222-4.969 4.969-4.969zM67.5 135c4.201 0 7.5 3.299 7.5 7.5 0 4.201-3.299 7.5-7.5 7.5-4.201 0-7.5-3.299-7.5-7.5 0-4.201 3.299-7.5 7.5-7.5zm55 0c4.201 0 7.5 3.299 7.5 7.5 0 4.201-3.299 7.5-7.5 7.5-4.201 0-7.5-3.299-7.5-7.5 0-4.201 3.299-7.5 7.5-7.5z"/></svg>