<svg xmlns="http://www.w3.org/2000/svg" viewBox="0 0 160 160"><path d="M47.999 76.445a4.668 4.668 0 0 0 0 6.62L65 100H15.296C12.7 100 10 102.416 10 105s2.403 5 5 5h50l-16.999 16.589a4.668 4.668 0 0 0 0 6.62 4.69 4.69 0 0 0 3.323 1.371 4.69 4.69 0 0 0 3.323-1.371l27.758-28.382-27.758-28.382a4.714 4.714 0 0 0-6.648 0zm91.75-22.3V55h-45V10h.86zM44.75 10h40v55h55v85h-95v-9.72l-9.985-.025L34.75 150c0 5.522 4.477 10 10 10h95c5.522 0 10-4.478 10-10V50.003L99.75 0h-55c-5.523 0-10 4.478-10 10v55l10.056.085z"/></svg>