<svg xmlns="http://www.w3.org/2000/svg" viewBox="0 0 160 160"><path d="m 150,154.27718 c -0.004,3.15591 2.18867,5.7181 4.89757,5.72281 2.70889,0.005 5.09838,-1.84408 5.10243,-4.99999 l -1e-5,-149.2771855 C 160.00399,2.5669052 157.81131,0.00471817 155.10242,6.4971192e-6 152.39352,-0.0047015 150.19425,2.5498554 150.19021,5.7057685 Z M 9.7402344,0 C 8.0777717,-8.188145e-4 6.4421417,0.45679641 4.9941406,1.3261719 1.8994904,3.1788513 -0.00111835,6.678578 0,10.464844 L 0.14257812,149.53516 c -3.0745e-4,3.78633 1.90161028,7.28582 4.99609378,9.13867 C 6.6119312,159.5574 8.2448386,160 9.8828125,160 c 1.8193425,-2.6e-4 3.6014415,-0.54889 5.1425785,-1.57812 l 0.002,-0.002 110.374999,-69.535154 0.004,-0.0039 c 6.12431,-4.092836 6.12431,-13.66107 0,-17.753906 l -0.006,-0.0039 L 14.894531,1.5898438 C 13.351993,0.55135844 11.565218,-0.00145398 9.7402344,0 Z M 10.240234,11.373047 119.31445,80.003906 10.382812,148.62891 Z" /></svg>