<svg xmlns="http://www.w3.org/2000/svg" viewBox="0 0 160 160"><path d="M80.194 0a4.957 4.957 0 0 0-3.593 1.531L1.38 80.22c-1.906 1.996-1.826 5.15.157 7.062 1.99 1.913 5.15 1.878 7.063-.125l6.687-7V155c0 2.764 2.218 5 4.969 5h34.812c2.745 0 4.994-2.243 5-5l.157-49.969h39.718V155c0 2.764 2.212 5 4.97 5h34.812c2.757 0 4.974-2.243 4.968-5V80.094l6.72 7.062a4.944 4.944 0 0 0 3.593 1.531 4.904 4.904 0 0 0 3.437-1.406 4.999 4.999 0 0 0 .157-7.062L83.788 1.53A4.957 4.957 0 0 0 80.194 0zm0 12.25l54.72 57.563c-.105.403-.188.813-.188 1.25V150h-24.813v-49.969c0-2.764-2.242-5-5-5H55.257c-2.745 0-4.956 2.243-4.969 5L50.101 150H25.257V71.062c0-.401-.067-.782-.156-1.156L80.194 12.25z"/></svg>