<svg xmlns="http://www.w3.org/2000/svg" viewBox="0 0 160 160"><path d="M150.87 59.652a4.966 4.966 0 0 0 3.584 1.527 4.923 4.923 0 0 0 3.44-1.388 4.968 4.968 0 0 0 .143-7.02L83.485 2.714a4.954 4.954 0 0 0-3.583-1.527c-1.35 0-2.644.551-3.583 1.527L1.382 52.77a4.966 4.966 0 0 0 .147 7.022 4.96 4.96 0 0 0 7.022-.146L10 59v66c0 2.744 2.45 5 5.192 5H30l-.16-10-9.681-.125L20 53.205l59.905-39.88zM150 150H65v-6.126c.61-.445 1.464-.96 2.137-1.269.2-.091.4-.187.59-.296l24.337-14.913a8.51 8.51 0 0 0 1.269-14.127C86.193 107.545 85 94.739 85 87.976V70c0-6.115 9.663-15 21.737-15C119.034 55 130 63.74 130 70v17.976c0 6.669-2.148 19.53-9.493 25.31a8.528 8.528 0 0 0-3.223 7.405 8.528 8.528 0 0 0 4.406 6.765l25.558 14.847c.236.13.536.27.785.379.628.266 1.4.71 1.967 1.102zm2.572-15.173l-26.804-14.847C135.73 112.143 140 96.612 140 87.976V70c0-11.903-17.38-25.032-33.266-25.032C90.853 44.968 75 58.1 75 70v17.976c0 7.852 2.94 23.867 13.005 31.936l-25.821 14.915S55 138.03 55 142.02v10.787c0 3.97 3.223 7.193 7.184 7.193h90.388c3.965 0 7.188-3.223 7.188-7.193V142.02c0-4.232-7.188-7.193-7.188-7.193z"/></svg>