<svg xmlns="http://www.w3.org/2000/svg" viewBox="0 0 160 160"><path d="M105 50c-30.316 0-55 24.684-55 55s24.684 55 55 55 55-24.684 55-55-24.684-55-55-55zm0 10c24.912 0 45 20.088 45 45s-20.088 45-45 45-45-20.088-45-45 20.088-45 45-45zm-5.085 74.947v-2.596l-1.605-.297c-2.634-.487-5.704-1.515-7.62-2.554-2.473-1.34-5.217-3.984-6.313-6.083-.872-1.67-1.769-4.974-1.769-6.516v-.795H93.16l.345 1.372c.637 2.542 2.001 4.261 4.212 5.31 2.354 1.118 2.217 1.507 2.133-6.078l-.074-6.715-1.536-.354c-9.136-2.107-13.106-5.07-14.39-10.744-1.581-6.989 1.886-13.78 8.562-16.77 1.996-.894 3.935-1.456 6.875-1.993.613-.112.628-.197.628-3.508v-3.394h10v3.537c0 2.604.092 3.564.35 3.636l2.72.768c6.96 1.965 11.577 6.886 12.182 12.982l.181 1.821h-10.641l-.302-1.32c-.5-2.185-2.244-2.26-3.583-4.669l-.907-.582v12.769l2.167.439c6.832 1.382 11.572 4.004 13.44 7.435 1.43 2.625 1.868 7.364.979 10.595-1.131 4.107-4.23 7.556-8.696 9.675-1.403.666-6.309 1.996-7.362 1.996-.482 0-1.048.282-.528 2.614v2.614h-10v-2.595zm12.652-12.037c3.8-1.542 4.995-6.308 2.18-8.692-.554-.47-4.051-2.034-4.547-2.034-.185 0-.285 2.01-.285 5.757v5.756l.768-.167c.422-.092 1.27-.371 1.884-.62zM99.915 94.407c0-4.217-.08-5.49-.349-5.49-.657.001-3.698 1.5-4.313 2.126-2.075 2.114-1.864 5.726.424 7.252.842.561 3.297 1.564 3.89 1.588.268.012.348-1.25.348-5.476zm51.506-35.403a4.97 4.97 0 0 0 3.596 1.541 4.926 4.926 0 0 0 3.452-1.4 5.033 5.033 0 0 0 .144-7.085L83.79 1.54A4.959 4.959 0 0 0 80.193 0a4.977 4.977 0 0 0-3.596 1.541L1.387 52.057a5.032 5.032 0 0 0 .147 7.087 4.958 4.958 0 0 0 7.048-.148l1.454-.65v66.608c0 2.77 2.46 5.046 5.212 5.046H40l-.16-10.092-19.608-.126-.16-67.285L80.197 12.25z"/></svg>