<svg xmlns="http://www.w3.org/2000/svg" viewBox="0 0 160 160"><path d="M109.982 60C82.388 60 60 82.363 60 109.982 60 137.602 82.388 160 109.982 160c27.63 0 50.018-22.399 50.018-50.018S137.612 60 109.982 60zm0 9.982c22.104 0 39.993 17.92 39.993 40 0 22.117-17.889 40-39.993 40-22.068 0-39.957-17.883-39.957-40 0-22.08 17.889-40 39.957-40zM90 115.202h40c2.76 0 4.999-2.23 4.999-4.977 0-2.747-2.24-4.977-4.999-4.977H90c-2.76 0-4.999 2.23-4.999 4.977 0 2.748 2.24 4.978 4.999 4.978zm61.42-56.198a4.97 4.97 0 0 0 3.597 1.541 4.926 4.926 0 0 0 3.452-1.4 5.033 5.033 0 0 0 .144-7.085L83.79 1.54A4.959 4.959 0 0 0 80.193 0a4.977 4.977 0 0 0-3.596 1.541L1.387 52.057a5.032 5.032 0 0 0 .147 7.087 4.958 4.958 0 0 0 7.048-.148l1.454-.65v66.608c0 2.77 2.46 5.046 5.212 5.046H50v-10.092l-29.768-.126-.16-67.285L80.197 12.25z"/></svg>