<svg xmlns="http://www.w3.org/2000/svg" viewBox="0 0 160 160"><path d="M150.727 58.907a4.966 4.966 0 0 0 3.575 1.535 4.914 4.914 0 0 0 3.433-1.393c1.982-1.927 2.053-5.105.142-7.104L83.403 1.535C82.483.535 81.173 0 79.828 0c-1.345 0-2.655.536-3.575 1.535L1.39 51.945c-1.911 2-1.84 5.177.142 7.104 1.982 1.893 5.132 1.857 7.008-.178l1.452-.643v66.511c0 2.75 2.442 5.034 5.203 5.034H29.99l-.177-10.068-9.663-.142-.177-67.154 59.855-40.2zm-70.81 20.488c-5.52 0-9.956 4.51-9.99 10.076h79.917l.166 50.294c5.52-.034 10.013-4.594 9.99-10.16l-.167-40.134c-.023-5.567-4.47-10.076-9.99-10.076zm-19.98 20.151c-5.518 0-9.99 4.51-9.99 10.076v40.302c0 5.567 4.472 10.076 9.99 10.076h69.927c5.52 0 9.99-4.51 9.99-10.076v-40.302c0-5.566-4.47-10.076-9.99-10.076zm0 10.076h69.927v40.302H59.938zm31.884 5.038c-1.034 2.282-2.5 4.239-4.33 5.793-1.828 1.555-4.35 2.838-7.658 3.946v8.313c2.242-.711 4.091-1.49 5.578-2.267a29.719 29.719 0 0 0 4.662-3.023v17.465h9.823V114.66z"/></svg>