<svg xmlns="http://www.w3.org/2000/svg" viewBox="0 0 160 160"><path d="M123.337 59.889h4.937c2.725 0 4.93 2.238 4.93 5.003s-2.211 5.003-4.93 5.003h-4.937c-2.725 0-4.93-2.238-4.93-5.003s2.205-5.003 4.93-5.003zM29.632 0v39.776H11.008C4.943 39.776 0 44.786 0 50.94v67.866c0 6.159 4.95 11.162 11.008 11.162H29.6V160H130v-30.033h18.992c6.065 0 11.008-5.003 11.008-11.162V50.94c0-6.16-4.95-11.163-11.008-11.163H130V0zM40 10h80.133v29.776H40zM11.008 50h137.984c.621 0 1.141.506 1.141 1.14v67.665c0 .635-.52 1.141-1.14 1.141H130v-35.09H29.601v35.09H11.008c-.621 0-1.141-.506-1.141-1.14V51.14c0-.635.52-1.141 1.14-1.141zM40 94.878h80.133v55.101H40v-25.007z"/></svg>