<svg xmlns="http://www.w3.org/2000/svg" viewBox="0 0 160 160"><path d="M35 0a5 5 0 0 0-5 5v85H10c-3.047 0-5.224 1.411-6.906 3.094C1.41 94.776 0 96.953 0 100v50c0 3.047 1.411 5.224 3.094 6.906C4.776 158.59 6.953 160 10 160h140c3.047 0 5.224-1.411 6.906-3.094C158.59 155.224 160 153.047 160 150v-50c0-3.047-1.411-5.224-3.094-6.906C155.224 91.41 153.047 90 150 90h-20V5a5 5 0 0 0-5-5H35zm5 10h80v80H40V10zm19.531 20a5.005 5.005 0 1 0 .438 10l39.812.344a5 5 0 1 0 .094-10L60.031 30a5 5 0 0 0-.5 0zm.032 20a5.004 5.004 0 1 0 .374 10l39.938.438a5 5 0 1 0 .094-10L60.063 50a5 5 0 0 0-.5 0zM60 70a5 5 0 1 0 0 10h40a5 5 0 1 0 0-10H60zm-49.594 30h23.688a5 5 0 0 0 1.718 0h88.282a5 5 0 0 0 1.719 0h23.78c.02.009.137.042.25.156.115.114.148.23.157.25v49.188c-.009.02-.042.136-.156.25-.114.114-.23.147-.25.156H10.406c-.02-.009-.136-.042-.25-.156-.114-.114-.147-.23-.156-.25v-49.188c.01-.02.042-.136.156-.25.114-.114.23-.147.25-.156zM30 120a5 5 0 1 0 0 10h100a5 5 0 1 0 0-10H30z"/></svg>