<svg xmlns="http://www.w3.org/2000/svg" width="160" height="160"><path d="M29.633 0v39.777H11.008C4.942 39.777 0 44.787 0 50.94v67.866c0 6.159 4.95 11.162 11.008 11.162h18.594V160H130v-10l-90-.021V94.877L50 95V85l-20.398-.145v35.09H11.008c-.621 0-1.14-.506-1.14-1.14V51.14c0-.635.519-1.141 1.14-1.141h137.984c.621 0 1.14.506 1.14 1.14l-1.14 78.827c6.066 0 11.008-5.003 11.008-11.162V50.939c0-6.158-4.95-11.162-11.008-11.162H130V0H29.633zM40 10h80.133v29.777H40V10zm60 50c-22.032 0-40 17.968-40 40s17.968 40 40 40c9.22 0 17.722-3.155 24.5-8.43l26.965 26.965a5 5 0 0 0 7.07 0 5 5 0 0 0 0-7.07L131.57 124.5c5.275-6.778 8.43-15.28 8.43-24.5 0-22.032-17.968-40-40-40zm0 10c16.628 0 30 13.372 30 30s-13.372 30-30 30-30-13.372-30-30 13.372-30 30-30z"/></svg>