<svg xmlns="http://www.w3.org/2000/svg" width="160" height="160"><path d="M29.633 0v39.777H11.008C4.942 39.777 0 44.787 0 50.94v67.866c0 6.159 4.95 11.162 11.008 11.162h18.594V160H65v-10.021H40V94.877l25 .002V84.855H29.602v35.09H11.008c-.621 0-1.14-.506-1.14-1.14V51.14c0-.635.519-1.141 1.14-1.141h137.984c.621 0 1.14.506 1.14 1.14V65H160V50.94c0-6.16-4.95-11.163-11.008-11.163H130V0H29.633zM40 10h80.133v29.777H40V10zm72.54 60v.002c-2.961 0-5.55 1.555-7.089 3.307-1.538 1.751-2.35 3.677-2.785 5.574l.022-.094-.999 3.994c-.05.02-.101.04-.152.067l-3.592-2.29.16.106c-1.892-1.311-4.047-1.998-6.418-2.027-2.37-.027-5.126.747-7.203 2.826l-3.533 3.533-.002.002c-2.093 2.094-2.822 5.022-2.672 7.348.15 2.325.938 4.26 1.971 5.91l1.998 3.332-3.363.84c-1.9.435-3.825 1.248-5.576 2.787-1.752 1.539-3.307 4.127-3.307 7.088v5c0 2.937 1.398 5.434 3.096 7.09 1.697 1.655 3.71 2.694 5.98 3.103l-.199-.041 3.473.772-2.102 3.503c-1.033 1.65-1.82 3.584-1.97 5.91-.151 2.327.579 5.257 2.671 7.35v.002l3.537 3.535c2.077 2.077 4.831 2.854 7.201 2.825 2.371-.027 4.526-.717 6.42-2.032l-.164.11 3.58-2.28c.041.02.081.033.122.053l1.003 4.014-.021-.096c.435 1.899 1.248 3.825 2.787 5.576 1.539 1.747 4.125 3.303 7.086 3.303h5c2.937 0 5.434-1.399 7.09-3.096 1.656-1.697 2.694-3.707 3.103-5.976l-.039.195.834-3.758 3.239 2.065-.163-.11c1.894 1.313 4.05 2.002 6.42 2.032 2.37.026 5.124-.75 7.2-2.825l.004-.002 3.535-3.533.002-.002c2.092-2.094 2.82-5.022 2.67-7.347-.151-2.326-.937-4.261-1.97-5.91l-2.064-3.444 3.76-.834-.195.04c2.27-.41 4.281-1.448 5.978-3.104 1.698-1.658 3.096-4.154 3.096-7.09v-5c0-2.96-1.555-5.55-3.307-7.088-1.751-1.539-3.677-2.35-5.574-2.785l.092.02-3.74-.934 1.955-3.26.002-.004c1.031-1.648 1.816-3.583 1.967-5.906.15-2.326-.579-5.254-2.67-7.348l-.002-.004-3.534-3.53c-2.075-2.08-4.831-2.858-7.203-2.83-2.37.027-4.527.717-6.422 2.03l.163-.107-3.21 2.045-.824-3.723.04.193c-.41-2.27-1.448-4.279-3.104-5.976-1.656-1.698-4.153-3.096-7.09-3.096h-5zm.382 9.998v.004h4.478c.007.01.006.012.07.078.184.188.402.658.423.772.011.064.024.129.039.193l1.441 6.512a5 5 0 0 0 3.344 3.675c1.29.417 2.54.947 3.756 1.577a5 5 0 0 0 4.988-.223l5.64-3.594c.055-.035.11-.07.163-.107.096-.067.582-.245.843-.248.092-.001.091-.004.104-.006l3.168 3.168a3.5 3.5 0 0 1-.479 1.232l-3.474 5.791a5 5 0 0 0-.168 4.84 25.084 25.084 0 0 1 1.494 3.574 5 5 0 0 0 3.541 3.295l6.496 1.621c.03.01.061.017.092.026.448.103.92.365 1.119.511v4.477c-.01.007-.012.005-.078.07-.188.183-.658.4-.772.42-.065.012-.13.027-.195.041l-6.416 1.424a5 5 0 0 0-3.69 3.389c-.4 1.28-.94 2.551-1.587 3.822a5 5 0 0 0 .168 4.846l3.47 5.785.05.078c.243.39.394.91.43 1.154l-3.165 3.164a.58.58 0 0 0-.108-.004c-.262-.003-.747-.18-.843-.248a5.142 5.142 0 0 0-.164-.107l-5.627-3.586a5 5 0 0 0-4.989-.22 24.933 24.933 0 0 1-3.808 1.599 5 5 0 0 0-3.344 3.674l-1.44 6.494c-.014.065-.027.13-.038.195-.02.112-.24.582-.422.77-.065.067-.064.068-.07.078h-4.48a3.486 3.486 0 0 1-.53-1.213l-1.606-6.416a5 5 0 0 0-3.332-3.55 24.88 24.88 0 0 1-4.055-1.708 5 5 0 0 0-5.02.205l-5.767 3.674a5.005 5.005 0 0 0-.166.11c-.094.066-.58.244-.842.248a.564.564 0 0 0-.107.003l-3.166-3.164a3.502 3.502 0 0 1 .482-1.234l3.653-6.088a5 5 0 0 0 .19-4.795c-.599-1.204-1.098-2.393-1.47-3.576a5 5 0 0 0-3.687-3.38l-6.414-1.425a4.922 4.922 0 0 0-.197-.04c-.112-.02-.582-.238-.77-.42-.066-.066-.068-.064-.078-.07v-4.48a3.49 3.49 0 0 1 1.117-.51c.032-.008.064-.015.096-.025l6.496-1.623a5 5 0 0 0 3.541-3.302c.36-1.107.825-2.205 1.373-3.313a5 5 0 0 0-.193-4.79l-3.657-6.095a3.5 3.5 0 0 1-.48-1.232l3.168-3.168c.012.002.01.005.103.006.262.003.751.182.848.25.053.036.106.07.16.103l5.782 3.686a5 5 0 0 0 5.02.207 24.637 24.637 0 0 1 4.071-1.713 5 5 0 0 0 3.344-3.555l1.6-6.398a3.491 3.491 0 0 1 .533-1.215zM115 105.002c-5.523 0-10 4.477-10 10s4.477 10 10 10 10-4.477 10-10-4.477-10-10-10z"/></svg>