<svg xmlns="http://www.w3.org/2000/svg" viewBox="0 0 160 160"><path d="M129.094 0c-7.439-.055-16.474 3.8-22.563 11.438L78.781 39c-6.676 1.836-12.871 5.652-17.594 11.344L46.532 64.75C44.975 66 43.573 67.454 42.22 69l-.688.656c-.13.157-.278.278-.406.438a5.002 4.998 0 0 0 0 6.281L8.031 109.25C4.59 112.047 0 120.507 0 130.031 0 146.531 13.487 160 30 160c10.633 0 19.974-5.635 22.844-9.625l35.531-36.25 24.469 24.406a5.002 4.998 0 0 0 8.531-3.531v-14.969h14.969a5.002 4.998 0 0 0 3.531-8.531l-21.656-21.688c1.82-3.19 3.135-6.561 3.875-10.03l31.781-32.438c9.835-12.9 7.593-30.547-5.094-40.688-4.835-3.865-10.56-5.98-18.25-6.593-.48-.039-.941-.06-1.437-.063zm.594 10.094c4.512-.109 9.049 1.341 12.843 4.375 8.477 6.775 9.97 18.87 3.5 27.531L122.22 65.813a34.38 34.38 0 0 0-12.344-20.438c-4.802-3.839-10.344-6.18-16.031-7.125l20.125-20.156c4.14-5.165 9.916-7.86 15.719-8zm-61.25 56.875c5.436-.005 10.924 1.786 15.53 5.469 7.034 5.622 10.165 14.183 9.094 22.468l-33.25 33.219c-.967-14.972-12.949-26.955-27.937-27.906L64.813 67.25a24.937 24.937 0 0 1 3.624-.281zM30 110.03c11.107 0 20 8.902 20 20C50 141.13 41.107 150 30 150s-20-8.87-20-19.969c0-11.098 8.893-20 20-20z"/></svg>