<svg xmlns="http://www.w3.org/2000/svg" viewBox="0 0 160 160"><path d="M141.014 111.3c-5.848-7.112-13.855-17.183-13.855-27.458v-32.72C127.16 22.934 106.077 0 79.136 0 52.191 0 31.274 22.934 31.274 51.122v32.72c0 10.102-8.689 19.65-14.198 27.058-4.956 6.657-8.866 11.915-6.226 17.172 2.323 4.624 8.138 5.218 12.943 5.218h28.711C52.512 148.042 64.475 160 79.23 160c14.757 0 26.72-11.958 26.727-26.71h29.386c3.056 0 10.202 0 12.662-5.198 2.483-5.264-1.49-10.102-6.99-16.791zm-61.79 38.203c-8.959 0-16.227-7.258-16.24-16.213h32.48c-.013 8.955-7.276 16.213-16.24 16.213zm56.118-26.88H23.793c-.767 0-1.408-.02-1.937-.06 1.033-1.599 2.548-3.64 3.78-5.302 6.106-8.205 16.308-19.787 16.308-33.419v-32.72c0-22.308 16.135-40.454 37.192-40.454 21.058 0 37.355 18.146 37.355 40.454v32.72c0 14.095 9.408 25.876 16.28 34.23 1.158 1.409 2.543 3.095 3.62 4.536-.318.007-.668.01-1.05.01z"/></svg>