<svg xmlns="http://www.w3.org/2000/svg" viewBox="0 0 160 160"><path d="M139.794 105.136v34.894h-9.986v-22.865c-1.56 1.186-3.265 2.145-4.723 2.878-1.46.734-3.288 1.436-5.488 2.107v-7.817c3.245-1.045 5.765-2.301 7.559-3.768 1.794-1.466 3.394-3.276 4.408-5.43zm-44.91 10.508l-9.01-1.615c.748-2.87 2.187-5.07 4.317-6.6 2.13-1.529 5.145-2.293 9.045-2.293 4.478 0 7.715.834 9.712 2.504 1.997 1.67 2.996 3.768 2.996 6.295 0 1.482-.406 2.824-1.217 4.026-.811 1.2-2.036 2.254-3.674 3.159 1.326.328 2.34.71 3.042 1.147a7.422 7.422 0 0 1 2.656 2.773c.632 1.147.948 2.516.948 4.107 0 1.997-.523 3.912-1.568 5.746-1.045 1.833-2.55 3.245-4.517 4.235-1.965.991-4.548 1.487-7.746 1.487-3.12 0-5.582-.367-7.384-1.1-1.802-.734-3.284-1.806-4.446-3.218-1.163-1.412-2.056-3.187-2.68-5.324l9.525-1.264c.375 1.919.956 3.249 1.744 3.99.788.741 1.79 1.112 3.007 1.112 1.28 0 2.344-.468 3.194-1.405.85-.936 1.276-2.184 1.276-3.744 0-1.591-.41-2.824-1.229-3.698-.819-.873-1.93-1.31-3.335-1.31-.749 0-1.778.187-3.089.561l.492-6.81c.53.078.944.117 1.24.117 1.248 0 2.29-.398 3.124-1.193.835-.796 1.252-1.74 1.252-2.832 0-1.045-.312-1.88-.936-2.504-.624-.624-1.482-.936-2.574-.936-1.123 0-2.036.339-2.738 1.018-.702.678-1.178 1.868-1.428 3.569zm55.13-35.524h-10.22v-7.729a4.991 4.991 0 0 0-4.993-4.993c-2.758 0-4.53 2.274-4.993 4.993v7.727l-29.955.317v-7.727a4.991 4.991 0 0 0-4.993-4.992c-2.758 0-4.57 2.266-4.993 4.992v7.727h-9.985c-5.514 0-9.985 4.471-9.985 9.985v59.595c0 5.514 4.47 10.01 9.985 9.985l70.133-.317c5.514-.026 9.985-4.471 9.985-9.986V90.103c0-5.512-4.496-10.503-9.985-9.983zM150 150l-70.118.015V90.42h9.985v3.444a4.991 4.991 0 0 0 4.993 4.993 4.991 4.991 0 0 0 4.993-4.993v-3.441l29.956-.317v3.443a4.991 4.991 0 0 0 4.992 4.993c2.759 0 5.975-2.415 4.993-4.993v-3.443h10.22zm-34.332-90v-8.878C115.668 22.934 96.077 0 69.136 0 42.191 0 20 22.934 20 51.122v32.72c0 10.102-7.415 21.36-12.924 28.768C2.12 119.266-1.79 124.525.85 129.78 3.173 134.406 8.988 135 13.793 135h28.711c.006 11.595 7.399 20.408 17.727 23.649l-.002-11.331c-4.36-2.405-7.237-6.688-7.245-12.318H60v-10H13.793a31.37 31.37 0 0 1-1.937-.058c1.033-1.598 2.548-4.308 3.78-5.969 6.106-8.205 15.034-21.497 15.034-35.128v-32.72c0-22.308 17.409-40.455 38.466-40.455C90.194 10.67 105 28.817 105 51.124v9.215z"/></svg>