<svg xmlns="http://www.w3.org/2000/svg" viewBox="0 0 160 160"><path d="M88.15 13.781c-32.631-.5-62.33 21.065-71.447 53.127L5.197 66.78a5.143 5.143 0 0 0-3.696 8.774l25.712 25.711a5.143 5.143 0 0 0 7.264 0l25.711-25.711a5.143 5.143 0 0 0-3.535-8.774l-7.81-.129c9.775-18.67 31.606-27.884 52.13-20.955 10.662 3.6 19.376 11.17 24.651 21.02l-38.214.064a5.143 5.143 0 0 0-3.631 1.478l-20.57 20.57a5.143 5.143 0 0 0 3.632 8.806l87.709.064a5.143 5.143 0 0 0 5.142-4.692c3.36-36.422-21.128-69.593-56.855-77.489a73.155 73.155 0 0 0-14.687-1.736zm-.193 10.285c4.183.068 8.415.54 12.663 1.479 29.244 6.463 49.537 32.43 49.013 61.868l-70.386-.064 10.285-10.285L133.499 77a5.143 5.143 0 0 0 4.885-6.814c-5.48-16.126-18.068-28.805-34.132-34.228-28.117-9.492-58.778 5.688-68.136 34.068a5.143 5.143 0 0 0 4.82 6.781l3.375.064-13.466 13.467L17.7 77.193l2.828.032a5.143 5.143 0 0 0 5.078-4.017c6.587-29.563 33.07-49.617 62.35-49.142zm-42.36 83.53l-21.437.547a5.143 5.143 0 0 0-4.596 7.135 73.148 73.148 0 0 0 10.96 18.16c24.659 29.988 68.356 35.239 99.471 12.405l7.875 7.456a5.143 5.143 0 0 0 8.677-3.76l-.128-36.35a5.143 5.143 0 0 0-5.175-5.11l-36.35.129a5.143 5.143 0 0 0-3.6 8.838l7.104 6.974c-17.995 11.224-41.93 7.262-55.602-10.124a43.212 43.212 0 0 1-2.7-3.856 5.143 5.143 0 0 0-4.5-2.443zm-2.507 10.35c.543.77 1.056 1.572 1.64 2.314 18.344 23.326 52.37 27.405 75.077 8.42a5.143 5.143 0 0 0 .29-7.617l-2.668-2.603 18.737-.064.065 19.22-2.347-2.218a5.143 5.143 0 0 0-6.813-.225c-26.997 22.5-66.506 18.62-88.61-8.26-2.232-2.715-4.168-5.636-5.913-8.677l10.542-.29z"/></svg>