<svg xmlns="http://www.w3.org/2000/svg" viewBox="0 0 160 160"><path d="M81.652 0C57.916 0 37.82 8.016 22.645 23.732a5.117 4.886 0 0 0-.006.006C7.6 39.394 0 59.1 0 81.931c0 23.11 7.237 42.34 21.775 56.66a5.117 4.886 0 0 0 .012.012C36.367 152.888 56.437 160 80.8 160c18.272 0 34.21-3.086 47.626-9.456a5.117 4.886 0 1 0-4.556-8.747c-11.704 5.556-26.003 8.434-43.07 8.434-22.33 0-39.154-6.17-51.683-18.447-12.565-12.38-18.88-28.649-18.88-49.853 0-20.808 6.6-37.694 19.944-51.583C43.531 16.526 60.26 9.77 81.651 9.77c22.203 0 38.633 5.659 50.382 16.692 11.823 11.103 17.736 25.722 17.736 44.997 0 12.68-2.716 22.588-7.797 30.075a5.117 4.886 0 0 0-.019.024c-5.03 7.505-10.322 10.455-17.402 10.455-4.219 0-6.246-1.022-8.035-3.445-1.777-2.407-3.11-6.917-3.126-13.626l5.401-59.035a5.117 4.886 0 1 0-10.194-.854l-.919 10.031c-4.715-4.855-11.36-7.475-18.813-7.475-11.64 0-21.732 5.066-28.551 14.26-6.803 9.17-9.988 21.063-9.988 35.244 0 9.835 2.184 18.191 7.038 24.615a5.117 4.886 0 0 0 .024.03c4.963 6.455 12.596 10.025 21.155 10.025 10.764 0 19.94-5.607 26.246-15.026.798 2.726 1.781 5.297 3.364 7.44 3.64 4.93 9.76 7.586 16.398 7.586 10.516 0 19.691-5.52 26.015-14.95C156.974 97.381 160 85.471 160 71.46c0-21.247-6.925-38.945-20.79-51.966C125.271 6.404 105.717 0 81.652 0zm26.556 45.426l.06.064c-.011-.012-.03-.015-.042-.03-.009-.008-.009-.026-.018-.034zm-19.343 1.952c5.481 0 8.89 1.453 11.679 4.519a5.117 4.886 0 0 0 .06.064c2.726 2.892 4.435 7.547 4.435 14.724 0 14.026-2.758 25.156-7.926 33.624a5.117 4.886 0 0 0-.012.023c-5.052 8.382-10.65 11.68-18.558 11.68-5.906 0-9.623-1.781-12.888-6.017-3.232-4.282-5.097-10.428-5.097-18.882 0-12.79 2.847-22.507 8.108-29.6 5.244-7.069 11.402-10.134 20.2-10.134z"/></svg>