<svg xmlns:svg="http://www.w3.org/2000/svg" xmlns="http://www.w3.org/2000/svg" viewBox="0 0 160 160">
    <path d="M95 0L0 15.8 0 20 0 144.2 95 160 95 145 155 145C157.8 145 160 142.8 160 140L160 20C160 17.2 157.8 15 155 15L95 15 95 0zM85 12L85 148 10 135.8 10 24.2 85 12zM95 25L150 25 150 135 95 135 95 125 105 125 105 115 95 115 95 105 105 105 105 95 95 95 95 85 105 85 105 75 95 75 95 65 105 65 105 55 95 55 95 45 105 45 105 35 95 35 95 25zM120 35L120 45 140 45 140 35 120 35zM66.3 50.3L53.9 50.3 45 67.3 37.1 51.9 24.7 52.3 38.5 79.7 23.7 108 36.3 108.3 44.7 92.1 53.5 109.7 66.7 110.3 51.2 79.6 66.3 50.3zM120 55L120 65 140 65 140 55 120 55zM120 75L120 85 140 85 140 75 120 75zM120 95L120 105 140 105 140 95 120 95zM120 115L120 125 140 125 140 115 120 115z"/>
</svg>
