<svg xmlns="http://www.w3.org/2000/svg" viewBox="0 0 160 160">
  <path d="m 20.147843,150.03974 a 5.0005,5.0005 0 0 0 3.4375,-1.51172 L 92.1205,79.992861 23.585343,11.457702 a 5.0005,5.0005 0 1 0 -7.07226,7.07032 L 77.97793,79.992861 16.513083,141.45771 a 5.0005,5.0005 0 0 0 3.63476,8.58203 z"/>
  <path d="m 90.147843,150.03974 a 5.0005,5.0005 0 0 0 3.4375,-1.51172 L 162.1205,79.992861 93.585343,11.457702 a 5.0005,5.0005 0 1 0 -7.07226,7.07032 L 147.97793,79.992861 86.513083,141.45771 a 5.0005,5.0005 0 0 0 3.63476,8.58203 z"/>
</svg>