<svg xmlns="http://www.w3.org/2000/svg" viewBox="0 0 160 160"><path d="M95 140H75c-3.242 0-5-1.844-5-5v-20c0-3.153 1.758-5 5-5h20c3.242 0 5 2.626 5 5.779V135c0 3.156-1.755 5-5 5zm-15-10h10v-10H80zm55 10h-20c-3.242 0-5-1.844-5-5v-20c0-3.153 1.758-5 5-5h20c3.242 0 5 2.626 5 5.779V135c0 3.156-1.755 5-5 5zm-15-10h10v-10h-10zm34.284 30H5.716C2.564 160 0 157.504 0 154.44v-51.4c0-.4.048-.802.138-1.2l5.22-98.213C5.464 1.594 7.19 0 9.282 0H25c2.092 0 3.818 1.594 3.926 3.627L35 90h7.49L45 3.627C45.108 1.594 46.833 0 48.926 0H65c2.092 0 3.818 1.594 3.926 3.627l5.834 83.736 32.251-17.877c5.55-3.077 8.2-1.048 9.028-.688 1.993.865 3.961 1.735 3.961 3.85V85l28.46-15.78c4.646-2.577 6.22-1.98 7.819-1.141 1.924 1.01 3.721 2.454 3.721 4.569v81.791c-.003 3.065-2.567 5.561-5.716 5.561zM150 150V79.939l-33.643 19.303a4.019 4.019 0 0 1-4.147.43c-1.354-.64-2.21-1.975-2.21-3.439V80L75.54 99.186a4.005 4.005 0 0 1-2.426.814H70c-2.092 0-3.818-1.594-3.926-3.627L60 10h-4.863l-4.988 86.373C50.04 98.406 48.315 100 46.223 100H30c-2.092 0-3.818-1.594-3.926-3.627L20 10h-5l-4.895 92.654c-.012.24-.047.474-.105.706V150z"/></svg>