<svg xmlns:svg="http://www.w3.org/2000/svg" xmlns="http://www.w3.org/2000/svg" viewBox="0 0 160 160"><path d="M36.703 0C16.413 0 0 16.413 0 36.703v86.594C0 143.587 16.413 160 36.703 160h86.594c20.29 0 36.703-16.413 36.703-36.703V36.703C160 16.413 143.587 0 123.297 0H36.703zm0 5h86.594A31.58 31.58 0 0 1 155 36.703v86.594A31.58 31.58 0 0 1 123.297 155H36.703A31.58 31.58 0 0 1 5 123.297V36.703A31.58 31.58 0 0 1 36.703 5zm23.22 24.807c-11.088 0-20.077 8.989-20.077 20.078 0 11.089 8.989 20.078 20.078 20.078 11.089 0 20.078-8.99 20.078-20.078 0-11.09-8.99-20.078-20.078-20.078zm52.706 20.078c-12.475 0-22.588 10.113-22.588 22.588a22.59 22.59 0 0 0 15.059 21.28v37.626l8.601 8.92 12.83-16.992-7.308-9.346 7.392-9.686-6.08-10.654a22.587 22.587 0 0 0 14.682-21.148c0-12.475-10.113-22.588-22.588-22.588zm0 15.058a7.53 7.53 0 1 1 0 15.059 7.53 7.53 0 0 1 0-15.059zM42.22 73.701h40.133H42.22zm-6.38 1.281a11.03 11.03 0 0 0-11.054 11.055v18.047a11.03 11.03 0 0 0 11.055 11.055h48.164a11.03 11.03 0 0 0 11.055-11.055v-3.842c-12.711-9.541-13.29-16.99-15.133-25.26H35.842z"/></svg>
