<svg xmlns="http://www.w3.org/2000/svg" viewBox="0 0 160 160"><path d="M125 45.03h10c2.76 0 5-2.24 5-5v-5c0-2.76-2.24-5-5-5h-10c-2.76 0-5 2.24-5 5v5c0 2.76 2.24 5 5 5zm0 30h10c2.76 0 5-2.24 5-5v-5c0-2.76-2.24-5-5-5h-10c-2.76 0-5 2.24-5 5v5c0 2.76 2.24 5 5 5zm0 30h10c2.76 0 5-2.24 5-5v-5c0-2.76-2.24-5-5-5h-10c-2.76 0-5 2.24-5 5v5c0 2.76 2.24 5 5 5zm0 30h10c2.76 0 5-2.24 5-5v-5c0-2.76-2.24-5-5-5h-10c-2.76 0-5 2.24-5 5v5c0 2.76 2.24 5 5 5zm-100-90h10c2.76 0 5-2.24 5-5v-5c0-2.76-2.24-5-5-5H25c-2.76 0-5 2.24-5 5v5c0 2.76 2.24 5 5 5zm0 30h10c2.76 0 5-2.24 5-5v-5c0-2.76-2.24-5-5-5H25c-2.76 0-5 2.24-5 5v5c0 2.76 2.24 5 5 5zm0 30h10c2.76 0 5-2.24 5-5v-5c0-2.76-2.24-5-5-5H25c-2.76 0-5 2.24-5 5v5c0 2.76 2.24 5 5 5zm0 30h10c2.76 0 5-2.24 5-5v-5c0-2.76-2.24-5-5-5H25c-2.76 0-5 2.24-5 5v5c0 2.76 2.24 5 5 5zM150 4.97H10c-5.497 0-10 4.503-10 10V150c0 5.497 4.503 10 10 10h140c5.497 0 10-4.503 10-10V14.97c0-5.498-4.503-10-10-10zM150 150H10V14.97h140V150z"/></svg>