<svg xmlns="http://www.w3.org/2000/svg" viewBox="0 0 160 160"><path d="M5 .008A4.992 4.992 0 0 0 .697 7.53l49.31 83.828V155A4.992 4.992 0 0 0 55 159.992h30A4.992 4.992 0 0 0 89.992 155V91.36l49.31-83.829A4.992 4.992 0 0 0 135 .008H5zm8.729 9.984H126.27L80.697 87.47a4.992 4.992 0 0 0-.69 2.531v60.008H59.993V90a4.992 4.992 0 0 0-.69-2.531L13.73 9.992zM129.928 125a4.992 4.992 0 0 0-3.457 1.463l-24.96 24.967a4.992 4.992 0 1 0 7.061 7.056L130 137.053l21.428 21.433a4.992 4.992 0 1 0 7.06-7.056l-24.959-24.967a4.992 4.992 0 0 0-3.601-1.463z"/></svg>