<svg xmlns="http://www.w3.org/2000/svg" viewBox="0 0 160 160"><path d="M 5.0175781 -0.1640625 C 0.96400209 -0.1638255 -1.4048603 4.406299 0.93164062 7.71875 L 30.017578 56.421875 L 30.017578 99.835938 C 30.017848 102.59725 32.256278 104.83566 35.017578 104.83594 L 55.017578 94.835938 C 56.941423 93.874005 60.017298 92.597247 60.017578 89.835938 L 60.017578 56.421875 L 89.103516 7.71875 C 91.440036 4.4063 89.071108 -0.1638275 85.017578 -0.1640625 L 5.0175781 -0.1640625 z M 14.667969 9.8359375 L 75.367188 9.8359375 L 50.933594 51.951172 C 50.337584 52.795043 50.017578 53.802807 50.017578 54.835938 L 50.017578 84.835938 L 40.017578 90.462891 L 40.017578 54.835938 C 40.017578 53.802808 39.697573 52.795043 39.101562 51.951172 L 14.667969 9.8359375 z M 5 90 A 5.0005 5.0005 0 0 0 0 95 L 0 155 A 5.0005 5.0005 0 0 0 5 160 L 155 160 A 5.0005 5.0005 0 0 0 160 155 L 160 95 A 5.0005 5.0005 0 0 0 155 90 L 70 90 L 70 100 L 80 100 L 80 125 L 10 125 L 10 100 L 20 100 L 20 90 L 5 90 z M 90 100 L 150 100 L 150 125 L 90 125 L 90 100 z M 10 135 L 80 135 L 80 150 L 10 150 L 10 135 z M 90 135 L 150 135 L 150 150 L 90 150 L 90 135 z"/></svg>