<svg xmlns="http://www.w3.org/2000/svg" viewBox="0 0 160 160"><path d="M5 .004a4.996 4.996 0 0 0-4.307 7.53l49.31 83.827V155A4.996 4.996 0 0 0 55 159.996h30A4.996 4.996 0 0 0 89.996 155V91.361l49.31-83.828A4.996 4.996 0 0 0 135 .003H5zm8.734 9.992h112.532l-45.57 77.47A4.996 4.996 0 0 0 80.003 90v60.004H59.996V90a4.996 4.996 0 0 0-.69-2.533L13.735 9.997zm91.264 114.955a4.996 4.996 0 0 0-3.488 8.574l24.955 25.008a4.996 4.996 0 0 0 7.07 0l24.955-25.008a4.996 4.996 0 1 0-7.072-7.056L130 147.934l-21.418-21.465a4.996 4.996 0 0 0-3.584-1.518z"/></svg>