<svg xmlns="http://www.w3.org/2000/svg" viewBox="0 0 160 160"><g transform="matrix(0.17872191,0,0,0.17872191,-11.221228,-12.157313)"><path d="M 759.89333,190.72 C 756.48,190.72 753.28,189.86667 750.08,188.37333 668.37333,146.13333 597.33333,128 512.42667,128 c -84.69334,0 -164.48,20.26667 -237.65334,60.16 a 21.418667,21.418667 0 0 1 -20.48,-37.54667 c 79.57334,-43.30666 166.4,-65.279997 258.13334,-65.279997 90.88,0 170.24,20.053337 257.28,65.066667 10.45333,5.33333 14.50666,18.34667 9.17333,28.8 -3.84,7.25333 -11.30667,11.52 -18.98667,11.52 z m -610.56,224 c -4.26666,0 -8.53333,-1.28 -12.37333,-3.84 a 21.248,21.248 0 0 1 -5.12,-29.65333 C 174.08,321.49333 228.05333,274.56 292.05333,241.49333 426.24,172.16 597.76,171.94667 732.16,241.06667 c 63.78667,32.85333 117.54667,79.36 160,138.66666 6.82667,9.6 4.69333,22.82667 -4.90667,29.65334 -9.6,6.82666 -23.04,4.69333 -29.86666,-4.90667 -38.4,-53.76 -87.04,-96 -144.64,-125.44 C 590.29333,216.10667 433.92,216.32 311.68,279.46667 c -57.81333,29.86666 -106.66667,72.32 -144.85333,126.50666 -4.26667,5.76 -10.88,8.74667 -17.49334,8.74667 z m 266.88,514.77333 c -5.54666,0 -10.88,-2.13333 -15.14666,-6.4 -36.90667,-37.33333 -56.96,-61.01333 -85.76,-112.42666 -29.44,-52.48 -45.01334,-116.69334 -45.01334,-185.38667 0,-126.72 108.37334,-229.97333 241.70667,-229.97333 133.33333,0 241.70667,103.04 241.70667,229.97333 0,11.73333 -9.6,21.33333 -21.33334,21.33333 -11.73333,0 -21.33333,-9.6 -21.33333,-21.33333 0,-103.25333 -89.17333,-187.30667 -199.04,-187.30667 -109.65333,0 -199.04,84.05334 -199.04,187.30667 0,61.44 13.65333,118.18667 39.46667,164.48 27.52,49.06667 45.86666,70.18667 78.72,103.25333 8.32,8.32 8.32,21.97334 -0.21334,30.08 -3.84,4.48 -9.38666,6.4 -14.72,6.4 z M 721.92,850.56 c -50.77333,0 -95.36,-12.8 -132.26667,-37.76 C 526.29333,769.70667 488.32,699.73333 488.32,625.49333 c 0,-11.73333 9.6,-21.33333 21.33333,-21.33333 11.73334,0 21.33334,9.6 21.33334,21.33333 0,59.94667 30.93333,116.69334 82.77333,151.89334 30.08,20.48 65.49333,30.50666 108.16,30.50666 10.24,0 27.52,-1.06666 44.58667,-4.05333 11.52,-2.13333 22.61333,5.76 24.74666,17.28 2.13334,11.52 -5.76,22.61333 -17.28,24.74667 -24.96,4.48 -46.08,4.69333 -52.05333,4.69333 z m -85.97333,88.10667 c -1.92,0 -3.84,-0.21334 -5.54667,-0.85334 -68.05333,-18.56 -112.42667,-43.73333 -158.50667,-89.6 A 312.36267,312.36267 0 0 1 379.52,625.49333 C 379.52,556.16 438.4,499.84 510.93333,499.84 c 72.53334,0 131.41334,56.32 131.41334,125.65333 0,45.65334 39.89333,82.98667 88.74666,82.98667 48.85334,0 88.74667,-37.12 88.74667,-82.98667 0,-160.85333 -138.66667,-291.62666 -309.12,-291.62666 -121.38667,0 -232.10667,67.41333 -282.02667,171.94666 -16.64,34.56 -24.96,74.88 -24.96,119.68 0,33.28 2.98667,85.76 28.37334,153.81334 C 236.16,790.4 230.61333,802.56 219.52,806.82667 208.42667,810.88 196.26667,805.33333 192,794.24 171.09333,738.13333 160.85333,683.09333 160.85333,625.49333 c 0,-51.2 9.81334,-97.70666 29.22667,-138.02666 56.96,-119.04 182.82667,-196.05334 320.42667,-196.05334 193.92,0 351.78666,149.97334 351.78666,334.29334 C 862.29333,695.04 803.2,751.36 730.88,751.36 c -72.32,0 -131.41333,-56.32 -131.41333,-125.65333 0,-45.65334 -39.89334,-82.98667 -88.74667,-82.98667 -48.85333,0 -88.74667,37.12 -88.74667,82.98667 0,72.74666 28.37334,141.22666 79.78667,192.42666 40.32,40.10667 79.57333,62.29334 139.73333,78.72 11.30667,3.2 18.13334,14.93334 14.93334,26.24 -2.56,9.38667 -11.09334,15.57334 -20.48,15.57334 z" /></g></svg>
