<svg xmlns="http://www.w3.org/2000/svg" viewBox="0 0 160 160"><path d="M93.865.002c-3.387 0-8.516 0-11.863 3.35L2.949 82.406A9.987 9.987 0 0 0 0 89.514a9.988 9.988 0 0 0 2.945 7.113l60.438 60.426A9.948 9.948 0 0 0 70.484 160a9.974 9.974 0 0 0 7.108-2.945l8.027-8.028C93.512 155.853 103.782 160 115 160c24.794 0 45-20.206 45-45 0-11.218-4.147-21.488-10.973-29.38l7.62-7.622c3.39-3.382 3.37-8.253 3.35-12.955v-52.87c0-6.71-5.46-12.171-12.167-12.171L96.082.008 93.865.002zM93.83 10l2.25.008L147.83 10c1.198 0 2.166.976 2.166 2.174v52.91c.01 1.902.02 5.084-.42 5.844l-7.887 7.88C134.214 73.279 124.981 70 115 70c-24.794 0-45 20.206-45 45 0 9.965 3.269 19.185 8.783 26.654l-8.334 8.326L10.02 89.48l78.967-78.985c.795-.492 3.66-.494 4.844-.494zm26.172 10c-11.045 0-20 8.955-20 20s8.955 20 20 20 20-8.955 20-20-8.955-20-20-20zm0 10c5.522 0 10 4.478 10 10s-4.478 10-10 10c-5.523 0-10-4.478-10-10s4.477-10 10-10zM115 80c19.39 0 35 15.61 35 35s-15.61 35-35 35-35-15.61-35-35 15.61-35 35-35zm-.076 9.93A5 5 0 0 0 110 95v15h-5a5 5 0 0 0-3.535 8.535l9.562 9.563a5 5 0 0 0 3.155 1.902H100a5 5 0 1 0 0 10h30a5 5 0 1 0 0-10h-14.197a5 5 0 0 0 3.187-1.92l9.545-9.545A5 5 0 0 0 125 110h-5V95a5 5 0 0 0-5.076-5.07z"/></svg>