<svg xmlns="http://www.w3.org/2000/svg" viewBox="0 0 160 160"><path d="M120.002 50c-5.522 0-10-4.477-10-10 0-5.522 4.478-10 10-10 5.523 0 10 4.478 10 10 0 5.523-4.477 10-10 10zm0-30c-11.045 0-20 8.956-20 20 0 11.046 8.955 20 20 20s20-8.954 20-20c0-11.044-8.955-20-20-20zm29.575 50.928L70.45 149.98 10.02 89.478l78.967-78.985c.795-.492 3.658-.492 4.843-.492l2.25.007 51.75-.007c1.197 0 2.167.975 2.167 2.172v52.91c.01 1.903.02 5.085-.42 5.845zm10.42-5.885v-52.87c0-6.71-5.46-12.172-12.168-12.172L96.082.008 93.865.001c-3.388 0-8.515 0-11.863 3.35L2.95 82.405A9.987 9.987 0 0 0 0 89.513a9.991 9.991 0 0 0 2.945 7.115l60.437 60.425A9.95 9.95 0 0 0 70.485 160a9.974 9.974 0 0 0 7.107-2.945l79.055-79.057c3.39-3.382 3.37-8.252 3.35-12.955z"/></svg>