<svg xmlns="http://www.w3.org/2000/svg" viewBox="0 0 160 160"><path d="M55.07 90a5 5 0 1 0 0 10h69.916a5 5 0 1 0 0-10H55.07zM40 95a5 5 0 0 1-5 5 5 5 0 0 1-5-5 5 5 0 0 1 5-5 5 5 0 0 1 5 5zm15.07 15a5 5 0 1 0 0 10h69.916a5 5 0 1 0 0-10H55.07zM40 115a5 5 0 0 1-5 5 5 5 0 0 1-5-5 5 5 0 0 1 5-5 5 5 0 0 1 5 5zm15.07 15a5 5 0 1 0 0 10h69.916a5 5 0 1 0 0-10H55.07zM40 135a5 5 0 0 1-5 5 5 5 0 0 1-5-5 5 5 0 0 1 5-5 5 5 0 0 1 5 5zm110.003-84.967H75.025L60.03 30H10.045C4.524 30 .047 34.476.047 39.997v30.03H0v9.997h.047v69.979c0 5.52 4.477 9.997 9.998 9.997h139.958c5.52 0 9.997-4.476 9.997-9.997V60.03c0-5.521-4.476-9.997-9.997-9.997zM10.042 39.997h45.417l12.28 17.104 3.142 2.929h79.122v9.997H10.045v-30.03zm0 110.006v-69.98H150v69.98z"/></svg>