<svg xmlns="http://www.w3.org/2000/svg" width="160" height="160"><path d="M160 120.003V30.03c0-5.521-4.476-9.997-9.997-9.997H95.025L80.03 0H30.045c-5.521 0-9.998 4.476-9.998 9.997V20h9.998V9.997h-.003 45.417l12.28 17.104 3.142 2.929h59.122L150 130c5.523 0 9.999-4.476 9.999-9.997zm-29.997-69.97H75.025L60.03 30H10.045C4.524 30 .047 34.476.047 39.997v30.03H0v9.997h.047v69.979c0 5.52 4.477 9.997 9.998 9.997h119.958c5.52 0 9.997-4.476 9.997-9.997V60.03c0-5.521-4.476-9.997-9.997-9.997zM10.042 39.997h45.417l12.28 17.104 3.142 2.929h59.122v9.997H10.045v-30.03zm0 110.006v-69.98H130v69.98z"/></svg>