<svg xmlns="http://www.w3.org/2000/svg" viewBox="0 0 160 160"><path d="M125 115a10 10 0 0 1-10 10 10 10 0 0 1-10-10 10 10 0 0 1 10-10 10 10 0 0 1 10 10zm-12.461-45c-2.96 0-5.55 1.555-7.088 3.307-1.538 1.751-2.35 3.677-2.785 5.574l.021-.094-.998 3.994c-.05.02-.101.04-.152.067l-3.592-2.29.16.106c-1.893-1.311-4.047-1.998-6.418-2.027-2.37-.027-5.127.747-7.203 2.826l-3.533 3.533a5 5 0 0 0-.002.002c-2.093 2.094-2.823 5.022-2.672 7.348.15 2.325.938 4.26 1.97 5.91l1.999 3.332-3.363.84c-1.9.435-3.825 1.248-5.577 2.787-1.751 1.539-3.306 4.127-3.306 7.088v5c0 2.937 1.398 5.434 3.095 7.09 1.698 1.655 3.71 2.694 5.98 3.103l-.198-.04 3.472.772-2.152 3.585.05-.082c-1.033 1.65-1.82 3.584-1.97 5.91-.15 2.327.58 5.257 2.672 7.35a5 5 0 0 0 0 .002l3.537 3.535c2.076 2.077 4.831 2.854 7.201 2.825 2.371-.027 4.526-.717 6.42-2.032l-.164.11 3.58-2.28c.04.02.08.034.121.054l1.004 4.013-.021-.096c.435 1.9 1.248 3.825 2.787 5.576 1.539 1.747 4.125 3.302 7.086 3.302h5c2.937 0 5.434-1.399 7.09-3.096 1.656-1.697 2.694-3.707 3.103-5.976l-.039.195.834-3.758 3.238 2.065-.162-.11c1.894 1.313 4.05 2.002 6.42 2.031 2.37.027 5.123-.749 7.2-2.824l.003-.002 3.535-3.533a5 5 0 0 0 .002-.002c2.093-2.094 2.82-5.022 2.67-7.347-.15-2.326-.936-4.261-1.968-5.91l-2.065-3.444 3.76-.834-.195.04c2.27-.41 4.28-1.447 5.978-3.104 1.698-1.657 3.096-4.154 3.096-7.09v-5c0-2.96-1.555-5.55-3.307-7.088-1.751-1.539-3.677-2.35-5.574-2.785l.092.02-3.74-.934 1.955-3.26.002-.004c1.031-1.648 1.816-3.582 1.967-5.906.15-2.325-.579-5.253-2.67-7.347a5 5 0 0 0-.002-.004l-3.534-3.53c-2.075-2.08-4.831-2.859-7.203-2.83-2.37.027-4.527.716-6.421 2.03l.162-.108-3.21 2.045-.824-3.722.04.193c-.41-2.27-1.448-4.28-3.104-5.977-1.656-1.697-4.153-3.095-7.09-3.095h-5zm.383 10h4.617c-.176 0-.252-.11-.068.078.183.188.401.658.421.772a5 5 0 0 0 .04.193l1.441 6.512a5 5 0 0 0 3.344 3.675c1.29.417 2.54.947 3.756 1.577a5 5 0 0 0 4.988-.223l5.64-3.594a5 5 0 0 0 .163-.107c.096-.067.582-.245.844-.248.261-.003.13.02.004-.106a5 5 0 0 0 .004.004l3.263 3.264a3.5 3.5 0 0 1-.43 1.15 5 5 0 0 0-.048.082l-3.475 5.791a5 5 0 0 0-.168 4.84 25.084 25.084 0 0 1 1.494 3.575 5 5 0 0 0 3.541 3.294l6.497 1.622a5 5 0 0 0 .091.026 3.5 3.5 0 0 1 1.12.51v4.617c0-.175.109-.25-.079-.068-.187.182-.657.399-.771.42a5 5 0 0 0-.195.04l-6.416 1.424a5 5 0 0 0-3.69 3.388c-.4 1.28-.94 2.552-1.588 3.823a5 5 0 0 0 .168 4.845l3.47 5.785a5 5 0 0 0 .05.078c.243.39.394.91.431 1.155l-3.265 3.263a5 5 0 0 0-.002.002c.125-.125.256-.102-.006-.105-.262-.003-.748-.181-.844-.248a5 5 0 0 0-.164-.107l-5.627-3.586a5 5 0 0 0-4.988-.221 24.933 24.933 0 0 1-3.809 1.6 5 5 0 0 0-3.344 3.673l-1.44 6.495a5 5 0 0 0-.038.195c-.02.112-.24.582-.422.77-.184.187-.108.077.068.077h-4.617a3.486 3.486 0 0 1-.51-1.117 5 5 0 0 0-.021-.096l-1.606-6.416a5 5 0 0 0-3.332-3.55 24.88 24.88 0 0 1-4.054-1.708 5 5 0 0 0-5.02.206l-5.767 3.673a5 5 0 0 0-.166.11c-.095.066-.58.244-.842.248-.263.003-.132-.02-.006.105a5 5 0 0 0-.002-.002l-3.266-3.264c.037-.243.188-.762.432-1.152a5 5 0 0 0 .05-.082l3.653-6.088a5 5 0 0 0 .19-4.795c-.599-1.204-1.097-2.393-1.47-3.576a5 5 0 0 0-3.687-3.38l-6.414-1.425a5 5 0 0 0-.197-.04c-.112-.02-.582-.237-.77-.42-.187-.182-.078-.107-.078.07v-4.618a3.489 3.489 0 0 1 1.117-.51 5 5 0 0 0 .096-.027l6.496-1.623a5 5 0 0 0 3.541-3.303c.36-1.106.825-2.205 1.373-3.312a5 5 0 0 0-.193-4.791l-3.656-6.094a5 5 0 0 0-.051-.08 3.5 3.5 0 0 1-.43-1.152l3.264-3.264a5 5 0 0 0 .004-.004c-.125.126-.258.102.004.106.262.003.75.182.847.25a5 5 0 0 0 .16.105l5.782 3.685a5 5 0 0 0 5.02.206 24.637 24.637 0 0 1 4.072-1.713 5 5 0 0 0 3.343-3.555l1.6-6.398a5 5 0 0 0 .023-.094c.103-.448.363-.92.51-1.12zM150 70V30H10V150.415h60.074l-.148 9.582c-70.912 0-62.95-.04-65.26-1.441-4.945-3.002-4.665 1.718-4.662-78.703C.007 9.882.06 6.917 1.398 4.736 4.453-.251.254.002 79.95.002c78.109 0 75.108-.155 78.443 4.066L160 6.1V70m-10-55.436V10H10v10h140z"/></svg>