<svg xmlns:svg="http://www.w3.org/2000/svg" xmlns="http://www.w3.org/2000/svg" viewBox="0 0 160 160"><path d="M5 0a5 5 0 0 0-5 5v25a5 5 0 0 0 5 5h60a5 5 0 0 0 5-5v-5h10.02l.095 25.02a5 5 0 0 0 5 4.98H100v10a5 5 0 0 0 5 5h50a5 5 0 0 0 5-5V40a5 5 0 0 0-5-5h-50a5 5 0 0 0-5 5v5h-9.904L90 19.98A5 5 0 0 0 85 15H70V5a5 5 0 0 0-5-5H5zm5 10h50v15H10V10zm100 35h40v15h-40V45zM65 80a5 5 0 0 0-5 5v25a5 5 0 0 0 5 5h90a5 5 0 0 0 5-5V85a5 5 0 0 0-5-5H65zm5 10h80v15H70V90zm-45 35a5 5 0 0 0-5 5v25a5 5 0 0 0 5 5h70a5 5 0 0 0 5-5v-25a5 5 0 0 0-5-5H25zm5 10h60v15H30v-15z"/></svg>