<svg xmlns="http://www.w3.org/2000/svg" viewBox="0 0 160 160"><path d="M102.996 92.919a119.251 119.251 0 0 0-34.332 5.083c-6.416 1.938-10.143 3.39-14.666 5.917-4.339 2.424-8 5.68-8 9.5 0 .567.106 1.125.25 1.666h-.25v23.25c0 2.645 1.273 5.04 2.834 6.749 1.56 1.709 3.443 2.99 5.666 4.166 4.446 2.355 7.415 3.217 14.166 5.75 7.122 2.673 20.016 5 34.332 5 14.317 0 27.128-2.327 34.25-5 6.75-2.533 9.803-3.395 14.249-5.75 2.223-1.177 4.105-2.457 5.666-4.166 1.561-1.709 2.833-4.104 2.833-6.75v-23.25h-.25c.145-.54.25-1.098.25-1.666 0-3.818-3.66-7.075-8-9.5-4.522-2.527-8.333-3.978-14.749-5.916-7.711-2.329-19.61-5.083-34.249-5.083zm0 7.833c12.549 0 22.404 2.35 30.333 4.667 6.139 1.793 8.094 3.045 11 4.583 2.904 1.538 3.582 2.661 3.582 3.416 0 .755-.678 1.878-3.583 3.417-2.905 1.538-6.088 2.738-11 4.583-6.39 2.401-16.585 4.667-30.332 4.667-13.746 0-24.025-2.266-30.415-4.667-4.911-1.845-8.011-3.045-10.917-4.583-2.905-1.539-3.583-2.662-3.583-3.417 0-.755.678-1.878 3.583-3.416 2.906-1.538 4.778-2.79 10.917-4.583 7.928-2.317 17.867-4.667 30.415-4.667zm-9.5 3.833l-4.916 5.667c1.78 1.282 2.896 2.749 3.417 4.416.52 1.668.36 3.814-.5 6.417l8.75 2c.625-1.755.992-3.262 1.083-4.5.091-1.238.02-2.573-.334-4L118.912 119l6.084-7zm-37.665 19.166c4.318 2.022 6.78 2.923 12.833 5.083 8.288 2.96 20.173 5.084 34.332 5.084 14.16 0 25.961-2.125 34.25-5.084 6.052-2.16 8.597-3.06 12.915-5.083v14.333c-.008.003-.033.096-.25.333-.433.475-1.517 1.254-3.083 2.084-3.132 1.659-5.398 2.861-11.75 4.916-6.796 2.2-17.883 4.75-32.082 4.75-14.198 0-25.37-2.55-32.165-4.75-6.351-2.055-8.534-3.257-11.666-4.916-1.567-.83-2.65-1.609-3.084-2.084-.217-.237-.241-.33-.25-.333zM84.822 10.958c12.235 3.546 22.712 20.536 27.405 43.055-7.543.602-16.627 1.04-27.405 1.143zm-9.962.123v44.07c-10.66-.107-19.785-.541-27.454-1.128 4.788-22.237 15.349-39.1 27.454-42.942zm9.962 74.176V65.098c11.432-.107 21.05-.589 29.034-1.247.656 5.254 1.013 15.812 1.013 21.408l9.96-.002c0-5.965-.345-16.848-.981-22.41 15.438-1.843 22.202-4.166 22.656-4.325l-1.858-5.237c3.468 8.278 5.389 22.454 5.389 31.972h9.96c.508-48.687-33.318-82.302-75.21-84.785a23.82 23.82 0 0 0-2.607-.157c-.26 0-.52.027-.779.035-.466-.008-.93-.035-1.402-.035C35.887.315 0 36.132 0 80.158c0 22.012 8.972 41.973 23.457 56.43 3.622 3.615 10.977 8.071 15.234 10.944l.157-10.54c-1.542-1.235-2.677-2.245-4.119-3.55-6.1-5.522-11.6-11.73-15.688-18.924 3.628-.771 7.246-1.944 16.864-2.952l-2.173-9.78c-11.602 1.252-15.86 2.752-19.062 3.525a69.364 69.364 0 0 1-4.71-25.153c0-7.323 1.14-14.386 3.24-21.023 1.922.522 9.187 2.33 22.697 3.825a124.097 124.097 0 0 0-1.198 17.2c0 7.527-.038 11.654 1.19 18.51l9.765-.9c-1.098-6.58-.977-10.432-.977-17.612 0-5.584.369-11.036 1.045-16.28 8.091.636 17.766 1.105 29.138 1.215v20.13zm57.985-35.984c-1.507.469-7.807 2.258-20.431 3.747-2.814-14.962-7.902-27.75-14.52-36.982a70.41 70.41 0 0 1 34.95 33.235zM56.11 14.446c-8.141 9.349-14.788 22.791-18.415 38.689-11.302-1.225-18.076-2.665-20.788-3.318 7.909-16.317 21.993-29.121 39.203-35.37z"/></svg>