<svg xmlns="http://www.w3.org/2000/svg" viewBox="0 0 160 160"><path d="M160 80.154C160 37.737 126.682 2.95 84.788.466A23.824 23.824 0 0 0 82.18.31c-.26 0-.52.027-.779.035-.466-.007-.93-.035-1.402-.035-44.112 0-80 35.818-80 79.845C0 124.182 35.888 160 80 160c.472 0 .936-.027 1.405-.037.26.01.519.037.778.037.878 0 1.744-.062 2.607-.157C126.682 157.36 160 122.577 160 80.154zm-14.885 25.704c-2.75-.798-9.656-2.532-21.842-3.96a150.437 150.437 0 0 0 1.56-21.744c0-5.965-.344-11.749-.98-17.31 15.438-1.844 22.202-4.167 22.656-4.326l-1.858-5.237a69.385 69.385 0 0 1 5.389 26.873c0 9.075-1.759 17.74-4.925 25.704zM44.678 80.154c0-5.583.37-11.035 1.046-16.28 8.09.637 17.767 1.106 29.139 1.216v34.628c-11.07.107-20.532.556-28.488 1.165a126.296 126.296 0 0 1-1.697-20.729zm40.147-69.201c12.236 3.545 22.712 20.536 27.406 43.056-7.543.602-16.627 1.04-27.406 1.143v-44.2zm-9.962.122v44.072c-10.661-.107-19.786-.541-27.455-1.128 4.788-22.238 15.349-39.102 27.455-42.944zm0 98.588v39.569c-11.29-3.583-21.238-18.491-26.41-38.521 7.448-.546 16.233-.946 26.41-1.048zm9.962 39.693v-39.695c10.285.097 19.035.511 26.388 1.08-5.085 20.292-14.97 35.307-26.388 38.615zm0-49.638V65.095c11.432-.108 21.05-.59 29.035-1.248a131.757 131.757 0 0 1 1.013 16.31c0 7.193-.58 14.17-1.642 20.759-7.862-.637-17.278-1.093-28.406-1.198zm57.987-50.45c-1.507.47-7.807 2.259-20.432 3.748-2.814-14.962-7.901-27.752-14.52-36.983a70.412 70.412 0 0 1 34.952 33.236zm-86.7-34.827c-8.14 9.349-14.787 22.792-18.415 38.69-11.302-1.225-18.076-2.665-20.788-3.318C24.818 33.495 38.902 20.69 56.113 14.44zm-42.91 44.69c1.92.522 9.186 2.33 22.696 3.825a124.102 124.102 0 0 0-1.197 17.201c0 7.527.68 14.77 1.908 21.627-11.602 1.252-18.737 2.752-21.938 3.525a69.367 69.367 0 0 1-4.71-25.155c0-7.322 1.14-14.386 3.24-21.023zm5.84 55.385c3.628-.771 10.122-1.944 19.74-2.952 3.788 13.99 9.948 25.826 17.33 34.302-15.768-5.726-28.894-16.959-37.07-31.35zm88.817 29.758c5.96-8.306 10.679-19.496 13.613-32.56 9.888 1.135 16.095 2.463 19.227 3.253-7.488 12.955-19.002 23.296-32.84 29.307z"/></svg>