<svg xmlns="http://www.w3.org/2000/svg" viewBox="0 0 160 160"><path d="M80 14.656L98.26 52.521l3.205 6.645 7.304 1.089 41.502 6.165-30.266 30.186-5.084 5.073 1.19 7.075 7.069 42.178-36.576-19.671-6.61-3.558-6.61 3.558-36.573 19.681 7.071-42.188 1.185-7.075-5.084-5.073L9.728 66.415l41.503-6.165 7.301-1.09 3.208-6.641L80 14.656m-.002-9.67c-4.474 0-8.553 2.526-10.457 6.473l-18.095 37.57-41.64 6.192c-4.277.64-7.829 3.56-9.208 7.554-1.376 4.007-.335 8.416 2.686 11.421l30.508 30.476-7.077 42.256c-.712 4.26 1.13 8.528 4.741 11.019A11.76 11.76 0 0 0 38.111 160c1.924 0 3.847-.467 5.588-1.401l36.299-19.545 36.301 19.545a11.843 11.843 0 0 0 5.586 1.401c2.336 0 4.669-.69 6.66-2.053 3.607-2.49 5.45-6.76 4.733-11.019l-7.079-42.256 30.523-30.476c3.02-3.005 4.055-7.416 2.678-11.42-1.381-4-4.933-6.92-9.207-7.555L108.56 49.03l-18.105-37.57c-1.891-3.952-5.973-6.472-10.457-6.472z"/></svg>