<svg xmlns="http://www.w3.org/2000/svg" viewBox="0 0 160 160"><path d="M105.079 90.006a5.02 5.02 0 0 0-2.125.438l-45 20c-1.748.784-2.954 2.647-2.954 4.562 0 1.916 1.206 3.779 2.954 4.563l22.031 9.781v15.656c-.001 1.841 1.106 3.64 2.75 4.469l20 10c1.39.7 3.11.7 4.5 0l20-10c1.644-.829 2.751-2.628 2.75-4.469V129.35l15-6.656v13.656a9.967 9.967 0 0 0-5 8.656c0 5.523 4.477 10 10 10s10-4.477 10-10a9.967 9.967 0 0 0-5-8.656v-21.094a5.052 5.052 0 0 0-.031-.75 4.668 4.668 0 0 0-.031-.25 4.668 4.668 0 0 0-.031-.25 5.017 5.017 0 0 0-.063-.219 5.009 5.009 0 0 0-.344-.937 4.997 4.997 0 0 0-.218-.438 5.007 5.007 0 0 0-.282-.437 5.047 5.047 0 0 0-2.781-1.875l-44.188-19.656a5.017 5.017 0 0 0-1.937-.438zm-.094 10.469l32.688 14.531-32.688 14.531-32.687-14.53zm-15 33.344l12.969 5.75a5.068 5.068 0 0 0 4.062 0l12.97-5.75v8.093l-15 7.5-15-7.5zM77.426 19.33l17.67 36.647 3.102 6.43 7.07 1.055 49.149 7.895c.467-1.89.52-3.518-.146-5.456-1.337-3.87-4.775-6.697-8.912-7.31l-40.292-5.994-17.523-36.362c-1.83-3.825-5.78-6.264-10.12-6.264-4.33 0-8.278 2.444-10.12 6.264L49.79 52.598 9.49 58.59c-4.139.62-7.577 3.445-8.911 7.311-1.332 3.878-.324 8.145 2.599 11.054l29.527 29.495-6.85 40.897c-.689 4.122 1.093 8.254 4.589 10.665a11.38 11.38 0 0 0 6.44 1.987c1.862 0 3.724-.452 5.409-1.356l19.421-10.75-5.27-7.864-20.819 11.204 6.844-40.832 1.146-6.847-4.92-4.91-29.28-29.22 40.167-5.967 7.067-1.054 3.104-6.429 17.673-36.644"/></svg>