<!-- Generator: Adobe Illustrator 27.4.1, SVG Export Plug-In . SVG Version: 6.00 Build 0)  -->
<svg version="1.1" id="Warstwa_1" xmlns="http://www.w3.org/2000/svg" xmlns:xlink="http://www.w3.org/1999/xlink" x="0px" y="0px"
	 viewBox="0 0 160 160" style="enable-background:new 0 0 160 160;" xml:space="preserve">
<path d="M80,5c-4.5,0-8.6,2.5-10.5,6.5L51.4,49L9.8,55.2c-4.3,0.6-7.8,3.6-9.2,7.6c-1.4,4-0.3,8.4,2.7,11.4l30.5,30.5l-7.1,42.3
	c-0.7,4.3,1.1,8.5,4.7,11c2,1.3,4.3,2.1,6.7,2.1c1.9,0,3.8-0.5,5.6-1.4L80,139.1l36.3,19.5c1.7,0.9,3.6,1.4,5.6,1.4
	c2.3,0,4.7-0.7,6.7-2.1c3.6-2.5,5.4-6.8,4.7-11l-7.1-42.3l30.5-30.5c3-3,4.1-7.4,2.7-11.4c-1.4-4-4.9-6.9-9.2-7.6L108.6,49
	L90.5,11.5C88.6,7.5,84.5,5,80,5L80,5z"/>
</svg>
