<svg xmlns="http://www.w3.org/2000/svg" viewBox="0 0 160 160"><path d="M110.173 105.225c-4.443.008-6.625 5.414-3.432 8.504l18.77 18.771-18.77 18.77c-5.156 4.653 2.336 12.145 6.988 6.99l18.771-18.771 18.77 18.77c4.653 5.156 12.145-2.336 6.99-6.988L139.488 132.5l18.77-18.77c5.156-4.653-2.336-12.145-6.988-6.99L132.5 125.512l-18.77-18.77a4.948 4.948 0 0 0-3.557-1.516zM80 14.67L98.26 52.53l3.205 6.644 7.304 1.09 41.502 6.164-28.68 28.602 14.24.032 20.892-20.858c3.02-3.005 4.055-7.416 2.678-11.42-1.381-4-4.933-6.92-9.207-7.553l-41.633-6.193-18.105-37.566C88.564 7.52 84.482 5 79.998 5c-4.474 0-8.553 2.525-10.457 6.472L51.446 49.038 9.806 55.23c-4.277.64-7.829 3.56-9.208 7.554-1.376 4.006-.335 8.415 2.686 11.42l30.508 30.473-7.077 42.252c-.712 4.259 1.13 8.528 4.741 11.018A11.76 11.76 0 0 0 38.111 160a11.82 11.82 0 0 0 5.588-1.401l36.299-19.543 15.31 8.242-.096-11.405-8.61-4.63-6.609-3.557-6.61 3.557-36.573 19.68 7.071-42.185 1.185-7.074-5.084-5.073L9.728 66.423l41.503-6.165 7.301-1.089 3.208-6.641L80 14.668"/></svg>