<svg xmlns="http://www.w3.org/2000/svg" viewBox="0 0 160 160"><path d="M36.887 65.632c-1.899 1.892-1.927 4.986 0 6.848L54.474 90H4.917C2.231 90 .055 92.17.055 94.843s2.176 4.843 4.862 4.843H54.78l-17.89 17.82a4.829 4.829 0 0 0 0 6.848 4.852 4.852 0 0 0 3.436 1.419 4.852 4.852 0 0 0 3.438-1.42l28.715-29.36-28.715-29.36a4.877 4.877 0 0 0-6.877 0zm43.07-51.054L61.69 52.463l-3.207 6.648-7.308 1.09L50 60.34V48.983l1.382-.014 18.115-37.59c1.892-3.954 5.976-6.476 10.463-6.476 4.476 0 8.558 2.527 10.462 6.476l18.105 37.59 41.662 6.196c4.279.64 7.833 3.561 9.213 7.558 1.377 4.009.334 8.42-2.687 11.427l-30.525 30.492 7.08 42.279c.713 4.261-1.129 8.533-4.743 11.025A11.765 11.765 0 0 1 121.87 160c-1.925 0-3.85-.467-5.591-1.402L79.96 139.043l-36.32 19.555A11.85 11.85 0 0 1 38.05 160c-2.336 0-4.67-.69-6.663-2.054-3.609-2.492-5.453-6.764-4.736-11.025L27.92 140l10.848-.095-2.011 11.022 36.595-19.682 6.614-3.559 6.613 3.559 36.593 19.692-7.076-42.211-1.184-7.078 5.086-5.076 30.27-30.208-41.525-6.168-7.305-1.09-3.21-6.645-18.27-37.883"/></svg>