<svg xmlns="http://www.w3.org/2000/svg" viewBox="0 0 160 160"><path d="M140 150h-25v-30h25zm-60-30h25v30H80zM70 95.418h35V110H70zM150 110h-35V95.418h35zM85.524 69.52c7.648 0 15.628 8.99 19.997 15.477H95.11c-7.17 0-15.083-3.78-15.083-10.61 0-3.366 1.696-4.868 5.498-4.868zm50.638 0c3.802 0 5.498 1.596 5.498 4.963 0 6.83-7.624 10.515-14.794 10.515h-10.41c4.37-6.489 12.06-15.479 19.706-15.479zM160 95.417C160 90 155 85 150 85h-6.646c4.13 0 6.642-6.48 6.646-10.518C150 65 145 60 135 60c-11.3 0-25 10-24.012 22.144C110 70 96.298 60 85 60c-10 0-15 5-15 14.483 0 4.325 5 10.517 8.435 10.519H70c-5 0-10 4.998-10 10.416V120h10v30c0 3.396 6.604 10 10 10h59.998c3.396 0 10.002-6.602 10.002-9.998V120h10zM79.551 9.616l18.156 37.652 3.187 6.607 7.263 1.083L120 56.78V45.593l-12.049-1.798L89.947 6.436C88.067 2.506 84.007 0 79.549 0 75.1 0 71.044 2.511 69.15 6.436l-17.994 37.36L9.75 49.952c-4.253.636-7.785 3.54-9.156 7.512-1.369 3.984-.333 8.368 2.67 11.357l30.337 30.304-7.037 42.02c-.708 4.235 1.123 8.48 4.715 10.957a11.693 11.693 0 0 0 6.617 2.042 11.75 11.75 0 0 0 5.557-1.394l16.504-9.404.042-11.462-23.397 13.253 7.032-41.953 1.178-7.034-5.055-5.045L9.674 61.084l41.27-6.13 7.26-1.084 3.19-6.604L79.55 9.616"/></svg>