<svg xmlns="http://www.w3.org/2000/svg" viewBox="0 0 160 160"><path d="M125.57 76.429a4.671 4.671 0 0 0 0 6.624L142.584 100H89.611c-2.598 0-4.611 2.414-4.611 5s2.013 5 4.611 5h53.269l-17.307 16.607a4.671 4.671 0 0 0 0 6.624 4.693 4.693 0 0 0 3.325 1.372 4.693 4.693 0 0 0 3.325-1.372L160 104.83l-27.777-28.401a4.717 4.717 0 0 0-6.652 0zM77.427 19.331l17.67 36.647 3.102 6.43 7.07 1.055 49.149 7.895c.467-1.89.52-3.518-.146-5.456-1.337-3.87-4.775-6.697-8.912-7.31l-40.292-5.994-17.523-36.362c-1.83-3.825-5.78-6.264-10.12-6.264-4.33 0-8.278 2.444-10.12 6.264L49.79 52.598 9.49 58.59c-4.139.62-7.577 3.445-8.911 7.311-1.332 3.878-.324 8.145 2.599 11.054l29.527 29.495-6.85 40.897c-.689 4.122 1.093 8.254 4.589 10.665a11.38 11.38 0 0 0 6.44 1.987c1.862 0 3.724-.452 5.409-1.356l35.13-18.916 35.134 18.916a11.462 11.462 0 0 0 5.406 1.356c2.26 0 4.518-.667 6.445-1.987 3.491-2.41 5.275-6.543 4.581-10.665l-1.044-7.256-10.493-.092 1.763 11.224-35.4-19.04-6.396-3.442-6.397 3.443-35.397 19.049 6.844-40.832 1.146-6.847-4.92-4.91-29.28-29.22 40.167-5.967 7.067-1.054 3.104-6.429 17.673-36.644"/></svg>