<svg xmlns="http://www.w3.org/2000/svg" viewBox="0 0 160 160"><path d="M55 25C24.684 25 0 49.684 0 80s24.684 55 55 55a54.618 54.618 0 0 0 25-6.04 54.618 54.618 0 0 0 25 6.04c30.316 0 55-24.684 55-55s-24.684-55-55-55a54.618 54.618 0 0 0-25 6.04A54.618 54.618 0 0 0 55 25zm0 10c5.282 0 10.344.911 15.047 2.572C57.813 47.67 50 62.943 50 80s7.813 32.33 20.047 42.428A45.095 45.095 0 0 1 55 125c-24.912 0-45-20.088-45-45s20.088-45 45-45zm50 0c24.912 0 45 20.088 45 45s-20.088 45-45 45a45.095 45.095 0 0 1-15.047-2.572C102.187 112.33 110 97.056 110 80c0-17.056-7.813-32.33-20.047-42.428A45.095 45.095 0 0 1 105 35z"/></svg>