<svg xmlns="http://www.w3.org/2000/svg" viewBox="0 0 160 160"><path d="M 105,25 A -55,55 0 0 1 160,80 -55,55 0 0 1 105,135 -55,55 0 0 1 79.973,128.975 -54.617,54.617 0 0 1 55,135 C 24.684,135 0,110.316 0,80 0,49.684 24.684,25 55,25 A -54.617,54.617 0 0 1 79.973,31.025 -55,55 0 0 1 105,25 Z m -25,6.04 a -55.215,55.215 0 0 0 -9.953,6.532 l -0.033,-0.01 A -45.092,45.092 0 0 0 55,35 c -24.912,0 -45,20.088 -45,45 0,24.912 20.088,45 45,45 5.27,0 10.321,-0.909 15.016,-2.563 l 0.03,-0.01 A -55.215,55.215 0 0 0 80,128.962 C 97.786,119.837 110,101.318 110,80 110,58.682 97.786,40.163 80,31.04 Z m -9.984,91.398 A -55,55 0 0 1 50,80 -55,55 0 0 1 70.014,37.562 C 87.508,43.725 100,60.358 100,80 c 0,19.641 -12.491,36.274 -29.984,42.438 z"/></svg>