<svg xmlns="http://www.w3.org/2000/svg" viewBox="0 0 160 160"><path d="M55 25A55 55 0 0 0 0 80a55 55 0 0 0 55 55 55 55 0 0 0 25.027-6.025A54.617 54.617 0 0 0 105 135c30.316 0 55-24.684 55-55s-24.684-55-55-55a54.617 54.617 0 0 0-24.973 6.025A55 55 0 0 0 55 25zm25 6.04a55.215 55.215 0 0 1 9.953 6.532l.033-.01A45.092 45.092 0 0 1 105 35c24.912 0 45 20.088 45 45s-20.088 45-45 45c-5.27 0-10.321-.909-15.016-2.563l-.03-.01A55.215 55.215 0 0 1 80 128.962C62.214 119.837 50 101.318 50 80c0-21.318 12.214-39.837 30-48.96zm9.984 91.398A55 55 0 0 0 110 80a55 55 0 0 0-20.014-42.438C72.492 43.725 60 60.358 60 80c0 19.641 12.491 36.274 29.984 42.438z"/></svg>