<svg xmlns="http://www.w3.org/2000/svg" viewBox="0 0 160 160"><path d="M55 25A55 55 0 0 0 0 80a55 55 0 0 0 55 55 55 55 0 0 0 25-6.012A55 55 0 0 0 105 135a55 55 0 0 0 55-55 55 55 0 0 0-55-55 55 55 0 0 0-25 6.012A55 55 0 0 0 55 25zm25 6.04c17.786 9.123 30 27.642 30 48.96s-12.214 39.837-30 48.96C62.214 119.838 50 101.319 50 80s12.214-39.837 30-48.96zm.012 11.519C67.937 50.614 60 64.349 60 80c0 15.651 7.936 29.386 20.01 37.441C92.074 109.382 100 95.645 100 80c0-15.644-7.925-29.382-19.988-37.441z"/></svg>