<svg xmlns="http://www.w3.org/2000/svg" width="160" height="160"><path d="M60 65a5 5 0 0 0-3.535 8.535L72.93 90H5a5 5 0 1 0 0 10h67.93l-16.465 16.465a5 5 0 0 0 7.07 7.07l25-25a5 5 0 0 0 0-7.07l-25-25A5 5 0 0 0 60 65zM20 80V24.963h35V30c0 2.763 2.238 5 5 5s5-2.237 5-5v-5.035h34.965v5.038c0 2.762 2.237 5 5 5s5-2.238 5-5v-5.038H150v124.998H20V110H10v39.963c0 5.523 4.478 10 10 10h130c5.522 0 10-4.478 10-10v-125c0-5.52-4.478-9.998-10-9.998h-40.035V5c0-2.762-2.237-5-5-5s-5 2.238-5 5v9.963H65V5c0-2.763-2.237-5-5-5-2.762 0-5 2.237-5 5v9.962H20c-5.522.001-10 4.478-10 10V80z"/></svg>