<svg xmlns="http://www.w3.org/2000/svg" viewBox="0 0 160 160"><path d="M54.969.031c-2.763 0-5 2.238-5 5V15H10C4.478 15 0 19.477 0 25v125c0 5.523 4.478 10 10 10h140c5.523 0 10-4.477 10-10V25c0-5.52-4.477-10-10-10h-40.031V5.031c0-2.762-2.238-5-5-5-2.763 0-5 2.238-5 5V15h-40V5.031c0-2.762-2.238-5-5-5zM10 25h39.969v5.031c0 2.763 2.237 5 5 5 2.762 0 5-2.237 5-5V25h40v5.031c0 2.763 2.237 5 5 5 2.762 0 5-2.237 5-5V25H150v125H10V25zm25 25c-2.76 0-5 2.24-5 5v10c0 2.76 2.24 5 5 5h10c2.76 0 5-2.24 5-5V55a5 5 0 0 0-5-5H35zm40 0c-2.76 0-5 2.24-5 5v10c0 2.76 2.24 5 5 5h10c2.76 0 5-2.24 5-5V55a5 5 0 0 0-5-5H75zm10 30c-2.642-.037-5.063 2.358-5.063 5s2.421 5.037 5.063 5h40c.488 0 2.035.597 3.219 1.781C129.403 92.965 130 94.511 130 95v30c0 .488-.597 2.035-1.781 3.219-1.184 1.184-2.73 1.781-3.219 1.781H95c-.488 0-2.035-.597-3.219-1.781C90.597 127.035 90 125.489 90 125v-20c.037-2.642-2.358-5.063-5-5.063s-5.037 2.421-5 5.063v20c0 4.226 2.05 7.675 4.688 10.313C87.325 137.95 90.773 140 95 140h30c4.226 0 7.675-2.05 10.313-4.688C137.95 132.675 140 129.226 140 125V95c0-4.226-2.05-7.675-4.688-10.313C132.675 82.05 129.226 80 125 80H85zm-50 20c-2.76 0-5 2.24-5 5v10a5 5 0 0 0 5 5h10a5 5 0 0 0 5-5v-10c0-2.757-2.24-5-5-5H35zm70 0c-2.76 0-5 2.24-5 5v10c0 2.765 2.24 5 5 5h10a5 5 0 0 0 5-5v-10c0-2.76-2.24-5-5-5h-10z"/></svg>