<svg xmlns="http://www.w3.org/2000/svg" viewBox="0 0 160 160"><path d="M118.938 124.765h-11.709V80.64c-4.278 4-9.32 6.958-15.125 8.875V78.89c3.056-1 6.375-2.896 9.959-5.688 3.583-2.792 6.041-6.049 7.374-9.77h9.5zm-77.875-16.209l11.333-1.375c.36 2.89 1.333 5.097 2.917 6.625 1.583 1.528 3.5 2.292 5.75 2.292 2.416 0 4.45-.917 6.104-2.75 1.652-1.833 2.479-4.306 2.479-7.417 0-2.944-.792-5.278-2.375-7-1.584-1.722-3.514-2.583-5.792-2.583-1.5 0-3.292.292-5.375.875l1.292-9.542c3.166.084 5.583-.604 7.25-2.062 1.666-1.459 2.5-3.396 2.5-5.813 0-2.055-.611-3.694-1.833-4.916-1.223-1.223-2.848-1.834-4.875-1.834-2 0-3.709.695-5.125 2.084-1.417 1.388-2.278 3.416-2.584 6.083L41.938 79.39c.75-3.695 1.881-6.646 3.395-8.855 1.514-2.208 3.625-3.944 6.334-5.208 2.708-1.264 5.743-1.896 9.104-1.896 5.75 0 10.36 1.834 13.833 5.5 2.861 3 4.292 6.39 4.292 10.167 0 5.361-2.93 9.639-8.792 12.833 3.5.75 6.299 2.43 8.396 5.042 2.097 2.611 3.146 5.764 3.146 9.458 0 5.361-1.959 9.93-5.875 13.709-3.917 3.777-8.792 5.666-14.625 5.666-5.528 0-10.111-1.59-13.75-4.77-3.64-3.181-5.75-7.34-6.333-12.48zM150 15.002h-40.035V5.037c0-2.762-2.237-5-5-5s-5 2.238-5 5V15h-40V5.037c0-2.762-2.237-5-5-5-2.762 0-5 2.238-5 5V15H10C4.478 15 0 19.477 0 25v125c0 5.523 4.478 10 10 10h140c5.522 0 10-4.478 10-10V25c0-5.52-4.478-9.998-10-9.998zM150 150H10V25h39.965v5.037c0 2.763 2.238 5 5 5s5-2.237 5-5v-5.035h40v5.038c0 2.762 2.237 5 5 5s5-2.238 5-5v-5.038H150z"/></svg>