<svg xmlns="http://www.w3.org/2000/svg" viewBox="0 0 160 160"><path d="M75 116.714v-2.595l-1.605-.297c-2.635-.487-5.704-1.516-7.62-2.554-2.473-1.34-5.218-3.985-6.313-6.083-.872-1.671-1.769-4.974-1.769-6.516v-.796h10.552l.344 1.373c.638 2.542 2.002 4.261 4.213 5.31 2.354 1.117 2.217 1.507 2.133-6.078l-.075-6.716-1.535-.354c-9.137-2.106-13.106-5.07-14.39-10.743-1.582-6.989 1.886-13.781 8.562-16.77 1.996-.894 3.935-1.456 6.875-1.993.613-.113.628-.198.628-3.509V55h10v3.537c0 2.604.092 3.563.349 3.635l2.721.768c6.96 1.966 11.577 6.887 12.182 12.983l.181 1.82H89.792l-.303-1.32c-.5-2.184-1.489-3.423-3.582-4.668L85 71.172v12.77l2.167.439c6.832 1.382 11.572 4.004 13.44 7.434 1.43 2.626 1.868 7.365.978 10.595-1.13 4.108-4.23 7.557-8.695 9.676-1.404.666-6.309 1.996-7.362 1.996-.483 0-1.049.282-.528 2.614v3.302H75zm12.652-12.037c3.799-1.54 4.995-6.308 2.18-8.691-.554-.47-4.051-2.034-4.547-2.034-.185 0-.285 2.01-.285 5.756v5.756l.768-.167c.422-.092 1.27-.37 1.884-.62zM75 76.175c0-4.218-.08-5.49-.349-5.49-.657 0-3.698 1.5-4.313 2.126-2.075 2.113-1.864 5.726.424 7.251.842.562 3.297 1.564 3.889 1.589.269.011.349-1.25.349-5.476zm75-61.173h-40.035V5.037c0-2.762-2.237-5-5-5s-5 2.238-5 5V15h-40V5.037a5 5 0 0 0-5-5 5 5 0 0 0-5 5V15H10C4.478 15 0 19.477 0 25v125c0 5.522 4.478 10 10 10h140c5.522 0 10-4.478 10-10V25c0-5.52-4.478-9.998-10-9.998zM150 150H10V25h39.965v5.038a5 5 0 0 0 5 5 5 5 0 0 0 5-5v-5.036h40v5.038c0 2.763 2.237 5 5 5s5-2.237 5-5v-5.037H150z"/></svg>