<svg xmlns="http://www.w3.org/2000/svg" viewBox="0 0 160 160"><path d="M139.189 73.493c-2.056-1.582-5.032-1.222-6.64.793l-34.944 43.719-15.913-14.563c-1.847-1.811-4.844-1.811-6.692 0-1.848 1.811-1.895 4.798 0 6.558l20.065 18.63c1.895 1.76 4.842 1.812 6.69 0 .449-.437.785-.948 1.017-1.49L140 80a4.574 4.574 0 0 0-.811-6.507zM150 14.969h-40.035V5a5 5 0 0 0-5-5.001 5 5 0 0 0-5 5.001v9.965h-40V5.001a5 5 0 0 0-5-5.001 5 5 0 0 0-5 5.001v9.965H10c-5.522 0-10 4.479-10 10.002v125.03C0 155.52 4.478 160 10 160h140c5.522 0 10-4.479 10-10.002V24.968c0-5.52-4.478-10-10-10zm0 135.029H10V24.968h39.965v5.039a5 5 0 0 0 5 5.001 5 5 0 0 0 5-5.001v-5.036h40v5.039a5 5 0 0 0 5 5 5 5 0 0 0 5-5v-5.04H150zM85 59.979H75c-2.76 0-5 2.24-5 5.001v10.003c0 2.76 2.24 5 5 5h10c2.76 0 5-2.24 5-5V64.98a5 5 0 0 0-5-5zm-40 0H35c-2.76 0-5 2.24-5 5.001v10.003c0 2.76 2.24 5 5 5h10c2.76 0 5-2.24 5-5V64.98a5 5 0 0 0-5-5zm0 40.007H35c-2.76 0-5 2.24-5 5.001v10.002a5 5 0 0 0 5 5.002h10a5 5 0 0 0 5-5.002v-10.002a5.004 5.004 0 0 0-5-5.001z"/></svg>