<svg xmlns="http://www.w3.org/2000/svg" viewBox="0 0 160 160"><path d="M160 80V25c0-5.52-4.478-9.998-10-9.998h-40.035V5.037c0-2.762-2.237-5-5-5s-5 2.238-5 5V15h-40V5.037c0-2.762-2.238-5-5-5s-5 2.238-5 5V15H10C4.478 15 0 19.477 0 25v125c0 5.522 4.478 10 10 10h40v-10H10V25h39.965v5.038c0 2.762 2.238 5 5 5s5-2.238 5-5v-5.036h40v5.038c0 2.763 2.237 5 5 5s5-2.237 5-5v-5.037H150V80zm-45 .003h10c2.76 0 5-2.24 5-5v-10c0-2.76-2.24-5-5-5h-10c-2.76 0-5 2.24-5 5v10c0 2.76 2.24 5 5 5zm-30-20H75c-2.76 0-5 2.24-5 5v10c0 2.76 2.24 5 5 5h10c2.76 0 5-2.24 5-5v-10a5 5 0 0 0-5-5zm-40 0H35c-2.76 0-5 2.24-5 5v10c0 2.76 2.24 5 5 5h10c2.76 0 5-2.24 5-5v-10a5 5 0 0 0-5-5zM45 100H35c-2.76 0-5 2.24-5 5v10a5 5 0 0 0 5 5h10a5 5 0 0 0 5-5v-10c0-2.757-2.24-5-5-5zm35.255 0c-5.516 0-9.985 4.475-9.985 10v40c0 5.525 4.47 10 9.985 10h69.894c5.516 0 9.985-4.475 9.985-10v-40c0-5.525-4.469-10-9.985-10zm0 10h69.894v40H80.255zm31.868 5c-1.033 2.265-2.499 4.207-4.326 5.75-1.828 1.543-4.35 2.817-7.656 3.917v8.25c2.241-.706 4.09-1.479 5.575-2.25a29.73 29.73 0 0 0 4.66-3V145h9.819v-30z"/></svg>