<svg xmlns="http://www.w3.org/2000/svg" width="160" height="160"><path d="M60 75.875V65h40.042v8.5q-4.958 4.875-10.083 14t-7.834 19.417q-2.667 10.25-2.625 18.334H68.208q.292-12.667 5.209-25.834 4.958-13.167 13.208-23.542zm90-60.91h-40.035V5c0-2.762-2.237-5-5-5s-5 2.238-5 5v9.963h-40V5c0-2.762-2.237-5-5-5-2.762 0-5 2.238-5 5v9.963H10c-5.522 0-10 4.477-10 10v125c0 5.522 4.478 10 10 10h140c5.522 0 10-4.478 10-10v-125c0-5.52-4.478-9.998-10-9.998zm0 134.998H10v-125h39.965V30c0 2.763 2.238 5 5 5s5-2.237 5-5v-5.035h40v5.038c0 2.762 2.237 5 5 5s5-2.238 5-5v-5.038H150z"/></svg>