<svg xmlns="http://www.w3.org/2000/svg" viewBox="0 0 160 160"><path d="M70 50a5 5 0 0 0-4.92 5.894l10 45.001c.995 5.475 8.845 5.475 9.84 0l10-45A5 5 0 0 0 90 50zm20 75c0 5.523-4.477 10-10 10s-10-4.477-10-10 4.477-10 10-10 10 4.477 10 10zm60-109.998h-40.035V5.037c0-2.762-2.237-5-5-5s-5 2.238-5 5V15h-40V5.037a5 5 0 0 0-5-5 5 5 0 0 0-5 5V15H10C4.478 15 0 19.477 0 25v125c0 5.522 4.478 10 10 10h140c5.522 0 10-4.478 10-10V25c0-5.52-4.478-9.998-10-9.998zM150 150H10V25h39.965v5.038a5 5 0 0 0 5 5 5 5 0 0 0 5-5v-5.036h40v5.038c0 2.763 2.237 5 5 5s5-2.237 5-5v-5.037H150z"/></svg>