<svg xmlns="http://www.w3.org/2000/svg" viewBox="0 0 160 160"><path d="M113.622 56.32a4.992 4.992 0 0 0-7.01.855l-32.888 48.183-18.023-17.69a4.996 4.996 0 0 0-7.066 0c-1.95 1.95-1.965 5.128 0 7.064l22.407 22.072c1.965 1.937 5.112 1.952 7.063 0a4.956 4.956 0 0 0 1.074-1.606l35.3-51.868a4.994 4.994 0 0 0-.857-7.01zM150 149.998H10v-120h39.965v5.038a5 5 0 0 0 5 5.001 5 5 0 0 0 5-5V30h40v5.039a5 5 0 0 0 5 5 5 5 0 0 0 5-5V30H150zm0-130h-40.035V10.03a5 5 0 0 0-5-5 5 5 0 0 0-5 5v9.965h-40V10.03a5 5 0 0 0-5-5 5 5 0 0 0-5 5v9.965H10c-5.522 0-10 4.479-10 10.003v120C0 155.52 4.478 160 10 160h140c5.522 0 10-4.479 10-10.002v-120c0-5.522-4.478-10-10-10z"/></svg>