<svg xmlns="http://www.w3.org/2000/svg" width="160" height="160"><path d="m60.167 109.542 11.666-1.208q.5 3.958 2.959 6.291 2.458 2.292 5.666 2.292 3.667 0 6.209-2.958 2.542-3 2.542-9 0-5.625-2.542-8.417-2.5-2.833-6.542-2.833-5.042 0-9.042 4.458l-9.5-1.375 6-31.792h30.959v10.958H76.458l-1.833 10.376q3.917-1.959 8-1.959 7.792 0 13.209 5.667 5.416 5.667 5.416 14.708 0 7.542-4.375 13.459-5.958 8.083-16.542 8.083-8.458 0-13.791-4.542-5.334-4.541-6.375-12.208zM150 14.965h-40.035V5c0-2.762-2.237-5-5-5s-5 2.238-5 5v9.963h-40V5c0-2.762-2.237-5-5-5-2.762 0-5 2.238-5 5v9.963H10c-5.522 0-10 4.477-10 10v125c0 5.522 4.478 10 10 10h140c5.522 0 10-4.478 10-10v-125c0-5.52-4.478-9.998-10-9.998zm0 134.998H10v-125h39.965V30c0 2.763 2.238 5 5 5s5-2.237 5-5v-5.035h40v5.038c0 2.762 2.237 5 5 5s5-2.238 5-5v-5.038H150z"/></svg>