<svg xmlns="http://www.w3.org/2000/svg" viewBox="0 0 160 160"><path d="M90.345 59.977c-8.246 0-14.936 6.699-14.936 14.922v25.13H44.512c-8.247 0-14.582 6.663-14.511 14.921l.141 20.097c.07 8.259 6.3 14.958 14.547 14.958h7.007c2.832 5.883 8.848 9.995 15.75 9.995 6.795 0 12.706-3.97 15.573-9.676h23.784c2.902 5.706 8.812 9.676 15.608 9.676 6.901 0 12.918-4.112 15.75-9.995h6.583c8.246 0 17.059-6.983 14.935-14.958L142.726 74.9c-2.159-7.94-6.689-14.922-14.935-14.922zm-.495 9.96H127.79c2.76 0 4.247 2.303 4.954 4.962l6.973 25.13H85.39v-25.13c0-2.552 1.947-4.715 4.46-4.963zm-44.914 40.051h97.436l7.362 25.06c.708 2.658-2.23 4.961-4.99 4.961h-5.062c-1.203-8.435-8.53-15.028-17.271-15.028-8.848 0-16.21 6.7-17.343 15.241h-20.28c-1.132-8.542-8.494-15.24-17.342-15.24-8.742 0-16.068 6.592-17.272 15.027h-5.06a4.928 4.928 0 0 1-4.956-4.962l-.177-20.097c0-2.729 2.23-4.962 4.955-4.962zm22.51 24.988c4.212 0 7.503 3.332 7.503 7.515 0 4.217-3.291 7.514-7.503 7.514-4.176 0-7.468-3.297-7.468-7.514 0-4.183 3.292-7.515 7.468-7.515zm54.965 0c4.176 0 7.468 3.332 7.468 7.515 0 4.217-3.292 7.514-7.468 7.514-4.212 0-7.503-3.297-7.503-7.514 0-4.183 3.291-7.515 7.503-7.515zM20 149.998H10V24.968h39.965v5.039a5 5 0 0 0 5 5.001 5 5 0 0 0 5-5.001v-5.036h40v5.039a5 5 0 0 0 5 5 5 5 0 0 0 5-5v-5.04H150v35.007h10V24.968c0-5.52-4.478-10-10-10h-40.035V5.002a5 5 0 0 0-5-5.001 5 5 0 0 0-5 5.001v9.965h-40V5.001a5 5 0 0 0-5-5.001 5 5 0 0 0-5 5.001v9.965H10c-5.523 0-10 4.479-10 10.002v125.03C0 155.52 4.477 160 10 160h10zm25-90.019H35c-2.76 0-5 2.24-5 5.001v10.003c0 2.76 2.24 5 5 5h10c2.76 0 5-2.24 5-5V64.98a5 5 0 0 0-5-5z"/></svg>