<svg xmlns="http://www.w3.org/2000/svg" viewBox="0 0 160 160"><path d="M109.982 59.575C82.388 59.575 60 82.033 60 109.77 60 137.506 82.388 160 109.982 160c27.63 0 50.018-22.494 50.018-50.23 0-27.737-22.388-50.195-50.018-50.195zm0 10.025c22.104 0 39.993 17.995 39.993 40.17 0 22.21-17.889 40.17-39.993 40.17-22.068 0-39.957-17.96-39.957-40.17 0-22.175 17.889-40.17 39.957-40.17zm-14.98 45.412h29.992a5 5 0 0 0 4.999-4.998 5 5 0 0 0-5-4.999h-29.99a5 5 0 0 0-5 4.999 5 5 0 0 0 5 4.998zM160 60.34v-35.34c0-5.52-4.478-9.997-10-9.997h-40.035V5.037c0-2.762-2.237-5-5-5s-5 2.238-5 5V15h-40V5.037c0-2.762-2.238-5-5-5-2.763 0-5 2.238-5 5V15H10C4.478 15 0 19.477 0 25v85c0 5.522 4.478 10 10 10h30v-10H10V25h39.965v5.037c0 2.763 2.237 5 5 5 2.762 0 5-2.237 5-5v-5.035h40v5.038c0 2.762 2.237 5 5 5s5-2.238 5-5v-5.038H150V60z"/></svg>