<svg xmlns="http://www.w3.org/2000/svg" width="160" height="160"><path d="M50 65a5 5 0 0 0-3.535 1.465l-25 25a5 5 0 0 0 0 7.07l25 25a5 5 0 0 0 7.07 0 5 5 0 0 0 0-7.07L37.07 100h85.86l-16.465 16.465a5 5 0 0 0 0 7.07 5 5 0 0 0 7.07 0l25-25a5 5 0 0 0 0-7.07l-25-25a5 5 0 0 0-7.07 0 5 5 0 0 0 0 7.07L122.93 90H37.07l16.465-16.465a5 5 0 0 0 0-7.07A5 5 0 0 0 50 65zm100-50.035h-40.035V5c0-2.762-2.237-5-5-5s-5 2.238-5 5v9.963h-40V5c0-2.762-2.237-5-5-5-2.762 0-5 2.238-5 5v9.963H10c-5.522 0-10 4.477-10 10v125c0 5.522 4.478 10 10 10h140c5.522 0 10-4.478 10-10v-125c0-5.52-4.478-9.998-10-9.998zm0 134.998H10v-125h39.965V30c0 2.763 2.238 5 5 5s5-2.237 5-5v-5.035h40v5.038c0 2.762 2.237 5 5 5s5-2.238 5-5v-5.038H150z"/></svg>