<svg xmlns="http://www.w3.org/2000/svg" viewBox="0 0 160 160"><path d="M150 15.002h-40.035V5.037c0-2.762-2.237-5-5-5s-5 2.238-5 5V15h-40V5.037c0-2.762-2.238-5-5-5s-5 2.238-5 5V15H10C4.478 15 0 19.477 0 25v125c0 5.522 4.478 10 10 10h140c5.522 0 10-4.478 10-10V25c0-5.52-4.478-9.998-10-9.998zM150 150H10V25h39.965v5.038c0 2.762 2.238 5 5 5s5-2.238 5-5v-5.036h40v5.038c0 2.763 2.237 5 5 5s5-2.237 5-5v-5.037H150V150zm-35-69.998h10c2.76 0 5-2.24 5-5v-10c0-2.76-2.24-5-5-5h-10c-2.76 0-5 2.24-5 5v10c0 2.76 2.24 5 5 5zM115 120h10a5 5 0 0 0 5-5v-10c0-2.76-2.24-5-5-5h-10c-2.76 0-5 2.24-5 5v10c0 2.765 2.24 5 5 5zm-30-20H75c-2.76 0-5 2.24-5 5v10a5 5 0 0 0 5 5h10a5 5 0 0 0 5-5v-10c0-2.757-2.24-5-5-5zm0-39.998H75c-2.76 0-5 2.24-5 5v10c0 2.76 2.24 5 5 5h10c2.76 0 5-2.24 5-5v-10a5 5 0 0 0-5-5zm-40 0H35c-2.76 0-5 2.24-5 5v10c0 2.76 2.24 5 5 5h10c2.76 0 5-2.24 5-5v-10a5 5 0 0 0-5-5zM45 100H35c-2.76 0-5 2.24-5 5v10a5 5 0 0 0 5 5h10a5 5 0 0 0 5-5v-10c0-2.757-2.24-5-5-5z"/></svg>