<svg xmlns="http://www.w3.org/2000/svg" viewBox="0 0 160 160"><path d="M99.997 129.994h29.995a5 5 0 0 0 4.999-4.999 5 5 0 0 0-5-4.999H99.998a5 5 0 0 0-4.999 5 5 5 0 0 0 5 4.998zm0-19.996h29.995A5 5 0 0 0 134.99 105a5 5 0 0 0-5-4.999H99.998a5 5 0 0 0-4.999 5 5 5 0 0 0 5 4.998zm.009-60H130A5 5 0 0 0 134.999 45 5 5 0 0 0 130 40h-29.994a5 5 0 0 0-5 5 5 5 0 0 0 5 4.998zM62.665 97.322a4.998 4.998 0 0 0-7.069 0l-10.605 10.603-10.606-10.603a5.001 5.001 0 0 0-7.071 7.072l10.603 10.603L27.314 125.6a5.001 5.001 0 0 0 7.071 7.07l10.606-10.6 10.605 10.603a4.998 4.998 0 1 0 7.069-7.07l-10.603-10.604 10.603-10.603a5.004 5.004 0 0 0 0-7.074zM30.002 50H40v9.998a5 5 0 0 0 5 5 5 5 0 0 0 4.998-5V50h9.998a5 5 0 0 0 5-5 5 5 0 0 0-5-4.998h-9.998v-9.998a5 5 0 0 0-4.999-5c-2.76 0-4.976 2.24-4.999 5v9.998h-9.998a5 5 0 0 0-5 4.999 5 5 0 0 0 5 4.999zm120 100.002H9.998V9.998h140.004zm0-150.002H9.998C4.502 0 0 4.502 0 9.998v140.004C0 155.498 4.502 160 9.998 160h140.004c5.496 0 9.998-4.502 9.998-9.998V9.998C160 4.502 155.498 0 150.002 0z"/></svg>