<svg xmlns="http://www.w3.org/2000/svg" viewBox="0 0 160 160"><path d="M109.859 104.356V77.064c0-2.76-2.24-5-5-5s-5 2.24-5 5v29.322a4.96 4.96 0 0 0 1.54 3.595c.082.098.15.203.24.295l17.29 16.954a5.003 5.003 0 0 0 7.07 0c1.952-1.953 1.973-5.141 0-7.073zm-3.109-39.94c23.59 0 42.75 19.078 42.75 42.667 0 23.59-19.16 42.75-42.75 42.75s-42.667-19.16-42.667-42.75c0-23.589 19.078-42.666 42.667-42.666zm0-10.166c-29.206 0-52.833 23.628-52.833 52.833C53.917 136.29 77.544 160 106.75 160s52.917-23.711 52.917-52.917c0-29.205-23.711-52.833-52.917-52.833zM40 90.003L14.996 90a5 5 0 0 1-4.999-4.999V39.994h140.006v20.207H160V14.996C160 6.713 153.287 0 145.004 0H14.996C6.713 0 0 6.713 0 14.996V85c0 8.283 6.713 14.996 14.996 14.996L40 100zM14.996 9.997h130.008a5 5 0 0 1 4.999 4.999V20H9.997v-5.004a5.002 5.002 0 0 1 4.999-4.999z"/></svg>