<svg xmlns="http://www.w3.org/2000/svg" viewBox="0 0 160 160"><path d="M130.047 64.975c-1.302 0-5.498-.025-10.043-.058l.017-9.99c0-5.52-4.475-9.996-9.995-9.996l-100.03-.025C4.475 44.906 0 49.382 0 54.902v75.112C0 146.574 13.426 160 29.986 160H90.06c16.56 0 29.831-13.426 29.831-29.986l.01-5.13c4.533.035 9.154.062 10.148.062 16.52 0 29.919-13.28 29.919-29.84-.002-16.563-13.402-30.131-29.921-30.131zm-20.151 65.04c0 11.024-8.808 19.99-19.836 19.99H29.986c-11.025 0-19.99-8.966-19.99-19.99L9.98 54.901h.015l100.03.03-.129 75.082zm20.15-14.919c-.992 0-5.604-.03-10.13-.062l.07-40.11c4.548.033 8.754.058 10.058.058 11.42 0 20.088 8.519 20.088 19.966 0 11.447-8.666 20.148-20.085 20.148zM89.959 34.984a5 5 0 0 0 4.997-4.998V4.998A5 5 0 0 0 89.958 0a5 5 0 0 0-4.998 4.998v24.988a4.998 4.998 0 0 0 4.998 4.998zm-59.972 0a5 5 0 0 0 4.998-4.998V4.998A5 5 0 0 0 29.986 0a5 5 0 0 0-4.998 4.998v24.988a4.998 4.998 0 0 0 4.998 4.998zm29.986 0a5 5 0 0 0 4.998-4.998V4.998A5 5 0 0 0 59.972 0a5 5 0 0 0-4.998 4.998v24.988a4.998 4.998 0 0 0 4.998 4.998z"/></svg>