<svg viewBox="0 0 160 161" fill="none" xmlns="http://www.w3.org/2000/svg">
<path d="M130.073 65.1566C128.771 65.1566 124.574 65.1316 120.028 65.0986L120.045 55.1086C120.045 49.5886 115.569 45.1126 110.048 45.1126L9.998 45.0876C4.4759 45.0876 0 49.5636 0 55.0836V130.196C0 146.756 13.4287 160.182 29.992 160.182H90.078C106.641 160.182 119.915 146.756 119.915 130.196L119.925 125.066C124.459 125.101 129.081 125.128 130.075 125.128C146.598 125.128 160 111.848 160 95.2876C159.998 78.7246 146.595 65.1566 130.073 65.1566ZM109.918 130.197C109.918 141.221 101.108 150.187 90.078 150.187H29.992C18.9648 150.187 9.998 141.221 9.998 130.197L9.982 55.0826H9.997L110.047 55.1126L109.918 130.197ZM130.072 115.278C129.08 115.278 124.467 115.248 119.94 115.216L120.01 75.1056C124.559 75.1386 128.766 75.1636 130.07 75.1636C141.492 75.1636 150.162 83.6826 150.162 95.1296C150.162 106.577 141.493 115.278 130.072 115.278ZM89.977 35.1656C91.3025 35.1649 92.5734 34.638 93.5106 33.7008C94.4477 32.7637 94.9745 31.4929 94.975 30.1676V5.17964C94.9745 3.85425 94.4476 2.5833 93.5102 1.64611C92.5728 0.708914 91.3016 0.182171 89.976 0.181641C88.6503 0.182171 87.3791 0.708914 86.4418 1.64611C85.5044 2.5833 84.9775 3.85425 84.977 5.17964V30.1676C84.977 31.4932 85.5037 32.7645 86.4412 33.7018C87.3787 34.6391 88.6512 35.1656 89.977 35.1656ZM29.993 35.1656C31.3187 35.1651 32.5899 34.6384 33.5272 33.7012C34.4646 32.764 34.9915 31.493 34.992 30.1676V5.17964C34.9915 3.85408 34.4645 2.58297 33.5269 1.64575C32.5893 0.708532 31.3178 0.181906 29.992 0.181641C28.6663 0.182171 27.3951 0.708914 26.4578 1.64611C25.5204 2.5833 24.9935 3.85425 24.993 5.17964V30.1676C24.993 31.4932 25.5197 32.7645 26.4572 33.7018C27.3947 34.6391 28.6672 35.1656 29.993 35.1656ZM59.985 35.1656C61.3107 35.1651 62.5819 34.6384 63.5192 33.7012C64.4566 32.764 64.9835 31.493 64.984 30.1676V5.17964C64.9835 3.85408 64.4565 2.58297 63.5189 1.64575C62.5813 0.708532 61.3098 0.181906 59.984 0.181641C58.6583 0.182171 57.3871 0.708914 56.4498 1.64611C55.5124 2.5833 54.9855 3.85425 54.985 5.17964V30.1676C54.985 31.4932 55.5117 32.7645 56.4492 33.7018C57.3867 34.6391 58.6592 35.1656 59.985 35.1656Z" fill="#00C950"/>
<path d="M109.918 130.197C109.918 141.221 101.108 150.187 90.078 150.187H29.992C18.9648 150.187 9.998 141.221 9.998 130.197L9.982 55.0826H9.997L110.047 55.1126L109.918 130.197Z" fill="#7BF1A8"/>
</svg>
