<svg xmlns="http://www.w3.org/2000/svg" viewBox="0 0 24 24"><path d="M0.75 4.125C0.551088 4.125 0.360322 4.20402 0.21967 4.34467C0.0790176 4.48532 0 4.67609 0 4.875L0 19.125C0 19.3239 0.0790176 19.5147 0.21967 19.6553C0.360322 19.796 0.551088 19.875 0.75 19.875H23.25C23.4489 19.875 23.6397 19.796 23.7803 19.6553C23.921 19.5147 24 19.3239 24 19.125V4.875C24 4.67609 23.921 4.48532 23.7803 4.34467C23.6397 4.20402 23.4489 4.125 23.25 4.125H0.75ZM1.5 5.625H22.5V18.375H1.5V5.625ZM3 7.125V9.375H5.25V7.125H3ZM6.75 7.125V9.375H9V7.125H6.75ZM10.5 7.125V9.375H12.75V7.125H10.5ZM14.25 7.125V9.375H16.5V7.125H14.25ZM18 7.125V9.375H21V7.125H18ZM3 10.875V13.125H6V10.875H3ZM7.5 10.875V13.125H9.75V10.875H7.5ZM11.25 10.875V13.125H13.5V10.875H11.25ZM15 10.875V13.125H17.25V10.875H15ZM18.75 10.875V13.125H21V10.875H18.75ZM6.75 14.625V16.875H17.25V14.625H6.75Z"/></svg>