<svg xmlns="http://www.w3.org/2000/svg" viewBox="0 0 160 160"><path d="M125 60h-5V40.918C120 17.973 103.397 0 79.815 0 56.138 0 40 18.355 40 40.917V60h-5c-11.03 0-20 8.97-20 20v60c0 11.03 8.97 20 20 20h90c11.03 0 20-8.97 20-20V80c0-11.03-8.97-20-20-20zM50 40.917C50 23.872 61.65 10 79.815 10 97.793 10 110 23.58 110 40.917V60H50V40.917zM135 140c0 5.513-4.487 10-10 10H35c-5.513 0-10-4.487-10-10V80c0-5.513 4.487-10 10-10h90c5.513 0 10 4.487 10 10v60zM80 90c-5.522 0-10 4.478-10 10 0 3.692 2.025 6.88 5 8.613V125c0 2.76 2.24 5 5 5s5-2.24 5-5v-16.387c2.975-1.733 5-4.923 5-8.613 0-5.522-4.478-10-10-10z"/></svg>