<svg xmlns="http://www.w3.org/2000/svg" viewBox="0 0 160 160">
<path d="m 137.50026,80 c 6.34607,0 12.14121,2.12473 16.219,6.05777 4.07781,3.93305 6.28074,9.52246 6.28074,15.64325 0,7.79012 -5.78304,12.6616 -10.00454,17.14043 -4.22151,4.47882 -10.26137,11.48859 -10.26137,16.0792 0.041,2.79354 -2.2956,5.07935 -5.19225,5.07935 -2.89665,0 -5.23326,-2.28581 -5.19224,-5.07935 0,-8.76388 8.53072,-18.11406 12.96295,-22.81643 C 146.74478,107.40183 150,103.92675 150,101.701 c 0,-3.89504 -1.64307,-6.65216 -3.62289,-8.5617 -1.97981,-1.90954 -4.83843,-3.12344 -8.87685,-3.12344 -4.0384,0 -6.89703,1.2139 -8.87684,3.12344 -1.97983,1.90954 -3.2384,4.66668 -3.2384,8.56172 0.041,2.79355 -2.2956,5.07936 -5.19225,5.07936 -2.89665,0 -5.23327,-2.28581 -5.19224,-5.07936 0,-6.12079 2.20291,-11.7102 6.28072,-15.64325 C 125.35905,82.12473 131.15418,80 137.50026,80 Z M 135,150 a 5,5 0 0 1 5,5 5,5 0 0 1 -5,5 5,5 0 0 1 -5,-5 5,5 0 0 1 5,-5 z M 125,60 h -5 V 40.9175 C 120,17.9725 103.3975,0 79.815,0 56.1375,0 40,18.355 40,40.9175 V 60 H 35 C 23.97,60 15,68.97 15,80 v 60 c 0,11.03 8.97,20 20,20 h 85 V 150 H 35 c -5.5125,0 -10,-4.4875 -10,-10 V 80 C 25,74.4875 29.4875,70 35,70 H 142.28814 C 138.9228,63.683779 132.644,60 125,60 Z M 50,40.9175 C 50,23.8725 61.65,10 79.815,10 97.7925,10 110,23.58 110,40.9175 V 60 H 50 Z M 80,90 c -5.5225,0 -10,4.4775 -10,10 0,3.6925 2.025,6.88 5,8.6125 V 125 c 0,2.76 2.24,5 5,5 2.76,0 5,-2.24 5,-5 V 108.6125 C 87.975,106.88 90,103.69 90,100 90,94.4775 85.5225,90 80,90 Z" />
</svg>
