<svg xmlns="http://www.w3.org/2000/svg" viewBox="0 0 160 160"><path d="M80 0c-3.047 0-5.224 1.411-6.906 3.094C71.41 4.776 70 6.953 70 10v50c0 3.047 1.411 5.224 3.094 6.906C74.776 68.59 76.953 70 80 70h20.063l.437 30.063a5 5 0 0 0 1.469 3.468l6.469 6.469-6.47 6.469a5 5 0 0 0 0 7.062l6.376 6.375-6.281 5.969a5 5 0 0 0-.094 7.156l15 15a5 5 0 0 0 6.312.625l15-10a5 5 0 0 0 2.219-4.187L140.031 70H150c3.047 0 5.224-1.411 6.906-3.094C158.59 65.224 160 63.047 160 60V10c0-3.047-1.411-5.224-3.094-6.906C155.224 1.41 153.047 0 150 0H80zm.406 10h69.188c.02.01.136.042.25.156.114.114.147.23.156.25v49.188c-.009.02-.042.136-.156.25-.114.114-.23.147-.25.156H135a5 5 0 0 0-5 5.031l.469 76.813-9.344 6.219-8.469-8.47 6.281-5.968a5 5 0 0 0 .094-7.156L112.562 120l6.47-6.469a5 5 0 0 0 0-7.062l-8.563-8.563L110 64.937A5 5 0 0 0 105 60H80.406c-.02-.01-.136-.042-.25-.156-.114-.114-.147-.23-.156-.25V10.406c.01-.02.042-.136.156-.25.114-.114.23-.147.25-.156zM105 20c-8.225 0-15 6.775-15 15s6.775 15 15 15 15-6.775 15-15-6.775-15-15-15zm0 10c2.82 0 5 2.18 5 5s-2.18 5-5 5-5-2.18-5-5 2.18-5 5-5zM35 70.344a5 5 0 0 0-3.5 1.469l-30 29.624a5 5 0 0 0-.031 7.094l35.343 35.375a5 5 0 0 0 7.094-.031l29.657-30A5 5 0 0 0 75 110.344v-35a5 5 0 0 0-5-5H35zm2.031 10H65v27.969L40.344 133.25l-28.25-28.219L37.03 80.344z"/></svg>