<svg xmlns:svg="http://www.w3.org/2000/svg" xmlns="http://www.w3.org/2000/svg" viewBox="0 0 160 160">
<path d="M 0 0 L 0 90 L 10 90 L 10 0 L 0 0 z M 20 0 L 20 90 L 40 90 L 40 0 L 20 0 z M 50 0 L 50 90 L 60 90 L 60 0 L 50 0 z M 70 0 L 70 70 L 80 70 L 80 0 L 70 0 z M 90 0 L 90 60 L 120 60 L 120 0 L 90 0 z M 130 0 L 130 70 L 140 70 L 140 0 L 130 0 z M 150 0 L 150 90 L 160 90 L 160 0 L 150 0 z M 105.89648 70.037109 C 105.04959 70.013063 104.20025 70.02058 103.34961 70.058594 C 98.812874 70.261331 94.246833 71.35575 89.904297 73.429688 C 72.752919 81.620948 65.36579 102.12484 73.140625 119.375 A 5.0005 5.0005 0 0 0 73.365234 120 C 73.372134 120.0146 73.373929 120.03032 73.380859 120.04492 A 5.0005 5.0005 0 0 0 73.416016 120.11328 A 5.0005 5.0005 0 0 0 73.476562 120.24609 C 73.491512 120.27699 73.514277 120.30123 73.529297 120.33203 A 5.0005 5.0005 0 0 0 73.84375 120.8418 C 82.423543 137.71222 103.04276 144.79405 120.17188 136.54688 C 122.263 135.54005 124.20536 134.34502 125.99609 133 A 5.0005 5.0005 0 0 0 126.46484 133.53516 L 151.46484 158.53516 A 5.0005 5.0005 0 1 0 158.53516 151.46484 L 133.53516 126.46484 A 5.0005 5.0005 0 0 0 132.98242 125.98242 C 140.52032 115.86891 142.35813 101.99762 136.54688 89.878906 C 130.69464 77.674771 118.5999 70.3978 105.89648 70.037109 z M 105.66797 79.994141 C 114.73682 80.228428 123.32038 85.421821 127.53125 94.203125 C 133.52005 106.69209 128.31347 121.52859 115.83398 127.53711 C 103.35449 133.54563 88.508695 128.36256 82.480469 115.89258 A 5.0005 5.0005 0 0 0 82.451172 115.83789 A 5.0005 5.0005 0 0 0 82.412109 115.75 C 76.46279 103.2422 81.716435 88.422193 94.214844 82.453125 C 97.339446 80.960858 100.60823 80.167642 103.84961 80.013672 C 104.45737 79.984802 105.06338 79.978521 105.66797 79.994141 z" />
</svg>
