<svg xmlns="http://www.w3.org/2000/svg" viewBox="0 0 160 160"><path d="M150 0H10C4.478 0 0 4.478 0 10v110.107c0 5.523 4.478 10 10 10h19.928V155a4.995 4.995 0 0 0 3.067 4.61 4.998 4.998 0 0 0 5.438-1.045l28.91-28.458H150c5.522 0 10-4.477 10-10V10c0-5.522-4.477-10-10-10zm0 120.105H63.247l-23.32 22.955v-22.955H10V10h140zM35 70h90c2.76 0 5-2.24 5-5s-2.24-5-5-5H35c-2.76 0-5 2.24-5 5s2.24 5 5 5zm0-30h90c2.76 0 5-2.24 5-5s-2.24-5-5-5H35c-2.76 0-5 2.24-5 5s2.24 5 5 5zm0 60h60c2.76 0 5-2.24 5-5s-2.24-5-5-5H35c-2.76 0-5 2.24-5 5s2.24 5 5 5z"/></svg>