<svg viewBox="0 0 160 160" xmlns="http://www.w3.org/2000/svg">
<path d="M79.955 81C74.438 81 70.003 85.475 69.97 91H149.848L150.015 140.917C155.531 140.883 160.023 136.357 160 130.833L159.833 91C159.81 85.476 155.365 81 149.848 81H79.955ZM79.954 81C74.438 81 69.969 85.475 69.969 91V131C69.969 136.525 74.438 141 79.954 141H84.5L94 160L122 140.917L149.848 141C155.364 141 159.833 136.525 159.833 131V91C159.833 85.475 155.363 81 149.848 81H79.954ZM79.954 91H149.848L149.848 131H119L97.5 146L90 131H79.954V91ZM62.554 9.962C76.959 9.962 89.71 22.114 89.71 29.441V50.473C89.71 57.239 99.682 57.916 99.682 50.473V29.44C99.682 15.51 81.158 0 62.554 0C43.954 0 24.941 15.515 24.941 29.44V50.473C24.941 59.663 28.831 78.248 40.619 87.69L8.415 105.139C8.415 105.139 0 108.885 0 113.553V126.177C0 130.823 3.775 134.592 8.415 134.592H41.368L41.366 124.632H9.97V115.726C10.685 115.206 11.683 114.603 12.472 114.243C12.705 114.134 12.938 114.023 13.164 113.898L45.368 96.449C46.8137 95.6672 48.0435 94.5398 48.9477 93.1673C49.8518 91.7948 50.4023 90.2199 50.55 88.583C50.6956 86.9464 50.4344 85.2991 49.7898 83.7878C49.1451 82.2764 48.137 80.9477 46.855 79.92C38.495 73.222 34.911 58.39 34.911 50.476V29.444C34.914 22.284 48.415 9.962 62.554 9.962Z"/>
</svg>
