<svg xmlns="http://www.w3.org/2000/svg" viewBox="0 0 160 160"><path d="M29.959 85a4.992 4.976 0 0 0-3.463 8.552l11.45 11.413H5.062a4.992 4.976 0 1 0 0 9.951h32.882l-11.45 11.414a4.992 4.976 0 1 0 7.051 7.028l19.655-19.623a4.992 4.976 0 0 0 .343-.311 4.992 4.976 0 0 0 .032-.031 4.992 4.976 0 0 0 .28-.311 4.992 4.976 0 0 0 .032-.062 4.992 4.976 0 0 0 .312-.405 4.992 4.976 0 0 0 .218-.342 4.992 4.976 0 0 0 .031-.062 4.992 4.976 0 0 0 .468-1.43 4.992 4.976 0 0 0-1.997-4.945L33.546 86.524A4.992 4.976 0 0 0 29.96 85zM37.5 60h110.068L90 113.853 32.705 60.22c1.53-.282 3.413-.22 4.795-.22zM30 80v-9.132l56.725 53.382A4.996 4.996 0 0 0 90 125.468a5.007 5.007 0 0 0 3.278-1.218L150 70.87v71.63c0 2.76.26 7.5-2.5 7.5h-110c-2.757 0-7.5-4.74-7.5-7.5V140H20v2.5c0 8.285 9.217 17.5 17.5 17.5h110c8.285 0 12.5-9.215 12.5-17.5v-80c0-.442-.058-.83-.085-1.25.155-.96.028-1.95-.388-2.855C158.268 52.858 154.266 50 147.5 50h-110c-5.95 0-12.36 2.188-15.512 6.48a5.029 5.029 0 0 0-.768.715c-1.007 1.163-1.36 2.658-1.135 4.068-.045.405-.085.812-.085 1.237V80z"/></svg>