<svg xmlns="http://www.w3.org/2000/svg" viewBox="0 0 160 160"><path d="M159.915 61.25c.155-.96.028-1.95-.388-2.855C158.268 52.858 154.266 50 147.5 50h-130c-5.95 0-12.36 2.188-15.512 6.48a5.029 5.029 0 0 0-.768.715C.212 58.358-.14 59.853.085 61.263.04 61.668 0 62.075 0 62.5v80c0 8.285 9.217 17.5 17.5 17.5h130c8.285 0 12.5-9.215 12.5-17.5v-80c0-.442-.058-.83-.085-1.25zM17.5 60h130.068L80 113.853 12.705 60.22c1.53-.282 3.412-.22 4.795-.22zm130 90h-130c-2.758 0-7.5-4.74-7.5-7.5V70.868l66.725 53.382A4.996 4.996 0 0 0 80 125.468a5.007 5.007 0 0 0 3.278-1.218L150 70.87v71.63c0 2.76.26 7.5-2.5 7.5z"/></svg>