<svg xmlns="http://www.w3.org/2000/svg" viewBox="0 0 160 160"><path d="M134.959 84.756a4.992 5 0 0 0-3.463 8.594l11.45 11.469h-32.883a4.992 5 0 1 0 0 10h32.883l-11.45 11.468a4.992 5 0 1 0 7.05 7.063l19.655-19.719a4.992 5 0 0 0 .344-.312 4.992 5 0 0 0 .03-.032 4.992 5 0 0 0 .281-.312 4.992 5 0 0 0 .032-.063 4.992 5 0 0 0 .312-.406 4.992 5 0 0 0 .218-.344 4.992 5 0 0 0 .031-.062 4.992 5 0 0 0 .468-1.438 4.992 5 0 0 0-1.996-4.968l-19.374-19.407a4.992 5 0 0 0-3.588-1.531zM122.5 60H12.432L70 113.853l57.295-53.633c-1.53-.282-3.413-.22-4.795-.22zm7.5 20v-9.132L73.275 124.25A4.996 4.996 0 0 1 70 125.468a5.007 5.007 0 0 1-3.278-1.218L10 70.87v71.63c0 2.76-.26 7.5 2.5 7.5h110c2.757 0 7.5-4.74 7.5-7.5V140h10v2.5c0 8.285-9.217 17.5-17.5 17.5h-110C4.215 160 0 150.785 0 142.5v-80c0-.442.058-.83.085-1.25a4.943 4.943 0 0 1 .387-2.855C1.732 52.858 5.736 50 12.5 50h110c5.95 0 12.36 2.188 15.512 6.48.273.208.533.442.768.715 1.008 1.163 1.36 2.658 1.135 4.068.045.405.085.812.085 1.237V80z"/></svg>