<svg xmlns="http://www.w3.org/2000/svg" viewBox="0 0 160 160"><path d="m 129.91016,119.95117 a 5.0005,5.0005 0 0 0 -3.43946,1.50781 l -14.5625,14.51172 a 5.0005,5.0005 0 0 0 0.006,7.9668 l 14.54492,14.5918 a 5.0005,5.0005 0 1 0 7.08204,-7.0586 l -6.5,-6.52148 H 155 a 5.0005,5.0005 0 1 0 0,-10 h -27.90039 l 6.42969,-6.4082 a 5.0005,5.0005 0 0 0 -3.61914,-8.58985 z M 77.500966,5.122542 73.390625,1.326172 C 72.524479,0.52696 71.403884,0.059353 70.226562,0.005859 68.892929,-0.054527 67.59052,0.420866 66.609375,1.326172 l -65,60 C 0.58377657,62.272561 3.13689e-4,63.60447 0,65 v 70 c 2.7608953e-4,2.76131 2.2386906,4.99972 5,5 h 5.084746 L 10,67 Z M 90,21.804688 147.67383,75.042969 117.48828,103.57031 93.390625,81.326172 c -1.915179,-1.766782 -4.866071,-1.766782 -6.78125,0 L 63.054688,103.06836 32.388672,74.984375 Z M 30,86.359375 55.681641,109.875 30,133.58008 Z m 120,0.246094 V 120 h 10 V 75 c -3.1e-4,-1.39553 -0.58378,-2.72744 -1.60938,-3.673828 l -64.999995,-60 C 92.524479,10.52696 91.403884,10.059353 90.226562,10.005859 88.892929,9.945473 87.59052,10.420866 86.609375,11.326172 l -65,60 C 20.583777,72.272561 20.000314,73.60447 20,75 v 70 c 2.76e-4,2.76131 2.238691,4.99972 5,5 h 75 V 140 H 37.787109 L 90,91.80469 l 27.35774,25.25267 z"/></svg>