<svg xmlns="http://www.w3.org/2000/svg" viewBox="0 0 160 160"><path d="m 69.998514,5.0009579 a 5.000493,5.0005 0 0 0 -4.999993,5.0000001 v 25.000001 h -9.999986 a 5.000493,5.0005 0 0 0 -3.535155,8.535156 l 24.999965,25 a 5.000493,5.0005 0 0 0 7.07031,0 l 24.999965,-25 a 5.000493,5.0005 0 0 0 -3.53516,-8.535156 H 94.998479 V 10.000958 A 5.000493,5.0005 0 0 0 89.998486,5.0009579 Z m 5.001451,9.9990411 h 9.999986 V 45 h 7.929677 L 79.999958,57.929688 67.070288,45 h 7.929677 z M 115.25424,60 H 147.5 147.5675 L 80,113.8525 12.705,60.22 C 14.235,59.937501 16.1175,60 17.5,60 H 45.084746 L 44.915254,50 H 17.5 C 11.55,50 5.14,52.187501 1.9875,56.48 1.715,56.687501 1.455,56.922499 1.22,57.195 0.2125,58.357501 -0.14,59.852501 0.085,61.262501 0.04,61.667501 0,62.075 0,62.5 v 80 c 0,8.285 9.2175,17.5 17.5,17.5 h 130 c 8.285,0 12.5,-9.215 12.5,-17.5 v -80 c 0,-0.442499 -0.0575,-0.83 -0.085,-1.25 0.15499,-0.96 0.0275,-1.95 -0.3875,-2.855 C 158.2675,52.857501 154.265,50 147.5,50 H 115.08475 Z M 147.5,150 H 17.5 C 14.7425,150 10,145.26 10,142.5 V 70.867501 L 76.725,124.25 c 0.94,0.8125 2.107499,1.2175 3.275,1.2175 1.167499,0 2.335,-0.405 3.277501,-1.2175 L 150,70.87 v 71.63 c 0,2.76 0.26,7.5 -2.5,7.5 z" />
</svg>
