<svg xmlns="http://www.w3.org/2000/svg" viewBox="0 0 160 160"><path d="m 119.91016,119.95098 c -1.29884,0.0366 -2.53242,0.57743 -3.43946,1.50781 l -14.5625,14.51172 c -2.63538,2.00301 -2.6324,5.96776 0.006,7.9668 l 14.54492,14.5918 c 4.70443,4.91488 11.9813,-2.3379 7.08204,-7.0586 l -6.5,-6.52148 H 145 c 2.78908,0.0394 5.07121,-2.21064 5.07121,-5 0,-2.78936 -2.28213,-5.03944 -5.07121,-5 h -27.90039 l 6.42969,-6.4082 c 3.27574,-3.17386 0.94021,-8.71713 -3.61914,-8.58985 z M 80,21.804498 137.67383,75.042779 107.48828,103.57012 83.390625,81.325982 c -1.915179,-1.766782 -4.866071,-1.766782 -6.78125,0 L 53.054688,103.06817 22.388672,74.984185 Z M 20,86.359185 45.681641,109.87481 20,133.57989 Z m 120,0.246094 v 33.394531 h 10 v -45 c -3.1e-4,-1.39553 -0.58378,-2.72744 -1.60938,-3.673828 l -64.999995,-60 c -0.866146,-0.799212 -1.986741,-1.266819 -3.164063,-1.320313 -1.333633,-0.060386 -2.636042,0.415007 -3.617187,1.320313 l -65,60 C 10.583777,72.272371 10.000314,73.60428 10,74.99981 v 70 c 2.76e-4,2.76131 2.238691,4.99972 5,5 h 75 v -10 H 27.787109 L 80,91.8045 l 27.35774,25.25267 z"/></svg>