<svg xmlns="http://www.w3.org/2000/svg" viewBox="0 0 160 160"><path d="M159.89 73.934a9.976 9.976 0 0 0-1.89-4.76h.026l-.138-.137a9.943 9.943 0 0 0-1.782-1.798L90.91 4.212c-5.66-5.66-15.547-5.67-21.214 0L4.512 66.747C3.102 68.059 0 71.604 0 75.08v74.92C0 155.498 4.502 160 10 160h139.989c5.497 0 10-4.502 10-10V75.28c.034-.45-.01-.9-.098-1.345zM42.163 113.468L9.999 143.086V85.093l32.163 28.375zm10.277 4.123c.357-.238.697-.508.995-.845.057-.065.097-.143.15-.21l22.055-20.311c1.133-.913 2.475-1.393 3.888-1.393 1.434 0 2.87.503 3.832 1.25l59.933 53.919H17.249l35.19-32.41zm65.915-3.463l31.635-28.075v56.533l-31.635-28.458zM16.224 69.174l60.543-57.893a4.985 4.985 0 0 1 3.535-1.465c1.337 0 2.592.523 3.54 1.465l56.46 53.801h-.152l8.576 8.717-37.857 33.597-21.13-19.008c-5.888-4.615-14.34-4.815-20.574.215L49.556 106.66 11.78 73.33l4.217-4.155h.228z"/></svg>