<svg xmlns="http://www.w3.org/2000/svg" viewBox="0 0 160 160"><path d="M79.656 0a5 5 0 0 0-1.75.469l-65 30a5 5 0 0 0 0 9.062l65 30a5 5 0 0 0 4.188 0l65-30a5 5 0 0 0 0-9.062l-65-30A5 5 0 0 0 79.656 0zM80 10.5L133.094 35 80 59.5 26.906 35 80 10.5zM4.656 45A5 5 0 0 0 0 50v75a5 5 0 0 0 2.906 4.531l65 30A5 5 0 0 0 75 155V80a5 5 0 0 0-2.906-4.531l-65-30A5 5 0 0 0 4.656 45zm150.188 0a5 5 0 0 0-1.938.469l-65 30A5 5 0 0 0 85 80v75a5 5 0 0 0 7.094 4.531l65-30A5 5 0 0 0 160 125V50a5 5 0 0 0-5.156-5zM10 57.813l55 25.374v64l-55-25.375v-64zm140 0v64l-55 25.374v-64l55-25.374z"/></svg>