<svg viewBox="0 0 158 160" xmlns="http://www.w3.org/2000/svg">
<path d="M120 70V50.002L65 0H10C4.478 0 0 4.477 0 10V150C0 155.522 4.478 160 10 160H80V150H10V10H50V65H110V70H120ZM110 54.145V55H60V10H60.86L110 54.145ZM138.261 90.0361V101.752H155.82V108.836H138.261V127H129.179V82.9219H135.779H138.261H157.939V90.0361H138.261ZM104.006 126.395C106.024 127.202 108.305 127.605 110.848 127.605C112.967 127.605 114.854 127.323 116.509 126.758C118.164 126.173 119.577 125.426 120.747 124.518C121.938 123.609 122.877 122.661 123.563 121.672L119.324 117.07C118.336 118.322 117.155 119.26 115.782 119.886C114.43 120.491 112.967 120.794 111.393 120.794C110.121 120.794 108.981 120.572 107.972 120.128C106.983 119.684 106.135 119.058 105.429 118.251C104.743 117.444 104.208 116.485 103.824 115.375C103.611 114.724 103.461 114.037 103.373 113.316H124.289V109.684C124.289 107.282 123.976 105.102 123.351 103.145C122.725 101.167 121.797 99.4714 120.566 98.0586C119.355 96.6458 117.851 95.556 116.055 94.7891C114.259 94.0221 112.2 93.6387 109.879 93.6387C107.498 93.6387 105.358 94.0524 103.461 94.8799C101.564 95.6872 99.9495 96.8477 98.6174 98.3613C97.3056 99.875 96.2965 101.661 95.5901 103.72C94.8837 105.778 94.5305 108.049 94.5305 110.531V111.742C94.5305 113.922 94.9039 115.98 95.6506 117.918C96.3974 119.835 97.467 121.521 98.8596 122.974C100.272 124.427 101.988 125.567 104.006 126.395ZM103.479 107.504H115.722V106.838C115.722 105.627 115.5 104.547 115.056 103.599C114.632 102.63 113.986 101.863 113.118 101.298C112.251 100.733 111.141 100.45 109.788 100.45C108.638 100.45 107.649 100.702 106.822 101.207C105.994 101.712 105.318 102.418 104.793 103.326C104.289 104.234 103.905 105.304 103.643 106.535C103.58 106.85 103.525 107.173 103.479 107.504ZM81.6788 115.466C81.6788 114.679 81.5577 113.972 81.3156 113.347C81.0935 112.701 80.6697 112.116 80.0441 111.591C79.4184 111.046 78.5405 110.511 77.4103 109.986C76.2801 109.462 74.8168 108.917 73.0206 108.352C71.0226 107.706 69.1254 106.979 67.3292 106.172C65.5532 105.365 63.979 104.426 62.6066 103.356C61.2543 102.267 60.1847 101.005 59.3976 99.5723C58.6307 98.1393 58.2472 96.4743 58.2472 94.5771C58.2472 92.7406 58.6508 91.0755 59.4581 89.582C60.2654 88.0684 61.3956 86.7767 62.8488 85.707C64.3019 84.6172 66.0174 83.7796 67.9952 83.1943C69.9933 82.609 72.1831 82.3164 74.5646 82.3164C77.8139 82.3164 80.6495 82.9017 83.0714 84.0723C85.4933 85.2428 87.3702 86.8473 88.7023 88.8857C90.0545 90.9242 90.7306 93.2552 90.7306 95.8789H81.7091C81.7091 94.5872 81.4366 93.457 80.8917 92.4883C80.367 91.4994 79.5597 90.7223 78.4698 90.1572C77.4002 89.5921 76.048 89.3096 74.4132 89.3096C72.839 89.3096 71.5271 89.5518 70.4777 90.0361C69.4282 90.5003 68.6411 91.1361 68.1163 91.9434C67.5916 92.7305 67.3292 93.6185 67.3292 94.6074C67.3292 95.3542 67.5109 96.0303 67.8741 96.6357C68.2576 97.2412 68.8227 97.8063 69.5695 98.3311C70.3162 98.8558 71.2345 99.3503 72.3243 99.8145C73.4142 100.279 74.6756 100.733 76.1085 101.177C78.5102 101.903 80.6193 102.721 82.4357 103.629C84.2723 104.537 85.8061 105.556 87.0372 106.687C88.2683 107.817 89.1967 109.098 89.8224 110.531C90.448 111.964 90.7609 113.589 90.7609 115.405C90.7609 117.323 90.3875 119.038 89.6407 120.552C88.894 122.065 87.8142 123.347 86.4015 124.396C84.9887 125.446 83.3035 126.243 81.3458 126.788C79.3881 127.333 77.1984 127.605 74.7765 127.605C72.5968 127.605 70.4474 127.323 68.3282 126.758C66.2091 126.173 64.2817 125.295 62.546 124.124C60.8305 122.953 59.4581 121.46 58.4288 119.644C57.3995 117.827 56.8849 115.678 56.8849 113.195H65.9972C65.9972 114.568 66.2091 115.728 66.6329 116.677C67.0568 117.625 67.6521 118.392 68.4191 118.978C69.2062 119.563 70.1346 119.987 71.2042 120.249C72.2941 120.511 73.4848 120.643 74.7765 120.643C76.3507 120.643 77.6424 120.421 78.6515 119.977C79.6808 119.533 80.4376 118.917 80.922 118.13C81.4266 117.343 81.6788 116.455 81.6788 115.466ZM29.0176 103.116V82.9219H19.9355V127H29.0176V114.29L33.7485 109.204L45.0928 127H55.8398L39.763 102.427L55.416 82.9219H44.2754L33.0439 97.6045L29.0176 103.116Z"/>
</svg>
