<svg xmlns="http://www.w3.org/2000/svg" viewBox="0 0 160 160"><path d="M99.781-.063a5 5 0 0 0-.656.063H5a5 5 0 0 0-.875.094 5 5 0 0 0-.969.25 5 5 0 0 0-.094.031A5 5 0 0 0 0 5.813V125a5 5 0 0 0 .156 1.219c2.667 10.666 6.97 18.043 12.813 23.156 5.658 4.95 12.378 7.611 19.75 10.094a5 5 0 0 0 .468.187c.078.026.141.068.22.094a5 5 0 0 0 .25.062 5 5 0 0 0 .25.063 5 5 0 0 0 .75.125 5 5 0 0 0 .718 0H135a5 5 0 0 0 5-5V35a5 5 0 0 0-5-5h-4.063c-9.27-3.22-16.113-8.324-20.937-15.656V5a5 5 0 0 0-5-5h-4.219a5 5 0 0 0-1-.063zM11.75 10h84.844c3.245 8.026 8.07 14.744 14.312 20H35.937c-6.977-2.357-12.39-4.61-16.406-8.125-3.122-2.732-5.7-6.317-7.781-11.875zM10 26.281c.959 1.086 1.907 2.165 2.969 3.094C17.9 33.69 23.729 36.2 30 38.438v109.28c-4.077-1.667-7.721-3.44-10.469-5.843-4.073-3.564-7.21-8.612-9.531-17.594v-98zM40 40h89.625a5 5 0 0 0 .375.031V150H40V40z"/></svg>