<svg xmlns="http://www.w3.org/2000/svg" viewBox="0 0 160 160"><path d="M160 109.571V50c0-5.54-4.492-10.032-10.032-10.032h-99.78c-5.54 0-10.031 4.492-10.065 10.032h109.845v69.637c5.54-.034 10.032-4.526 10.032-10.066zm-19.958 20.199V70c0-5.54-4.492-10.032-10.032-10.032H30.23C24.69 59.968 20.2 64.46 20.165 70H130.01v69.835c5.54-.034 10.032-4.525 10.032-10.065zM69.977 100v40h-9.864v-26.608c-1.596 1.25-3.14 2.263-4.633 3.037-1.492.773-3.363 1.514-5.614 2.222v-8.247c3.32-1.103 5.898-2.428 7.733-3.975 1.836-1.548 3.272-4.157 4.31-6.429zm39.834 49.968h-99.78V90h99.78zm0-70h-99.78C4.492 79.968 0 84.46 0 90v59.968C0 155.508 4.492 160 10.032 160h99.78c5.54 0 10.031-4.492 10.031-10.032V90c0-5.54-4.491-10.032-10.032-10.032z"/></svg>