<svg xmlns="http://www.w3.org/2000/svg" viewBox="0 0 160 160"><path d="M30 0c-5.524 0-9.966 4.475-10 10h99.833L120 59.917c5.525-.034 10.023-4.56 10-10.084L129.833 10c-.023-5.524-4.475-10-10-10zM10 20C4.475 20 0 24.475 0 30v40c0 5.525 4.476 10 10 10h89.833c5.525 0 10-4.475 10-10V30c0-5.525-4.475-10-10-10zm0 10h89.833v40H10zm41.917 5c-1.035 2.265-2.503 4.207-4.334 5.75-1.83 1.543-4.356 2.817-7.667 3.917v8.25c2.245-.706 4.096-1.479 5.584-2.25a29.781 29.781 0 0 0 4.667-3V65H60V35zm53.177 55a5.02 5.02 0 0 0-2.125.438l-45 20c-1.748.783-2.954 2.647-2.954 4.562 0 1.915 1.206 3.779 2.954 4.563L80 129.343V145c-.001 1.841 1.106 3.64 2.75 4.469l20 10c1.39.7 3.11.7 4.5 0l20-10c1.644-.829 2.751-2.628 2.75-4.469v-15.656l15-6.656v13.656a9.967 9.967 0 0 0-5 8.656c0 5.523 4.477 10 10 10s10-4.477 10-10a9.967 9.967 0 0 0-5-8.656V115.25a5.052 5.052 0 0 0-.031-.75 4.668 4.668 0 0 0-.031-.25 4.668 4.668 0 0 0-.032-.25 5.017 5.017 0 0 0-.062-.219 5.009 5.009 0 0 0-.344-.937 4.997 4.997 0 0 0-.219-.438 5.007 5.007 0 0 0-.28-.437 5.047 5.047 0 0 0-2.782-1.875L107.03 90.438a5.017 5.017 0 0 0-1.937-.438zM105 100.469L137.688 115 105 129.531 72.312 115zm-15 33.344l12.969 5.75a5.068 5.068 0 0 0 4.062 0l12.969-5.75v8.093l-15 7.5-15-7.5z"/></svg>