<svg xmlns="http://www.w3.org/2000/svg" viewBox="0 0 160 160"><path d="M79.997 11.104C35.885 11.104 0 46.994 0 91.106c0 27.715 14.03 53.064 37.532 67.805 2.338 1.482 5.427.764 6.899-1.58a5 5 0 0 0-1.58-6.898 70.21 70.21 0 0 1-20.874-20.163l5.25-3.03a5.004 5.004 0 0 0 1.832-6.84 5.003 5.003 0 0 0-6.839-1.832l-5.256 3.034a69.763 69.763 0 0 1-6.771-25.567h5.572a5.005 5.005 0 0 0 5.006-5.006 5.005 5.005 0 0 0-5.006-5.006h-5.547a69.479 69.479 0 0 1 6.971-25.75l5.031 2.904a5.01 5.01 0 0 0 6.839-1.832 5.003 5.003 0 0 0-1.832-6.84l-4.982-2.873a70.58 70.58 0 0 1 18.771-18.62l2.819 4.88a4.999 4.999 0 0 0 4.34 2.504 5.004 5.004 0 0 0 4.33-7.51l-2.808-4.86c7.717-3.723 16.22-6.048 25.184-6.7v6.239a5.005 5.005 0 0 0 5.006 5.006 5.005 5.005 0 0 0 5.007-5.006v-6.258a69.459 69.459 0 0 1 25.717 6.876l-2.716 4.7a5.003 5.003 0 0 0 4.33 7.51c1.73 0 3.412-.894 4.34-2.503l2.704-4.683a70.586 70.586 0 0 1 18.598 18.588l-4.688 2.708a5.004 5.004 0 0 0-1.832 6.839 4.999 4.999 0 0 0 4.34 2.503c.851 0 1.712-.215 2.498-.671l4.714-2.72a69.464 69.464 0 0 1 6.89 25.724h-5.496a5.005 5.005 0 0 0-5.006 5.006 5.005 5.005 0 0 0 5.006 5.006h5.494c-.633 8.899-2.908 17.435-6.648 25.237l-4.956-2.861a5.008 5.008 0 0 0-6.839 1.832 5.003 5.003 0 0 0 1.832 6.839l4.972 2.87a70.125 70.125 0 0 1-21.49 20.624 5.007 5.007 0 1 0 5.252 8.526C145.762 144.566 160 119.084 160 91.104c0-44.11-35.89-80-80.003-80zm36.942 64.393a5.005 5.005 0 0 0-5.006-8.668l-27.195 15.7c-1.451-.822-3.106-1.33-4.893-1.33-5.52 0-9.988 4.473-9.988 9.983 0 5.514 4.47 9.987 9.988 9.987 5.52 0 9.987-4.473 9.987-9.987l-.002-.033 27.109-15.652z"/></svg>