<svg xmlns="http://www.w3.org/2000/svg" viewBox="0 0 160 160"><path d="M109.982 59.575C82.388 59.575 60 82.033 60 109.77 60 137.506 82.388 160 109.982 160c27.63 0 50.018-22.494 50.018-50.23 0-27.737-22.388-50.195-50.018-50.195zm0 10.025c22.104 0 39.993 17.995 39.993 40.17 0 22.21-17.889 40.17-39.993 40.17-22.068 0-39.957-17.96-39.957-40.17 0-22.175 17.889-40.17 39.957-40.17zm-14.98 45.412h29.992a5 5 0 0 0 4.999-4.998 5 5 0 0 0-5-4.999h-29.99a5 5 0 0 0-5 4.999 5 5 0 0 0 5 4.998zM15 35H5c-2.76 0-5 2.24-5 5v10c0 2.76 2.24 5 5 5h10c2.76 0 5-2.24 5-5V40c0-2.76-2.24-5-5-5zm140 5H50c-2.76 0-5 2.24-5 5s2.24 5 5 5h105c2.76 0 5-2.24 5-5s-2.24-5-5-5zM15 65H5c-2.76 0-5 2.24-5 5v10c0 2.76 2.24 5 5 5h10c2.76 0 5-2.24 5-5V70c0-2.76-2.24-5-5-5zm45 5H50c-2.76 0-5 2.24-5 5s2.24 5 5 5h10c2.76 0 5-2.24 5-5s-2.24-5-5-5zM15 5H5c-2.76 0-5 2.24-5 5v10c0 2.76 2.24 5 5 5h10c2.76 0 5-2.24 5-5V10c0-2.76-2.24-5-5-5zm35 15h105c2.76 0 5-2.24 5-5s-2.24-5-5-5H50c-2.76 0-5 2.24-5 5s2.24 5 5 5z"/></svg>