<svg xmlns="http://www.w3.org/2000/svg" viewBox="0 0 160 160"><path d="M5 15c-2.76 0-5 2.24-5 5v10c0 2.76 2.24 5 5 5h10c2.76 0 5-2.24 5-5V20c0-2.76-2.24-5-5-5H5zm40 5c-2.76 0-5 2.24-5 5s2.24 5 5 5h110c2.76 0 5-2.24 5-5s-2.24-5-5-5H45zm90 30a5 5 0 0 0-5 5v87.93l-11.465-11.465A5 5 0 0 0 115 130a5 5 0 0 0-3.535 1.465 5 5 0 0 0 0 7.07l20 20a5 5 0 0 0 1.435.961 5 5 0 0 0 .407.168A5 5 0 0 0 135 160a5 5 0 0 0 1.693-.336 5 5 0 0 0 .407-.168 5 5 0 0 0 1.435-.96l20-20a5 5 0 0 0 0-7.071 5 5 0 0 0-7.07 0L140 142.93V55a5 5 0 0 0-5-5zM5 55c-2.76 0-5 2.24-5 5v10c0 2.76 2.24 5 5 5h10c2.76 0 5-2.24 5-5V60c0-2.76-2.24-5-5-5H5zm40 5c-2.76 0-5 2.24-5 5s2.24 5 5 5h60c2.76 0 5-2.24 5-5s-2.24-5-5-5H45zM5 95c-2.76 0-5 2.24-5 5v10c0 2.76 2.24 5 5 5h10c2.76 0 5-2.24 5-5v-10c0-2.76-2.24-5-5-5H5zm40 5c-2.76 0-5 2.24-5 5s2.24 5 5 5h60c2.76 0 5-2.24 5-5s-2.24-5-5-5H45z"/></svg>