<svg xmlns="http://www.w3.org/2000/svg" viewBox="0 0 160 160"><path d="M27.5 74.75h15.75a.75.75 0 0 0 0-1.5H27.5a.75.75 0 0 0 0 1.5zm-5.25-2.25h-1.5a.75.75 0 0 0-.75.75v1.5c0 .414.336.75.75.75h1.5a.75.75 0 0 0 .75-.75v-1.5a.75.75 0 0 0-.75-.75zm21 12.75H27.5a.75.75 0 0 0 0 1.5h15.75a.75.75 0 0 0 0-1.5zm-21-.75h-1.5a.75.75 0 0 0-.75.75v1.5c0 .414.336.75.75.75h1.5a.75.75 0 0 0 .75-.75v-1.5a.75.75 0 0 0-.75-.75zm21-5.25H27.5a.75.75 0 0 0 0 1.5h15.75a.75.75 0 0 0 0-1.5zm-21-.75h-1.5a.75.75 0 0 0-.75.75v1.5c0 .414.336.75.75.75h1.5a.75.75 0 0 0 .75-.75v-1.5a.75.75 0 0 0-.75-.75z"/><text x="56" y="85" font-weight="700" font-size="15" font-family="Arial"><tspan>#####</tspan></text></svg>