<svg xmlns="http://www.w3.org/2000/svg" viewBox="0 0 160 160"><path d="M80.573 0C47.775 0 20 27.933 20 61.023c0 34.65 32.193 70.084 53.847 94.99.083.1 3.583 3.987 7.896 3.987h.382c4.312 0 7.787-3.888 7.875-3.987 20.323-23.363 50-61.883 50-94.99C140 27.933 118.335 0 80.573 0zm2.005 149.305c-.176.175-.43.37-.656.532a5.795 5.795 0 0 1-.664-.532l-2.616-3.007C58.112 122.745 30 90.493 30 61.023 30 33.365 53.16 9.997 80.573 9.997 114.718 9.998 130 35.624 130 61.024c0 22.372-15.957 52.077-47.422 88.282zM80.174 30.277c-16.567 0-30 13.433-30 30 0 16.568 13.432 30 30 30 16.567 0 30-13.432 30-30 0-16.567-13.432-30-30-30zm0 50c-11.027 0-20.23-9.19-20.23-20.22 0-11.027 8.972-20 20-20 11.035 0 20 8.973 20 20 .006 11.03-8.735 20.22-19.77 20.22z"/></svg>