<svg xmlns="http://www.w3.org/2000/svg" viewBox="0 0 160 160"><path d="M34.975 108.106h10.192c7.09-40.225 42.128-70.81 84.383-70.81 1.773 0 3.455.016 5.157.029l-18.532 18.529a5.066 5.066 0 0 0 0 7.152 5.05 5.05 0 0 0 3.581 1.481 5.026 5.026 0 0 0 3.57-1.481l29.877-30.663-29.876-30.668a5.057 5.057 0 0 0-7.152 0 5.066 5.066 0 0 0 0 7.152l18.362 18.36c-1.585-.003-3.156-.008-4.774-.008-47.9 0-87.494 35.08-94.788 80.927zM150 55l.083 20c-.092-.006-.24 0-.333 0H80v10h69.75c.094 0 .24.006.333 0v54.917h-140V20.583H77v-9.916H10.083V5c0-2.76-2.32-5-5.083-5-2.76 0-5 2.24-5 5v150c0 2.76 2.24 5 5 5s5.083-2.24 5.083-5v-5h140v5c0 2.76 2.156 5 4.917 5 2.76 0 5-2.24 5-5l-.083-100.03zm-25 45h-19.708c-2.842 0-5.146 3.074-5.146 6.867v16.266c0 3.793 2.304 6.867 5.146 6.867H125c2.842 0 5.146-3.074 5.146-6.867v-16.266c0-3.793-2.304-6.867-5.146-6.867zm-40 0H65.292c-2.842 0-5.146 3.074-5.146 6.867v16.266c0 3.793 2.304 6.867 5.146 6.867H85c2.842 0 5.146-3.074 5.146-6.867v-16.266c0-3.793-2.304-6.867-5.146-6.867z"/></svg>