<svg xmlns="http://www.w3.org/2000/svg" viewBox="0 0 160 160"><path d="M79.955 80c-5.517 0-9.952 4.475-9.985 10h79.878l.167 49.917c5.516-.034 10.008-4.56 9.985-10.084L159.833 90c-.023-5.524-4.468-10-9.985-10zm-19.97 20C54.469 100 50 104.475 50 110v40c0 5.525 4.469 10 9.985 10h69.894c5.516 0 9.985-4.475 9.985-10v-40c0-5.525-4.47-10-9.985-10zm0 10h69.894v40H59.985zm31.868 5c-1.033 2.265-2.5 4.207-4.327 5.75-1.827 1.543-4.35 2.817-7.655 3.917v8.25c2.241-.706 4.09-1.479 5.575-2.25a29.73 29.73 0 0 0 4.66-3V145h9.818v-30zM105 30H85c-2.43 0-5 1.756-5 5v25c0 3.244 2.57 5 5 5h20c2.43 0 5-1.756 5-5V35c0-3.244-2.57-5-5-5zm-50 0H35c-2.43 0-5 1.756-5 5v25c0 3.244 2.57 5 5 5h20c2.43 0 5-1.756 5-5V35c0-3.244-2.57-5-5-5zM159.963 4.335c0-2.761-2.2-4.335-4.963-4.335-2.76 0-5 2.24-5 5v5H10V5c0-2.76-2.255-5-5.018-5C2.22 0 0 2.24 0 5v150c0 2.76 2.221 5 4.982 5 2.76 0 4.993-2.24 5.018-5v-5h30v-10H10V85h50V75H10V20h140v50h10V5"/></svg>