<svg xmlns="http://www.w3.org/2000/svg" viewBox="0 0 160 160"><path d="M89.648 35H70.352C67.396 35 65 38.074 65 41.867v16.266C65 61.926 67.396 65 70.352 65h19.296C92.604 65 95 61.926 95 58.133V41.867C95 38.074 92.604 35 89.648 35zm-45 0H25.352C22.396 35 20 38.074 20 41.867v16.266C20 61.926 22.396 65 25.352 65h19.296C47.604 65 50 61.926 50 58.133V41.867C50 38.074 47.604 35 44.648 35zm45 65H70.352c-2.956 0-5.352 3.074-5.352 6.867v16.266c0 3.793 2.396 6.867 5.352 6.867h19.296c2.956 0 5.352-3.074 5.352-6.867v-16.266c0-3.793-2.396-6.867-5.352-6.867zm45 0h-19.296c-2.956 0-5.352 3.074-5.352 6.867v16.266c0 3.793 2.396 6.867 5.352 6.867h19.296c2.956 0 5.352-3.074 5.352-6.867v-16.266c0-3.793-2.396-6.867-5.352-6.867zm-90 0H25.352c-2.956 0-5.352 3.074-5.352 6.867v16.266c0 3.793 2.396 6.867 5.352 6.867h19.296c2.956 0 5.352-3.074 5.352-6.867v-16.266c0-3.793-2.396-6.867-5.352-6.867zM5.181 0C2.31 0 0 2.221 0 4.982v150.036C0 157.78 2.31 160 5.181 160s5.282-2.221 5.282-4.982l.362-5.018H150l-.362 5.018c-.198 2.754 2.31 4.982 5.181 4.982s5.181-2.221 5.181-4.982V4.982C160 2.22 157.693 0 154.82 0c-2.872 0-5.182 2.221-5.182 4.982L150 10H10l.463-5.018C10.717 2.232 8.055 0 5.181 0zM10 20h140v55H10zm0 65h140v55H10z"/></svg>