<svg xmlns="http://www.w3.org/2000/svg" viewBox="0 0 160 160"><path d="M105 30H85c-2.43 0-5 1.756-5 5v25c0 3.244 2.57 5 5 5h20c2.43 0 5-1.756 5-5V35c0-3.244-2.57-5-5-5zm-50 0H35c-2.43 0-5 1.756-5 5v25c0 3.244 2.57 5 5 5h20c2.43 0 5-1.756 5-5V35c0-3.244-2.57-5-5-5zm0 65H35c-2.43 0-5 1.756-5 5v25c0 3.244 2.57 5 5 5h20c2.43 0 5-1.756 5-5v-25c0-3.244-2.57-5-5-5zM159.963 4.335c0-2.761-2.2-4.335-4.963-4.335-2.76 0-5 2.24-5 5v5H10V5c0-2.76-2.255-5-5.018-5C2.22 0 0 2.24 0 5v150c0 2.76 2.221 5 4.982 5 2.76 0 4.993-2.24 5.018-5v-5h50v-10H10V85h60V75H10V20h140v50h10V5m-53.083 110.17c-1.035 2.265-2.503 4.207-4.334 5.75-1.83 1.543-4.356 2.816-7.667 3.916v8.25c2.245-.706 4.096-1.478 5.584-2.25a29.781 29.781 0 0 0 4.667-3v17.333H115v-30zm25.17-.17c-1.036 2.265-2.504 4.207-4.334 5.75-1.83 1.543-4.356 2.817-7.667 3.917v8.25c2.244-.706 4.095-1.479 5.583-2.25a29.781 29.781 0 0 0 4.667-3V145h9.833v-30zM150 150l-60 .272V100h10v2.952c0 2.365 2.635 4.28 5 4.28s5.002-1.917 5-4.282V100h20v2.952c0 2.365 2.635 4.28 5 4.28s5-1.915 5-4.28V100h10zm0-60.27L140 90v-6.626c0-2.365-2.635-3.374-5-3.374s-5 1.01-5 3.374v6.624h-20v-6.624c0-2.365-2.635-3.374-5-3.374s-5 1.011-5 3.376V90H88.56C83.833 90 80 94.93 80 99.657v51.783c0 4.727 3.833 8.58 8.56 8.56l61.44-.272c4.727-.022 10-3.833 10-8.56V99.385c0-4.726-5.273-9.655-10-9.655z"/></svg>