<svg xmlns="http://www.w3.org/2000/svg" viewBox="0 0 160 160"><path d="M29.5 63.469l4.844 19.406 9.718-2.406-4.874-19.406zm57.063 4.625l-4.407 2.969 5.531 8.312 1.188-.781 8 7.25 6.719-7.438-10.906-9.844-3.094-1.28zM57.186 87.688l5.563 8.343 16.625-11.094-5.531-8.343zm47.126 4.843l12.343 11.188 6.688-7.438L111 85.125zm-67.532.063l2.719 10.875 1.875 2.812 3.219.969 2.531-.813 7.281-4.874-5.531-8.313-1.406.938-1-4.032zm88.531 12.469a5 5 0 0 0-3.5 8.593l1.282 1.281-1.625 1.626a5.005 5.005 0 1 0 7.062 7.093l1.656-1.656 1.625 1.656a5.016 5.016 0 1 0 7.094-7.094l-1.656-1.624 1.281-1.282a5 5 0 0 0-3.625-8.594 5 5 0 0 0-3.437 1.5l-1.281 1.282-1.282-1.281a5 5 0 0 0-3.594-1.5zM40 45c0 5.523-4.477 10-10 10s-10-4.477-10-10 4.477-10 10-10 10 4.477 10 10zm115.185-23.767L105.035.44 55.123 20.195 4.815.45A4.36 4.36 0 0 0 3.57.275C1.518.265 0 1.798 0 4.103V133.79c0 2.745 2.167 5.605 4.815 6.338L55.18 160l49.845-20.235 50.16 19.707c.43.118.85.175 1.245.175 2.05 0 3.57-1.522 3.57-3.827V27.58c0-2.745-2.167-5.607-4.815-6.347zM110 60V12.918l40 17.247V146.7l-40-15.06V110h-10v21.753l-40 15.81V120H50v27.485l-40-16.292V13.683L50 28.46V70h10V28.44l40-15.672V60z"/></svg>