<svg xmlns="http://www.w3.org/2000/svg" viewBox="0 0 160 160"><path d="M80 0C35.876 0 0 35.876 0 80s35.876 80 80 80 80-35.876 80-80S124.124 0 80 0zm-6.906 10.344L58.188 41.25v.031l-2 4.157-4.594.687-35.5 5.281c10.023-22.425 31.473-38.569 57-41.062zm15.312.187c24.785 2.957 45.54 18.784 55.406 40.657l-33.968-5.063-4.594-.688-2-4.156-14.844-30.75zm-7.687 7.063l13.5 28.031 3.187 6.531a5 5 0 0 0 3.75 2.782l7.219 1.093 31.125 4.594-22.844 22.781-5 5a5 5 0 0 0-1.406 4.375l1.156 6.969 5.313 31.563-27.125-14.594-6.5-3.5a5 5 0 0 0-4.75 0l-6.531 3.5-27.094 14.594L50 99.75l1.188-6.969a5 5 0 0 0-1.407-4.375l-5-5-22.843-22.781L53.063 56l7.218-1.063a5 5 0 0 0 3.75-2.78l3.188-6.532 13.5-28.031zm-69 46.968L37.687 90.47l3.22 3.187-.75 4.438-5.844 34.969C19.419 120.234 10 101.243 10 80c0-5.311.603-10.468 1.719-15.438zm136.844 1.157A70.553 70.553 0 0 1 150 80c0 20.642-8.894 39.168-23.063 51.969l-5.656-33.875-.75-4.438 3.188-3.187 24.844-24.75zm-67.844 57.594l4.156 2.218 29.156 15.688C103.965 146.815 92.356 150 80 150c-12.06 0-23.416-3.026-33.313-8.375l29.876-16.094 4.156-2.219z"/></svg>