<svg xmlns="http://www.w3.org/2000/svg" viewBox="0 0 160 160"><path d="M140 0c-2.618 0-5 2.382-5 5 0 4.583-2.209 8.883-6.719 13.188-4.51 4.304-11.221 8.315-18.969 11.593C93.817 36.337 74.167 40 60 40H20a5.06 5.06 0 0 0-3.531 1.469l-15 15A5.06 5.06 0 0 0 0 60v30a5.06 5.06 0 0 0 1.469 3.531l15 15A5.06 5.06 0 0 0 20 110h10.906l9.188 45.969C40.538 158.219 42.707 160 45 160h20c2.783-.004 5.247-2.731 4.969-5.5l-4.438-44.344c13.47.787 30.213 4.322 43.781 10.063 7.748 3.278 14.46 7.289 18.97 11.594C132.79 136.117 135 140.416 135 145c0 2.618 2.382 5 5 5h15c2.618 0 5-2.382 5-5V5c0-2.618-2.382-5-5-5zm4.375 10H150v130h-5.625c-1.287-5.852-4.678-11.071-9.219-15.406-5.802-5.54-13.466-9.966-21.969-13.563C96.183 103.837 75.834 100 60 100H22.062L10 87.937V62.064L22.063 50H60c15.833 0 36.183-3.837 53.188-11.031 8.502-3.597 16.166-8.024 21.968-13.563 4.541-4.335 7.932-9.554 9.219-15.406zM41.094 110h14.375l4 40H49.094z"/></svg>