<svg viewBox="0 0 160 160" xmlns="http://www.w3.org/2000/svg">
  <g transform="scale(8.8889, 11.4286)">
    <path d="M17.585 12.0625C17.695 12.0625 17.8006 12.1218 17.8784 12.2273C17.9562 12.3328 18 12.4758 18 12.625C18 12.7742 17.9562 12.9172 17.8784 13.0227C17.8006 13.1282 17.695 13.1875 17.585 13.1875H5.13979C5.02977 13.1875 4.92426 13.1282 4.84646 13.0227C4.76866 12.9172 4.72495 12.7742 4.72495 12.625C4.72495 12.4758 4.76866 12.3328 4.84646 12.2273C4.92426 12.1218 5.02977 12.0625 5.13979 12.0625H17.585ZM0.16474 1.76479C0.384408 1.54515 0.740487 1.54514 0.960151 1.76479L6.13922 6.94375L0.960151 12.1227C0.740487 12.3424 0.384408 12.3423 0.16474 12.1227C-0.0549131 11.903 -0.0549131 11.547 0.16474 11.3273L4.54829 6.94375L0.16474 2.5602C-0.0549134 2.34054 -0.0549134 1.98446 0.16474 1.76479ZM17.585 6.4375C17.695 6.4375 17.8006 6.49681 17.8784 6.60229C17.9562 6.70778 18 6.85084 18 7C18 7.14916 17.9562 7.29222 17.8784 7.39771C17.8006 7.50319 17.695 7.5625 17.585 7.5625H9.51136C9.40134 7.56249 9.29583 7.50319 9.21803 7.39771C9.14023 7.29222 9.09652 7.14918 9.09652 7C9.09652 6.85082 9.14023 6.70778 9.21803 6.60229C9.29583 6.49681 9.40134 6.43751 9.51136 6.4375H17.585ZM17.585 0.8125C17.695 0.8125 17.8006 0.871813 17.8784 0.977295C17.9562 1.08278 18 1.22584 18 1.375C18 1.52416 17.9562 1.66722 17.8784 1.77271C17.8006 1.87819 17.695 1.9375 17.585 1.9375H5.13979C5.02977 1.93749 4.92426 1.87819 4.84646 1.77271C4.76866 1.66722 4.72495 1.52417 4.72495 1.375C4.72495 1.22583 4.76866 1.08278 4.84646 0.977295C4.92426 0.871814 5.02977 0.812509 5.13979 0.8125H17.585Z"/>
  </g>
</svg>