<svg xmlns="http://www.w3.org/2000/svg" viewBox="0 0 160 160"><path d="M124.988 80c-13.88 0-25 12.321-25 26.688v17.53c0 4.812-3.58 10.209-7.03 14.938-.648.89-1.492 1.994-2.188 3.094-.931 1.46-1.021 3.414-.25 4.969.77 1.554 2.388 2.65 4.093 2.75.366.023.803.031 1.313.031h15.187c2.046 5.793 7.472 10 13.813 10 6.342 0 11.799-4.208 13.844-10h15.75c.232 0 .474.005.687 0 1.789-.046 3.502-1.17 4.281-2.813.78-1.642.605-3.727-.468-5.187a75.228 75.228 0 0 0-2.032-2.625c-3.569-4.426-7-9.827-7-15.156v-17.531c0-14.391-11.12-26.688-25-26.688zm0 10c8.248 0 15 7.167 15 16.688v17.53c0 6.414 2.345 11.609 5.157 15.782h-40.532c2.838-4.02 5.375-9.218 5.375-15.781v-17.531c0-9.545 6.753-16.688 15-16.688zM66.656.062c-2.36.115-4.74.358-7.125.72C21.365 6.553-4.99 42.301.781 80.468c5.773 38.166 41.521 64.522 79.688 58.75 2.593-.393 4.596-3.11 4.203-5.703-.393-2.594-3.11-4.596-5.703-4.203-32.823 4.964-63.317-17.521-68.281-50.344-4.965-32.823 17.52-63.317 50.343-68.281 32.823-4.965 63.317 17.52 68.281 50.343a59.59 59.59 0 0 1 .532 4.625c.097 2.676 2.686 4.999 5.357 4.806 2.67-.192 4.9-2.862 4.612-5.525a69.712 69.712 0 0 0-.594-5.406C133.807 23.75 102.052-1.659 66.656.063zM75 45v55H65l-.413-39.3c-1.596 1.25-3.14 2.263-4.632 3.037-1.493.773-2.704 1.754-4.955 2.461v-10c3.32-1.102 5.65-3.222 7.486-4.77 1.836-1.547 3.272-4.156 4.31-6.428z"/></svg>