<svg xmlns="http://www.w3.org/2000/svg" viewBox="0 0 160 160"><path d="M80 3.5c-20.986 0-39.97 1.885-54.25 5.083-7.14 1.6-13.171 3.492-17.75 5.917C3.421 16.925.168 20.181.168 24L0 48.917c0 2.645 1.272 5.04 2.833 6.75 1.561 1.709 3.444 2.989 5.667 4.166 4.446 2.355 10.214 4.174 17.25 5.75 14.073 3.152 33.107 5 54.083 5 20.977 0 39.927-1.848 54-5 7.037-1.576 12.804-3.395 17.25-5.75 2.223-1.177 4.19-2.457 5.75-4.166 1.561-1.71 3.002-4.105 3.002-6.75L160 24c0-3.819-3.421-7.075-8-9.5-4.579-2.425-10.61-4.317-17.75-5.917C119.97 5.385 100.986 3.5 80 3.5zm0 7.833c19.854 0 37.85 1.87 50.333 4.667 6.242 1.398 11.095 3.045 14 4.583 2.906 1.539 3.584 2.662 3.584 3.417 0 .755-.678 1.878-3.584 3.417-2.905 1.538-7.758 3.185-14 4.583C117.85 34.796 99.854 36.667 80 36.667S42.15 34.796 29.667 32c-6.242-1.398-11.095-3.045-14-4.583-2.906-1.54-3.584-2.662-3.584-3.417 0-.755.678-1.878 3.584-3.417 2.905-1.538 7.758-3.185 14-4.583C42.15 13.204 60.146 11.333 80 11.333zM66.417 14.25l-5 5.667c1.78 1.282 2.979 2.749 3.5 4.416.52 1.668.36 3.814-.5 6.417l8.75 2c.625-1.755.992-3.262 1.083-4.5.091-1.238-.064-2.573-.417-4L99.5 30.083l6.083-6.916zM9.833 34.333c4.319 2.022 9.645 3.679 15.917 5.084C40.03 42.615 59.014 44.5 80 44.5c20.986 0 39.97-1.885 54.25-5.083 6.063-1.359 11.257-2.903 15.5-4.834v14.084c-.008.002-.033.096-.25.333-.434.475-1.434 1.254-3 2.083-3.132 1.66-8.32 3.458-14.833 4.917-13.029 2.918-31.455 4.75-51.834 4.75-20.379 0-38.888-1.832-51.916-4.75-6.515-1.46-11.618-3.258-14.75-4.917-1.566-.83-2.65-1.608-3.084-2.083-.217-.237-.241-.33-.25-.333zM4.083 67.75c-2.446 0-3.88 1.562-4.083 4v21.083c0 2.646 1.272 5.041 2.833 6.75 1.561 1.709 3.444 2.99 5.667 4.167 4.446 2.355 10.214 4.174 17.25 5.75 14.073 3.152 33.107 5.083 54.083 5.083 20.977 0 40.01-1.93 54.084-5.083 7.036-1.576 12.804-3.395 17.25-5.75 2.223-1.177 4.105-2.458 5.666-4.167 1.561-1.709 2.834-4.104 2.834-6.75V71.75c-.204-2.438-1.638-4-4.084-4-3.97.125-4.81 2.313-9 3.75-3.137 1.644-8.316 3.383-14.833 4.833-13.034 2.902-31.538 4.75-51.917 4.75s-38.883-1.848-51.916-4.75C21.4 74.883 16.22 73.144 13.083 71.5c-4.189-1.437-5.03-3.625-9-3.75zm5.75 12.917c4.291 2.081 9.505 3.804 16 5.25C39.901 89.048 58.857 91 79.833 91c20.977 0 39.933-1.952 54-5.083 6.495-1.446 11.71-3.169 16-5.25V92.5c-.008.003-.033.179-.25.417-.434.474-1.517 1.254-3.083 2.083-3.132 1.659-8.236 3.457-14.75 4.917-13.028 2.918-31.538 4.75-51.917 4.75s-38.888-1.832-51.916-4.75c-6.515-1.46-11.618-3.258-14.75-4.917-1.566-.83-2.65-1.609-3.084-2.083-.217-.238-.241-.414-.25-.417zm-5.75 32.583c-2.446 0-3.88 1.562-4.083 4v21c0 2.646 1.272 5.041 2.833 6.75 1.561 1.709 3.444 2.99 5.667 4.167 4.446 2.354 10.214 4.174 17.25 5.75C39.823 158.069 58.857 160 79.833 160c20.977 0 40.01-1.931 54.084-5.083 7.036-1.576 12.804-3.396 17.25-5.75 2.223-1.177 4.105-2.458 5.666-4.167 1.561-1.709 2.834-4.104 2.834-6.75v-21c-.204-2.438-1.638-4-4.084-4-3.97.125-4.81 2.313-9 3.75-3.137 1.644-8.316 3.383-14.833 4.833-13.034 2.902-31.538 4.75-51.917 4.75s-38.883-1.848-51.916-4.75c-6.517-1.45-11.696-3.189-14.834-4.833-4.189-1.437-5.03-3.625-9-3.75zm5.75 12.917c4.291 2.081 9.505 3.804 16 5.25 14.068 3.131 33.024 5.083 54 5.083 20.977 0 39.933-1.952 54-5.083 6.495-1.446 11.71-3.169 16-5.25V138c-.008.003-.033.096-.25.333-.434.475-1.517 1.254-3.083 2.084-3.132 1.658-8.236 3.457-14.75 4.916-13.028 2.918-31.538 4.75-51.917 4.75s-38.888-1.832-51.916-4.75c-6.515-1.459-11.618-3.258-14.75-4.916-1.566-.83-2.65-1.609-3.084-2.084-.217-.237-.241-.33-.25-.333z"/></svg>