<svg xmlns="http://www.w3.org/2000/svg" viewBox="0 0 160 160"><path d="M120 0a5 5 0 0 0-4.744 3.418l-5 15a5 5 0 0 0 1.209 5.117l5 5A5 5 0 0 0 120 30v35a5 5 0 0 0-5 5v10c-4.226 0-7.665 2.06-10.303 4.697C102.06 87.335 100 90.774 100 95v50c0 4.226 2.06 7.665 4.697 10.303C107.335 157.94 110.774 160 115 160h20c4.226 0 7.665-2.06 10.303-4.697C147.94 152.665 150 149.226 150 145V95c0-4.226-2.06-7.665-4.697-10.303C142.665 82.06 139.226 80 135 80V70a5 5 0 0 0-5-5V30a5 5 0 0 0 3.535-1.465l5-5a5 5 0 0 0 1.21-5.117l-5-15A5 5 0 0 0 130 0zM34.852.002A5 5 0 0 0 32 1S10 16.667 10 40c0 18.8 14.258 29.317 20 32.836V145c0 4.226 2.06 7.665 4.697 10.303C37.335 157.94 40.774 160 45 160h10c4.226 0 7.665-2.06 10.303-4.697C67.94 152.665 70 149.226 70 145V72.836C75.742 69.316 90 58.8 90 40 90 16.667 68 1 68 1a5 5 0 0 0-8 4v25H40V5A5 5 0 0 0 34.852.002zM123.605 10h2.791l2.883 8.65-1.35 1.35h-5.859l-1.35-1.35zM30 17.158V35a5 5 0 0 0 5 5h30a5 5 0 0 0 5-5V17.158C74.832 22.908 80 30.993 80 40c0 16.667-17.236 25.527-17.236 25.527A5 5 0 0 0 60 70v75c0 .488-.584 2.049-1.768 3.232C57.05 149.416 55.488 150 55 150H45c-.488 0-2.049-.584-3.232-1.768C40.584 147.05 40 145.488 40 145V70a5 5 0 0 0-2.764-4.473S20 56.667 20 40c0-9.007 5.168-17.092 10-22.842zM115 90h20c.488 0 2.049.584 3.232 1.768C139.416 92.95 140 94.512 140 95v50c0 .488-.584 2.049-1.768 3.232C137.05 149.416 135.488 150 135 150h-20c-.488 0-2.049-.584-3.232-1.768C110.584 147.05 110 145.488 110 145V95c0-.488.584-2.049 1.768-3.232C112.95 90.584 114.512 90 115 90z"/></svg>