<svg xmlns="http://www.w3.org/2000/svg" viewBox="0 0 160 160"><path d="M141.397 79.532l-1.853 2.165c-5.58 5.662-12.878 8.375-20.554 8.375-3.796 0-8.911-.714-12.366-2.153-3.122-1.296-6.022-3.167-8.617-5.53l-64.03 64.568a9.801 9.801 0 0 1-7.034 2.957 9.817 9.817 0 0 1-7.039-2.957l-7.033-7.13c-3.882-3.937-3.882-10.339-.003-14.275l62.565-63.826c-2.098-3.055-3.527-6.385-4.379-9.831h-.002c-2.408-9.739-1.004-23.199 6.559-30.917l2.153-2.173c6.486-6.581 23.331-8.527 32.657-9.101l-18.32 21.158a4.845 4.845 0 0 0 .19 6.536l28.963 29.713a4.681 4.681 0 0 0 6.486.237l20.39-18.363c-.608 9.89-2.529 24.255-8.733 30.547zm15.72-45.75a4.707 4.707 0 0 0-5.082.756l-25.182 22.62-22.734-23.324 22.51-25.996a4.748 4.748 0 0 0 .759-5.076C126.626 1.05 124.942 0 123.092 0h-1.357c-13.912 0-37.93 1.196-48.652 12.074l-2.163 2.148c-11.44 11.672-13.47 30.811-7.444 45.36L5.83 118.419c-7.773 7.88-7.773 20.656 0 28.539l7.036 7.133a19.713 19.713 0 0 0 28.149 0L99.51 95.125c5.532 2.99 13.113 4.943 19.48 4.943 10.205 0 19.878-4.116 27.244-11.592l2.133-2.16c11.647-11.81 11.467-37.044 11.52-48.146a4.82 4.82 0 0 0-2.77-4.389z"/></svg>