<svg viewBox="0 0 160 160">
	<path d="M123.1 0C124.95 2.30933e-05 126.635 1.04988 127.397 2.76172C127.77 3.59152 127.896 4.5113 127.762 5.41113C127.627 6.31097 127.237 7.1535 126.638 7.83789L104.126 33.834L126.861 57.1582L152.046 34.5381C152.729 33.9333 153.573 33.5395 154.475 33.4053C155.377 33.2712 156.299 33.4023 157.128 33.7822C157.96 34.1733 158.663 34.7937 159.154 35.5713C159.645 36.3489 159.903 37.2504 159.898 38.1699C159.864 45.244 160.761 48.8303 157.796 60.251H148.711C149.8 53.84 149.765 55.0939 150.14 48.9854L137.63 60.251H116.575L94.2975 37.3984C93.4554 36.5295 92.9684 35.3765 92.9332 34.167C92.898 32.9575 93.3169 31.7787 94.1071 30.8623L112.429 9.7041C103.102 10.2781 86.2557 12.2238 79.7691 18.8047L77.6157 20.9775C70.0522 28.6954 68.6486 42.1556 71.0566 51.8945H71.0585C71.9106 55.3404 73.3398 58.6707 75.4378 61.7256L12.8688 125.552C8.98949 129.488 8.98942 135.89 12.8717 139.827L19.9044 146.957C20.8208 147.895 21.9164 148.64 23.1254 149.147C24.3343 149.655 25.6327 149.916 26.944 149.914C28.2547 149.917 29.5534 149.656 30.7617 149.148C31.9698 148.641 33.0635 147.895 33.9787 146.957L59.4972 120.452V133.629L41.0173 154.091C39.182 155.962 36.9921 157.449 34.5754 158.464C32.1586 159.479 29.5633 160.001 26.9421 160.001C24.3208 160.001 21.7255 159.479 19.3087 158.464C16.8919 157.449 14.7021 155.962 12.8668 154.091L5.83017 146.958C-1.94339 139.075 -1.94339 126.299 5.83017 118.419L63.4799 59.582C57.4534 45.033 59.4839 25.8937 70.9248 14.2217L73.088 12.0742C83.8107 1.19633 107.83 2.05515e-05 121.743 0H123.1ZM117.434 69.999C120.371 69.999 122.868 71.3968 124.524 73.0947C126.163 74.7737 127.197 76.7587 127.615 78.999L128.412 82.6006L131.522 80.6211C133.402 79.3357 135.538 78.6595 137.883 78.6328C140.255 78.6049 143.011 79.383 145.086 81.4629L148.62 84.9932L148.622 84.9971C150.713 87.091 151.442 90.0188 151.292 92.3447C151.141 94.6677 150.356 96.603 149.325 98.251L149.323 98.2549L147.368 101.515L151.108 102.449L151.017 102.429C152.914 102.864 154.84 103.675 156.591 105.214C158.343 106.752 159.898 109.342 159.898 112.302V117.302C159.898 120.238 158.5 122.734 156.802 124.392C155.127 126.026 153.145 127.059 150.91 127.479L147.258 128.29L149.322 131.734C150.355 133.383 151.141 135.318 151.292 137.644C151.442 139.969 150.714 142.897 148.622 144.991L148.62 144.993L145.085 148.526L145.081 148.528C143.005 150.603 140.251 151.379 137.881 151.354C135.566 151.324 133.454 150.665 131.592 149.411L128.384 147.366L127.567 151.046C127.143 153.267 126.113 155.238 124.485 156.905C122.829 158.602 120.332 160.001 117.395 160.001H112.395C109.433 160.001 106.847 158.445 105.308 156.698C103.769 154.947 102.956 153.021 102.521 151.122L102.542 151.218L101.538 147.204L101.417 147.151L97.8867 149.398C96.0201 150.663 93.9035 151.327 91.5796 151.354C89.2096 151.382 86.4558 150.605 84.3789 148.528L80.8415 144.993V144.991C78.7493 142.898 78.0194 139.968 78.1704 137.641C78.3205 135.315 79.1073 133.381 80.1403 131.731L82.242 128.229L78.8843 127.481C76.6486 127.062 74.6635 126.028 72.9874 124.394C71.2895 122.738 69.8915 120.24 69.8915 117.304V112.304C69.8916 109.343 71.4463 106.755 73.1984 105.216C74.9494 103.677 76.8748 102.864 78.7749 102.429L82.1385 101.589L80.1403 98.2568C79.1072 96.6069 78.3194 94.6716 78.1694 92.3467C78.0195 90.0207 78.7484 87.0929 80.8415 84.999L84.3769 81.4639C86.4539 79.3852 89.2096 78.6108 91.5796 78.6377C93.917 78.6663 96.0454 79.3346 97.9179 80.6094L101.431 82.8486C101.479 82.8232 101.527 82.804 101.574 82.7852L101.583 82.7822L102.579 78.7979C103.019 76.9281 103.83 75.0327 105.345 73.3076C106.884 71.5557 109.474 70.001 112.435 70.001V69.999H117.434ZM112.816 79.9971C112.563 80.3642 112.382 80.7766 112.283 81.2119L110.684 87.6104C110.476 88.4391 110.06 89.201 109.474 89.8232C108.889 90.4455 108.154 90.9076 107.34 91.165C105.934 91.613 104.571 92.1862 103.268 92.8779C102.487 93.2895 101.611 93.4875 100.73 93.4512C99.848 93.4148 98.9911 93.1453 98.247 92.6709L92.4654 88.9854C92.4114 88.9524 92.3582 88.9178 92.3052 88.8818C92.2082 88.8139 91.7196 88.635 91.4575 88.6318C91.3786 88.631 91.3676 88.6288 91.3589 88.627L91.354 88.626L88.1858 91.7939C88.2661 92.2314 88.4294 92.6499 88.6663 93.0264L92.3228 99.1211C92.7536 99.8394 92.9971 100.654 93.0309 101.491C93.0646 102.328 92.8878 103.16 92.5162 103.911C91.9682 105.019 91.503 106.117 91.143 107.224C90.8808 108.029 90.4184 108.755 89.7992 109.332C89.1798 109.91 88.4234 110.321 87.6017 110.526L81.1052 112.149C81.0813 112.157 81.0568 112.162 81.0329 112.168C81.0251 112.17 81.0173 112.172 81.0095 112.174C80.61 112.276 80.2314 112.449 79.8922 112.684V117.164L79.8951 117.166C79.9033 117.171 79.9115 117.176 79.9703 117.234C80.1583 117.416 80.6274 117.634 80.7399 117.654C80.8059 117.666 80.8718 117.68 80.9372 117.694L87.3517 119.119C88.209 119.309 89.0015 119.721 89.6488 120.314C90.2961 120.908 90.7758 121.662 91.0395 122.499C91.4115 123.682 91.9103 124.871 92.5093 126.075C92.8822 126.826 93.0601 127.659 93.0269 128.497C92.9937 129.335 92.7501 130.151 92.3189 130.87L88.6663 136.958C88.4285 137.335 88.2645 137.754 88.1838 138.192L91.3501 141.356C91.3856 141.352 91.4218 141.351 91.4575 141.354C91.7196 141.349 92.2053 141.171 92.2994 141.105C92.354 141.068 92.4093 141.031 92.4654 140.995L98.2324 137.321C98.9767 136.847 99.8333 136.578 100.715 136.542C101.597 136.506 102.473 136.704 103.253 137.116C104.552 137.804 105.909 138.376 107.308 138.824C108.12 139.083 108.852 139.545 109.435 140.166C110.019 140.787 110.434 141.547 110.641 142.374L112.246 148.79C112.344 149.224 112.524 149.636 112.776 150.003H117.257L117.258 150.001C117.263 149.993 117.266 149.987 117.327 149.925C117.508 149.737 117.728 149.268 117.748 149.155C117.759 149.09 117.773 149.025 117.787 148.96L119.227 142.466C119.416 141.615 119.824 140.829 120.411 140.185C120.997 139.54 121.742 139.06 122.571 138.792C123.883 138.365 125.157 137.831 126.38 137.193C127.158 136.79 128.028 136.597 128.904 136.636C129.779 136.674 130.629 136.942 131.369 137.413L136.996 140.999C137.03 141.02 137.065 141.042 137.098 141.064C137.119 141.078 137.14 141.092 137.16 141.106C137.256 141.174 137.742 141.351 138.004 141.354C138.04 141.352 138.076 141.354 138.111 141.358L141.277 138.194C141.241 137.95 141.09 137.43 140.847 137.04L140.797 136.962L137.326 131.177C136.889 130.45 136.645 129.623 136.616 128.775C136.587 127.928 136.773 127.087 137.158 126.331C137.805 125.06 138.345 123.789 138.745 122.509C139.008 121.669 139.488 120.914 140.136 120.319C140.784 119.724 141.577 119.31 142.436 119.12L148.852 117.696C148.917 117.682 148.983 117.667 149.048 117.655C149.162 117.635 149.631 117.418 149.819 117.235C149.876 117.18 149.886 117.173 149.893 117.168L149.897 117.165V112.688C149.698 112.542 149.226 112.28 148.778 112.177C148.766 112.173 148.755 112.17 148.743 112.167C148.724 112.162 148.705 112.158 148.686 112.151L142.19 110.53C141.369 110.325 140.614 109.915 139.994 109.339C139.375 108.763 138.912 108.039 138.648 107.235C138.243 106.007 137.744 104.812 137.154 103.661C136.77 102.906 136.584 102.066 136.613 101.22C136.643 100.373 136.887 99.5477 137.322 98.8213L140.797 93.0303C141.033 92.6538 141.196 92.2352 141.276 91.7979L138.107 88.6299C138.105 88.6302 138.102 88.6309 138.102 88.6309C138.092 88.6327 138.08 88.6349 138.004 88.6357C137.743 88.6387 137.256 88.8168 137.16 88.8838C137.108 88.9204 137.053 88.9556 136.999 88.9902L136.997 88.9912L131.357 92.585C130.618 93.0559 129.768 93.3241 128.893 93.3633C128.017 93.4024 127.146 93.2108 126.368 92.8076C125.152 92.1777 123.902 91.6484 122.612 91.2314C121.783 90.9635 121.038 90.4825 120.452 89.8379C119.865 89.1933 119.457 88.4065 119.268 87.5557L117.827 81.0439C117.812 80.98 117.799 80.9145 117.788 80.8506C117.766 80.7357 117.548 80.2668 117.365 80.0791C117.308 80.0203 117.303 80.012 117.297 80.0039L117.295 80.001H112.816V79.9971ZM114.895 105.001C120.418 105.001 124.895 109.478 124.895 115.001C124.895 120.524 120.418 125.001 114.895 125.001C109.371 125.001 104.894 120.524 104.894 115.001C104.894 109.478 109.371 105.001 114.895 105.001Z"/>
</svg>