<svg xmlns="http://www.w3.org/2000/svg" viewBox="0 0 160 160"><path d="M105 92.917c-14.639 0-24.622 2.754-32.333 5.083-6.417 1.938-10.144 3.39-14.667 5.917-4.339 2.424-8 5.68-8 9.5v24.916c0 2.646 1.272 5.042 2.833 6.75 1.561 1.71 3.444 2.99 5.667 4.167 4.446 2.354 7.416 3.216 14.167 5.75 7.121 2.673 18.016 5 32.333 5s25.128-2.327 32.25-5c6.751-2.534 9.804-3.396 14.25-5.75 2.223-1.177 4.106-2.458 5.667-4.167 1.56-1.708 2.833-4.104 2.833-6.75v-24.916c0-3.82-3.661-7.076-8-9.5-4.523-2.528-8.334-3.98-14.75-5.917-7.711-2.329-17.611-5.083-32.25-5.083zm0 7.833c12.549 0 20.405 2.35 28.333 4.667 6.14 1.794 8.095 3.045 11 4.583 2.906 1.539 3.584 2.661 3.584 3.417 0 .755-.678 1.878-3.584 3.416-2.905 1.539-6.089 2.738-11 4.584-6.39 2.401-14.586 4.666-28.333 4.666-13.747 0-22.027-2.265-28.417-4.666-4.91-1.846-8.011-3.045-10.916-4.584-2.906-1.538-3.584-2.661-3.584-3.416 0-.756.678-1.878 3.584-3.417 2.905-1.538 4.777-2.79 10.916-4.583 7.929-2.317 15.868-4.667 28.417-4.667zm-11.5 3.833l-4.917 5.667c1.78 1.283 2.896 2.75 3.417 4.417.521 1.667.36 3.813-.5 6.416l8.75 2c.626-1.754.992-3.262 1.083-4.5.092-1.238.02-2.573-.333-4L118.917 119l6.083-7zM59.833 123.75c4.319 2.022 6.78 2.922 12.834 5.083 8.288 2.96 18.174 5.084 32.333 5.084 14.16 0 23.962-2.125 32.25-5.084 6.053-2.16 8.598-3.061 12.917-5.083v14.333c-.008.003-.033.096-.25.334-.434.475-1.518 1.254-3.084 2.083-3.132 1.659-5.398 2.861-11.75 4.917-6.796 2.199-15.884 4.75-30.083 4.75-14.199 0-23.37-2.551-30.167-4.75-6.351-2.056-8.534-3.258-11.666-4.917-1.566-.83-2.65-1.608-3.084-2.083-.217-.238-.241-.331-.25-.334zM39.79 150H20.167v-20.167H26a4.903 4.903 0 0 0 4.917-4.916A4.903 4.903 0 0 0 26 120h-5.833V99.917H26A4.903 4.903 0 0 0 30.917 95c0-2.704-2.168-4.83-4.917-4.833h-5.833v-20.25h5.916c2.75 0 5-2.213 5-4.917 0-2.704-2.25-4.917-5-4.917h-5.916V40h5.416c2.75 0 5-2.213 5-4.917 0-2.704-2.248-4.916-5-4.916h-5.416V10.333c0-.118-.016-.243 0-.333.08-.006.215 0 .333 0h79.333v70H110V10h14.75c2.806 0 5.083 2.238 5.083 5v65H140V15c.003-8.285-6.824-15-15.25-15H20.5C13.191 0 10 5.332 10 10.333v19.834H4.917A4.903 4.903 0 0 0 0 35.083 4.899 4.899 0 0 0 4.917 40H10v20.083H5.417A4.903 4.903 0 0 0 .5 65a4.9 4.9 0 0 0 4.917 4.917H10v20.25H5.333c-2.748 0-5 2.129-5 4.833 0 2.707 2.248 4.917 5 4.917H10V120H5.333c-2.748 0-5 2.213-5 4.917 0 2.704 2.248 4.916 5 4.916H10V150c0 8.285 6.596 10 10.25 10h19.54z"/></svg>