<svg xmlns="http://www.w3.org/2000/svg" viewBox="0 0 160 160"><path d="M21 0c-7.309 0-11 5.332-11 10.333v19.834H4.917A4.903 4.903 0 0 0 0 35.083 4.899 4.899 0 0 0 4.917 40H10v20.083H5.417A4.903 4.903 0 0 0 .5 65a4.9 4.9 0 0 0 4.917 4.917H10v20.25H5.333c-2.748 0-5 2.129-5 4.833 0 2.707 2.248 4.917 5 4.917H10V120H5.333c-2.748 0-5 2.213-5 4.917 0 2.704 2.248 4.916 5 4.916H10V150c0 8.285 7.096 10 10.75 10h103.917c8.425 0 15.333-6.712 15.333-15V15c.003-8.285-6.824-15-15.25-15zm-1 10c.08-.006.215 0 .333 0H100v140H20v-20.167h6a4.903 4.903 0 0 0 4.917-4.916A4.903 4.903 0 0 0 26 120h-6V99.917h6A4.903 4.903 0 0 0 30.917 95c0-2.704-2.168-4.83-4.917-4.833h-6v-20.25h6.083c2.75 0 5-2.213 5-4.917 0-2.704-2.25-4.917-5-4.917H20V40h5.583c2.75 0 5-2.213 5-4.917 0-2.704-2.248-4.916-5-4.916H20V10.333c0-.118-.016-.243 0-.333zm90 0h14.75c2.806 0 5.25 2.238 5.25 5v130c0 2.758-2.444 5-5.25 5H110z"/></svg>