<svg xmlns="http://www.w3.org/2000/svg" viewBox="0 0 160 160"><path d="M124.842 150.013H9.987V25.17h70.161l10.098-9.728-.26-.26H9.987C4.472 15.183 0 19.655 0 25.171v124.842C0 155.528 4.472 160 9.987 160h114.855c5.515 0 9.987-4.472 9.987-9.987V76.878l-9.987 9.533v63.602zm27.29-143.389c-4.507-4.32-9.48-6.509-14.786-6.509-8.304 0-14.362 5.363-16.01 7.006C119 9.428 52.803 75.527 52.803 75.527a4.315 4.315 0 0 0-1.094 1.895c-1.792 6.624-10.778 36.047-10.868 36.34a4.228 4.228 0 0 0 1.06 4.246 4.158 4.158 0 0 0 2.952 1.224c.43 0 .862-.063 1.286-.195.305-.102 30.664-9.92 35.66-11.41a4.223 4.223 0 0 0 1.75-1.034c3.154-3.111 64-63.013 68.923-68.1 5.09-5.252 7.623-10.713 7.525-16.243-.092-5.464-2.749-10.722-7.865-15.626zm-6.834 24.919c-2.779 2.866-24.538 24.369-64.675 63.909l-3.071 3.028c-4.602 1.424-15.62 4.964-23.95 7.65 2.682-8.856 5.9-19.554 7.336-24.616 8.576-8.564 65.29-65.19 67.444-67.317.42-.42 4.247-4.097 8.964-4.097 2.677 0 5.256 1.22 7.875 3.733 3.131 3.003 4.744 5.89 4.789 8.586.05 2.777-1.536 5.845-4.712 9.124z"/></svg>