<svg xmlns="http://www.w3.org/2000/svg" viewBox="0 0 160 160"><path d="M60 150H10v-50h50v50zm0-60H10c-5.522 0-10 4.477-10 10v50c0 5.523 4.478 10 10 10h50c5.522 0 10-4.477 10-10v-50c0-5.523-4.478-10-10-10zm0-30H10V10h50v50zm0-60H10C4.478 0 0 4.477 0 10v50c0 5.523 4.478 10 10 10h50c5.522 0 10-4.477 10-10V10c0-5.523-4.478-10-10-10zm90 150h-50v-50h50v50zm0-60h-50c-5.523 0-10 4.477-10 10v50c0 5.523 4.477 10 10 10h50c5.522 0 10-4.477 10-10v-50c0-5.523-4.478-10-10-10zm0-30h-50V10h50v50zm0-60h-50c-5.523 0-10 4.477-10 10v50c0 5.523 4.477 10 10 10h50c5.522 0 10-4.477 10-10V10c0-5.523-4.477-10-10-10z"/></svg>