<svg xmlns="http://www.w3.org/2000/svg" viewBox="0 0 160 160"><path d="M72.488 160C32.518 160 0 127.48 0 87.51c0-37.57 28.953-68.991 66.183-72.204L51.83 8.031c-1.772-.972-2.827-3.16-1.777-4.887l.507-1.313C51.615.104 53.9-.509 55.668.46l23.955 12.265c.03.02.063.015.093.035l1.607.88a3.493 3.493 0 0 1 1.71 2.172 3.455 3.455 0 0 1-.395 2.735l-.952 1.563c-.015.03-.045.05-.063.077l-14.795 23.12c-1.05 1.728-3.33 2.34-5.107 1.373l-1.163-.81c-1.773-.967-1.89-3.467-.84-5.19l8.73-13.543c-.047.003-.09.02-.135.023C35.613 27.304 10 54.697 10 87.509 10 121.967 38.033 150 72.488 150c34.46 0 62.65-28.032 62.65-62.49 0-19.84-9.112-38.062-25-49.995a5.004 5.004 0 0 1-.995-7.003 5 5 0 0 1 7.003-.995c18.428 13.843 28.995 34.98 28.995 57.993C145.14 127.48 112.461 160 72.488 160z"/></svg>