<svg xmlns="http://www.w3.org/2000/svg" viewBox="0 0 160 160"><path d="M159.4 131.324L130.19 77.31a54.679 54.679 0 0 0 4.647-22.101c0-30.306-24.569-54.872-54.872-54.872-30.311 0-54.878 24.568-54.878 54.872 0 8.053 1.75 15.695 4.864 22.582L.614 131.3a4.997 4.997 0 0 0 .395 5.41 4.983 4.983 0 0 0 5.098 1.852l25.053-5.748 8.575 23.883a4.99 4.99 0 0 0 9.094.671L74.36 109.8a54.608 54.608 0 0 0 10.74.032l26.087 47.574a4.989 4.989 0 0 0 4.766 2.578 5.002 5.002 0 0 0 4.31-3.29l8.575-23.882 25.053 5.747c1.921.464 3.903-.282 5.088-1.842a4.983 4.983 0 0 0 .42-5.392zM45.34 142.768l-6.279-17.494c-.858-2.378-3.349-3.763-5.815-3.177l-18.53 4.25 21.12-38.521c6.956 9.396 16.838 16.483 28.3 19.932l-18.796 35.01zM35.116 55.21c0-24.728 20.121-44.848 44.852-44.848 24.729 0 44.848 20.12 44.848 44.848 0 24.729-20.12 44.853-44.848 44.853-24.733 0-44.852-20.124-44.852-44.853zm91.636 66.888c-2.475-.583-4.956.799-5.814 3.177l-6.321 17.621-19.209-35.025c11.767-3.446 21.889-10.72 28.934-20.39l21.032 38.887-18.622-4.27z"/></svg>