<svg xmlns="http://www.w3.org/2000/svg" viewBox="0 0 160 160"><path d="M140.13 14.91a5 5 0 0 0-4.148 2.13l-61.58 85.245-24.847-25.187a5 5 0 1 0-7.12 7.023l28.999 29.397a5 5 0 0 0 7.61-.584l65.046-90.038a5 5 0 0 0-3.96-7.986zM82.384.035C55.607-.75 29.429 11.983 13.744 35.15c-20.913 30.89-17.68 72.21 7.785 99.47 25.465 27.258 66.472 33.294 98.711 14.528 32.24-18.765 47.242-57.402 36.115-93.007a5 5 0 1 0-9.544 2.982c9.75 31.204-3.348 64.937-31.602 81.383-28.254 16.446-64.054 11.177-86.371-12.713-22.318-23.89-25.141-59.964-6.813-87.035 18.329-27.071 52.873-37.846 83.342-25.996a5.001 5.001 0 1 0 3.625-9.323A79.78 79.78 0 0 0 82.382.035z"/></svg>