<svg xmlns="http://www.w3.org/2000/svg" viewBox="0 0 160 160">
	<path
		d="m 137.50026,80 c 6.34607,0 12.14121,2.124722 16.219,6.057768 4.07781,3.933046 6.28074,9.522453 6.28074,15.643252 0,7.79012 -5.78304,12.6616 -10.00454,17.14043 -4.22151,4.47882 -10.26137,11.48859 -10.26137,16.0792 0.041,2.79354 -2.2956,5.07935 -5.19225,5.07935 -2.89665,0 -5.23326,-2.28581 -5.19224,-5.07935 0,-8.76388 8.53072,-18.11406 12.96295,-22.81643 C 146.74478,107.40183 150,103.92675 150,101.701 c 0,-3.895049 -1.64307,-6.652165 -3.62289,-8.561706 -1.97981,-1.90954 -4.83843,-3.123439 -8.87685,-3.123439 -4.0384,0 -6.89703,1.213899 -8.87684,3.123439 -1.97983,1.909541 -3.2384,4.666677 -3.2384,8.561726 0.041,2.79355 -2.2956,5.07936 -5.19225,5.07936 -2.89665,0 -5.23327,-2.28581 -5.19224,-5.07936 0,-6.120799 2.20291,-11.710206 6.28072,-15.643252 C 125.35905,82.124722 131.15418,80 137.50026,80 Z M 135,150 a 5,5 0 0 1 5,5 5,5 0 0 1 -5,5 5,5 0 0 1 -5,-5 5,5 0 0 1 5,-5 z m 5.13086,-135.089844 c -1.64928,-0.01791 -3.20132,0.778568 -4.14844,2.128906 L 74.402344,102.28516 49.554688,77.097656 c -4.680862,-4.883565 -11.938911,2.276913 -7.119141,7.023438 l 28.998047,29.396486 c 2.172176,2.19995 5.80019,1.92159 7.611328,-0.58399 L 144.08984,22.896484 c 2.44098,-3.279583 0.12908,-7.94332 -3.95898,-7.986328 z"
	/>
</svg>
