<svg xmlns="http://www.w3.org/2000/svg" viewBox="0 0 160 160"><path d="m 0,154.27718 c -0.00404127,3.15591 2.1886746,5.7181 4.89757,5.72281 2.708894,0.005 4.9081639,-2.54984 4.91221,-5.70575 L 9.99999,5.7228144 C 10.00403,2.5669051 7.8113147,0.00471803 5.10242,6.3585376e-6 2.393522,-0.00470166 0.19425044,2.5498553 0.19021,5.7057684 Z M 39.707031,0 c -1.651415,0.00532799 -3.274504,0.46423017 -4.71289,1.328125 v -0.00195 C 31.899622,3.1788477 29.998958,6.6787257 30,10.464844 l 0.142578,139.070316 c -2.6e-5,3.78632 1.901316,7.28607 4.996094,9.13867 1.473266,0.88355 3.106155,1.32617 4.74414,1.32617 1.818883,-4.9e-4 3.601735,-0.54921 5.142579,-1.57812 l 0.002,-0.002 110.374996,-69.535154 0.006,-0.0039 c 6.12369,-4.09296 6.12369,-13.660945 0,-17.753906 l -0.006,-0.0039 L 44.894531,1.5898438 C 43.352293,0.55171113 41.564762,-0.00126074 39.740234,0 c -0.01119,-2.077076e-5 -0.02201,-2.077076e-5 -0.0332,0 z M 40.240234,11.373047 149.31641,80.003906 40.382812,148.62891 Z" /></svg>