<svg xmlns="http://www.w3.org/2000/svg" width="160" height="160"><path d="M35 120a5 5 0 0 0 0 10h50a5 5 0 0 0 0-10zm0-30a5 5 0 1 0 0 10h50a5 5 0 1 0 0-10zm0-30a5 5 0 1 0 0 10h50a5 5 0 1 0 0-10zm0-30a5 5 0 1 0 0 10h80a5 5 0 0 0 0-10zm110.282-19.105c2.43 0 4.482 2.08 4.482 4.545v27.224c0 2.603-1.604 4.546-3.039 4.546-13.522 0-35.642 11.816-35.642 26.338v70.993c0 2.465-2.052 4.546-4.482 4.546H15.229c-2.43 0-4.482-2.081-4.482-4.546V15.443c0-2.465 2.052-4.546 4.482-4.546l130.053-.002m0-10.894H15.226C6.85 0 0 6.95 0 15.443v129.098c0 8.493 6.85 15.44 15.226 15.44h91.372c8.374 0 15.225-6.95 15.225-15.44V73.548c0-8.493 17.322-15.444 24.9-15.444 7.58 0 13.781-6.947 13.781-15.44V15.44C160.507 6.95 153.656 0 145.282 0zm-.682 160c-2.964 0-5.372-2.44-5.372-5.45v-28.87c0-3.005 2.408-5.448 5.372-5.448 2.965 0 5.372 2.44 5.372 5.45v28.87c0 3.008-2.404 5.447-5.372 5.447zm0-50.24c-2.964 0-5.372-2.44-5.372-5.445V75.45c0-3.006 2.408-5.448 5.372-5.448 2.965 0 5.372 2.44 5.372 5.448v28.868c0 3.006-2.404 5.445-5.372 5.445z"/></svg>