<svg xmlns="http://www.w3.org/2000/svg" viewBox="0 0 160 160"><path d="M105.079 90.006a5.02 5.02 0 0 0-2.125.438l-45 20c-1.748.784-2.954 2.647-2.954 4.562 0 1.916 1.206 3.779 2.954 4.563l22.031 9.781v15.656c-.001 1.841 1.106 3.64 2.75 4.469l20 10c1.39.7 3.11.7 4.5 0l20-10c1.644-.829 2.751-2.628 2.75-4.469V129.35l15-6.656v13.656a9.967 9.967 0 0 0-5 8.656c0 5.523 4.477 10 10 10s10-4.477 10-10a9.967 9.967 0 0 0-5-8.656v-21.094a5.052 5.052 0 0 0-.031-.75 4.668 4.668 0 0 0-.031-.25 4.668 4.668 0 0 0-.031-.25 5.017 5.017 0 0 0-.063-.219 5.009 5.009 0 0 0-.344-.937 4.997 4.997 0 0 0-.218-.438 5.007 5.007 0 0 0-.282-.437 5.047 5.047 0 0 0-2.781-1.875l-44.188-19.656a5.017 5.017 0 0 0-1.937-.438zm-.094 10.469l32.688 14.531-32.688 14.531-32.687-14.53zm-15 33.344l12.969 5.75a5.068 5.068 0 0 0 4.062 0l12.97-5.75v8.093l-15 7.5-15-7.5zm11.953-64.478c2.254-6.934 3.048-13.986 3.048-19.053V29.195C104.986 15.228 83.647 0 65.006 0 46.373 0 24.985 15.23 24.985 29.195v21.093c0 9.214 3.257 27.855 15.066 37.323L8.43 105.113S0 108.869 0 113.553v38.007c0 4.658 3.782 8.44 8.43 8.44H55v-10l-45.01.009v-34.281c.718-.522 1.72-1.127 2.508-1.489.235-.107.47-.22.692-.347l31.623-17.499A9.986 9.986 0 0 0 46.3 79.816C37.924 73.1 34.978 58.223 34.978 50.288V29.195c0-7.176 15.864-19.204 30.031-19.204 14.43 0 29.989 11.859 29.989 19.204v21.093c0 3.913-.608 9.605-2.293 15.166z"/></svg>