<svg xmlns="http://www.w3.org/2000/svg" viewBox="0 0 160 160"><path d="M9.99 150.015v-10.138c0-3.971 2.983-5.218 4.171-5.767l43.87-20.703a9.984 9.984 0 0 0 5.738-7.855 9.98 9.98 0 0 0-3.662-9.008c-10.377-8.332-15.213-26.647-15.213-36.4V35.18c0-10.437 18.17-24.953 34.987-24.953 16.963 0 34.956 14.288 34.956 24.953v24.964c0 9.608-3.996 27.99-14.713 36.43a9.989 9.989 0 0 0 2.01 16.926l25.326 12.058 5.954-8.44-27.109-12.697c13.84-10.892 18.522-32.289 18.522-44.28V35.178c0-16.535-22.888-34.944-44.946-34.944-22.06 0-44.977 18.41-44.977 34.944V60.14c0 10.907 4.978 32.976 18.95 44.19L9.982 125.04S0 129.487 0 135.024v14.99C0 155.533 4.47 160 9.983 160h99.859l-8.117-9.988-91.735.002zm148.093-36.88a4.992 4.992 0 0 0-7.01.854l-21.363 32.579-13.277-13.28a4.997 4.997 0 0 0-7.066 0 4.994 4.994 0 0 0 0 7.063l17.66 17.66a4.994 4.994 0 0 0 8.138-1.605l23.775-36.263a4.992 4.992 0 0 0-.857-7.008z"/></svg>