<svg xmlns="http://www.w3.org/2000/svg" viewBox="0 0 160 160"><path d="M124.82 60.09V35.127c0-16.534-22.885-34.943-44.94-34.943-22.06 0-44.977 18.41-44.977 34.943V60.09c0 10.907 4.978 32.973 18.95 44.187L9.982 124.98S0 129.43 0 134.966v14.99c0 5.518 4.47 9.986 9.983 9.986h94.897v-9.99l-94.89.005v-10.138c0-3.97 2.982-5.217 4.171-5.767l43.87-20.702a9.987 9.987 0 0 0 5.736-7.857 9.975 9.975 0 0 0-3.66-9.006c-10.378-8.332-15.214-26.644-15.214-36.402V35.122c0-10.437 18.17-24.953 34.986-24.953 16.966 0 34.95 14.289 34.95 24.953v24.963c0 9.608-3.995 27.993-14.707 36.427a9.958 9.958 0 0 0-3.741 9.02 9.968 9.968 0 0 0 5.751 7.903l2.828 1.304 4.38-8.085-3.042-2.297c13.84-10.885 18.522-32.276 18.522-44.267zm19.59 77.26l14.127-14.13a4.994 4.994 0 0 0-7.06-7.063l-14.13 14.132-14.125-14.132a4.994 4.994 0 1 0-7.063 7.063l14.126 14.13-14.126 14.125a4.997 4.997 0 0 0 0 7.066 5.003 5.003 0 0 0 7.063 0l14.126-14.129 14.128 14.129a5 5 0 0 0 7.061 0 4.997 4.997 0 0 0 0-7.066l-14.126-14.126z"/></svg>