<svg xmlns="http://www.w3.org/2000/svg" viewBox="0 0 160 160"><path d="M79.955 80c-5.517 0-9.952 4.475-9.985 10h79.878l.167 49.917c5.516-.034 10.008-4.56 9.985-10.084L159.833 90c-.023-5.524-4.468-10-9.985-10zm-19.97 20C54.469 100 50 104.475 50 110v40c0 5.525 4.469 10 9.985 10h69.894c5.516 0 9.985-4.475 9.985-10v-40c0-5.525-4.47-10-9.985-10zm0 10h69.894v40H59.985zm31.868 5c-1.033 2.265-2.5 4.207-4.327 5.75-1.827 1.543-4.35 2.817-7.655 3.917v8.25c2.241-.706 4.09-1.479 5.575-2.25a29.73 29.73 0 0 0 4.66-3V145h9.818v-30zM62.554 9.962c14.405 0 27.156 12.152 27.156 19.479v21.032c0 6.766 9.972 7.443 9.972 0V29.44C99.682 15.51 81.158 0 62.554 0c-18.6 0-37.613 15.515-37.613 29.44v21.033c0 9.19 3.89 27.775 15.678 37.217L8.415 105.139S0 108.885 0 113.553v12.624c0 4.646 3.775 8.415 8.415 8.415h32.953l-.002-9.96H9.97v-8.906c.715-.52 1.713-1.123 2.502-1.483.233-.109.466-.22.692-.345l32.204-17.449a9.96 9.96 0 0 0 5.182-7.866 9.971 9.971 0 0 0-3.695-8.663c-8.36-6.698-11.944-21.53-11.944-29.444V29.444c.003-7.16 13.505-19.482 27.644-19.482"/></svg>