<svg xmlns="http://www.w3.org/2000/svg" viewBox="0 0 160 160"><path d="M139.794 105.136v34.893h-9.986v-22.864c-1.56 1.186-3.265 2.145-4.723 2.878-1.46.734-3.288 1.436-5.488 2.107v-7.817c3.245-1.045 5.765-2.301 7.559-3.768 1.794-1.466 3.394-3.276 4.408-5.43zm-44.91 10.508l-9.011-1.615c.749-2.87 2.188-5.07 4.318-6.6 2.13-1.529 5.145-2.293 9.045-2.293 4.478 0 7.715.834 9.712 2.504 1.997 1.67 2.996 3.768 2.996 6.295 0 1.482-.406 2.824-1.217 4.025-.811 1.202-2.036 2.255-3.674 3.16 1.326.328 2.34.71 3.042 1.147a7.422 7.422 0 0 1 2.656 2.773c.632 1.147.948 2.516.948 4.107 0 1.997-.523 3.912-1.568 5.746-1.045 1.833-2.55 3.245-4.517 4.235-1.966.991-4.548 1.487-7.746 1.487-3.12 0-5.582-.367-7.384-1.1-1.802-.734-3.284-1.806-4.446-3.218-1.163-1.412-2.056-3.187-2.68-5.324l9.525-1.264c.375 1.919.956 3.249 1.744 3.99.788.741 1.79 1.112 3.007 1.112 1.28 0 2.344-.468 3.194-1.405.85-.936 1.276-2.184 1.276-3.744 0-1.591-.41-2.824-1.229-3.698-.819-.873-1.93-1.31-3.335-1.31-.749 0-1.778.187-3.089.561l.492-6.81c.53.078.944.117 1.24.117 1.248 0 2.29-.398 3.124-1.193.835-.796 1.252-1.74 1.252-2.832 0-1.045-.312-1.88-.936-2.504-.624-.624-1.482-.936-2.574-.936-1.123 0-2.036.339-2.738 1.018-.702.678-1.178 1.868-1.428 3.569zM74.91 9.984c16.955 0 35.72 14.31 34.936 24.941v24.95l9.982-.024.005-24.925C119.833 18.4 96.954 0 74.909 0 52.862 0 29.956 18.4 29.956 34.926v24.95c0 10.902 4.975 32.96 18.94 44.168L9.977 124.738S0 129.184 0 134.718v14.983C0 155.216 4.476 160 9.985 160h49.927v-9.985l-49.927-.311V139.57c0-3.969 2.978-5.214 4.17-5.764l38.914-20.692a9.976 9.976 0 0 0 5.737-7.85 9.975 9.975 0 0 0-3.66-9.005c-10.372-8.327-15.205-26.633-15.205-36.38V34.927c.003-10.43 18.163-24.94 34.969-24.94m75.105 70.132h-10.221v-7.729a4.991 4.991 0 0 0-4.993-4.993c-2.758 0-4.53 2.274-4.993 4.993v7.727l-29.955.317v-7.727a4.991 4.991 0 0 0-4.993-4.992c-2.758 0-4.57 2.266-4.993 4.992v7.727h-9.985c-5.514 0-9.985 4.471-9.985 9.985v59.595c0 5.514 4.47 10.01 9.985 9.985l70.133-.317c5.514-.026 9.985-4.471 9.985-9.986V90.103c0-5.512-4.496-10.503-9.985-9.983zM150 150l-70.118.015V90.42h9.985v3.444a4.991 4.991 0 0 0 4.993 4.993 4.991 4.991 0 0 0 4.993-4.993v-3.441l29.955-.317v3.443a4.991 4.991 0 0 0 4.993 4.993c2.759 0 5.975-2.415 4.993-4.993v-3.443h10.22z"/></svg>