<svg xmlns="http://www.w3.org/2000/svg" viewBox="0 0 160 160"><path d="M144.816 87.315l-17.733 16.8-3.08 3.01c-4.272 2.858-10.707 9.84-19.036 12.481 2.72-8.829 8.769-15.331 12.13-19.807a6720.735 6720.735 0 0 1 20.514-20.19c3.848-3.279 9.573-6.413 12.125-5.016 1.398 2.348.317 6.928-4.92 12.722zM156.67 67.43c-5.823-6.091-17.783-1.314-26.06 5.082-2.345 2.292-21.606 21.271-21.606 21.271-7.017 10.664-11.76 21.563-16.816 33.38a4.221 4.221 0 0 0 1.039 4.246 4.15 4.15 0 0 0 2.94 1.236c12.607-3.854 24.65-11.282 33.783-17.392 3.164-3.09 17.053-15.908 21.993-20.962 7.204-8.703 11.354-20.282 4.727-26.86zm-16.267 82.6H80V74.97h34.503l10.08-9.712-.259-.259H80c-5.507 0-9.971 4.465-9.971 9.971v75.058c0 5.506 4.464 9.971 9.971 9.971h60.404c5.507 0 10.004-4.465 9.972-9.971v-41.924l-9.972 9.518zM115 35.349V50h10l.005-14.625C125.005 18.872 101.742 0 79.728 0 57.711 0 34.837 18.872 34.837 35.375v24.916c0 10.886 4.968 32.913 18.913 44.106L9.964 125.063S0 129.503 0 135.029v14.962c0 5.507 4.463 10.04 9.964 9.966l45.555-.61.141-9.364-45.689.005V139.87c0-3.964 2.974-5.207 4.163-5.756l43.785-20.663a9.962 9.962 0 0 0 5.728-7.84 9.96 9.96 0 0 0-3.654-8.992c-10.358-8.316-15.184-26.596-15.184-36.33V35.373C44.81 24.957 62.947 9.969 79.729 9.97 96.66 9.97 113.81 24.772 115 35.35z"/></svg>