<svg xmlns="http://www.w3.org/2000/svg" viewBox="0 0 160 160"><path d="M 141.57359,105.11236 105.12246,87.691299 c 11.68921,-9.196515 14.86378,-27.269835 14.86378,-37.402984 l 0,-21.093032 C 119.98624,15.228172 98.647318,0 80.007023,0 61.371718,0 39.984608,15.230668 39.984608,29.195283 l 0,21.093032 c 0,9.213997 3.256214,27.854296 15.065315,37.323056 L 18.429721,105.11272 c 0,0 -8.429721,3.75653 -8.429721,8.43972 l 0,38.00785 c 0,4.6582 3.78151,8.43972 8.429721,8.43971 l 123.143869,-3.6e-4 c 4.65321,-1e-5 8.43472,-3.78151 8.43472,-8.43971 l 0,-38.00785 c 0,-4.96543 -8.43472,-8.43972 -8.43472,-8.43972 z m -1.55606,44.8965 -120.02675,3.6e-4 0,-34.2813 c 0.716839,-0.52201 1.718414,-1.12646 2.507686,-1.48862 0.234784,-0.10739 0.469566,-0.21979 0.691861,-0.34718 l 36.6227,-17.498853 c 2.942285,-1.596027 4.892987,-4.555795 5.190211,-7.88772 0.297224,-3.331928 -1.093992,-6.596414 -3.701584,-8.68948 C 52.924385,73.099763 49.977883,58.223493 49.977883,50.288315 l 0,-21.093032 c 0,-7.17588 15.864707,-19.204503 30.031635,-19.204503 14.429184,0 29.988442,11.858781 29.988442,19.204503 l 0,21.093032 c 0,7.82528 -2.43026,22.76649 -11.0498,29.54773 -2.640064,2.078086 -4.058754,5.342574 -3.781512,8.689486 0.28224,3.346909 2.225448,6.326658 5.170232,7.937672 l 36.45113,17.421067 c 0.27725,0.15234 0.62942,0.31721 0.92165,0.44458 0.73682,0.31222 1.64348,0.83423 2.30787,1.29381 z"/></svg>