<svg xmlns="http://www.w3.org/2000/svg" viewBox="0 0 160 160"><path d="M151.558 105.59L119.61 88.173c11.699-9.194 15.347-27.268 15.347-37.399V29.683c0-13.965-19.043-29.68-37.7-29.68-12.124 0-24.521 6.586-31.737 15.02 4.115.254 8.653.26 12.573 1.508 5.267-4.1 11.933-6.538 19.165-6.538 14.444 0 27.699 12.343 27.699 19.69v21.091c0 7.824-2.9 22.765-11.53 29.546a10.002 10.002 0 0 0-3.785 8.688 10.003 10.003 0 0 0 5.177 7.936l31.949 17.42c.278.151.63.318.922.446.736.313 1.644.835 2.31 1.292v8.884h-20.186c3.047 2.297 3.972 5.584 5.152 9.99h16.592c4.66 0 8.442-3.78 8.442-8.438v-12.503c0-4.973-8.442-8.445-8.442-8.445zM62.73 35.02c14.444 0 27.232 12.186 27.232 19.533v21.092c0 7.824-2.432 22.765-11.06 29.545a9.998 9.998 0 0 0-3.785 8.688 10.007 10.007 0 0 0 5.174 7.936l31.479 17.421c.278.15.63.317.921.445.736.314 1.645.835 2.31 1.293v9.04H9.998v-8.931c.717-.522 1.718-1.127 2.509-1.488.233-.11.467-.221.694-.346l32.294-17.498a9.988 9.988 0 0 0 5.197-7.888 10 10 0 0 0-3.705-8.688c-8.384-6.716-11.978-21.59-11.978-29.526V54.557C35.011 47.376 48.55 35.02 62.73 35.02m0-9.99c-18.653 0-37.719 15.558-37.719 29.522v21.092c0 9.216 3.901 27.853 15.722 37.321L8.438 130.464S0 134.221 0 138.902v12.66C0 156.22 3.786 160 8.438 160h108.125c4.66 0 8.442-3.78 8.442-8.438v-12.66c0-4.966-8.442-8.438-8.442-8.438l-31.478-17.42c11.699-9.194 14.877-27.268 14.877-37.4v-21.09c0-13.969-18.576-29.524-37.232-29.524z"/></svg>