<svg xmlns="http://www.w3.org/2000/svg" viewBox="0 0 160 160"><path d="M65 0C46.365 0 25 15.223 25 29.188V50.28c0 9.214 3.253 27.875 15.063 37.344l-31.626 17.5S0 108.879 0 113.563v38C0 156.22 3.79 160 8.438 160h113.124c4.654 0 8.438-3.78 8.438-8.438v-38c0-4.965-8.438-8.437-8.438-8.437L90.126 87.687C101.815 78.492 105 60.415 105 50.282V29.188C105 15.22 83.64 0 65 0zm0 10c14.43 0 30 11.842 30 19.188V50.28c0 7.826-2.443 22.782-11.063 29.563a10.003 10.003 0 0 0-3.78 8.687 10.026 10.026 0 0 0 5.187 7.938l31.437 17.406c.277.152.646.341.938.469.737.312 1.648.821 2.312 1.281V150H110v-25c0-2.618-2.382-5-5-5H65c-2.618 0-5 2.382-5 5v25H10v-34.281a16.09 16.09 0 0 1 2.5-1.469c.235-.107.465-.216.688-.344l31.624-17.5A10.014 10.014 0 0 0 50 88.5a9.994 9.994 0 0 0-3.688-8.688c-8.377-6.716-11.343-21.596-11.343-29.53V29.187C34.969 22.011 50.833 10 65 10zm5 120h30v20H70z"/></svg>