<svg xmlns="http://www.w3.org/2000/svg" viewBox="0 0 160 160"><path d="M105.78 105.885a4.97 4.97 0 0 0-4.983 4.981 4.97 4.97 0 0 0 4.982 4.982h2.833v14.164h-2.833a4.97 4.97 0 0 0-4.982 4.981c0 2.76 2.221 5.08 4.982 5.08h15.531c2.76 0 4.982-2.32 4.982-5.08a4.97 4.97 0 0 0-4.982-4.981h-2.735v-18.853-.098-.195a4.97 4.97 0 0 0-4.982-4.982h-7.814zm6.005-20.239c-4.284 0-7.803 3.443-7.803 7.727 0 4.284 3.519 7.803 7.803 7.803s7.727-3.519 7.727-7.803a7.706 7.706 0 0 0-7.727-7.727zm1.762-17.832c-25.216 0-45.625 20.41-45.625 45.625 0 25.216 20.41 45.782 45.625 45.782s45.625-20.566 45.625-45.782c0-25.215-20.41-45.625-45.625-45.625zm0 9.375c20.116 0 36.406 16.134 36.406 36.25 0 20.117-16.29 36.563-36.406 36.563-20.117 0-36.563-16.446-36.563-36.563 0-20.116 16.446-36.25 36.563-36.25zM80.089 0C58.004 0 35.06 18.415 35.06 34.97v25.005c0 10.92 4.962 33.021 18.95 44.25l-43.956 20.707S.09 129.45.09 134.993v14.945c0 5.524 4.445 10.135 9.963 10.061l45.714-.684.196-9.377h-45.91V139.78c0-3.975 3.008-5.212 4.2-5.763l43.956-20.708c3.151-1.445 5.34-4.473 5.763-7.912.425-3.438-1.008-6.818-3.712-8.986-10.39-8.342-15.238-26.67-15.238-36.435V34.97C45.025 24.522 63.255 9.963 80.09 9.963c16.984 0 34.97 14.329 34.97 25.006v25.006h9.963V34.97C125.022 18.415 102.172 0 80.089 0z"/></svg>