<svg xmlns="http://www.w3.org/2000/svg" viewBox="0 0 160 160"><path d="M86.81 91.386l-6.727-3.72C91.773 78.47 95 60.384 95 50.25V29.167C95 15.199 78.64 0 60 0 41.365 0 25 15.202 25 29.167V50.25c0 9.214 3.274 27.864 15.083 37.333l-31.666 17.5S0 108.9 0 113.583v28A8.41 8.41 0 0 0 8.417 150H65v-35l4.833-11c.541-1.807 0-4-4-4H53.917c-4 0-4.796 2.29-4 4L55 115l-5 25H10v-24.25c.717-.522 1.71-1.138 2.5-1.5.235-.107.444-.206.667-.333l31.666-17.5c2.943-1.596 4.87-4.585 5.167-7.917.297-3.332-1.06-6.574-3.667-8.667C37.956 73.117 35 58.185 35 50.25V29.167C35 21.99 45.833 10 60 10c14.43 0 25 11.82 25 19.167V50.25c0 7.825-2.464 22.802-11.083 29.583-2.64 2.078-4.028 5.32-3.75 8.667.282 3.347 2.222 6.389 5.166 8l5.024 2.785zm43.565-5.167c-1.9-.147-3.703.018-5.438.437-1.734.42-3.396.896-5.124 2.625-2.214 2.214-2.294 3.717-2.938 5.75-.644 2.033-1.242 4.379-1.875 6.875-1.182 4.66-2.504 9.692-3.813 13.094H105c0-2.618-2.382-5-5-5H80c-2.618 0-5 2.382-5 5v40c0 2.618 2.382 5 5 5h20c2.618 0 5-2.382 5-5h8.313c-.102 0 .878.344 2.656 1.594 1.777 1.25 4.354 3.406 8.437 3.406h23.938c3.437 0 6.032-1.626 8.031-3.625 1.999-1.999 3.625-4.593 3.625-8.031v-26.625c0-3.438-1.626-6.033-3.625-8.031-1.992-1.993-4.578-3.615-8-3.625h-.031l-8.344-.031v-15c0-2.821-1.74-5.61-3.719-6.938-1.86-1.101-4.036-1.72-5.906-1.875zM130 96.25V115c0 2.607 2.361 4.983 4.969 5l13.344.062h.03c-.3 0 .425.143.97.688.544.544.687 1.268.687.968v26.625c0-.3-.143.424-.688.969-.544.545-1.268.687-.968.687h-23.938c.101 0-.878-.343-2.656-1.593s-4.354-3.407-8.438-3.407H105v-20h8.312c2.52 0 4.221-1.45 5.125-2.5a9.908 9.908 0 0 0 1.72-2.78c1.93-4.633 3.278-10.406 4.53-15.345.627-2.469 1.241-4.735 1.75-6.343.221-.698.514-1.208.72-1.594.346-.793 2.843-1.437 2.843-.187zM85 120h10v30H85z"/></svg>