<svg xmlns="http://www.w3.org/2000/svg" viewBox="0 0 160 160"><path d="M90 70c-5.445 0-9.833 4.475-9.833 10v70c0 5.525 4.388 10 9.833 10h60.167c5.445 0 9.833-4.475 9.833-10v-45l-35.167-35zm0 10h25v35h35.167v35H90zm35 4.167L146.083 105H125zm-.18-24.077V35.127c0-16.534-22.885-34.943-44.94-34.943-22.06 0-44.977 18.41-44.977 34.943V60.09c0 10.907 4.978 32.973 18.95 44.187L9.982 124.98S0 129.43 0 134.966v14.99c0 5.518 4.47 9.986 9.983 9.986h60.066v-9.99l-60.059.005v-10.138c0-3.97 2.982-5.217 4.171-5.767l43.87-20.702a9.987 9.987 0 0 0 5.736-7.857 9.975 9.975 0 0 0-3.66-9.006c-10.378-8.332-15.214-26.644-15.214-36.402V35.122c0-10.437 18.17-24.953 34.986-24.953 16.966 0 34.95 14.289 34.95 24.953v24.963z"/></svg>