<svg xmlns="http://www.w3.org/2000/svg" viewBox="0 0 160 160"><path d="M65 0C46.365 0 25 15.202 25 29.167V50.25c0 9.214 3.274 27.865 15.083 37.333l-31.666 17.5S0 108.9 0 113.583v38A8.41 8.41 0 0 0 8.417 160h113.166a8.407 8.407 0 0 0 8.417-8.417v-38c0-4.965-8.417-8.5-8.417-8.5l-31.5-17.416C101.773 78.47 105 60.383 105 50.25V29.167C105 15.2 83.64 0 65 0zm0 10c14.43 0 30 11.82 30 19.167V50.25c0 7.825-2.464 22.802-11.083 29.583-2.64 2.078-4.028 5.32-3.75 8.667.282 3.347 2.222 6.389 5.166 8l31.417 17.417c.277.152.708.289 1 .416.737.313 1.586.79 2.25 1.25V150H74.583L70 115l4.833-11c.541-1.807 0-4-4-4H58.917c-4 0-4.796 2.29-4 4L60 115l-5 35H10v-34.25c.717-.522 1.71-1.138 2.5-1.5.235-.107.444-.206.667-.333l31.666-17.5c2.943-1.596 4.87-4.585 5.167-7.917.297-3.332-1.06-6.574-3.667-8.667C37.956 73.117 35 58.185 35 50.25V29.167C35 21.99 50.833 10 65 10z"/></svg>