<svg xmlns="http://www.w3.org/2000/svg" viewBox="0 0 160 160"><path d="M1.46 151.458l44.075-44.508c-9.438-11.316-15.12-25.908-15.12-41.843C30.416 29.15 59.306 0 95.132 0 130.956 0 160 29.149 160 65.105c0 35.955-29.044 65.104-64.87 65.104-16.353 0-31.25-6.09-42.623-16.11L8.508 158.535a4.97 4.97 0 0 1-7.046 0 5.017 5.017 0 0 1-.003-7.077zm93.755-31.422c30.143 0 54.818-24.765 54.818-55.016 0-30.252-24.675-55.017-54.818-55.017-30.142 0-54.818 24.765-54.818 55.017 0 30.251 24.676 55.016 54.818 55.016zM120.5 79.122L108.49 74.75l-.01-.01c-.849-.513-1.697-1.019-2.542-1.534-.493-.3-.98-.618-1.463-.935a33.213 33.213 0 0 1-.404-.288c4.905-3.778 8.18-10.536 8.18-18.267 0-11.864-7.703-21.48-17.204-21.48-9.502 0-17.2 9.616-17.2 21.48 0 7.69 3.245 14.42 8.111 18.216-.771.912-1.55 1.639-2.327 2.26a1.906 1.906 0 0 0-.79.109L69.596 79.12c-2.743.999-4.894 4.098-4.894 7.056v1.402c0 3.227 2.59 5.852 5.768 5.852h49.147c3.182 0 5.769-2.625 5.769-5.852v-1.402c.006-2.958-2.145-6.057-4.889-7.056z"/></svg>