<svg xmlns="http://www.w3.org/2000/svg" viewBox="0 0 160 160"><path d="M50.053 150v-45.153l10.06-.014v39.12A6.046 6.046 0 0 0 66.16 150h77.726a6.046 6.046 0 0 0 6.047-6.047L149.78 16.1a6.052 6.052 0 0 0-6.047-6.053H66.16a6.047 6.047 0 0 0-6.047 6.053V55h-10.06V10c0-5.52 4.474-10 9.994-10H150c5.52 0 9.993 4.48 9.993 10v140c0 5.52-4.473 10-9.993 10H60.047c-5.514 0-9.994-4.48-9.994-10zM86.666 48.333a4.993 4.993 0 0 0-3.541 1.459 5.014 5.014 0 0 0 0 7.083L101.25 75H5c-2.76 0-5 2.24-5 5s2.24 5 5 5h96.666l-18.541 18.333c-1.953 1.954-1.953 5.137 0 7.084a4.982 4.982 0 0 0 3.541 1.458 4.97 4.97 0 0 0 3.542-1.458L119.791 80 90.208 49.792a4.993 4.993 0 0 0-3.542-1.459z"/></svg>