<svg xmlns="http://www.w3.org/2000/svg" viewBox="0 0 160 160"><path d="M80.568 10.004a91.32 91.32 0 0 0-3.31.09c-17.658.798-35.372 6.705-49.38 17.156C-.063 48.098-8.162 83.686 8.89 112.387c17.052 28.7 53.95 43.112 89.508 35.676 35.464-7.417 58.239-33.632 61.518-63.37.386-3.504-.601-6.562-1.87-9.235-1.27-2.672-2.66-4.894-5.114-6.644-8.272-5.899-18.172-5.235-26.542-5.185-8.37.05-14.869-.37-18.863-4.333a5.003 4.995 0 0 0 0-.002c-.254-.252-.635-2.33-.746-2.054.38-.948 1-1.568 2.61-2.368 1.611-.8 4.046-1.501 6.752-2.232 2.706-.73 5.684-1.49 8.594-2.979 2.91-1.488 5.91-4.016 7.286-7.786 1.26-3.446.964-6.948-.054-10.105-1.019-3.156-2.79-6.092-5.663-8.173-12.926-9.365-29.203-13.74-45.737-13.593zm-.012 10.304c14.7-.159 29.054 3.532 39.873 11.37.591.429 1.548 1.703 2.017 3.155.468 1.452.42 2.957.177 3.619-.349.955-.895 1.525-2.448 2.32-1.553.793-3.953 1.5-6.646 2.227-2.692.727-5.675 1.478-8.598 2.93-2.922 1.453-5.953 3.888-7.44 7.606-2.007 5.015-.331 9.557 2.983 12.844 7.356 7.298 17.403 7.288 25.974 7.238 8.57-.05 16.006.002 20.668 3.326-.13-.093 1.165 1.271 1.887 2.793.723 1.522 1.033 3.268.968 3.863-2.803 25.42-21.898 48.053-53.624 54.688-31.632 6.616-64.315-6.528-78.852-30.996-14.538-24.468-8.023-53.839 16.373-72.04 12.161-9.074 28.03-14.147 43.745-14.861a84.834 84.834 0 0 1 2.943-.082zM65.031 32.14c-8.229 0-15.007 6.767-15.007 14.982s6.778 14.982 15.007 14.982c8.23 0 15.007-6.767 15.007-14.982S73.26 32.141 65.031 32.141zm0 9.988c2.822 0 5.003 2.177 5.003 4.994 0 2.817-2.18 4.994-5.003 4.994-2.822 0-5.002-2.177-5.002-4.994 0-2.817 2.18-4.994 5.002-4.994zM35.017 65.102c-8.23 0-15.007 6.766-15.007 14.982 0 8.215 6.778 14.982 15.007 14.982s15.007-6.767 15.007-14.982c0-8.216-6.778-14.982-15.007-14.982zm0 9.988c2.822 0 5.002 2.176 5.002 4.994 0 2.817-2.18 4.994-5.002 4.994-2.822 0-5.003-2.177-5.003-4.994 0-2.818 2.18-4.994 5.003-4.994zm75.036 14.982c-8.23 0-15.007 6.766-15.007 14.982 0 8.215 6.778 14.982 15.007 14.982s15.007-6.767 15.007-14.982c0-8.216-6.778-14.982-15.007-14.982zM65.03 95.066c-8.229 0-15.007 6.766-15.007 14.982 0 8.215 6.778 14.982 15.007 14.982 8.23 0 15.007-6.767 15.007-14.982 0-8.216-6.778-14.982-15.007-14.982zm45.022 4.994c2.822 0 5.002 2.176 5.002 4.994 0 2.817-2.18 4.994-5.002 4.994-2.822 0-5.003-2.177-5.003-4.994 0-2.818 2.18-4.994 5.003-4.994zm-45.022 4.994c2.822 0 5.003 2.176 5.003 4.994 0 2.817-2.18 4.994-5.003 4.994-2.822 0-5.002-2.177-5.002-4.994 0-2.818 2.18-4.994 5.002-4.994z"/></svg>