<svg xmlns="http://www.w3.org/2000/svg" viewBox="0 0 160 160"><path d="M78.469.063c-8.96.389-17.77 4.178-24.281 11.28-6.234 6.8-9.148 15.44-9.157 23.907-.01 9.066 4.704 15.624 8.625 20.344 3.921 4.72 6.338 7.95 6.344 9.437l.094 24.844c-.018.048-.036.13-.125.219-.09.089-.171.107-.219.125L10.031 90c-3.064-.014-5.286 1.408-6.969 3.094C1.38 94.779 0 96.953 0 100v35a5 5 0 0 0 5 5h5v15a5 5 0 0 0 5 5h130a5 5 0 0 0 5-5v-15h5a5 5 0 0 0 5-5v-35c0-3.047-1.411-5.224-3.094-6.906C155.224 91.41 153.047 90 150 90h-49.594c-.02-.01-.136-.042-.25-.156-.114-.114-.147-.23-.156-.25V65c0-.567.304-1.584 1.438-3.219 1.133-1.634 2.968-3.69 4.937-6.093 3.937-4.806 8.625-11.46 8.625-20.594.024-9.491-3.813-19.003-11.344-25.907C96.553 2.678 87.428-.326 78.47.063zM78.906 10a24.95 24.95 0 0 1 18 6.563c5.42 4.967 8.111 11.706 8.094 18.5a5 5 0 0 0 0 .03c0 5.782-2.812 9.902-6.375 14.25-1.781 2.175-3.696 4.298-5.375 6.72C91.57 58.483 90 61.419 90 65v25c0 3.047 1.411 5.224 3.094 6.906C94.776 98.59 96.953 100 100 100h49.594c.02.009.136.042.25.156.114.114.147.23.156.25V130H10v-29.594c.01-.021.042-.136.156-.25.114-.114.235-.149.25-.156l49.688.219c3.064.014 5.252-1.377 6.937-3.063 1.686-1.686 3.076-3.875 3.063-6.937L70 64.969c-.03-7.211-5.09-11.49-8.656-15.781-3.566-4.293-6.319-8.256-6.313-13.938.007-6.183 2.078-12.298 6.532-17.156A24.901 24.901 0 0 1 78.906 10zM20 140h120v10H20v-10z"/></svg>