<svg xmlns="http://www.w3.org/2000/svg" viewBox="0 0 160 160"><path d="M73 14.333v11H62V35h11v11h9.583V35h11v-9.667h-11v-11zm7.083-13c-18.308 0-36.608 1.01-54.916 3.167-2.744.323-5.812 2.36-5 5L34.917 59v6c0 10.923 5.007 28.02 19 39.25L10 125s-10 4.455-10 10v15c0 5.525 4.48 10 10 10h140c5.525 0 10-4.475 10-10v-15c0-5.878-10-10-10-10l-43.5-20.667C120.36 93.425 125 77.01 125 65v-6.333L140 9.5c.818-2.641-2.254-4.676-5-5-18.308-2.157-36.609-3.167-54.917-3.167zm-.25 10.084c15.803-.09 31.609.806 48.25 3.083-5.033 12.923-8.133 25.91-13.166 38.833-23.254-4.075-47.539-2.876-69.834 0-4.995-12.923-8.504-25.91-13.5-38.833 16.642-1.918 32.448-2.993 48.25-3.083zm.084 49.75c11.725.052 23.493.714 35.083 1.75V65c0 9.622-4.017 23.048-14.75 31.5-2.736 2.154-4.16 5.54-3.75 9a9.996 9.996 0 0 0 5.75 7.917l43.583 20.666c.34.155 4.167.814 4.167 6.167V150H10v-10.167c0-3.977 2.974-5.2 4.167-5.75l43.916-20.75a9.947 9.947 0 0 0 5.75-7.833c.426-3.44-.962-6.915-3.666-9.083C49.774 88.072 45 74.767 45 65v-2.167c11.497-1.172 23.192-1.719 34.917-1.666z"/></svg>