<svg xmlns:svg="http://www.w3.org/2000/svg" xmlns="http://www.w3.org/2000/svg" viewBox="0 0 160 160">
    <path d="m 4.9882812,15 a 5,5 0 0 0 -3.8925781,1.876953 5,5 0 0 0 0.78125,7.027344 L 151.87695,143.9043 a 5,5 0 0 0 7.02735,-0.78125 5,5 0 0 0 -0.78125,-7.02735 L 8.1230469,16.095703 A 5,5 0 0 0 4.9882812,15 Z M 45,0 c -2.761309,2.7608953e-4 -4.999724,2.2386906 -5,5 v 20 c 0,2.916667 1.752159,5.469573 3.361328,6.810547 1.609169,1.340974 3.152344,2.037109 4.402344,2.662109 1.130329,0.565165 1.879605,1.009957 2.236328,1.265625 v 1.619141 l 10,8 V 35 C 60,32.083333 58.247841,29.530427 56.638672,28.189453 55.029503,26.848479 53.486328,26.152344 52.236328,25.527344 51.105999,24.962179 50.356723,24.517387 50,24.261719 V 10 h 60 v 14.261719 c -0.35672,0.255668 -1.106,0.70046 -2.23633,1.265625 -1.25,0.625 -2.79317,1.321135 -4.40234,2.662109 C 101.75216,29.530427 100,32.083333 100,35 v 15 c -1.85e-4,0.776269 0.18036,1.541922 0.52734,2.236328 5.52175,11.043499 12.76595,13.884982 15.44922,15.673828 1.34164,0.894423 1.81101,1.215613 2.58594,3.429688 0.55247,1.578499 0.95237,4.680177 1.19141,8.660156 h -16.44922 l 12.5,10 H 125 c 2.76131,-2.76e-4 4.99972,-2.238691 5,-5 0,-7.777778 -0.58743,-12.928919 -2,-16.964844 -1.41257,-4.035925 -4.0682,-6.839735 -6.47656,-8.445312 C 116.91206,56.515595 114.15334,56.484445 110,48.646484 V 35.738281 c 0.35672,-0.255668 1.106,-0.70046 2.23633,-1.265625 1.25,-0.625 2.79317,-1.321135 4.40234,-2.662109 C 118.24784,30.469573 120,27.916667 120,25 V 5 c -2.8e-4,-2.7613094 -2.23869,-4.99972391047 -5,-5 z m 3.908203,50.570312 C 45.33592,56.495274 42.67077,56.793706 38.476562,59.589844 36.068197,61.195421 33.412574,63.999231 32,68.035156 30.587426,72.071081 30,77.222222 30,85 c 2.76e-4,2.761309 2.238691,4.999724 5,5 h 27.84375 l 12.240234,65.91211 c 1.014156,5.44692 8.817876,5.44692 9.832032,0 L 97.15625,90 h 1.039062 l -12.5,-10 H 40.246094 c 0.239034,-3.979979 0.638931,-7.081657 1.191406,-8.660156 0.774926,-2.214075 1.244303,-2.535265 2.585938,-3.429688 2.260748,-1.507166 7.758289,-3.78101 12.736328,-11.058594 z M 73.013672,90 H 86.986328 L 80,127.61719 Z"/>
</svg>