<svg xmlns="http://www.w3.org/2000/svg" viewBox="0 0 160 160"><path d="M139.884 149.884H10.116V50H50.83l10.229-9.853-.263-.263H10.116C4.529 39.884 0 44.414 0 50v99.884C0 155.471 4.53 160 10.116 160h129.768c5.587 0 10.116-4.53 10.116-10.116V70.75l-10.116 9.655zm-98.112-40.462h10.192c7.09-40.225 42.004-72.335 84.26-72.335 1.772 0 3.454.015 5.156.028l-18.532 18.53a5.066 5.066 0 0 0 0 7.15 5.05 5.05 0 0 0 3.581 1.483c1.295 0 .85-.493 1.838-1.482l31.61-30.663L130 1.465a5.057 5.057 0 0 0-7.152 0 5.066 5.066 0 0 0 0 7.152l18.363 18.36c-1.586-.003-3.157-.008-4.775-.008-47.9 0-87.37 36.606-94.664 82.453z"/></svg>