<svg xmlns="http://www.w3.org/2000/svg" viewBox="0 0 160 160"><path d="M0 0c7.36 46.877 47.32 88.86 95.676 88.86 1.642 0 3.164.003 4.771 0L81.99 107.57c-1.993 2.02-1.993 5.387 0 7.408a4.982 4.982 0 0 0 7.157 0l30.134-31.39-30.134-31.39a5.131 5.131 0 0 0-3.642-1.506c-1.305 0-2.523.494-3.515 1.506a5.183 5.183 0 0 0 0 7.283l18.583 18.96c-1.74.012-3.338 0-5.148 0-42.666 0-77.97-37.313-85.13-78.44zm108.953 45.262h40.89v104.476H20.157V79.273L10 69.477v80.261C10 155.404 14.548 160 20.157 160h129.686c5.609 0 10.157-4.592 10.157-10.262V45.262C160 39.596 155.452 35 149.843 35H98.944l-.265.265z"/></svg>