<svg xmlns="http://www.w3.org/2000/svg" viewBox="0 0 160 160"><path d="M134.7 115.88c-4.66 0-8.435 3.705-8.435 8.275s3.775 8.275 8.435 8.275 8.435-3.705 8.435-8.275-3.775-8.275-8.435-8.275zM.095 54.905c-.071-3.626.924-12.083 12.16-15.028L124.04 17.814l1.037-.107c8.267 0 14.993 6.602 14.993 14.715v19.722l4.996-.012c8.237.036 14.934 6.614 14.934 14.709v78.444c0 8.113-6.726 14.715-14.993 14.715H14.993C6.726 160 0 153.398 0 145.285M125.516 27.54L15.254 49.436c-.042.017.818 2.75 4.824 2.696h110.007v-19.71c-.006-2.56-2.021-4.664-4.57-4.883zM9.997 145.29c0 2.709 2.24 4.907 4.996 4.907h130.014c2.756 0 4.996-2.198 4.996-4.907V66.847c0-2.709-2.24-4.907-4.996-4.907H20.054c-4.907 0-10.057-1.642-10.057-4.89v88.241z"/></svg>