<svg xmlns="http://www.w3.org/2000/svg" viewBox="0 0 160 160"><path d="M47.867 0C34.626.051 23.933 10.835 23.98 24.1a23.935 23.935 0 0 0 5.137 14.744 24.094 24.094 0 0 0 7.654 6.388A23.855 23.855 0 0 0 48.068 48a23.871 23.871 0 0 0 10.034-2.244c8.208-3.839 13.88-12.192 13.84-21.856C71.886 10.648 61.107-.05 47.866 0zm.04 10c7.712-.03 14.002 6.204 14.034 13.941.032 7.74-6.206 14.025-13.918 14.059-7.707.034-14.004-6.191-14.043-13.943C33.956 16.305 40.2 10.03 47.906 10zM36.77 48c-3.681 0-7.185.822-10.462 2.205-2.651 1.118-5.154 2.602-7.487 4.316-5.216 3.834-9.94 8.975-10.838 16.303l-7.927 64.67c-.554 4.52 2.97 8.505 7.52 8.506h36.42a7.578 7.578 0 0 0 7.52-6.658L59 82.5l14 20c.396.594.845 1.09 1.33 1.504 1.967 1.674 4.54 1.996 6.68 1.996h27.685c8.304 0 8.305-10 .016-10H81.01L57.395 60.662C55 57 50.499 52.292 48.08 50.942A23.167 23.167 0 0 0 36.771 48zm0 10c5.155 0 10.729 4 14.01 10.766L41.881 134H10.314l7.596-61.959c.41-3.341 2.561-6.319 6.836-9.46C28.844 59.567 32.882 58 36.771 58zm117.583 8.705C152.34 66.862 150.42 68.27 150 71l-7.5 63H80.05c-6.55 0-6.55 9.996 0 9.996l63.948.004a7.996 7.996 0 0 0 7.93-7.01L159.5 73a8.462 8.462 0 0 0 .07-.861c.107-3.773-2.63-5.636-5.216-5.434z"/></svg>