<svg xmlns:svg="http://www.w3.org/2000/svg" xmlns="http://www.w3.org/2000/svg" viewBox="0 0 160 160">
<path d="M 111.00781 -0.00390625 C 90.958308 -0.01706625 72.470346 10.899422 62.796875 28.460938 A 5.0005 5.0005 0 1 0 71.556641 33.285156 C 79.47905 18.902573 94.58175 9.9853158 111.00195 9.9960938 C 127.42216 10.006874 142.5125 18.944921 150.41602 33.337891 A 5.0005 5.0005 0 1 0 159.18164 28.523438 C 149.53123 10.949238 131.05732 0.00925375 111.00781 -0.00390625 z M 111.0918 19.996094 C 98.28594 19.952662 86.457052 26.925606 80.292969 38.150391 A 5.0005 5.0005 0 1 0 89.058594 42.962891 C 93.468939 34.931662 101.89417 29.965019 111.05664 29.996094 C 120.21911 30.027174 128.61103 35.050367 132.9668 43.111328 A 5.0005 5.0005 0 1 0 141.76367 38.357422 C 135.67587 27.091084 123.89765 20.039526 111.0918 19.996094 z M 111.09961 39.998047 C 105.6445 39.951577 100.57558 42.886288 97.900391 47.640625 A 5.0005 5.0005 0 1 0 106.61523 52.544922 C 107.51271 50.949933 109.18554 49.980504 111.01562 49.996094 C 112.84571 50.011684 114.50092 51.009094 115.37109 52.619141 A 5.0005 5.0005 0 1 0 124.16797 47.865234 C 121.57416 43.066011 116.55472 40.044519 111.09961 39.998047 z M 49.941406 50 C 41.658758 50.03213 34.970043 56.771849 35 65.0625 C 35.03879 73.353114 41.783777 80.03655 50.066406 80 C 58.349036 79.96345 65.03434 73.220139 65 64.9375 C 64.96566 56.654861 58.224054 49.96787 49.941406 50 z M 43 80 C 38.83468 80 35.036381 81.680012 31.773438 84.076172 C 28.510492 86.472332 25.556173 89.685355 24.994141 94.265625 L 20.035156 134.68359 C 19.688878 137.5083 21.892421 139.99919 24.738281 140 L 47.519531 140 C 49.914095 140.00036 51.932805 138.21461 52.224609 135.83789 L 55.898438 105.89844 L 63.84375 117.7793 C 64.771681 119.16684 66.330773 119.99987 68 120 L 88 120 C 90.78908 120.0394 93.070313 117.78936 93.070312 115 C 93.070312 112.21064 90.78908 109.96056 88 110 L 70.671875 110 L 55.900391 87.914062 C 53.589171 83.241043 48.631563 80 43 80 z M 4.9238281 84.929688 A 5.0005 5.0005 0 0 0 0 90 L 0 155 A 5.0005 5.0005 0 0 0 5 160 L 55 160 A 5.0005 5.0005 0 1 0 55 150 L 10 150 L 10 90 A 5.0005 5.0005 0 0 0 4.9238281 84.929688 z M 115.12695 89.929688 C 112.56119 89.906288 110.3941 91.828666 110.11133 94.378906 L 105.6582 130 L 70.072266 129.99805 C 63.309295 129.90105 63.309295 140.09505 70.072266 139.99805 L 110.07227 140 C 112.59398 139.99948 114.72071 138.12141 115.0332 135.61914 L 120.0332 95.621094 C 120.4503 92.632144 118.14473 89.957618 115.12695 89.929688 z "
 />
</svg>
