<svg xmlns="http://www.w3.org/2000/svg" width="160" height="160"><path d="M154.293 90.05A5 5 0 0 0 151 92l-40.625 54.166L89.24 112.35a5 5 0 0 0-6.89-1.59 5 5 0 0 0-1.59 6.89l25 40a5 5 0 0 0 8.24.35l45-60a5 5 0 0 0-1-7 5 5 0 0 0-3.707-.95zM24.409 50h48.697c1.95 0 1.95 0 0 0H23.553h.856zm25.694 0h53.21H-3.313h53.416zm0 0H5.761 94.24 50.103zM10 0C6.953 0 4.776 1.411 3.094 3.094 1.41 4.776 0 6.953 0 10v50c0 3.047 1.411 5.224 3.094 6.906C4.776 68.59 6.953 70 10 70h20.063l.437 30.063a5 5 0 0 0 1.469 3.468L38.438 110l-6.47 6.469a5 5 0 0 0 0 7.062l6.376 6.375-6.281 5.969a5 5 0 0 0-.094 7.156l15 15a5 5 0 0 0 6.312.625l15-10a5 5 0 0 0 2.219-4.187L70.031 70H80c3.047 0 5.224-1.411 6.906-3.094C88.59 65.224 90 63.047 90 60V10c0-3.047-1.411-5.224-3.094-6.906C85.224 1.41 83.047 0 80 0zm.406 10h69.188c.02.01.136.042.25.156.114.114.147.23.156.25v49.188c-.009.02-.042.136-.156.25-.114.114-.23.147-.25.156H65a5 5 0 0 0-5 5.031l.469 76.813-9.344 6.219-8.469-8.47 6.282-5.968a5 5 0 0 0 .093-7.156L42.563 120l6.468-6.469a5 5 0 0 0 0-7.062l-8.562-8.563L40 64.937A5 5 0 0 0 35 60H10.406c-.02-.01-.136-.042-.25-.156-.114-.114-.147-.23-.156-.25V10.406c.009-.02.042-.136.156-.25.114-.114.23-.147.25-.156zM35 20c-8.225 0-15 6.775-15 15s6.775 15 15 15 15-6.775 15-15-6.775-15-15-15zm0 10c2.82 0 5 2.18 5 5s-2.18 5-5 5-5-2.18-5-5 2.18-5 5-5z"/></svg>