<svg xmlns="http://www.w3.org/2000/svg" viewBox="0 0 160 160"><path d="M120 60a15 15 0 0 1-15 15 15 15 0 0 1-15-15 15 15 0 0 1 15-15 15 15 0 0 1 15 15zM25 90a5 5 0 0 0-5 5 5 5 0 0 0 5 5h30a5 5 0 0 0 5-5 5 5 0 0 0-5-5zm0-20a5 5 0 0 0-5 5 5 5 0 0 0 5 5h30a5 5 0 0 0 5-5 5 5 0 0 0-5-5zm80-45c-13.908 0-25.969 8.195-31.605 20H10.357C5.198 45 0 48.665 0 54.375v61.25C0 121.335 5.198 125 10.357 125H20v5a5 5 0 0 0 5 5h30a5 5 0 0 0 5-5v-5h40v5a5 5 0 0 0 5 5h30a5 5 0 0 0 5-5v-5h9.643c5.159 0 10.357-3.665 10.357-9.375v-61.25c0-5.71-5.198-9.375-10.357-9.375h-13.038C130.97 33.195 118.908 25 105 25zm0 10c13.866 0 25 11.134 25 25s-11.134 25-25 25-25-11.134-25-25 11.134-25 25-25zM10.357 55h60.006A34.984 34.984 0 0 0 70 60c0 19.27 15.73 35 35 35s35-15.73 35-35c0-1.698-.127-3.366-.363-5h10.006c.294 0 .319.015.357.01v59.98c-.038-.005-.063.01-.357.01H10.357c-.294 0-.319-.015-.357-.01V55.01c.038.005.063-.01.357-.01z"/></svg>