<svg xmlns="http://www.w3.org/2000/svg" width="160" height="160"><path d="M5 10a5 5 0 0 0-5 5v140a5 5 0 0 0 5 5h125a5 5 0 0 0 5-5V90h-10v60H10V20h75V10zm136.1-5.776c-5.633-5.632-14.922-5.632-20.554 0L93.698 31.072 41.015 83.755a4.985 4.985 0 0 0-1.78 2.853L25.13 128.893c-.826 3.588 2.388 6.802 5.976 5.976l42.285-14.104a4.985 4.985 0 0 0 2.953-1.882l62.25-62.249 17.181-17.18c5.633-5.633 5.633-14.922 0-20.554zm-7.049 7.049 14.677 14.676c1.85 1.849 1.849 4.607 0 6.456L135.07 46.062l-21.133-21.133 13.657-13.656c1.85-1.85 4.607-1.85 6.456 0zM106.89 31.978l21.133 21.132-55.75 55.75-21.133-21.132zM46.925 97.61l15.465 15.464-19.923 6.707-2.25-2.248z"/></svg>