<svg xmlns="http://www.w3.org/2000/svg" viewBox="0 0 160 160"><path d="M150 115c0 19.33-15.67 35-35 35s-35-15.67-35-35 15.67-35 35-35 35 15.67 35 35zm-46.469-3.531l-7.062 7.062 6.469 6.469-6.47 6.469 7.063 7.062 10-10 3.531-3.531-3.53-3.531-10-10zm22.938-20l-10 10-3.531 3.531 3.53 3.531 10 10 7.063-7.062-6.469-6.469 6.47-6.469-7.063-7.062zM10 10C4.503 10 0 14.503 0 20v85c0 5.495 4.503 9.969 10 9.969h55V130H40c-2.76 0-5 2.241-5 5s2.24 5 5 5h37.594c8.073 12.055 21.808 20 37.406 20 24.853 0 45-20.147 45-45 0-15.598-7.945-29.333-20-37.406V20c0-5.497-4.503-10-10-10H10zm0 10h120v52.563A44.881 44.881 0 0 0 115 70c-21.413 0-39.325 14.964-43.875 35H10V20z"/></svg>