<svg xmlns="http://www.w3.org/2000/svg" viewBox="0 0 160 160"><path d="M 9.9208984,40.079098 H 47.999023 c -0.620611,-2.04083 -1.280272,-3.98214 -1.748047,-6.54882 -1.374976,-7.54451 -1.762266,-17.49187 5.103516,-24.4804696 6.459792,-6.57536 16.346988,-9.12890996 26.066406,-9.12890996 9.719418,0 19.60661,2.55354996 26.066412,9.12890996 6.86578,6.9885996 6.47849,16.9359596 5.10351,24.4804696 -0.46777,2.56668 -1.12743,4.50799 -1.74804,6.54882 H 149.9209 V 160.0791 h -5 H 9.9208984 v -45.6543 l 7.2675776,3.69727 c 0,0 4.496659,2.25862 9.980469,3.375 5.48381,1.11638 10.937298,0.88448 14.185547,-2.42188 3.58639,-3.65055 6.066406,-11.24809 6.066406,-18.99609 0,-7.748001 -2.480018,-15.345546 -6.066406,-18.996093 -3.248249,-3.306358 -8.701737,-3.538257 -14.185547,-2.421875 -5.48381,1.116382 -9.980469,3.375 -9.980469,3.375 l -7.2675776,3.697266 z m 9.9999996,10 v 20.357425 c 1.705618,-0.55765 3.179692,-1.152352 5.251953,-1.574219 7.01619,-1.428341 16.562702,-1.659644 23.314453,5.212891 6.413612,6.528346 8.933594,16.341356 8.933594,26.003905 0,9.66255 -2.519984,19.47556 -8.933594,26.00391 -6.751751,6.87253 -16.298263,6.64123 -23.314453,5.21289 -2.072261,-0.42187 -3.546336,-1.01657 -5.251953,-1.57422 V 150.0791 H 139.9209 V 50.079098 H 92.206058 l 3.15039,-7.04297 c 0,0 2.2695,-5.12581 3.39453,-11.29882 1.12502,-6.17302 0.73773,-12.48745 -2.39649,-15.67774 -3.5402,-3.60354 -11.153008,-6.1386696 -18.93359,-6.1386696 -7.780582,0 -15.393386,2.5351296 -18.933594,6.1386696 -3.134218,3.19029 -3.521508,9.50472 -2.396484,15.67774 1.125024,6.17301 3.394531,11.29882 3.394531,11.29882 l 3.150391,7.04297 z"/></svg>