<svg xmlns="http://www.w3.org/2000/svg" viewBox="0 0 160 160"><path d="M25 0C11.236 0 0 11.236 0 25v20a5 5 0 0 0 5 5 5 5 0 0 0 5-5V25c0-8.396 6.604-15 15-15h20a5 5 0 0 0 5-5 5 5 0 0 0-5-5H30zm90 0a5 5 0 0 0-5 5 5 5 0 0 0 5 5h20c8.396 0 15 6.604 15 15v20a5 5 0 0 0 5 5 5 5 0 0 0 5-5V25c0-13.764-11.236-25-25-25h-5zM20 20v45h45V20zm52.5 0v15H80v7.5h7.5v-15H80V20zM80 42.5h-7.5V50H80zm0 7.5v7.5h7.5V50zm0 7.5h-7.5v15H80V80h-7.5v15H80v-7.5h7.5V80H95v-7.5h-7.5V65H80zM95 80v7.5h7.5V80zm7.5 0h7.5v7.5h7.5V95h15v-7.5h7.25V80h-7.25v-7.5H125V80h7.25v7.5H125V80h-7.5v-7.5h-15zm30 15v15h7.5V95zm0 15H125v7.5h7.5zm0 7.5v7.5h7.5v-7.5zm0 7.5H125v15h15v-7.5h-7.5zm-7.5 0v-7.5h-7.5V110h-15v7.5h7.5v15h7.5V125zm-15 7.5H95v7.5h15zm-15 0V125H80v7.5h7.5zm-15 0h-7.5v7.5H80zm0-7.5v-15h-7.5v15zm0-15h7.5V95H80zm7.5-15H95v-7.5h-7.5zm7.5 0v15h7.5v-7.5h15V95H110v-7.5h-7.5V95zm22.5 7.5v7.5h7.5v-7.5zM95 110h-7.5v7.5H95zm0 7.5v7.5h7.5v-7.5zM72.5 80v-7.5h-15V80H50v7.5h15V80zM50 80v-7.5h-7.5V80zm-7.5 0H35v7.5h7.5zM35 80v-7.5H20V80h7.5zm60-60v45h45V20zm-67.5 7.5h30v30h-30zm75 0h30v30h-30zM35 35v15h15V35zm75 0v15h15V35zM20 95v45h45V95zm7.5 7.5h30v30h-30zM5 110a5 5 0 0 0-5 5v20c0 13.764 11.236 25 25 25h20a5 5 0 0 0 5-5 5 5 0 0 0-5-5H25c-8.396 0-15-6.604-15-15v-20a5 5 0 0 0-5-5zm30 0v15h15v-15zm120 0a5 5 0 0 0-5 5v20c0 8.396-6.604 15-15 15h-20a5 5 0 0 0-5 5 5 5 0 0 0 5 5h20c13.764 0 25-11.236 25-25v-20a5 5 0 0 0-5-5z"/></svg>