<svg viewBox="0 0 160 160" xmlns="http://www.w3.org/2000/svg"><path d="M 44.607843,80.726891 A 20.805897,20.805897 0 0 1 23.801947,101.53279 20.805897,20.805897 0 0 1 2.9960499,80.726891 20.805897,20.805897 0 0 1 23.801947,59.920994 20.805897,20.805897 0 0 1 44.607843,80.726891 Z M 155.03309,97.920756 q -1.42946,0.623767 -2.59902,1.169563 -1.14358,0.545796 -3.01488,1.143571 -1.5854,0.49382 -3.4567,0.83169 -1.84531,0.36386 -4.08048,0.36386 -4.21042,0 -7.66713,-1.16956 -3.43072,-1.195551 -5.97777,-3.716609 -2.49506,-2.469077 -3.89854,-6.263658 -1.40347,-3.820572 -1.40347,-8.862686 0,-4.782213 1.35149,-8.550804 1.35149,-3.768591 3.89854,-6.367619 2.46908,-2.521057 5.95178,-3.846562 3.50869,-1.325504 7.77109,-1.325504 3.11884,0 6.21168,0.753718 3.11883,0.753718 6.91341,2.651009 v 6.107716 h -0.38985 q -3.1968,-2.676999 -6.34163,-3.898542 -3.14482,-1.221543 -6.73148,-1.221543 -2.9369,0 -5.30202,0.96164 -2.33912,0.93565 -4.18444,2.936902 -1.79332,1.949271 -2.80695,4.938154 -0.98763,2.962892 -0.98763,6.861435 0,4.080474 1.0916,7.017376 1.11758,2.936902 2.85893,4.782212 1.81932,1.923281 4.23641,2.858931 2.44309,0.90966 5.14608,0.90966 3.71661,0 6.96539,-1.273524 3.24879,-1.273524 6.08173,-3.820571 h 0.36386 z m -38.04977,2.806954 H 91.486852 V 62.028175 h 25.496468 v 4.57429 H 96.632928 v 10.604036 h 20.350392 v 4.57429 H 96.632928 v 14.372626 h 20.350392 z m -30.486601,0 H 79.817216 L 66.874055,85.341459 H 59.622766 V 100.72771 H 54.47669 V 62.028175 h 10.837948 q 3.508688,0 5.847814,0.467825 2.339125,0.441835 4.210425,1.611398 2.105213,1.325504 3.274776,3.352747 1.195553,2.001251 1.195553,5.094095 0,4.184436 -2.105213,7.017376 -2.105213,2.806951 -5.795833,4.236417 z M 74.463217,72.918104 q 0,-1.663378 -0.597776,-2.936902 Q 73.293655,68.681688 71.94216,67.798018 70.824578,67.0443 69.291151,66.758407 67.757724,66.446523 65.678502,66.446523 h -6.055736 v 14.60654 h 5.198056 q 2.443087,0 4.262407,-0.415845 1.81932,-0.441835 3.092844,-1.611397 1.169562,-1.091592 1.715358,-2.495068 0.571786,-1.429465 0.571786,-3.612649 z"/></svg>
