<svg xmlns="http://www.w3.org/2000/svg" viewBox="0 0 160 160"><path d="M80 0C57.909 0 38.708 12.008 31.25 29.583c-1.92.539-6.674 5.419-6.667 7.334.048 12.248 32.327 26.5 54.417 26.5 22.09 0 54.901-14.323 54.833-27.5-.013-2.522-4.388-7.016-6.083-7.667C120.631 11.691 102.089 0 80 0zm0 10c2.423 0 4.94.289 7.417.75V27c0 4.068 9.91 4.068 10.25 0V13.917c10.922 4.644 19.878 12.211 24.361 23.356-11.121 9.241-24.623 14.144-41.611 14.144-16.839 0-33.773-7.586-42.928-14.495 3.883-11.89 12.574-19.496 24.844-23.755V27c0 4.068 9.911 4.068 10.25 0V10.667C75.136 10.267 77.637 10 80 10zm45 48.667L115 62v3c0 9.622-4.017 23.048-14.75 31.5-2.736 2.154-4.16 5.54-3.75 9a9.996 9.996 0 0 0 5.75 7.917l43.583 20.666c.34.155 4.167.814 4.167 6.167V150H10v-10.167c0-3.977 2.974-5.2 4.167-5.75l43.916-20.75a9.947 9.947 0 0 0 5.75-7.833c.426-3.44-.962-6.915-3.666-9.083C49.774 88.072 45 74.767 45 65v-3l-10.083-3v6c0 10.923 5.007 28.02 19 39.25L10 125s-10 4.455-10 10v15c0 5.525 4.48 10 10 10h140c5.525 0 10-4.475 10-10v-15c0-5.878-10-10-10-10l-43.5-20.667C120.36 93.425 125 77.01 125 65z"/></svg>