<svg xmlns="http://www.w3.org/2000/svg" viewBox="0 0 160 160"><path d="M110.188 50c-7.545 0-14.357 3.217-19.5 7.25-5.144 4.033-9.25 8.55-9.25 14.75v18.312c0 4.192.829 9.499 2.687 14.875 1.858 5.377 4.718 10.853 9.438 14.688.948.772 1.424 2.043 1.312 3.312-.111 1.265-.808 2.351-1.875 2.938l-27.687 15.187a4.966 4.966 0 0 0-.125.063c.025-.014-.04.056-.188.125-1.137.529-2.08 1.133-3 1.812a4.966 4.966 0 0 0-2 4v7.75A4.966 4.966 0 0 0 64.938 160H155a4.966 4.966 0 0 0 5-4.938v-7.875a4.966 4.966 0 0 0-2.125-4.062c-.848-.594-1.719-1.15-2.813-1.625-.02-.008-.04.01-.062 0-.121-.056-.269-.103-.312-.125h-.063l-26.937-15.188a4.966 4.966 0 0 0-.063 0c-1.067-.592-1.769-1.721-1.875-3-.105-1.28.412-2.482 1.375-3.25 4.912-3.917 7.568-9.583 9.188-15 1.619-5.416 2.187-10.713 2.187-14.625V72c0-6.037-3.837-10.7-8.875-14.75C124.587 53.2 117.8 50 110.188 50zm0 9.937c4.777 0 9.642 2.15 13.187 5s5.188 6.708 5.188 7.063v18.312c0 2.898-.476 7.55-1.75 11.813-1.275 4.262-3.387 8.078-5.875 10.062-3.571 2.849-5.434 7.268-5.063 11.813.378 4.546 2.948 8.663 6.938 10.875l27 15.125c.048.027.078.037.124.062H70.063c.048-.027.074-.033.124-.062l27.625-15.188a13.609 13.609 0 0 0 7-10.75c.4-4.53-1.47-9.004-5-11.875-2.472-2.01-4.832-5.966-6.312-10.25-1.48-4.283-2.125-8.91-2.125-11.625V72c0-.044 1.733-4.033 5.438-6.938 3.704-2.904 8.756-5.125 13.375-5.125zM50 150H10v-12.787c0-.533 1.89-1.813 3.427-2.398.333-.118.538-.21.85-.362l43.515-20.635a10.002 10.002 0 0 0 5.718-8.93c.04-3.823-2.1-7.34-5.518-9.053-3.387-1.7-7.865-2.54-14.882-3.755-1.665-.292-3.94-.702-6.148-1.142 2.863-6.423 6.025-15.405 7.27-25.568.308-2.53.703-5.377 1.143-8.53.757-5.365 1.695-12.167 2.617-20.347C49.737 21.045 62.88 10 79.96 10h.08c17.08 0 30.225 14.55 31.967 30h9.938C120 15.263 102.12 0 80.04 0h-.08C57.88 0 40.4 14.595 38.057 35.375c-1.445 12.813-2.9 21.91-3.75 28.843C32.12 82.083 23.16 95.833 23.16 95.833c1.875 5.117 24.545 6.04 30.352 8.95L9.995 125.42S0 128.93 0 137.213v13.207c0 5.527 4.472 9.58 9.995 9.58h39.697z"/></svg>