<svg xmlns="http://www.w3.org/2000/svg" viewBox="0 0 160 160"><path d="M26.732 0a5 5 0 0 0-4.998 5.639c1.484 11.515-3.399 29.15-1.117 44.074 1.141 7.461 4.826 14.823 12.455 18.748 7.231 3.72 17.066 4.5 30.91 2.361 4.325 3.927 6.041 5.82 6.944 7.557.682 1.313 1.264 3.363 2.248 6.621H38c-3.067 0-5.288 2.019-6.41 3.889C30.468 90.759 30 92.81 30 95v15c0 2.19.468 4.241 1.59 6.111S34.933 120 38 120h2.615l7.487 36.018A5 5 0 0 0 52.996 160h54.008a5 5 0 0 0 4.894-3.982L119.385 120H122c3.067 0 5.288-2.019 6.41-3.889 1.122-1.87 1.59-3.921 1.59-6.111V95c0-2.19-.468-4.241-1.59-6.111S125.067 85 122 85H85.596c.152-.18.37-.4.787-.78 1.967-1.794 7.527-5.373 17.492-12.69 11.092 1.784 19.166 1.13 25.225-2.169 6.44-3.507 9.468-10.013 10.394-16.425 1.853-12.825-2.058-27.757-.892-37.332A5 5 0 0 0 133.637 10a5 5 0 0 0-2.653.762c-3.52 2.205-8.756 3.868-14.343 5.576-5.588 1.708-11.537 3.457-16.682 6.875-5.145 3.418-9.351 9.117-9.889 16.693-.478 6.74 1.485 14.651 6.235 24.762-7.863 5.709-12.416 8.65-15.63 11.383-.295-.733-.491-1.544-.874-2.281-1.623-3.124-3.989-5.69-8.084-9.446 6.253-12.336 8.799-21.858 8.197-29.867-.658-8.767-5.711-15.18-11.916-19.074-6.204-3.894-13.511-5.945-20.492-7.961C40.525 5.406 33.862 3.432 29.24.697A5 5 0 0 0 26.732 0zm5.336 12.98c4.162 1.585 8.472 2.839 12.664 4.05 6.95 2.006 13.503 4.033 17.95 6.824 4.446 2.79 6.833 5.668 7.26 11.351.4 5.333-1.65 13.762-7.788 25.684a5 5 0 0 0-.02.013c-12.398 1.833-20.232.855-24.488-1.334-4.552-2.341-6.285-5.762-7.142-11.367-1.394-9.119 1.47-22.474 1.564-35.22zm96.323 10.04c.219 10.494 2.258 21.204 1.207 28.486-.672 4.651-1.979 7.276-5.282 9.074-3.026 1.648-8.871 2.479-18.295 1.076-4.71-9.8-6.282-16.734-5.976-21.043.33-4.66 2.074-6.828 5.45-9.07 3.374-2.242 8.513-3.945 14.067-5.643 2.889-.882 5.883-1.777 8.829-2.88zM40 95h80v15H40V95zm10.83 25h58.34l-6.234 30H57.064l-6.234-30z"/></svg>