<svg xmlns="http://www.w3.org/2000/svg" viewBox="0 0 160 160"><path d="M154.813 79.938a5 5 0 0 0-3.75 1.968L99.53 147.47l-31-31a5 5 0 1 0-7.062 7.062l35 35a5 5 0 0 0 7.469-.437l55-70a5 5 0 0 0-4.125-8.156zM60.344 0C52.1 0 45.41 6.697 45.41 14.918v25.125H14.512C6.265 40.043-.07 46.704 0 54.96l.141 20.092c.07 8.257 6.3 14.954 14.547 14.954h7.007C24.528 95.89 30.544 100 37.446 100c6.795 0 12.706-3.969 15.573-9.674h23.784C79.705 96.031 85.615 100 92.41 100c6.901 0 12.918-4.11 15.75-9.993h6.583c8.246 0 17.059-6.98 14.935-14.954L112.726 14.92C110.567 6.98 106.037 0 97.791 0zm-.495 9.957H97.79c2.76 0 4.247 2.304 4.955 4.962l6.972 25.124H55.39V14.919c0-2.552 1.947-4.713 4.46-4.962zM14.936 50h97.436l7.362 25.053c.708 2.658-2.23 4.961-4.99 4.961h-5.062c-1.203-8.434-8.53-15.025-17.271-15.025-8.848 0-16.21 6.698-17.343 15.238h-20.28c-1.132-8.54-8.494-15.238-17.342-15.238-8.742 0-16.068 6.591-17.272 15.025h-5.06a4.927 4.927 0 0 1-4.956-4.96L9.981 54.96c0-2.729 2.23-4.961 4.955-4.961zm22.51 24.982c4.212 0 7.503 3.331 7.503 7.513 0 4.217-3.291 7.512-7.503 7.512-4.176 0-7.468-3.295-7.468-7.512 0-4.182 3.292-7.513 7.468-7.513zm54.965 0c4.176 0 7.468 3.331 7.468 7.513 0 4.217-3.292 7.512-7.468 7.512-4.212 0-7.503-3.295-7.503-7.512 0-4.182 3.291-7.513 7.503-7.513z"/></svg>