<svg xmlns="http://www.w3.org/2000/svg" viewBox="0 0 160 160"><path d="M79.906 30c-10.298 0-20.567.816-29.25 2.531-8.683 1.715-15.84 3.823-20.343 8.938-2.605 2.958-6.524 8.734-10.157 14.562H7.875c-4.673 0-7.875 4.06-7.875 8.25v6.563c0 2.042.578 3.8 1.688 5.406 1.11 1.605 3.044 3.308 5.843 3.469l1.813.094c-4.958 16.849-8.262 38.305-3.188 56.593V148.5c0 2.171.19 4.131.688 5.938.249.903.548 1.753 1.218 2.78.671 1.029 2.182 2.782 4.876 2.782h14.687c2.693 0 4.204-1.753 4.875-2.781.67-1.028.97-1.878 1.219-2.781.498-1.807.687-3.767.687-5.938v-4.875c12.793 1.276 28.78 2.531 45.5 2.531 16.577 0 32.683-1.233 45.5-2.5v4.844c0 2.174.222 4.135.719 5.938.248.9.523 1.757 1.188 2.78.664 1.025 2.155 2.782 4.874 2.782h14.688c2.706 0 4.208-1.755 4.875-2.781.667-1.027.97-1.91 1.219-2.813.496-1.804.687-3.735.687-5.906v-12.219c4.977-18.116 1.565-39.284-3.531-56.156l2.875-.469c.084-.018.167-.04.25-.062 4.469-.974 6.75-4.615 6.75-8.75v-6.531-.032c.01-4.197-3.182-8.25-7.844-8.25H139.25c-.662-1.1-1.336-2.207-2-3.281-2.908-4.704-5.51-8.737-7.75-11.281-4.504-5.115-11.66-7.223-20.344-8.938C100.473 30.816 90.204 30 79.906 30zm0 10c9.757 0 19.522.805 27.313 2.344 7.79 1.539 13.555 4.326 14.781 5.718 1.054 1.198 3.912 5.4 6.719 9.938a343.082 343.082 0 0 1 7.656 13.031c.48 1.213.964 2.492 1.438 3.813-16.134-.482-42.81-1.875-63.22-1.875-19.613 0-40.98 1.285-53.093 1.812.41-1.173.834-2.324 1.25-3.406 3.793-7.017 12.849-20.798 15.063-23.313 1.226-1.392 6.99-4.18 14.78-5.718C60.386 40.804 70.15 40 79.907 40zm-5.312 42.969c21.479 0 50.358 1.61 66.406 1.969 4.406 15.803 7.068 35.137 2.844 49.53a5 5 0 0 0-.188 1.407V148.5c0 .653-.098.96-.156 1.5h-7.938c-.058-.54-.156-.848-.156-1.5v-10.281a5 5 0 0 0-5.531-4.969c-13.013 1.405-31.725 2.906-49.969 2.906-18.407 0-36.914-1.524-49.969-2.937a5 5 0 0 0-5.53 4.969V148.5c0 .653-.099.96-.157 1.5h-7.938c-.058-.54-.156-.847-.156-1.5v-12.625a5 5 0 0 0-.218-1.406c-4.247-14.464-1.739-33.872 2.468-49.563 11.772-.392 35.036-1.937 56.188-1.937zM40 91.406c-8.804 0-15.375 7.922-15.375 16.813C24.625 117.107 31.193 125 40 125s15.375-7.893 15.375-16.781c0-8.891-6.57-16.813-15.375-16.813zm80 0c-8.804 0-15.375 7.922-15.375 16.813 0 8.888 6.568 16.781 15.375 16.781s15.375-7.893 15.375-16.781c0-8.891-6.57-16.813-15.375-16.813zm-80 10c2.656 0 5.375 2.688 5.375 6.813 0 4.128-2.71 6.781-5.375 6.781s-5.375-2.653-5.375-6.781c0-4.125 2.72-6.813 5.375-6.813zm80 0c2.656 0 5.375 2.688 5.375 6.813 0 4.128-2.71 6.781-5.375 6.781s-5.375-2.653-5.375-6.781c0-4.125 2.72-6.813 5.375-6.813z"/></svg>