<svg xmlns="http://www.w3.org/2000/svg" viewBox="0 0 160 160"><path d="M47.594 0C43.384 0 40 2.947 40 7.156v45.219C40 56.581 43.407 60 47.594 60H75v30H20c-2.618 0-5 2.382-5 5v30H7.594C3.384 125 0 127.947 0 132.156v20.219C0 156.581 3.407 160 7.594 160h22.718C34.5 160 40 156.584 40 152.375v-20.219c0-4.206-5.5-7.156-9.688-7.156H25v-25h50v25h-7.406c-4.21 0-7.594 2.947-7.594 7.156v20.219c0 4.206 3.407 7.625 7.594 7.625h22.719c4.186 0 9.687-3.416 9.687-7.625v-20.219c0-4.206-5.5-7.156-9.688-7.156H85v-25h50v25h-7.406c-4.21 0-7.594 2.947-7.594 7.156v20.219c0 4.206 3.407 7.625 7.594 7.625h22.719c4.186 0 9.687-3.416 9.687-7.625v-20.219c0-4.206-5.5-7.156-9.688-7.156H145V95c0-2.618-2.382-5-5-5H85V60h25.313c4.186 0 9.687-3.416 9.687-7.625V7.156C120 2.95 114.5 0 110.312 0zM50 10h60.313v40H50zM10 135h20.313v15H10zm60 0h20.313v15H70zm60 0h20.313v15H130z"/></svg>