<svg xmlns="http://www.w3.org/2000/svg" viewBox="0 0 160 160"><path d="M 129.92578 -0.001953125 C 127.6963 0.031789315 123.38941 1.8642506 123.41992 4.09375 L 125.35547 24.835938 L 106.22852 16.587891 C 104.07219 15.854487 100.95614 19.446496 100.28516 21.623047 C 99.6283 23.753815 100.04205 28.418187 102.17188 29.078125 L 122.50195 33.648438 L 108.73438 49.302734 C 107.3705 51.126889 109.82675 55.200995 111.68945 56.511719 C 113.51296 57.794862 118.07359 58.843124 119.35938 57.021484 L 130 39.080078 L 140.64062 57.021484 C 141.92641 58.843124 146.48898 57.794862 148.3125 56.511719 C 150.17519 55.200995 152.62949 51.126889 151.26562 49.302734 L 137.5 33.648438 L 157.83008 29.078125 C 159.9599 28.418187 160.36975 23.753815 159.71289 21.623047 C 159.04191 19.446496 155.92781 15.854487 153.77148 16.587891 L 134.61719 24.847656 L 136.55273 4.09375 C 136.58393 1.8163343 132.20317 -0.036412885 129.92578 -0.001953125 z M 47.5 14.949219 C 21.325698 14.949219 0 36.274916 0 62.449219 C 0 88.623521 21.325698 109.94922 47.5 109.94922 C 58.791864 109.94922 69.175751 105.97446 77.339844 99.359375 L 136.46484 158.48438 C 141.17739 163.3921 148.44289 156.12661 143.53516 151.41406 L 84.410156 92.289062 C 91.025238 84.124971 95 73.741082 95 62.449219 C 95 36.274916 73.674302 14.949219 47.5 14.949219 z M 47.5 24.949219 C 68.269901 24.949219 85 41.679317 85 62.449219 C 85 83.21912 68.269901 99.949219 47.5 99.949219 C 26.730099 99.949219 10 83.21912 10 62.449219 C 10 41.679317 26.730099 24.949219 47.5 24.949219 z"/></svg>