<svg xmlns="http://www.w3.org/2000/svg" viewBox="0 0 160 160"><path d="M88.342.005a5.015 4.987 0 0 0-3.879 8.4l5.442 5.921c-40.832-3.464-76.819 26.349-78.46 66.435-.452 6.806 9.916 7.223 10.02.403C22.95 44.866 56.885 18.31 94.972 25.028l.039.004L83.04 36.589a5.016 4.988 0 0 0 6.991 7.154L107.993 26.4a5.015 4.987 0 0 0 .208-6.942L91.87 1.674A5.015 4.987 0 0 0 88.84.052a5.015 4.987 0 0 0-.5-.047zm38.913 24.438c-4.514-.116-7.252 6.226-2.781 9.187 29.873 20.402 34.594 62.583 9.303 91.068-.013.009-.023.02-.036.029l-2.912-14.268a5.015 4.987 0 0 0-5.007-4.062 5.015 4.987 0 0 0-4.825 6.048l4.985 24.402a5.015 4.987 0 0 0 5.76 3.92l23.869-4.064a5.015 4.987 0 1 0-1.693-9.83l-10.396 1.771c.026-.027.053-.05.079-.078 26.26-32.608 20.41-80.034-13.446-103.157a5.041 5.041 0 0 0-.872-.492 5.36 5.36 0 0 0-2.027-.474zM15.45 95.88a5.015 4.987 0 0 0-4.59 2.85L.485 120.485a5.016 4.988 0 1 0 9.065 4.272l4.33-9.081c16.408 37.939 60.584 55.259 96.975 37.05 5.974-2.99 1.463-11.899-4.51-8.909-32.022 16.021-70.959.332-84.299-34.62l14.283 6.206a5.015 4.987 0 1 0 4.017-9.137h-.002l-22.946-9.972a5.015 4.987 0 0 0-1.95-.416z"/></svg>