<svg xmlns="http://www.w3.org/2000/svg" viewBox="0 0 160 160"><path d="M31 0a6 6 0 0 0-6 6v38a6 6 0 0 0 6 6h102a6 6 0 0 0 6-6V6a6 6 0 0 0-6-6H31zm4 10h94v30H35V10zm11 9a5 5 0 0 0 0 10h32a5 5 0 0 0 0-10H46zm72 0a5 5 0 1 0 0 10 5 5 0 0 0 0-10zM31 54a6 6 0 0 0-6 6v39a6 6 0 0 0 6 6h102a6 6 0 0 0 6-6V60a6 6 0 0 0-6-6H31zm4 10h94v31H35V64zm11 11a5 5 0 0 0 0 10h31a5 5 0 0 0 0-10H46zm56 0a5 5 0 1 0 0 10 5 5 0 0 0 0-10zm16 0a5 5 0 1 0 0 10 5 5 0 0 0 0-10zm-85 34a8 8 0 0 0-8 8v35a8 8 0 0 0 8 8h98a8 8 0 0 0 8-8v-35a8 8 0 0 0-8-8H33zm2 10h94v31H35v-31zm11 11a5 5 0 0 0 0 10h31a5 5 0 0 0 0-10H46zm56 0a5 5 0 1 0 0 10 5 5 0 0 0 0-10zm16 0a5 5 0 1 0 .001 10.001A5 5 0 0 0 118 130z"/></svg>