<svg xmlns="http://www.w3.org/2000/svg" viewBox="0 0 160 160"><path d="M 119.95703 0 A 20 20 0 0 0 100 20.029297 A 20 20 0 0 0 100.83398 25.667969 L 34.017578 65.757812 A 20 20 0 0 0 19.957031 60 A 20 20 0 0 0 0 80.029297 A 20 20 0 0 0 20.013672 100 A 20 20 0 0 0 34.027344 94.246094 L 100.83008 134.32812 A 20 20 0 0 0 100 140.0293 A 20 20 0 0 0 120.01367 160 A 20 20 0 0 0 140 140 L 140 139.94336 A 20 20 0 0 0 119.95703 120 A 20 20 0 0 0 105.97266 125.75195 L 39.167969 85.669922 A 20 20 0 0 0 40 80 L 40 79.943359 A 20 20 0 0 0 39.166016 74.330078 L 105.98047 34.242188 A 20 20 0 0 0 120.01367 40 A 20 20 0 0 0 140 20 L 140 19.943359 A 20 20 0 0 0 119.95703 0 z "/></svg>
