<svg xmlns="http://www.w3.org/2000/svg" width="160" height="160"><path d="M20 80a5 5 0 0 0-5 5 5 5 0 0 0 5 5h95a5 5 0 0 0 5-5 5 5 0 0 0-5-5zm20 50a10 10 0 0 1-10 10 10 10 0 0 1-10-10 10 10 0 0 1 10-10 10 10 0 0 1 10 10zM23.842.136a5 5 0 0 0-1.463 9.121L150 87.794V100H5a5 5 0 0 0-5 5v35c0 5.405 2.72 10.095 6.313 13.688 3.592 3.593 8.283 6.312 13.687 6.312h135a5 5 0 0 0 5-5V85a5 5 0 0 0-2.379-4.257l-130-80a5 5 0 0 0-3.78-.606zM10 110h140v40H20c-1.667 0-4.476-1.245-6.615-3.384-2.14-2.14-3.385-4.949-3.385-6.616z"/></svg>