<svg xmlns="http://www.w3.org/2000/svg" viewBox="0 0 160 160"><path d="M84.922 20.031V60H75V32.782c-1.302.99-2.562 1.79-3.78 2.403-1.217.612-2.743 1.198-4.58 1.758v-9.236c2.709-.872 4.812-1.92 6.31-3.144a12.828 12.828 0 0 0 3.515-4.532zM80 0C57.968 0 40 17.968 40 40s17.968 40 40 40 40-17.968 40-40S102.032 0 80 0zm0 10c16.628 0 30 13.372 30 30S96.628 70 80 70 50 56.628 50 40s13.372-30 30-30zm44.383 80H35.617a4.545 4.545 0 0 0-4.544 4.544c0 2.508 2.036 5.456 4.544 5.456h88.766c2.508 0 4.544-2.948 4.544-5.456A4.545 4.545 0 0 0 124.383 90zM0 78.202v68.131C0 153.863 6.997 160 14.526 160h130.86c7.528 0 14.614-6.138 14.614-13.667v-68.13c0-7.53-7.086-13.142-14.615-13.142l-15.398-.063L130 75l15.439.016c2.454.058 4.561 2.076 4.561 4.584v65.785c0 2.508-2.107 4.615-4.615 4.615H14.525c-2.507 0-4.525-2.107-4.525-4.615V79.6c0-2.508 2.019-4.45 4.526-4.526L30 75l.054-9.844-15.491.053C6.997 65.061 0 70.673 0 78.202z"/></svg>