<svg xmlns="http://www.w3.org/2000/svg" viewBox="0 0 160 160"><path d="M47.584.076C33.683-.567 21.156 3.146 12.15 12.152-2.055 26.36-3.043 49.317 5.418 72.44c-.23 2.433-.416 4.947-.416 7.561 0 41.36 33.634 74.998 74.992 74.998 2.578 0 5.074-.18 7.516-.402 23.184 8.444 46.131 7.451 60.33-6.748 14.238-14.24 15.194-37.265 6.73-60.569.238-2.403.418-4.823.418-7.279 0-41.36-33.636-74.998-74.994-74.998-2.53 0-4.998.169-7.459.379C64.035 2.307 55.581.446 47.584.076zm-.18 9.99c7.008.353 14.677 2.024 22.719 5.034a5 5 0 0 0 2.229.295c2.581-.247 5.107-.393 7.642-.393 35.954 0 64.994 29.042 64.994 64.998a63.55 63.55 0 0 1-.422 7.357 5 5 0 0 0 .288 2.338c8.071 21.473 6.615 40.38-4.086 51.082-10.672 10.673-29.495 12.149-50.83 4.104a5 5 0 0 0-2.282-.295 74.451 74.451 0 0 1-7.662.412c-35.953 0-64.992-29.042-64.992-64.998 0-2.636.159-5.259.424-7.682a5 5 0 0 0-.295-2.316c-8.056-21.26-6.587-40.1 4.092-50.78 6.663-6.663 16.503-9.743 28.181-9.156zM80 40c-8.071 0-15.221 1.283-20.84 4.918C53.541 48.553 50 54.972 50 62.5c0 7.528 3.541 13.947 9.16 17.582C64.78 83.717 71.93 85 80 85c6.929 0 12.279 1.289 15.41 3.314C98.541 90.34 100 92.67 100 97.5c0 4.831-1.459 7.16-4.59 9.186C92.28 108.71 86.93 110 80 110c-6.944 0-12.302-1.262-15.422-3.268C61.458 104.727 60 102.417 60 97.5a5 5 0 1 0-10 0c0 7.583 3.542 14.023 9.172 17.643C64.802 118.762 71.944 120 80 120c8.071 0 15.221-1.283 20.84-4.918 5.619-3.635 9.16-10.054 9.16-17.582 0-7.528-3.541-13.947-9.16-17.582C95.22 76.283 88.07 75 80 75c-6.929 0-12.279-1.289-15.41-3.314C61.459 69.66 60 67.33 60 62.5c0-4.831 1.459-7.16 4.59-9.186C67.72 51.29 73.07 50 80 50c6.944 0 12.302 1.262 15.422 3.268C98.542 55.273 100 57.583 100 62.5a5 5 0 1 0 10 0c0-7.583-3.542-14.023-9.172-17.643C95.198 41.238 88.056 40 80 40z"/></svg>