<svg xmlns="http://www.w3.org/2000/svg" viewBox="0 0 160 160"><path d="M27.072 160c-6.771 0-13.273-2.803-18.455-7.99-11.489-11.526-11.489-30.273-.002-41.792L98.2 15.086c13.978-14 35.388-12.742 51.013 2.902 7.002 7.014 10.93 17.125 10.783 27.753-.147 10.516-4.256 20.58-11.277 27.613l-67.706 72.08a4.977 4.977 0 0 1-7.056.217 5.011 5.011 0 0 1-.212-7.074l67.808-72.189c5.304-5.314 8.347-12.852 8.46-20.786.111-7.94-2.757-15.426-7.858-20.54-9.585-9.604-25.19-14.634-36.791-3.005L15.78 117.189c-7.703 7.722-7.7 20.125-.1 27.745 3.564 3.567 7.795 5.304 12.3 5.032 4.458-.272 9.04-2.558 12.904-6.432l71.28-75.868c2.584-2.588 7.775-8.933 2.491-14.23-2.992-2.997-5.094-2.813-5.785-2.755-1.975.175-4.28 1.54-6.675 3.941l-53.65 57.06c-1.895 2.015-5.058 2.112-7.057.213a5.005 5.005 0 0 1-.212-7.069l53.749-57.168c4.225-4.245 8.546-6.547 12.944-6.941 3.432-.305 8.536.427 13.743 5.648 7.727 7.743 6.766 19.1-2.384 28.27l-71.28 75.863c-5.691 5.71-12.563 9.028-19.457 9.452-.506.035-1.013.05-1.52.05z"/></svg>