<svg xmlns="http://www.w3.org/2000/svg" viewBox="0 0 160 160">
<path d="M59.0008 150C61.7619 150.001 64.0006 152.239 64.0008 155C64.0003 157.761 61.7617 160 59.0008 160C56.24 160 54.0013 157.761 54.0008 155C54.001 152.239 56.2399 150.001 59.0008 150ZM90.0007 150C92.7618 150.001 95.0005 152.239 95.0007 155C95.0002 157.761 92.7617 160 90.0007 160C87.24 160 85.0012 157.761 85.0008 155C85.001 152.239 87.2398 150.001 90.0007 150ZM120.001 150C122.762 150.001 125 152.239 125.001 155C125 157.761 122.762 160 120.001 160C117.24 160 115.001 157.761 115.001 155C115.001 152.239 117.24 150.001 120.001 150ZM37.8426 0.137059C40.5287 -0.502307 43.2253 1.15619 43.8651 3.84214L54.4363 48.2454C63.3426 47.2257 71.082 47.6972 77.7615 49.9115C85.6046 52.5119 91.6027 57.3891 96.1609 64.2259C97.6921 66.5234 97.0713 69.6278 94.7742 71.1595C92.4769 72.6906 89.3725 72.0704 87.8406 69.7738C84.3992 64.6121 80.1459 61.2375 74.615 59.4037C69.9577 57.8597 64.1406 57.326 56.7713 58.0531L62.95 84.0003H119.001L119.258 84.0072C121.899 84.1411 124 86.3254 124.001 89.0003C124 91.6751 121.899 93.8596 119.258 93.9935L119.001 94.0003H95.0007V117.71L122.51 133.676L122.729 133.811C124.947 135.253 125.667 138.197 124.325 140.51C122.982 142.823 120.068 143.658 117.717 142.449L117.491 142.325L95.0007 129.272V140L94.9939 140.257C94.8598 142.899 92.6755 145 90.0007 145C87.3261 145 85.1417 142.899 85.0076 140.257L85.0008 140V128.223L61.574 142.287C59.2068 143.708 56.135 142.94 54.7137 140.574C53.2931 138.206 54.0608 135.135 56.4275 133.713L85.0008 116.559V94.0003H59.0066C58.9331 94.0005 58.859 93.9976 58.7859 93.9945C58.767 93.9937 58.7472 93.9935 58.7283 93.9925C58.6652 93.9891 58.6016 93.9837 58.5389 93.9779C58.5209 93.9762 58.5021 93.9758 58.4842 93.974C58.239 93.9485 57.9965 93.9057 57.7606 93.8451C57.3891 93.7502 57.0339 93.6126 56.701 93.4398C56.6931 93.4357 56.6844 93.4312 56.6766 93.4271C56.6181 93.3963 56.5599 93.3634 56.5027 93.3304C56.4939 93.3253 56.4842 93.3199 56.4754 93.3148C56.4153 93.2795 56.3551 93.2431 56.2967 93.2054C56.2904 93.2014 56.2834 93.1968 56.2772 93.1927C56.2238 93.1579 56.1709 93.1211 56.119 93.0843C56.1024 93.0726 56.0846 93.0611 56.0682 93.0492C56.0341 93.0245 56 92.9985 55.9666 92.973C55.9237 92.9403 55.8805 92.9065 55.8387 92.8724C55.8271 92.8629 55.815 92.8527 55.8035 92.8431C55.7542 92.8021 55.7048 92.76 55.657 92.7171C55.6444 92.7057 55.6315 92.6935 55.619 92.682C55.5779 92.6444 55.5367 92.6058 55.4969 92.5667C55.4774 92.5476 55.4575 92.5276 55.4383 92.5081C55.4023 92.4716 55.3668 92.4335 55.3318 92.3958C55.314 92.3766 55.2957 92.3568 55.2781 92.3372C55.1329 92.1755 54.9978 92.0029 54.8738 91.8216C54.8638 91.807 54.8525 91.7924 54.8426 91.7777C54.8107 91.7299 54.7801 91.6802 54.7498 91.6312C54.742 91.6186 54.7331 91.6058 54.7254 91.5931L54.6815 91.5199C54.6692 91.4988 54.6573 91.4767 54.6453 91.4554C54.625 91.4194 54.6043 91.3826 54.5848 91.346C54.5673 91.313 54.5498 91.279 54.533 91.2455C54.511 91.2018 54.4893 91.157 54.4686 91.1126C54.4592 91.0926 54.4503 91.0714 54.4412 91.0511C54.3507 90.85 54.2725 90.6413 54.2088 90.4271C54.207 90.4209 54.2048 90.4138 54.2029 90.4076L54.1942 90.3744C54.1739 90.3033 54.1547 90.2309 54.1375 90.1585L34.1375 6.15854C33.4981 3.47262 35.157 0.777091 37.8426 0.137059Z" fill="black"/>
</svg>
