<svg xmlns="http://www.w3.org/2000/svg" viewBox="0 0 160 160">
<path d="M25.0003 150C27.7613 150.001 30.0001 152.239 30.0003 155C30.0001 157.749 27.7813 159.979 25.0375 159.999H24.9632C22.2191 159.979 20.0006 157.749 20.0004 155C20.0006 152.239 22.2392 150.001 25.0003 150ZM56.0003 150C58.7613 150.001 61.0001 152.239 61.0003 155C61.0001 157.749 58.7813 159.979 56.0374 159.999H55.9632C53.2191 159.979 51.0006 157.749 51.0003 155C51.0005 152.239 53.2392 150.001 56.0003 150ZM86.0003 150C88.7613 150.001 91.0001 152.239 91.0003 155C91 157.749 88.7813 159.979 86.0374 159.999H85.9632C83.219 159.979 81.0006 157.749 81.0003 155C81.0005 152.239 83.2392 150.001 86.0003 150ZM154.955 44.9964C155.128 44.9964 155.3 45.0056 155.468 45.0228C157.997 45.2575 159.978 47.3744 159.999 49.9593V50.0276C159.998 50.2445 159.983 50.4588 159.955 50.6683V154.996L159.949 155.253C159.815 157.895 157.63 159.996 154.955 159.996C152.28 159.996 150.096 157.895 149.962 155.253L149.955 154.996V55.0003H117V155L116.993 155.257C116.86 157.885 114.697 159.978 112.041 159.999H111.958C109.302 159.977 107.14 157.885 107.007 155.257L107 155V55.0003H92.0003C89.2392 55.0001 87.0006 52.7614 87.0003 50.0003C87.0005 47.2392 89.2392 45.0005 92.0003 45.0003H154.808C154.857 44.9989 154.906 44.9964 154.955 44.9964ZM3.84216 0.137001C6.52814 -0.502196 9.22485 1.15622 9.86462 3.84208L20.4359 48.2454C29.3422 47.2257 37.0816 47.6971 43.7611 49.9114C51.604 52.5119 57.6023 57.3891 62.1605 64.2259C63.6916 66.5233 63.0708 69.6277 60.7738 71.1595C58.4765 72.691 55.3722 72.0705 53.8402 69.7737C50.3988 64.6121 46.1454 61.2375 40.6146 59.4036C35.9573 57.8596 30.1402 57.326 22.7709 58.053L28.9496 84.0003H85.0003L85.2571 84.0071C87.8987 84.1412 90.0001 86.3255 90.0003 89.0003C90 91.6751 87.8987 93.8594 85.2571 93.9935L85.0003 94.0003H61.0003V117.71L88.5101 133.676L88.7288 133.811C90.9461 135.253 91.667 138.197 90.3245 140.51C88.9818 142.823 86.0681 143.658 83.7161 142.449L83.4905 142.325L61.0003 129.272V140L60.9935 140.257C60.8596 142.899 58.6751 145 56.0003 145C53.3254 145 51.1411 142.899 51.0072 140.257L51.0003 140V128.223L27.5736 142.287C25.2063 143.708 22.1347 142.94 20.7132 140.574C19.2926 138.206 20.0599 135.134 22.4271 133.713L51.0003 116.559V94.0003H25.0062C24.9326 94.0004 24.8586 93.9976 24.7855 93.9944C24.7665 93.9936 24.7468 93.9935 24.7279 93.9925C24.6647 93.9891 24.6012 93.9837 24.5384 93.9778C24.5205 93.9762 24.5017 93.9757 24.4837 93.9739C24.2385 93.9485 23.9961 93.9056 23.7601 93.845C23.3886 93.7502 23.0335 93.6126 22.7005 93.4398C22.6927 93.4357 22.684 93.4312 22.6761 93.4271C22.6176 93.3963 22.5594 93.3634 22.5023 93.3304C22.4935 93.3253 22.4838 93.3199 22.475 93.3148C22.4149 93.2795 22.3547 93.243 22.2963 93.2054C22.29 93.2013 22.283 93.1968 22.2767 93.1927C22.2233 93.1579 22.1705 93.121 22.1185 93.0843C22.1019 93.0726 22.0842 93.061 22.0677 93.0491C22.0337 93.0244 21.9996 92.9985 21.9662 92.973C21.9233 92.9402 21.8801 92.9065 21.8382 92.8724C21.8267 92.8629 21.8146 92.8527 21.8031 92.8431C21.7538 92.8021 21.7044 92.76 21.6566 92.7171C21.644 92.7057 21.631 92.6935 21.6185 92.6819C21.5775 92.6443 21.5362 92.6057 21.4964 92.5667C21.4769 92.5475 21.457 92.5276 21.4379 92.5081C21.4019 92.4716 21.3663 92.4335 21.3314 92.3958C21.3136 92.3766 21.2952 92.3567 21.2777 92.3372C21.1325 92.1755 20.9973 92.0028 20.8734 91.8216C20.8634 91.807 20.852 91.7923 20.8421 91.7776C20.8102 91.7299 20.7797 91.6802 20.7494 91.6312C20.7416 91.6186 20.7327 91.6057 20.725 91.5931L20.681 91.5198C20.6688 91.4988 20.6568 91.4766 20.6449 91.4554C20.6245 91.4193 20.6038 91.3826 20.5843 91.346C20.5668 91.313 20.5494 91.279 20.5326 91.2454C20.5106 91.2017 20.4889 91.157 20.4681 91.1126C20.4588 91.0925 20.4499 91.0714 20.4408 91.0511C20.3502 90.8499 20.2721 90.6413 20.2084 90.4271C20.2065 90.4208 20.2043 90.4138 20.2025 90.4075L20.1937 90.3743C20.1734 90.3032 20.1543 90.2309 20.1371 90.1585L0.137084 6.15849C-0.502358 3.47239 1.15621 0.776821 3.84216 0.137001Z" fill="black"/>
</svg>
