<svg xmlns="http://www.w3.org/2000/svg" viewBox="0 0 160 160"><path d="m 55.009479,37.195035 c -0.120541,-4.5e-4 -0.241058,0.0035 -0.361316,0.01172 -2.631569,0.179258 -4.671249,2.371999 -4.659999,5.009693 l 0.08789,75.789922 c 0.0041,3.86267 4.19994,6.26205 7.530994,4.30657 L 122.46813,84.403335 c 3.27956,-1.934467 3.27956,-6.678689 0,-8.613156 L 57.519158,37.880572 c -0.76141,-0.445975 -1.627284,-0.682494 -2.509679,-0.685537 z M 60.00931,50.917493 110.04668,80.096756 60.097196,109.27602 Z M 114.99797,125 c -2.76137,0 -4.99991,2.23858 -4.99991,5 0,2.76142 2.23854,5 4.99991,5 h 39.9993 c 2.76137,0 4.99991,-2.23858 4.99991,-5 0,-2.76142 -2.23854,-5 -4.99991,-5 z m 0,20 c -2.76137,0 -4.99991,2.23858 -4.99991,5 0,2.76142 2.23854,5 4.99991,5 h 39.9993 c 2.76137,0 4.99991,-2.23858 4.99991,-5 0,-2.76142 -2.23854,-5 -4.99991,-5 z m 0,-40 c -2.76137,0 -4.99991,2.23858 -4.99991,5 0,2.76142 2.23854,5 4.99991,5 h 39.9993 c 2.76137,0 4.99991,-2.23858 4.99991,-5 0,-2.76142 -2.23854,-5 -4.99991,-5 z M 77.384307,0.0488286 C 56.680096,0.7337537 36.502306,9.4385675 21.660887,25.250275 -2.0853828,50.549006 -6.8112819,88.330241 9.9720936,118.69856 c 16.7833744,30.36831 51.2879274,46.46823 85.3428424,39.82269 2.709986,-0.52917 4.477975,-3.15509 3.948997,-5.86529 -0.529132,-2.71017 -3.154887,-4.47828 -5.864904,-3.94926 C 63.563816,154.52878 33.427018,140.46548 18.723553,113.86062 4.0200893,87.255748 8.1478846,54.259738 28.951492,32.096052 49.7551,9.9323664 82.427897,3.7256137 109.90982,16.716979 c 27.48192,12.991365 43.42114,42.175986 39.49778,72.319146 -0.35641,2.738238 1.57422,5.246991 4.31225,5.603577 2.73805,0.356418 5.24663,-1.574333 5.60319,-4.312547 C 163.80143,55.919813 145.55194,22.504707 114.18301,7.6758647 102.41968,2.115049 89.806834,-0.36212646 77.384307,0.0488286 Z"/></svg>