<svg xmlns="http://www.w3.org/2000/svg" viewBox="0 0 160 160"><path d="M79.902.089c-44.124 0-80.01 35.886-80.01 80.01 0 44.123 35.886 80.01 80.01 80.01 44.123 0 80.01-35.887 80.01-80.01 0-44.124-35.887-80.01-80.01-80.01zm0 10.02c38.719 0 69.99 31.27 69.99 69.99 0 38.719-31.271 69.99-69.99 69.99-38.72 0-69.99-31.271-69.99-69.99 0-38.72 31.27-69.99 69.99-69.99zM54.648 37.207a5 5 0 0 0-4.659 5.01l.088 75.79a5 5 0 0 0 7.53 4.307l64.863-37.91a5 5 0 0 0 0-8.613l-64.951-37.91a5 5 0 0 0-2.871-.674zm5.361 13.71l50.039 29.18-49.951 29.18-.088-58.36z"/></svg>