<svg xmlns="http://www.w3.org/2000/svg" viewBox="0 0 160 160"><path d="m 44.999308,74.998847 a 4.9999169,4.9999169 0 0 0 -4.997464,4.997464 4.9999169,4.9999169 0 0 0 4.997464,5.004842 h 70.001382 a 4.9999169,4.9999169 0 0 0 4.99747,-5.004842 4.9999169,4.9999169 0 0 0 -4.99747,-4.997464 z M 79.996311,0 C 35.873428,0 0,35.873431 0,79.996311 0,124.11919 35.873428,160 79.996311,160 124.11919,160 160,124.11919 160,79.996311 160,35.873431 124.11919,0 79.996311,0 Z m 0,10.002307 c 38.718539,0 70.001379,31.275467 70.001379,69.994004 0,38.718539 -31.28284,70.001379 -70.001379,70.001379 -38.718544,0 -69.994004,-31.28284 -69.994004,-70.001379 0,-38.718537 31.27546,-69.994004 69.994004,-69.994004 z"/></svg>