<svg xmlns="http://www.w3.org/2000/svg" viewBox="0 0 160 160"><path d="M156.41 110.151l-14.048-6.905-10.706 5.774 11.712 5.718-64.171 34.58-63.425-34.537 12.385-5.602-10.676-5.816-14.727 6.778A5 5 0 0 0 0 114.523a5.001 5.001 0 0 0 2.605 4.47L76.79 159.39a4.995 4.995 0 0 0 4.762.01l74.963-40.397a4.997 4.997 0 0 0-.105-8.851zm0-34.976l-14.83-7.53-10.706 5.774 12.492 6.343-64.17 34.579-63.424-34.537 13.321-6.695-10.675-5.816-15.664 7.87A5 5 0 0 0 0 79.545a5.001 5.001 0 0 0 2.605 4.47l74.183 40.397a4.994 4.994 0 0 0 4.762.01l74.963-40.398a4.996 4.996 0 0 0-.105-8.849zM80.805 10.84l63.42 32.208-64.172 34.581-63.422-34.536 64.174-32.253zM3.466 47.3L77.648 87.7a4.994 4.994 0 0 0 4.762.01l74.964-40.398A4.988 4.988 0 0 0 160 42.857a5.01 5.01 0 0 0-2.734-4.397L83.08.786a5.011 5.011 0 0 0-4.51-.01L3.614 38.45A5 5 0 0 0 .86 42.832a5.001 5.001 0 0 0 2.606 4.47z"/></svg>