<svg xmlns="http://www.w3.org/2000/svg" viewBox="0 0 160 160"><path d="M20 0C9.014 0 0 9.014 0 20c0 9.247 6.427 17.028 15 19.281V140a5 5 0 0 0 5 5h40.719c2.253 8.573 10.034 15 19.281 15 10.986 0 20-9.014 20-20s-9.014-20-20-20c-9.247 0-17.028 6.427-19.281 15H25V65h35.719A20.098 20.098 0 0 0 75 79.281V100a5 5 0 0 0 5 5h40.719c2.253 8.573 10.034 15 19.281 15 10.986 0 20-9.014 20-20s-9.014-20-20-20c-9.247 0-17.028 6.427-19.281 15H85V79.281c8.573-2.253 15-10.034 15-19.281 0-10.986-9.014-20-20-20-9.247 0-17.028 6.427-19.281 15H25V39.281C33.573 37.028 40 29.247 40 20 40 9.014 30.986 0 20 0zm0 10c5.582 0 10 4.418 10 10s-4.418 10-10 10-10-4.418-10-10 4.418-10 10-10zm60 40c5.582 0 10 4.418 10 10s-4.418 10-10 10-10-4.418-10-10 4.418-10 10-10zm60 40c5.582 0 10 4.418 10 10s-4.418 10-10 10-10-4.418-10-10 4.418-10 10-10zm-60 40c5.582 0 10 4.418 10 10s-4.418 10-10 10-10-4.418-10-10 4.418-10 10-10z"/></svg>