<svg xmlns="http://www.w3.org/2000/svg" viewBox="0 0 26 26"><path d="M12.9877 -0.0113932C12.8639 -0.00946297 12.7422 0.0207342 12.6318 0.0768918C12.5215 0.13305 12.4254 0.213682 12.351 0.312632L9.17562 3.48788C9.09859 3.56297 9.03725 3.6526 8.99513 3.75158C8.95302 3.85056 8.93098 3.95691 8.93029 4.06448C8.9296 4.17204 8.95028 4.27867 8.99112 4.37818C9.03196 4.47769 9.09215 4.5681 9.16821 4.64416C9.24426 4.72023 9.33467 4.78044 9.43417 4.82129C9.53367 4.86215 9.6403 4.88284 9.74786 4.88216C9.85543 4.88149 9.96179 4.85947 10.0608 4.81737C10.1598 4.77527 10.2494 4.71393 10.3245 4.63692L12.1876 2.77386V23.2261L10.3245 21.363C10.2487 21.2851 10.1581 21.2231 10.0579 21.1808C9.95779 21.1384 9.85017 21.1167 9.74144 21.1167C9.57978 21.1168 9.42182 21.1651 9.28776 21.2554C9.1537 21.3458 9.04964 21.474 8.98888 21.6238C8.92813 21.7737 8.91344 21.9382 8.94671 22.0964C8.97997 22.2546 9.05967 22.3993 9.17562 22.5119L12.3544 25.6909C12.4305 25.7905 12.5285 25.8712 12.6408 25.9266C12.7532 25.982 12.8769 26.0107 13.0022 26.0105C13.1275 26.0102 13.251 25.9809 13.3631 25.925C13.4752 25.869 13.5729 25.7879 13.6484 25.688L16.8245 22.5119C16.9021 22.437 16.964 22.3473 17.0066 22.2482C17.0492 22.1491 17.0716 22.0424 17.0725 21.9346C17.0734 21.8267 17.0529 21.7197 17.012 21.6198C16.9712 21.52 16.9109 21.4293 16.8346 21.353C16.7583 21.2767 16.6676 21.2164 16.5677 21.1755C16.4679 21.1346 16.3609 21.1141 16.253 21.115C16.1451 21.116 16.0385 21.1384 15.9394 21.181C15.8402 21.2235 15.7506 21.2854 15.6756 21.363L13.8126 23.2261V2.77386L15.6756 4.63692C15.7506 4.71452 15.8402 4.77642 15.9394 4.819C16.0385 4.86158 16.1451 4.884 16.253 4.88494C16.3609 4.88587 16.4679 4.86532 16.5677 4.82446C16.6676 4.78361 16.7583 4.72328 16.8346 4.64699C16.9109 4.5707 16.9712 4.47999 17.012 4.38013C17.0529 4.28028 17.0734 4.17329 17.0725 4.06541C17.0716 3.95752 17.0492 3.85091 17.0066 3.75178C16.964 3.65265 16.9021 3.563 16.8245 3.48804L13.6457 0.309057C13.5687 0.207878 13.469 0.126176 13.3547 0.0705197C13.2404 0.0148636 13.1147 -0.0131927 12.9875 -0.0113932H12.9877Z"></path></svg>