<svg xmlns="http://www.w3.org/2000/svg" viewBox="0 0 160 160"><path d="M 5,0 A 5.0005,5.0005 0 0 0 1.6542969,8.7167969 L 47.525391,50 1.6542969,91.283203 A 5.0005,5.0005 0 0 0 5,100 l 90,0 a 5.0005,5.0005 0 0 0 5,-5 l 0,-5 A 5.0005,5.0005 0 1 0 90,90 L 18.03125,90 58.345703,53.716797 a 5.0005,5.0005 0 0 0 0,-7.433594 L 18.03125,10 90,10 l 0,5 a 5.0005,5.0005 0 1 0 10,0 L 100,5 A 5.0005,5.0005 0 0 0 95,0 L 5,0 Z M 155.18555,69.945312 A 5.0005,5.0005 0 0 0 151,72 L 94.458984,147.38867 68.535156,121.46484 a 5.0005,5.0005 0 1 0 -7.070312,7.07032 l 30,30 A 5.0005,5.0005 0 0 0 99,158 l 60,-80 a 5.0005,5.0005 0 0 0 -3.81445,-8.054688 z"/></svg>