<svg xmlns="http://www.w3.org/2000/svg" viewBox="0 0 160 160"><path d="M33.062.08C25.054.724 17.481 5.19 13.25 12.663 7.01 23.68 10.21 37.458 20.062 44.822l-.03 5.214H5c-2.618 0-5 2.38-5 4.995v19.982c0 2.616 2.382 4.996 5 4.996v4.995C5 87.62 7.382 90 10 90h50c2.618 0 5-2.38 5-4.995v-4.996c2.618 0 5-2.38 5-4.996V55.031c0-2.615-2.382-4.995-5-4.995H50.03l.063-5.433c2.665-2.042 5.012-4.433 6.656-7.337 6.77-11.955 2.528-27.269-9.438-34.032A24.836 24.836 0 0 0 33.062.08zm.75 9.929a14.95 14.95 0 0 1 8.563 1.904c7.262 4.105 9.796 13.164 5.687 20.42a14.88 14.88 0 0 1-5.5 5.557c-1.486.872-2.458 2.556-2.468 4.278L40 55c-.016 2.626 2.372 5.026 5 5.027h15v9.99H10v-9.99h15c2.607 0 4.983-2.36 5-4.965l.062-12.738c.01-1.765-.995-3.5-2.53-4.371-7.162-4.036-9.703-13.102-5.595-20.357 2.568-4.535 7.084-7.215 11.875-7.587zM35 100l-.176 46.884a4.981 4.981 0 0 0 1.675 3.732C37.584 151.578 47.97 160 79.73 160c31.648 0 42.315-7.96 43.427-8.866a4.985 4.985 0 0 0 1.835-3.87v-43.366c0-.702-.147-1.369-.407-1.973l20.217-10.676v35.056c-2.964 1.734-4.974 4.915-4.974 8.592 0 5.519 4.477 9.993 9.998 9.993 5.521 0 9.998-4.474 9.998-9.993 0-3.7-2.037-6.893-5.024-8.62V85.97l2.514-1.326a4.996 4.996 0 1 0 .092-8.807L82.202 35.615a4.99 4.99 0 0 0-2.136-.608L80 45.703l64.418 34.404-64.722 34.227-26.847-14.25zm79.995 44.4c-3.929 1.89-14.326 5.607-35.264 5.607-21.07 0-31.232-3.958-34.909-5.861v-37.028l32.462 17.274a4.984 4.984 0 0 0 4.687.027l33.024-17.435z"/></svg>