<svg xmlns="http://www.w3.org/2000/svg" viewBox="0 0 160 160"><path d="M154.8 126.263V85.937l2.515-1.327a4.999 4.999 0 1 0 .092-8.81L82.202 35.559a5.014 5.014 0 0 0-4.84.015L2.568 75.864A5.003 5.003 0 0 0 0 80.265a4.992 4.992 0 0 0 2.627 4.368l32.865 17.494a4.953 4.953 0 0 0-.668 2.452v42.3c0 1.425.61 2.787 1.675 3.734C37.584 151.574 47.97 160 79.73 160c31.648 0 42.315-7.963 43.427-8.87a4.988 4.988 0 0 0 1.835-3.872v-43.385a4.99 4.99 0 0 0-.407-1.975l20.217-10.68v35.072c-2.964 1.735-4.974 4.917-4.974 8.596 0 5.521 4.477 9.998 9.998 9.998 5.521 0 9.998-4.477 9.998-9.998 0-3.702-2.037-6.896-5.024-8.623zm-39.805 18.13c-3.929 1.89-14.326 5.61-35.264 5.61-21.07 0-31.232-3.96-34.909-5.864v-37.044l32.462 17.28a4.982 4.982 0 0 0 4.687.028l33.024-17.443v37.434zm-35.299-30.08L15.4 80.171l64.41-34.52 64.61 34.42-64.723 34.242z"/></svg>