<svg xmlns="http://www.w3.org/2000/svg" viewBox="0 0 160 160"><path d="M159.83 86.986l-18.358-58.478c-.6-2.167-2.572-8.506-4.82-8.506H21.774a5.006 5.006 0 0 0-4.834 3.714L.162 83.794c-.31 1.173-.158 2.345.312 3.365-.27.905-.46 1.847-.46 2.84v60.003c0 5.521 4.477 9.998 9.999 9.998H149.99c5.521 0 9.998-4.477 9.998-9.998V89.998c0-.267-.057-.52-.077-.782a4.967 4.967 0 0 0-.083-2.23zM25.62 30h107.228l14.548 50H100.79c-.225 12-8.734 20.26-20.787 20.26-12.053 0-20.407-8.262-20.632-20.26H11.6zm124.37 120.002H10.014V89.998h41.106c4.364 12.566 14.962 20.26 28.883 20.26 13.92 0 24.673-7.694 29.038-20.26h40.95z"/></svg>