<svg xmlns="http://www.w3.org/2000/svg" viewBox="0 0 160 160"><path d="M1.46 151.458l44.075-44.508c-9.438-11.316-15.12-25.908-15.12-41.843C30.416 29.15 59.306 0 95.132 0 130.956 0 160 29.149 160 65.105c0 35.955-29.044 65.104-64.87 65.104-16.353 0-31.25-6.09-42.623-16.11L8.508 158.535a4.97 4.97 0 0 1-7.046 0 5.017 5.017 0 0 1-.003-7.077zm93.755-31.422c30.143 0 54.818-24.765 54.818-55.016 0-30.252-24.675-55.017-54.818-55.017-30.142 0-54.818 24.765-54.818 55.017 0 30.251 24.676 55.016 54.818 55.016zM70.298 60.018h49.834c2.751 0 4.984 2.24 4.984 5.002 0 2.76-2.233 5.001-4.984 5.001H70.298c-2.75 0-4.983-2.24-4.983-5.001s2.23-5.002 4.983-5.002z"/></svg>