<svg xmlns="http://www.w3.org/2000/svg" viewBox="0 0 160 160"><path d="M110 0C82.445 0 60 22.445 60 50s22.445 50 50 50c5.224 0 10.262-.811 15-2.307l25.404 59.276a5 5 0 1 0 9.192-3.938l-25.412-59.295C149.559 85.195 160 68.79 160 50c0-27.555-22.445-50-50-50zM5.07 10a5 5 0 1 0 0 10H45a5 5 0 1 0 0-10H5.07zM110 10c22.15 0 40 17.85 40 40s-17.85 40-40 40-40-17.85-40-40 17.85-40 40-40zM5.072 60a5 5 0 1 0-.002 10H35a5 5 0 1 0 0-10H5.072zM85 109.998L5.07 110a5 5 0 1 0 0 10l79.93-.002a5 5 0 1 0 0-10z"/></svg>