<svg xmlns="http://www.w3.org/2000/svg" viewBox="0 0 160 160"><path d="M91.844 131.125l-1.75 2.906.5 3.313 2.469 2.281L95 140h10l3.156-1.125 1.75-2.906-.5-3.313-2.469-2.281L105 130H95zm30 0l-1.75 2.906.5 3.313 2.469 2.281L125 140h10l3.156-1.125 1.75-2.906-.5-3.313-2.469-2.281L135 130h-10zM10 0C6.953 0 4.776 1.411 3.094 3.094 1.41 4.776 0 6.953 0 10v140c0 3.047 1.411 5.224 3.094 6.906C4.776 158.59 6.953 160 10 160h140c3.047 0 5.224-1.411 6.906-3.094C158.59 155.224 160 153.047 160 150V10c0-3.047-1.411-5.224-3.094-6.906C155.224 1.41 153.047 0 150 0H10zm.406 10h139.188c.02.01.136.042.25.156.114.114.147.23.156.25V30H10V10.406c.01-.02.042-.136.156-.25.114-.114.23-.147.25-.156zM10 40h65v20H10V40zm75 0h65v20H85V40zM10 70h65v40H10V70zm75 0h65v40H85V70zm-75 50h140v29.594c-.009.02-.042.136-.156.25-.114.114-.23.147-.25.156H10.406c-.02-.009-.136-.042-.25-.156-.114-.114-.147-.23-.156-.25V120z"/></svg>