<svg xmlns="http://www.w3.org/2000/svg" viewBox="0 0 160 160"><path d="M45.031 50a5 5 0 0 0-4.5 2.75L25.844 82.125a5 5 0 0 0-.688 1.375 5 5 0 0 0-.031.094l-4.594 9.156a5.003 5.003 0 1 0 8.938 4.5L33.094 90h23.812l3.625 7.25a5.003 5.003 0 1 0 8.938-4.5l-4.656-9.313a5 5 0 0 0-.657-1.312L49.47 52.75A5 5 0 0 0 45.03 50zM45 66.188L51.906 80H38.094L45 66.187zm49.938-16.25C92.32 49.97 89.968 52.382 90 55v19.094a5.013 5.013 0 0 0 0 1.719V95c0 2.618 2.382 5 5 5h15.25a5.024 5.024 0 0 0 2.25-.531c1.599-.803 5.737-2.586 7.5-7.875a20.684 20.684 0 0 0 0-13.188c-.938-2.814-2.797-4.443-4.188-5.531-1.39-1.088-2.886-2.262-2.03-1.406A5.06 5.06 0 0 0 110.25 70H100V55c.033-2.66-2.403-5.096-5.063-5.063zM100 80h8.5c.463.295.806.476 1.156.75.676.529.882.959.844.844.36 1.082.36 5.73 0 6.812-.027.082-1.109.99-1.875 1.594H100zM80.031 0c-1.851-.013-3.666 1.096-4.5 2.75L61.906 30H5c-2.618 0-5 2.382-5 5v80c0 2.618 2.382 5 5 5h11.906L.531 152.75c-1.178 2.34-.12 5.54 2.219 6.719 2.34 1.178 5.54.12 6.719-2.219L28.094 120h103.812l18.625 37.25c1.178 2.34 4.38 3.397 6.719 2.219 2.34-1.178 3.397-4.38 2.219-6.719L143.094 120H155c2.618 0 5-2.382 5-5V35c0-2.618-2.382-5-5-5H98.094L84.469 2.75C83.645 1.115 81.862.01 80.03 0zM80 16.188L86.906 30H73.094zM10 40h140v70H10z"/></svg>