<svg xmlns="http://www.w3.org/2000/svg" viewBox="0 0 160 160"><path d="M79.926 0a5 5 0 0 0-3.461 1.465C63.036 14.894 33.333 25 15 25a5 5 0 0 0-5 5v60c0 21.458 9.94 35.892 23.25 45.875 13.31 9.983 29.812 16.247 44.514 23.598a5 5 0 0 0 4.472 0c14.702-7.351 31.203-13.615 44.514-23.598C140.06 125.892 150 111.458 150 90V30a5 5 0 0 0-5-5c-18.333 0-48.036-10.106-61.465-23.535A5 5 0 0 0 79.925 0zM80 11.594c15.729 13.518 40.343 21.896 60 23.136V90c0 18.542-7.56 29.108-19.25 37.875-11.117 8.338-26.147 14.432-40.75 21.584-14.603-7.152-29.633-13.246-40.75-21.584C27.56 119.108 20 108.542 20 90V34.73c19.657-1.24 44.271-9.618 60-23.136zm24.902 53.357a5 5 0 0 0-3.437 1.514L75 92.93 63.535 81.465a5 5 0 1 0-7.07 7.07l15 15a5 5 0 0 0 7.07 0l30-30a5 5 0 0 0-3.633-8.584z"/></svg>