<svg xmlns="http://www.w3.org/2000/svg" viewBox="0 0 160 160"><path d="M79.985 100C74.469 100 70 104.475 70 110v40c0 5.525 4.469 10 9.985 10h69.894c5.516 0 9.985-4.475 9.985-10v-40c0-5.525-4.47-10-9.985-10zm0 10h69.894v40H79.985zm31.868 5c-1.033 2.265-2.5 4.207-4.327 5.75-1.827 1.543-4.35 2.817-7.655 3.917v8.25c2.241-.706 4.09-1.479 5.575-2.25a29.73 29.73 0 0 0 4.66-3V145h9.818v-30zM59.998 15.462c0-2.76 2.24-5 5-5h30.067c2.76 0 5 2.24 5 5v9.687H59.997zM10.005 35.149H150v35.038H94.945V65.07c0-5.512-4.488-10-10-10h-9.96c-5.512 0-10 4.488-10 10v5.117h-54.98zM85 80h-9.97l-.047-14.93h9.96zm-35 60l-39.995-.002V80.185h54.978l.048-.187c.02 5.512 4.487 10 10 10h9.959c5.512 0 10.02-4.488 10-10l-.048.187h55.056L150 90h10V35.149c0-5.498-4.502-10-10-10h-39.936v-9.687c0-8.273-6.727-15-15-15H64.999c-8.272 0-15 6.727-15 15v9.687H10.005c-5.498 0-10 4.502-10 10v35.038H0v10h.005V140c0 5.498 4.502 10 10 10H50z"/></svg>