<svg xmlns="http://www.w3.org/2000/svg" viewBox="0 0 160 160"><path d="M150 35.149h-39.936v-9.687c0-8.273-6.727-15-15-15H64.999c-8.272 0-15 6.727-15 15v9.687H10.005c-5.498 0-10 4.502-10 10v35.038H0v10h.005V150c0 5.498 4.502 10 10 10H150c5.498 0 10-4.502 10-10V45.15c0-5.498-4.502-10-10-10zm-90.002-9.687c0-2.76 2.24-5 5-5h30.067c2.76 0 5 2.24 5 5v9.687H59.997v-9.687zM10.005 45.149H150v35.038H94.945V75.07c0-5.512-4.488-10-10-10h-9.96c-5.512 0-10 4.488-10 10v5.117h-54.98V45.15zm74.947 55.1h-9.97V75.07h9.96l.01 25.18zm-74.947 49.749V90.185h54.978v10.062c0 5.512 4.487 10 10 10h9.96c5.512 0 9.999-4.488 9.999-10V90.185h55.056v59.813H10.005z"/></svg>