<svg xmlns="http://www.w3.org/2000/svg" viewBox="0 0 160 160"><path d="M 159.99999,133.45042 147.1226,125.8914 c -0.5649,-0.29593 -1.26614,-1.42575 -1.3725,-2.70407 -0.10462,-1.2805 0.4123,-2.48197 1.375,-3.25 4.91223,-3.91701 9.06879,-9.58337 10.68794,-14.99959 1.61913,-5.416204 2.18749,-10.713084 2.18749,-14.625004 l 0,-8.312554 c 0,-6.03696 -3.83737,-10.69976 -8.875,-14.75 -5.03761,-4.05024 -13.32697,-7.250415 -20.93793,-7.250415 l -1e-4,5.3e-5 c -7.54473,0 -15.79473,3.217719 -20.93801,7.250359 -5.14327,4.03264 -9.249994,8.5492 -9.249994,14.75 l 0,8.31258 c 0,4.191227 0.829114,9.49824 2.687494,14.874991 1.85839,5.37674 6.15618,10.8522 10.87552,14.68713 0.94873,0.77187 1.42419,2.04339 1.3125,3.31251 -0.11134,1.26501 -0.80816,2.35096 -1.875,2.93749 l -27.687504,15.18749 c -0.04195,0.0202 -0.08362,0.041 -0.124986,0.0624 0.02507,-0.0133 -0.03939,0.0563 -0.187494,0.12507 -2.482518,1.14805 -4.961382,3.16181 -4.999997,5.81251 l 0,7.75 c 0.01572,2.72037 2.217131,4.92178 4.937499,4.93749 L 159.99999,160 Z m -10,16.61158 -59.937499,2.9e-4 c 0.04864,-0.0272 0.07416,-0.0331 0.124987,-0.0624 L 117.81248,134.8124 c 3.98532,-2.19115 6.60097,-6.21621 6.99999,-10.75 0.39867,-4.52968 -1.47125,-9.00413 -4.99999,-11.87501 -2.4729,-2.0095 -6.27006,-5.96642 -7.75049,-10.24964 -1.48042,-4.283204 -2.125,-8.911124 -2.125,-11.624991 l 0,-8.31258 c 0,-0.04347 1.73304,-4.032986 5.4375,-6.937493 3.70446,-2.904507 10.19479,-5.125346 14.81301,-5.125346 4.77714,0 11.1432,2.150442 14.68794,5.000389 3.54474,2.849973 5.1875,6.707306 5.1875,7.062506 l 0,8.312581 c 0,2.897547 -0.47584,7.550267 -1.75,11.812474 -1.27416,4.26224 -4.8874,8.07815 -7.37544,10.0621 -3.57058,2.84861 -5.43386,7.2681 -5.0625,11.8125 0.37832,4.54654 2.94846,8.6631 6.9375,10.87499 l 7.18749,4.00512 z M 59.9985,10 l 30.067,0 c 2.76,0 5,2.702 5,5.462 l 0,14.687 -40.068,0 5e-4,-16.067 C 54.9985,12.702 57.2385,10 59.9985,10 Z m 9.984,90.249 0,-25.179 9.96,0 0.01,25.1795 z M 70,150 l -59.995,-0.002 0,-59.813 49.9785,0 0,10.062 c 0,5.512 4.487,10 10,10 l 9.96,0 c 5.512,0 9.998451,-4.488 9.999,-10 l 0.003,-25.177 c 0,-5.512 -4.488,-10 -10,-10 l -9.96,0 c -5.512,0 -10,4.93 -10,10 l 0,5.117 -49.9805,0 0,-40.0375 129.996,-0.001 L 140,50 l 10,0 0.001,-9.8505 c 5.6e-4,-5.498 -4.502,-10 -7.251,-10.0005 l -37.6855,0 0,-14.687 C 105.0645,7.189 98.3375,0 90.0645,0 l -30.065,0 c -8.272,0 -15,5 -15,15.462 l 0,14.687 -34.9945,0 c -5.498,0 -10,4.502 -10,10 l 0,109.851 c 0,5.498 4.502,10 10,10 L 70,160 Z"/>

</svg>