<svg xmlns="http://www.w3.org/2000/svg" viewBox="0 0 160 160"><path d="M118.486.063c-2.018.046-3.686 1.73-3.733 3.75v2.562c.31 2.38 2.158 3.765 4.176 3.719l23.603.062-42.776 42.532a4.992 4.992 0 0 0 7.055 7.063l42.934-42.657-.158 24.187c-.04 2.014 1.557 3.766 3.575 3.719h2.563c2.018-.047 3.686-1.268 3.733-3.281l.095-36.032c0-.04-.126-.06-.126-.093l.19-1.844c.02-1.013-.2-1.916-.855-2.563A3.47 3.47 0 0 0 156.2.157l-1.835.062c-.034 0-.055-.007-.095 0L118.486.062zM31.283 9.988c.162 0 .304.013.412.033 2.808 4.08 17.874 26.909 20.608 31.176.007.446-.142 1.587-.999 3.22-.911 1.733-3.746 6.794-7.783 13.868l-3.139 5.507 3.639 5.187c2.713 3.854 9.173 12.241 21.924 25.009 12.812 12.82 21.162 19.268 25.002 21.968l5.185 3.64 5.5-3.146c5.333-3.047 11.773-6.7 13.866-7.801 1.68-.887 2.828-.953 3.145-.953.047 0 .095 0 .128.007 3.821 2.4 27.122 17.881 31.233 20.701.068.4.007 1.267-.749 2.354-6.332 8.774-15.316 17.935-18.833 19.248-18.718-.88-44.983-17.342-74.049-46.43C27.307 74.48 10.864 48.23 9.993 29.561c1.263-3.527 10.416-12.58 19.11-18.861.641-.453 1.438-.713 2.18-.713m0-9.988c-2.64 0-5.44.8-7.877 2.494C23.169 2.66-.307 19.695.003 29.382.867 56.598 27.301 88.587 49.32 110.63c22.02 22.042 53.988 48.498 81.292 49.371h.223c9.558 0 26.366-23.202 26.528-23.429 4.408-6.307 2.801-13.24-1.215-16.061-2.437-1.713-29.167-19.502-32.441-21.502-1.431-.873-3.166-1.3-5.063-1.3-2.443 0-5.143.714-7.79 2.1-2.571 1.354-10.36 5.794-14.175 7.974-3.355-2.36-11.245-8.407-23.68-20.855-12.352-12.354-18.447-20.315-20.817-23.695 2.174-3.814 6.602-11.608 7.945-14.175 2.552-4.833 2.842-9.667.77-12.927C58.952 33.056 41.253 6.2 39.424 3.674 37.716 1.287 34.63 0 31.284 0z"/></svg>