<svg xmlns="http://www.w3.org/2000/svg" viewBox="0 0 160 160"><path d="m 23.395573,23.447955 c -1.950939,1.952082 -2.346459,4.72026 -0.883629,6.184611 l 8.83832,8.838318 c 1.463251,1.466362 4.23401,1.072032 6.18775,-0.88056 1.956192,-1.953364 2.35225,-4.727409 0.8847,-6.19189 l -8.83832,-8.838318 c -1.46558,-1.464024 -4.23677,-1.066502 -6.188781,0.887811 z m -23.44374742,56.60417 c 8.0752e-4,2.759853 1.67853012,4.996925 3.74835962,4.998001 l 12.4992708,-2e-6 c 2.071549,0.0022 3.751938,-2.235856 3.75275,-4.99805 0.002,-2.764473 -1.679491,-5.006074 -3.75275,-5.003904 l -12.4992708,10e-7 c -2.0715422,0.0011 -3.7499796,2.241718 -3.74835113,5.003906 z M 23.399784,136.65455 c 1.952082,1.95094 4.72026,2.34646 6.184611,0.88363 l 8.838318,-8.83832 c 1.466363,-1.46325 1.072032,-4.23401 -0.88056,-6.18775 -1.953366,-1.95619 -4.727409,-2.35225 -6.19189,-0.8847 l -8.838318,8.83832 c -1.464023,1.46558 -1.066502,4.23677 0.887811,6.18878 z m 56.60417,23.44375 c 2.759852,-8.1e-4 4.996926,-1.67853 4.998001,-3.74836 v -12.49927 c 0.0022,-2.07155 -2.235858,-3.75194 -4.99805,-3.75275 -2.764477,-0.002 -5.006076,1.67949 -5.003905,3.75275 v 12.49927 c 0.0011,2.07154 2.241719,3.74998 5.003905,3.74835 z m 56.602426,-23.44796 c 1.95094,-1.95208 2.34646,-4.72026 0.88363,-6.18461 l -8.83832,-8.83832 c -1.46325,-1.46636 -4.23401,-1.07203 -6.18775,0.88056 -1.95619,1.95337 -2.35225,4.72741 -0.8847,6.19189 l 8.83832,8.83832 c 1.46558,1.46402 4.23677,1.0665 6.18878,-0.88781 z m 23.44375,-56.604166 c -8.1e-4,-2.759853 -1.67853,-4.996927 -3.74836,-4.998004 l -12.49927,10e-7 c -2.07155,-0.0022 -3.75194,2.23586 -3.75275,4.998046 -0.002,2.764478 1.67949,5.006075 3.75275,5.003908 l 12.49927,-10e-7 c 2.07154,-0.0011 3.74998,-2.241716 3.74835,-5.003906 z M 136.60217,23.443748 c -1.95208,-1.950941 -4.72026,-2.346462 -6.18461,-0.883635 l -8.83832,8.838322 c -1.46636,1.463245 -1.07203,4.234014 0.88056,6.187745 1.95365,1.955912 4.72741,2.352248 6.19189,0.884704 l 8.83832,-8.838322 c 1.46404,-1.46556 1.0665,-4.236765 -0.88781,-6.188781 z M 80,40 c -22.032167,0 -40,17.967833 -40,40 0,22.03217 17.967833,40 40,40 22.03217,0 40,-17.96783 40,-40 0,-22.032167 -17.96783,-40 -40,-40 z m 0,10 c 16.627766,0 30,13.372234 30,30 0,16.627766 -13.372234,30 -30,30 C 63.372234,110 50,96.627766 50,80 50,63.372234 63.372234,50 80,50 Z M 79.998,0 C 77.238147,8.0570944e-4 75.001074,1.6785281 75,3.7483519 V 16.247627 c -0.0022,2.07154 2.235859,3.75194 4.998047,3.752746 2.764477,0.0016 5.00607,-1.67949 5.003906,-3.752746 V 3.7483519 C 85.000878,1.6768119 82.760235,-0.00162106 79.998047,0 Z" /></svg>