<svg xmlns="http://www.w3.org/2000/svg" viewBox="0 0 160 160"><path d="M 112.82895,0 80,90 h 12.011513 l 9.388157,-27.258076 h 35.74342 L 147.11349,90 H 160 L 125.0148,0 Z m 5.83059,9.4546234 c 1.32166,4.8703796 3.34307,11.0915256 6.06415,18.6631256 l 8.92104,24.925185 h -28.98026 l 9.38816,-26.398408 c 1.98249,-5.688927 3.51848,-11.419112 4.60691,-17.1899026 z M 58.580078,39.994141 c -0.110284,-8.69e-4 -0.221916,0.0016 -0.332031,0.0078 h -0.0059 l -0.0059,0.0039 C 46.861305,40.736567 35.907588,44.445884 26.552734,50.75 c -9.72e-4,6.38e-4 -0.01009,0.0068 -0.01172,0.0078 l -0.02344,0.01172 -0.08594,0.05859 C -1.6334957,69.836474 -8.4754266,107.50358 11.351562,134.54297 c 19.853751,27.07637 58.672054,33.54699 86.84375,14.60742 9.323028,-6.26775 16.708438,-14.87753 21.328128,-24.91797 1.01953,-2.21048 0.30266,-4.60106 -1.22071,-5.98047 -1.52337,-1.37939 -3.97412,-1.85646 -6.07421,-0.625 -19.84749,11.62479 -45.750167,6.42963 -59.042973,-11.69922 -13.32212,-18.168607 -9.668593,-42.768986 8.517578,-56.683589 1.888242,-1.446736 2.396194,-3.829195 1.75,-5.742188 -0.64601,-1.912449 -2.493147,-3.500242 -4.871094,-3.507812 z M 43.857422,53.882812 c -11.581568,17.396892 -11.994858,40.406242 1.011719,58.144528 13.030198,17.7707 35.506638,25.11925 56.398439,20.5 -2.640915,2.99748 -5.47043,5.80907 -8.828127,8.06641 C 68.8226,156.47112 36.187591,150.96662 19.673828,128.44531 3.1841386,105.95721 8.6889156,75.312431 32.205078,59.375 l 0.0039,-0.002 c 0.02171,-0.01464 0.02955,-0.02072 0.04492,-0.03125 l 0.01367,-0.0078 0.03711,-0.02734 0.01367,-0.0078 c 3.521658,-2.373198 7.464624,-4.021946 11.539063,-5.416016 z m -13.214253,2.928596 0.0957,-0.05858 -0.05273,0.0293 z" /></svg>