<svg xmlns:svg="http://www.w3.org/2000/svg" xmlns="http://www.w3.org/2000/svg" viewBox="0 0 160 160">
<path d="m 20.90015,24.301752 c -1.165649,0.369807 -1.787617,0.913921 -2.585189,2.261662 -2.410017,4.072203 -15.9726346,27.685355 -16.0859555,28.006287 -0.4788028,1.354661 -0.1128885,3.065721 0.8771562,4.104641 0.2045833,0.214531 2.3671974,1.955003 4.8057608,3.867619 2.4385635,1.912183 6.2179475,4.87583 8.3987275,6.58516 3.490027,2.736572 3.964072,3.139683 3.961477,3.367623 -0.0017,0.142732 -0.0692,0.842986 -0.149653,1.556649 -0.339098,2.998248 -0.285898,9.098983 0.110293,12.687624 0.237455,2.152666 0.128459,2.041075 1.218417,1.248261 0.436848,-0.317904 1.443328,-1.039785 2.236143,-1.604227 1.18814,-0.84515 6.622789,-4.781972 12.831654,-9.29405 0.660895,-0.4801 1.254316,-0.923436 1.318762,-0.984855 0.06488,-0.06142 0.605532,-0.461069 1.201548,-0.887969 1.195494,-0.856395 3.142279,-2.267717 4.111562,-2.980082 0.343856,-0.252593 1.27378,-0.927329 2.066594,-1.499124 0.792814,-0.572228 1.65786,-1.201116 1.922131,-1.397914 0.264272,-0.196365 2.080867,-1.516425 4.037168,-2.932937 1.955868,-1.41608 4.629292,-3.357242 5.941134,-4.313118 3.342103,-2.435536 3.526358,-2.56313 3.526358,-2.443321 0,0.05839 -0.110726,0.208909 -0.24524,0.333908 -0.134948,0.124999 -0.215829,0.227074 -0.17993,0.227074 0.0359,0 0.358129,-0.275949 0.715825,-0.61375 6.826075,-6.439399 17.160775,-9.009017 26.341505,-6.54926 0.497833,0.133217 0.926464,0.240483 0.952847,0.237887 0.0904,-0.0078 -1.220579,-0.595151 -23.259779,-10.424234 C 52.837201,37.450878 42.737794,32.938368 42.52629,32.83413 41.356316,32.257577 24.236631,24.668964 23.591307,24.441025 22.729289,24.136961 21.603864,24.079003 20.90015,24.301752 M 59.865264,60.52554 c -0.126729,0.120241 -0.29325,0.304063 -0.370239,0.408301 -0.07656,0.104671 0.04239,0.01903 0.264704,-0.189877 0.221884,-0.208909 0.403544,-0.392731 0.403544,-0.408734 0,-0.06704 -0.08218,-0.01471 -0.298009,0.19031" style="fill:#d32f2f" />

<path d="m 63.138597,0.08523272 c -0.0506,0.05017265 -0.09169,0.06401338 -0.09169,0.03070912 0,-0.03330426 -0.14057,-0.01773343 -0.312281,0.0341693 -0.171712,0.0519027 -0.37716,0.1098608 -0.456744,0.1288918 -0.863316,0.20458329 -1.961924,1.34255086 -2.379308,2.46494746 -0.208909,0.5609821 -0.289358,0.9714463 -0.460205,2.3442737 -0.02595,0.2115036 -0.131054,0.9467924 -0.232697,1.6340712 -0.179064,1.2106313 -0.550169,3.8347477 -0.625428,4.4212477 -0.04541,0.355102 -0.357696,2.5082 -0.634511,4.373239 -0.113321,0.76643 -0.221451,1.523345 -0.24005,1.682081 -0.01817,0.158303 -0.05796,0.439443 -0.08823,0.624563 -0.02984,0.18512 -0.07699,0.531138 -0.10467,0.769025 -0.02725,0.237888 -0.0917,0.674736 -0.142733,0.970582 -0.05147,0.295845 -0.115483,0.728368 -0.143165,0.961065 -0.02725,0.232697 -0.0705,0.552764 -0.09602,0.7115 -0.02509,0.158736 -0.06574,0.439876 -0.0904,0.624996 -0.05796,0.442471 -0.127162,0.930356 -0.19031,1.345578 -0.02811,0.184687 -0.0718,0.518163 -0.09732,0.740479 -0.02595,0.222317 -0.05796,0.457609 -0.07223,0.523353 -0.02379,0.112456 -0.185552,0.201555 -1.226635,0.677331 -0.237887,0.108995 -0.633646,0.300603 -0.879319,0.426035 -0.245673,0.124999 -0.492643,0.227939 -0.548439,0.227939 -0.05623,0 -0.329149,0.13365 -0.606829,0.297576 -0.27768,0.163926 -0.57266,0.310984 -0.655705,0.326987 -0.196798,0.03763 -5.690702,3.215375 -5.816134,3.36373 -0.05277,0.06272 -0.312281,0.23659 -0.576553,0.386675 -0.264704,0.149653 -0.524217,0.323095 -0.576985,0.384946 -0.05277,0.06185 -0.267299,0.214963 -0.477073,0.339963 -0.20934,0.124999 -0.458041,0.304496 -0.552764,0.399218 -0.09429,0.09429 -0.211503,0.171712 -0.260811,0.171712 -0.04888,0 -0.157871,0.06877 -0.24178,0.15268 -0.439443,0.439443 -1.153106,0.895322 -1.224472,0.782866 -0.0718,-0.112888 -0.08305,-0.09299 -0.113754,0.196798 -0.0069,0.06791 -0.07137,0.160034 -0.143165,0.204584 -0.173009,0.106833 -2.608112,-0.996965 22.140843,10.035394 22.062988,9.835138 23.399051,10.433317 23.308221,10.441102 -0.02638,0.0026 -0.442038,-0.10121 -0.923436,-0.230102 -1.569625,-0.420844 -4.170385,-0.863748 -4.170385,-0.710202 0,0.04412 0.07569,0.08521 0.167819,0.09126 0.175604,0.01168 0.326987,0.04022 0.408734,0.07785 0.0718,0.03287 0.288493,0.07526 0.769026,0.151383 0.512107,0.08088 0.429927,0.06401 1.393588,0.282005 0.423008,0.09559 0.833904,0.196365 0.913056,0.224479 0.198528,0.07007 0.301468,0.09905 0.553197,0.155276 0.118943,0.02638 0.270326,0.08175 0.33607,0.122837 0.06618,0.04109 0.163061,0.08434 0.216261,0.09602 0.05277,0.01168 0.193338,0.04541 0.312282,0.07483 0.118943,0.02941 0.307091,0.07353 0.418249,0.09818 0.111159,0.02422 0.251729,0.08131 0.312282,0.126729 0.06055,0.04542 0.304928,0.1423 0.542816,0.214964 0.237887,0.07266 0.52984,0.19377 0.648784,0.268596 0.118944,0.07483 0.216261,0.107699 0.216261,0.0731 0,-0.0346 0.194636,0.05104 0.432523,0.19031 0.237888,0.139272 0.432523,0.228372 0.432523,0.19723 0,-0.03071 0.237888,0.0731 0.528543,0.230102 0.291088,0.157439 0.528975,0.267299 0.528975,0.243943 0,-0.06618 2.788475,1.569626 2.949373,1.730524 0.07915,0.07958 0.269895,0.209774 0.42344,0.288925 0.153978,0.07958 0.27941,0.189445 0.27941,0.243943 0,0.0545 0.04325,0.07266 0.09602,0.03979 0.0532,-0.03244 0.09645,-0.0065 0.09645,0.05839 0,0.06488 0.02509,0.09256 0.05579,0.06185 0.03071,-0.03071 0.130189,0.016 0.220587,0.104238 0.0904,0.0878 0.287195,0.246538 0.436848,0.352073 0.150085,0.105968 0.374132,0.278977 0.497834,0.384513 0.123701,0.105968 0.427332,0.365482 0.674303,0.576985 0.785461,0.672573 2.247386,2.149206 2.247386,2.270313 0,0.06401 0.0268,0.08996 0.0593,0.05709 0.0467,-0.04671 0.75043,0.727935 1.11591,1.228797 0.0385,0.05277 0.20069,0.246538 0.36116,0.43036 0.16003,0.183822 0.3153,0.410897 0.34514,0.504754 0.0294,0.09342 0.0926,0.169982 0.13928,0.169982 0.0471,0 0.20458,0.205448 0.34948,0.456744 0.14489,0.251296 0.29152,0.47837 0.32568,0.504754 0.0869,0.06704 1.84082,3.102486 1.86072,3.2197 0.009,0.05277 0.13365,0.294548 0.27681,0.537193 0.1436,0.242645 0.26081,0.493941 0.26081,0.55882 0,0.06488 0.0528,0.212801 0.11678,0.327852 0.13668,0.24524 0.50606,1.251288 0.7128,1.940297 0.0791,0.264272 0.18253,0.567038 0.2301,0.672573 0.10165,0.22621 0.59299,2.027667 0.62933,2.307077 0.0138,0.105535 0.0285,0.263406 0.0329,0.349911 0.005,0.08694 0.0696,0.181659 0.14446,0.210206 0.10121,0.03893 0.12803,-0.01427 0.10424,-0.205881 -0.0177,-0.141868 -0.061,-0.560982 -0.096,-0.931222 -0.035,-0.369807 -0.08,-0.780703 -0.0999,-0.913055 -0.0333,-0.220587 -0.0662,-0.516865 -0.1916,-1.730092 -0.0247,-0.237887 -0.067,-0.627158 -0.0943,-0.865045 -0.1064,-0.937277 -0.7115,-6.817857 -0.77076,-7.49043 -0.0346,-0.393163 -0.0757,-0.782434 -0.0917,-0.865046 -0.0156,-0.08304 -0.0567,-0.518162 -0.0917,-0.967553 -0.0346,-0.449392 -0.083,-0.925167 -0.10726,-1.057519 -0.0242,-0.131919 -0.0675,-0.499564 -0.0956,-0.817035 -0.13625,-1.526806 -0.22967,-2.41218 -0.28936,-2.739167 -0.0242,-0.13192 -0.0653,-0.499564 -0.0913,-0.817036 -0.051,-0.618075 -0.1237,-1.330873 -0.19118,-1.874121 -0.0229,-0.18512 -0.0891,-0.790652 -0.14705,-1.345579 -0.11333,-1.090822 -0.16436,-1.564002 -0.23357,-2.162614 -0.0242,-0.211503 -0.0908,-0.838661 -0.14749,-1.393588 -0.0567,-0.555359 -0.16436,-1.57179 -0.23961,-2.259069 -0.0748,-0.687278 -0.1622,-1.595576 -0.19421,-2.018151 -0.0316,-0.423007 -0.0774,-0.877156 -0.10164,-1.009508 -0.0238,-0.13192 -0.0649,-0.499564 -0.0908,-0.817036 -0.0502,-0.608992 -0.12197,-1.315734 -0.19074,-1.874121 -0.0229,-0.18512 -0.0666,-0.639269 -0.0973,-1.009076 -0.0303,-0.370239 -0.0774,-0.824388 -0.10381,-1.009508 -0.0264,-0.184687 -0.0666,-0.530706 -0.0887,-0.768593 -0.0441,-0.474045 -0.0921,-0.925599 -0.24524,-2.307077 -0.0558,-0.502159 -0.11722,-1.092553 -0.13625,-1.312274 -0.0195,-0.219289 -0.0606,-0.60856 -0.0917,-0.865046 -0.0649,-0.531138 -0.23703,-2.142285 -0.58391,-5.463628 -0.23745,-2.268582 -0.28546,-2.743925 -0.38624,-3.796685 -0.0277,-0.290655 -0.0731,-0.710203 -0.10121,-0.932087 -0.0281,-0.221884 -0.0722,-0.632781 -0.0977,-0.913055 -0.15787,-1.717981 -0.25086,-2.619359 -0.29109,-2.816589 -0.0216,-0.105536 -0.0601,-0.494806 -0.0861,-0.865046 -0.0259,-0.369807 -0.0683,-0.823956 -0.0943,-1.009075 -0.0506,-0.361157 -0.11635,-0.925599 -0.1929,-1.658293 -0.026,-0.250863 -0.074,-0.683386 -0.10597,-0.961066 -0.032,-0.277247 -0.0714,-0.655704 -0.0878,-0.840824 -0.0164,-0.18512 -0.0528,-0.531138 -0.0809,-0.769025 -0.0281,-0.237888 -0.0766,-0.692037 -0.10727,-1.009076 -0.0709,-0.728801 -0.14619,-1.442031 -0.19723,-1.874554 -0.0221,-0.184678 -0.10683,-0.9848454 -0.18815,-1.7780923 C 100.22094,7.1063755 100.21056,7.011653 100.00554,5.2322542 99.726134,2.8092614 99.732622,2.8378079 99.310912,2.1085744 98.9796,1.5346167 98.139208,0.66524581 97.817411,0.56317043 c -0.09256,-0.0294115 -0.168684,-0.10121034 -0.168684,-0.1591684 0,-0.0579581 -0.02725,-0.0787192 -0.06012,-0.0454149 -0.0333,0.0333043 -0.184688,-0.003893 -0.336503,-0.0826119 -0.151816,-0.0782866 -0.438146,-0.15960092 -0.636241,-0.18036201 -0.198528,-0.0207611 -0.360724,-0.04671246 -0.360724,-0.05752553 0,-0.07525897 -33.041283,-0.02811399 -33.116542,0.04714498" style="fill:#ff5722" />
<path d="m 137.10432,24.140854 c -0.45069,0.07656 -1.07742,0.258649 -1.33996,0.389703 -0.15527,0.07785 -0.60942,0.261676 -1.00907,0.409167 -0.57872,0.213666 -2.34298,0.921273 -4.66736,1.871526 -0.10553,0.04325 -0.21366,0.08607 -0.24005,0.09515 -0.0597,0.0199 -0.40743,0.165656 -0.91348,0.381917 -0.21108,0.0904 -0.42734,0.17474 -0.48054,0.187715 -0.0528,0.01298 -0.20415,0.0705 -0.33607,0.128027 -0.39792,0.173009 -3.88535,1.574383 -3.98916,1.602497 -0.0528,0.01471 -0.25691,0.09775 -0.45328,0.184687 -0.19636,0.08737 -0.38278,0.158304 -0.41392,0.158304 -0.0502,0 -1.23918,0.481398 -2.01599,0.81617 -0.15874,0.06834 -1.34082,0.544979 -2.62758,1.059249 l -2.33865,0.934681 -0.40052,-0.299305 c -0.67949,-0.507782 -1.79799,-1.298001 -2.79712,-1.975332 -1.16089,-0.787192 -5.38404,-3.236136 -6.44589,-3.738295 -0.42301,-0.199825 -0.98528,-0.467557 -1.24956,-0.594719 -0.26427,-0.127594 -0.71842,-0.336502 -1.00907,-0.464529 -0.29109,-0.128027 -0.74524,-0.330015 -1.00951,-0.448526 -0.47058,-0.211504 -1.18122,-0.479668 -1.27075,-0.479668 -0.0718,0 -0.0169,0.578283 0.69333,7.256868 0.0787,0.740046 0.16869,1.555352 0.19983,1.811405 0.0311,0.256486 0.0722,0.645757 0.0917,0.865046 0.019,0.219721 0.0804,0.810115 0.13625,1.312274 0.15311,1.381478 0.20112,1.833032 0.24524,2.307077 0.0221,0.237887 0.0623,0.583906 0.0887,0.768593 0.0264,0.18512 0.0735,0.639269 0.10381,1.009508 0.0307,0.369807 0.0744,0.823956 0.0973,1.009076 0.0688,0.558387 0.14057,1.265129 0.19074,1.874121 0.0259,0.317472 0.067,0.685116 0.0908,0.817036 0.0242,0.132352 0.0701,0.586501 0.10164,1.009508 0.032,0.422575 0.11938,1.330873 0.19421,2.018151 0.0752,0.687279 0.18252,1.70371 0.23875,2.259069 0.0567,0.554927 0.12154,1.160459 0.14446,1.345578 0.0229,0.184688 0.064,0.552332 0.0908,0.817036 0.0753,0.735289 0.25086,2.363305 0.38365,3.556202 0.0234,0.211504 0.09,0.838662 0.14749,1.393589 0.058,0.554927 0.12457,1.160459 0.14879,1.345578 0.0986,0.765133 0.23096,2.041941 0.21712,2.100331 -0.008,0.03417 0.0138,0.278545 0.0489,0.542816 0.035,0.264272 0.0887,0.761673 0.11851,1.105529 0.0303,0.343423 0.0735,0.775946 0.0965,0.961065 0.0225,0.18512 0.0631,0.574391 0.09,0.865046 0.0904,0.977501 0.72837,7.15782 0.76902,7.448908 0.0221,0.158736 0.067,0.591258 0.0995,0.961065 0.0329,0.37024 0.0761,0.737884 0.0969,0.817036 0.0203,0.07958 0.0662,0.490481 0.10164,0.913056 0.0355,0.423007 0.0809,0.85553 0.10035,0.961498 0.0199,0.105536 0.08,0.711067 0.13365,1.345578 0.0532,0.634079 0.1423,1.434246 0.19766,1.778102 0.33347,2.070919 0.1064,6.711024 -0.43685,8.938949 -0.0324,0.131919 -0.08,0.348181 -0.10597,0.480533 -0.12413,0.632348 -0.75086,2.721866 -0.9948,3.315719 -0.0437,0.105969 -0.19939,0.495239 -0.34645,0.865046 -1.3685,3.442449 -3.65525,6.831698 -6.531092,9.679005 l -0.576985,0.57093 1.249558,-0.895332 c 0.687279,-0.492211 1.603799,-1.154836 2.037179,-1.472307 0.43296,-0.317472 1.26643,-0.923436 1.85206,-1.346444 0.58607,-0.422575 1.53935,-1.114611 2.11893,-1.537618 0.57958,-0.423008 1.5307,-1.115044 2.11374,-1.538051 0.58304,-0.422575 1.44419,-1.049733 1.91391,-1.393589 0.46972,-0.343423 0.94896,-0.689441 1.06574,-0.769026 0.18382,-0.124999 0.76989,-0.550169 2.35465,-1.708897 0.78157,-0.571363 1.97361,-1.436841 3.07308,-2.231818 0.62197,-0.449391 1.67689,-1.214091 2.34471,-1.699815 0.66781,-0.485723 1.67991,-1.221011 2.24911,-1.634071 0.56877,-0.413059 1.50908,-1.096878 2.08909,-1.519885 1.3179,-0.961066 2.94548,-2.142285 3.91736,-2.843405 0.40916,-0.29498 1.21149,-0.878886 1.78242,-1.297568 0.57093,-0.418682 1.16219,-0.847312 1.31401,-0.953281 0.43641,-0.303631 2.31054,-1.656994 3.46018,-2.499116 0.57785,-0.422575 1.55708,-1.136238 2.17602,-1.585629 0.61938,-0.449391 1.65916,-1.206306 2.31097,-1.682081 0.65138,-0.475775 1.48875,-1.081307 1.86028,-1.345579 0.37197,-0.264271 0.76124,-0.545411 0.86462,-0.624995 0.1038,-0.07915 0.57914,-0.42517 1.05665,-0.768593 0.47794,-0.343856 1.26772,-0.916949 1.75604,-1.274212 1.01211,-0.740479 1.0532,-0.770324 1.91521,-1.391426 1.60856,-1.159161 2.67602,-1.933377 3.40655,-2.470571 0.43599,-0.320499 1.27205,-0.929059 1.85769,-1.351633 5.85852,-4.230073 5.9753,-4.327391 6.51812,-5.421674 0.43901,-0.884076 0.50345,-2.168237 0.15268,-3.042365 -0.10727,-0.267299 -2.32914,-4.181631 -4.93725,-8.698468 -2.60854,-4.516836 -6.26596,-10.8507 -8.12797,-14.07559 -3.71667,-6.436372 -4.22099,-7.149602 -5.1587,-7.29147 -0.067,-0.01038 -0.16522,-0.04585 -0.21842,-0.07915 -0.22535,-0.141435 -1.40873,-0.271192 -1.82568,-0.200691" style="fill:#ffc107" />
<path d="m 138.35388,71.982204 c -0.76254,0.56574 -2.36374,1.730524 -4.03371,2.934235 -0.62327,0.449391 -1.67905,1.215389 -2.34644,1.701977 -0.66695,0.486588 -1.67732,1.221877 -2.24479,1.634071 -0.56747,0.411762 -1.41738,1.03027 -1.88839,1.373693 -0.47145,0.343855 -0.95112,0.689874 -1.06661,0.769025 -0.11548,0.07915 -0.58477,0.417817 -1.04324,0.75259 -0.45804,0.33434 -0.91954,0.669545 -1.02508,0.744372 -0.10597,0.07483 -0.58823,0.428197 -1.07179,0.785461 -0.48356,0.356831 -0.97448,0.714095 -1.09082,0.793247 -0.11678,0.07915 -0.59559,0.42517 -1.06487,0.769025 -1.09818,0.804493 -4.04842,2.944616 -5.79149,4.201527 -0.74912,0.540221 -1.44808,1.044975 -1.55405,1.121964 -0.10554,0.07742 -0.71453,0.522055 -1.35336,0.988747 -0.63884,0.466693 -1.4083,1.021187 -1.70977,1.23269 -0.30146,0.211504 -0.64402,0.465395 -0.7608,0.56401 -0.11722,0.09861 -0.32094,0.249566 -0.45329,0.335638 -0.13192,0.08564 -0.2833,0.19031 -0.33607,0.231832 -0.0532,0.04196 -0.33434,0.246106 -0.62499,0.454582 -0.29066,0.208043 -0.5718,0.413491 -0.62457,0.456311 -0.0532,0.04239 -0.24783,0.18339 -0.43252,0.312714 -0.18512,0.129324 -0.37975,0.270327 -0.43252,0.314012 -0.0532,0.04325 -0.48573,0.359859 -0.9615,0.703714 -0.47578,0.343856 -1.34082,0.970149 -1.92213,1.392724 -0.58131,0.422142 -1.61937,1.175164 -2.30665,1.673431 -0.68727,0.498266 -1.67905,1.221011 -2.2037,1.606822 -1.35336,0.993942 -1.592977,1.152242 -1.592977,1.050602 0,-0.0493 0.151383,-0.22232 0.336503,-0.38495 0.423007,-0.3711 0.436848,-0.48226 0.02379,-0.18771 -0.171711,0.1224 -0.338233,0.22274 -0.370239,0.22274 -0.03201,0 -0.174307,0.13841 -0.316607,0.3071 -0.141867,0.16911 -0.418682,0.40527 -0.614615,0.52551 -0.195933,0.12024 -0.464529,0.32137 -0.596881,0.44766 -0.13192,0.12587 -0.38062,0.28979 -0.552332,0.36462 -0.172144,0.0748 -0.312714,0.1596 -0.312714,0.18858 0,0.0286 0.05407,0.0212 0.120241,-0.0169 0.250431,-0.14403 0.0052,0.0536 -0.480532,0.38711 -1.843413,1.26643 -5.283699,3.08086 -6.19762,3.26857 -0.06704,0.0138 -0.251728,0.0792 -0.410464,0.14533 -1.172569,0.48918 -4.97531,1.42992 -5.402642,1.33693 -0.04196,-0.009 -0.14057,0.01 -0.220155,0.0424 -0.567037,0.23096 -4.887075,0.34472 -6.391822,0.16825 -0.422574,-0.0493 -1.00648,-0.11765 -1.297568,-0.15095 -1.153971,-0.13322 -3.412173,-0.64576 -4.78154,-1.0852 -0.171711,-0.0554 -0.312281,-0.067 -0.312281,-0.0264 0,0.0904 -0.32569,-0.061 4.594257,2.13234 2.236143,0.99697 4.204122,1.87585 4.373238,1.95284 0.717988,0.32742 17.910337,7.99129 20.163781,8.98869 9.797069,4.33604 17.167689,7.66517 17.124439,7.73481 -0.0294,0.0476 -0.0143,0.0627 0.0337,0.0329 0.048,-0.0299 0.25216,0.0259 0.45328,0.1237 0.20112,0.0977 0.51427,0.22707 0.69636,0.28719 0.18166,0.0597 0.33045,0.15615 0.33045,0.21367 0,0.0575 0.0251,0.0796 0.0558,0.0489 0.0744,-0.0744 0.71496,0.1942 0.93944,0.39359 0.0982,0.0874 0.1955,0.14706 0.2167,0.13322 0.0848,-0.0571 0.51729,0.10078 0.6211,0.22621 0.061,0.0735 0.14965,0.10986 0.19637,0.0809 0.0467,-0.029 0.0852,4.3e-4 0.0852,0.0653 0,0.0649 0.0272,0.0908 0.0601,0.0575 0.0333,-0.0333 0.1955,0.0112 0.36073,0.0986 0.16479,0.0878 0.38451,0.17344 0.48788,0.19118 0.10381,0.0173 0.21194,0.0631 0.24049,0.10207 0.0285,0.0389 0.31184,0.17431 0.62888,0.30061 0.31704,0.12672 0.87932,0.3711 1.24956,0.54368 0.37024,0.17257 1.21366,0.55017 1.87412,0.83866 1.19723,0.52292 1.92213,0.84601 2.83562,1.26296 0.26427,0.12068 1.05363,0.47016 1.75388,0.77725 0.70069,0.30666 1.27378,0.59645 1.27378,0.64402 0,0.0476 0.0402,0.0614 0.0895,0.0311 0.109,-0.0675 0.77552,0.23832 0.77552,0.35553 0,0.0463 0.0402,0.0592 0.0895,0.0285 0.109,-0.067 0.77551,0.23833 0.77551,0.35597 0,0.0463 0.0398,0.0593 0.0887,0.029 0.11116,-0.0683 0.58391,0.13971 0.58391,0.25692 0,0.0476 0.0433,0.0597 0.0965,0.0273 0.0528,-0.0329 0.096,-0.0113 0.096,0.048 0,0.0588 0.0363,0.0848 0.0804,0.0575 0.0441,-0.0273 0.65354,0.18988 1.35423,0.48227 l 1.27334,0.532 1.02508,-0.0247 c 0.56358,-0.0134 1.04801,-0.0588 1.07699,-0.10078 0.0285,-0.0424 0.14792,-0.0913 0.26556,-0.109 0.11722,-0.0182 0.26471,-0.0839 0.32742,-0.14662 0.0627,-0.0627 0.1648,-0.11419 0.22708,-0.11419 0.0623,0 0.16782,-0.0657 0.23486,-0.14662 0.067,-0.0805 0.14057,-0.12717 0.16392,-0.10381 0.0234,0.0234 0.24438,-0.18555 0.49092,-0.46366 0.66608,-0.75173 0.77465,-0.89792 0.7128,-0.95977 -0.0307,-0.0311 -0.006,-0.0562 0.0562,-0.0562 0.0614,0 0.11203,-0.0649 0.11203,-0.14403 0,-0.0796 0.0458,-0.14446 0.10164,-0.14446 0.0562,0 0.0753,-0.0433 0.0424,-0.096 -0.0324,-0.0528 -0.0108,-0.096 0.048,-0.096 0.0592,0 0.0809,-0.0433 0.0484,-0.096 -0.0329,-0.0532 -0.0138,-0.0965 0.0424,-0.0965 0.0558,0 0.10164,-0.0649 0.10164,-0.14403 0,-0.0792 0.0459,-0.14403 0.10164,-0.14403 0.0562,0 0.0753,-0.0433 0.0424,-0.096 -0.0324,-0.0532 -0.0108,-0.0965 0.048,-0.0965 0.0593,0 0.0809,-0.0433 0.048,-0.096 -0.0324,-0.0528 -0.0134,-0.096 0.0424,-0.096 0.0562,0 0.10207,-0.0649 0.10207,-0.14403 0,-0.0796 0.0459,-0.14446 0.10165,-0.14446 0.0562,0 0.0752,-0.0433 0.0424,-0.096 -0.0324,-0.0528 -0.0108,-0.096 0.048,-0.096 0.0593,0 0.0848,-0.0368 0.0571,-0.0817 -0.0277,-0.045 0.032,-0.16998 0.13278,-0.27811 0.10078,-0.10813 0.15701,-0.22275 0.125,-0.25476 -0.0324,-0.032 -0.0125,-0.0584 0.0433,-0.0584 0.0558,0 0.12889,-0.10813 0.1622,-0.24005 0.0329,-0.13235 0.1051,-0.24048 0.16003,-0.24048 0.0549,0 0.0731,-0.0433 0.0407,-0.096 -0.0329,-0.0528 -0.0138,-0.096 0.0424,-0.096 0.0558,0 0.10164,-0.0649 0.10164,-0.14446 0,-0.0791 0.0459,-0.14403 0.10207,-0.14403 0.0558,0 0.0748,-0.0433 0.0424,-0.096 -0.0329,-0.0528 -0.0112,-0.096 0.048,-0.096 0.0588,0 0.0848,-0.0368 0.0571,-0.0817 -0.0281,-0.045 0.032,-0.16998 0.13236,-0.27811 0.10077,-0.10813 0.157,-0.22275 0.125,-0.25476 -0.032,-0.032 -0.005,-0.0584 0.0597,-0.0584 0.0644,0 0.0952,-0.0368 0.067,-0.0817 -0.0277,-0.0445 0.032,-0.16999 0.13279,-0.27812 0.10078,-0.10813 0.157,-0.22275 0.125,-0.25475 -0.032,-0.032 -0.008,-0.0584 0.0536,-0.0584 0.0618,0 0.11246,-0.0649 0.11246,-0.14403 0,-0.0791 0.0458,-0.14403 0.10164,-0.14403 0.0558,0 0.0753,-0.0433 0.0424,-0.096 -0.0329,-0.0532 -0.0113,-0.0965 0.048,-0.0965 0.0593,0 0.0848,-0.0368 0.0571,-0.0813 -0.0277,-0.045 0.032,-0.16998 0.13278,-0.27811 0.10078,-0.10813 0.15701,-0.22275 0.12457,-0.25476 -0.032,-0.0324 -0.005,-0.0584 0.0597,-0.0584 0.0649,0 0.0951,-0.0368 0.0675,-0.0817 -0.0277,-0.045 0.032,-0.16998 0.13279,-0.27811 0.10078,-0.10813 0.15657,-0.22275 0.12456,-0.25475 -0.032,-0.032 -0.0125,-0.0584 0.0437,-0.0584 0.0558,0 0.12889,-0.10813 0.16176,-0.24005 0.0333,-0.13236 0.10554,-0.24049 0.16047,-0.24049 0.0549,0 0.0731,-0.0433 0.0407,-0.096 -0.0329,-0.0528 -0.0113,-0.096 0.048,-0.096 0.0588,0 0.0822,-0.0406 0.0515,-0.0904 -0.0307,-0.0497 0.013,-0.12846 0.0965,-0.17518 0.0839,-0.0471 0.16479,-0.14705 0.1795,-0.22231 0.0606,-0.30234 0.25043,-0.66566 0.34861,-0.66566 0.0571,0 0.0813,-0.0368 0.0536,-0.0817 -0.0277,-0.0446 0.032,-0.16998 0.13279,-0.27811 0.10077,-0.10813 0.157,-0.22275 0.12499,-0.25476 -0.032,-0.032 -0.008,-0.0584 0.0536,-0.0584 0.0618,0 0.11202,-0.0649 0.11202,-0.14403 0,-0.0791 0.0459,-0.14403 0.10208,-0.14403 0.0558,0 0.0748,-0.0433 0.0424,-0.096 -0.0329,-0.0532 -0.0112,-0.0965 0.048,-0.0965 0.0593,0 0.0809,-0.0433 0.048,-0.096 -0.0329,-0.0528 -0.0182,-0.096 0.032,-0.096 0.0502,0 0.11851,-0.10813 0.15182,-0.24049 0.0329,-0.13192 0.1051,-0.24005 0.16003,-0.24005 0.0549,0 0.0731,-0.0433 0.0407,-0.096 -0.0329,-0.0532 -0.0138,-0.0965 0.0424,-0.0965 0.0558,0 0.10165,-0.0878 0.10165,-0.19507 0,-0.10726 0.0649,-0.22015 0.14359,-0.25043 0.0792,-0.0303 0.12371,-0.0874 0.0995,-0.12673 -0.0242,-0.0394 0.0385,-0.1596 0.13884,-0.26773 0.10078,-0.10813 0.15701,-0.22275 0.125,-0.25519 -0.032,-0.032 -0.008,-0.0579 0.0541,-0.0579 0.0614,0 0.11202,-0.0649 0.11202,-0.14447 0,-0.0792 0.0459,-0.14403 0.10165,-0.14403 0.0562,0 0.0753,-0.0433 0.0424,-0.096 -0.0324,-0.0528 -0.0108,-0.096 0.048,-0.096 0.0593,0 0.0809,-0.0433 0.048,-0.0965 -0.0324,-0.0528 -0.0134,-0.096 0.0424,-0.096 0.0562,0 0.10207,-0.0649 0.10207,-0.14403 0,-0.0796 0.0459,-0.14446 0.10165,-0.14446 0.0558,0 0.0753,-0.0433 0.0424,-0.096 -0.0329,-0.0528 -0.0112,-0.096 0.048,-0.096 0.0592,0 0.0848,-0.0368 0.0571,-0.0817 -0.0277,-0.0446 0.032,-0.16998 0.13278,-0.27811 0.10078,-0.10813 0.15701,-0.22275 0.12457,-0.25476 -0.032,-0.032 -0.005,-0.0584 0.0597,-0.0584 0.0649,0 0.0951,-0.0363 0.0675,-0.0813 -0.0277,-0.045 0.032,-0.16998 0.13279,-0.27812 0.10077,-0.10813 0.15657,-0.22274 0.12456,-0.25475 -0.032,-0.032 -0.005,-0.0584 0.0597,-0.0584 0.0649,0 0.0908,-0.0437 0.058,-0.0969 -0.0329,-0.0532 0.007,-0.1224 0.09,-0.15441 0.0822,-0.0316 0.12587,-0.096 0.0965,-0.14316 -0.0294,-0.0476 -0.005,-0.0861 0.0545,-0.0861 0.0588,0 0.0804,-0.0433 0.048,-0.096 -0.0329,-0.0532 -0.0138,-0.0965 0.0424,-0.0965 0.0558,0 0.10164,-0.0649 0.10164,-0.14403 0,-0.0791 0.0459,-0.14403 0.10165,-0.14403 0.0562,0 0.0753,-0.0433 0.0424,-0.0964 -0.0324,-0.0528 -0.0108,-0.096 0.048,-0.096 0.0593,0 0.0848,-0.0368 0.0571,-0.0813 -0.0277,-0.045 0.032,-0.16999 0.13278,-0.27812 0.10078,-0.10813 0.15701,-0.22275 0.125,-0.25518 -0.032,-0.032 -0.0125,-0.058 0.0433,-0.058 0.0562,0 0.12889,-0.10813 0.1622,-0.24049 0.0329,-0.13192 0.1051,-0.24005 0.16003,-0.24005 0.0549,0 0.0735,-0.0433 0.0407,-0.0964 -0.0324,-0.0528 -0.0108,-0.096 0.048,-0.096 0.0592,0 0.0805,-0.0437 0.0476,-0.0969 -0.0329,-0.0532 0.008,-0.12241 0.09,-0.15398 0.0826,-0.0316 0.12587,-0.0965 0.0965,-0.1436 -0.029,-0.0471 -0.005,-0.0861 0.0545,-0.0861 0.0593,0 0.0809,-0.0433 0.048,-0.096 -0.0329,-0.0528 -0.0134,-0.096 0.0424,-0.096 0.0558,0 0.10164,-0.0882 0.10164,-0.1955 0,-0.10727 0.0649,-0.22016 0.1436,-0.25043 0.0791,-0.0303 0.1237,-0.0874 0.0995,-0.1263 -0.0242,-0.0394 0.0385,-0.16003 0.13927,-0.26816 0.10035,-0.10813 0.15658,-0.22275 0.12457,-0.25476 -0.032,-0.032 -0.005,-0.0584 0.0597,-0.0584 0.0649,0 0.0908,-0.0437 0.0579,-0.0969 -0.0329,-0.0532 0.007,-0.12241 0.09,-0.15442 0.0822,-0.0316 0.12543,-0.096 0.0964,-0.14316 -0.0294,-0.0476 -0.005,-0.0861 0.0541,-0.0861 0.0592,0 0.0809,-0.0433 0.048,-0.096 -0.0324,-0.0532 -0.0134,-0.0965 0.0424,-0.0965 0.0562,0 0.10208,-0.0649 0.10208,-0.14403 0,-0.0791 0.0459,-0.14403 0.10164,-0.14403 0.0562,0 0.0753,-0.0433 0.0424,-0.0965 -0.0324,-0.0528 -0.0108,-0.096 0.048,-0.096 0.0593,0 0.0848,-0.0368 0.0571,-0.0813 -0.0277,-0.045 0.032,-0.16998 0.13279,-0.27811 0.10078,-0.10814 0.157,-0.22275 0.125,-0.25519 -0.0324,-0.032 -0.006,-0.058 0.0592,-0.058 0.0649,0 0.0952,-0.0368 0.0675,-0.0817 -0.0277,-0.045 0.032,-0.16998 0.13278,-0.27811 0.10078,-0.10813 0.15701,-0.22275 0.12457,-0.25476 -0.032,-0.032 -0.0121,-0.0584 0.0437,-0.0584 0.0558,0 0.12889,-0.10813 0.16177,-0.24005 0.0333,-0.13235 0.10553,-0.24048 0.16046,-0.24048 0.0549,0 0.0731,-0.0433 0.0407,-0.096 -0.0329,-0.0528 -0.0113,-0.096 0.048,-0.096 0.0592,0 0.0804,-0.0437 0.0476,-0.0969 -0.0329,-0.0532 0.007,-0.12284 0.09,-0.15442 0.0822,-0.0316 0.12587,-0.096 0.0964,-0.14359 -0.0294,-0.0471 -0.007,-0.0861 0.0485,-0.0861 0.0562,0 0.0952,-0.0324 0.0865,-0.0718 -0.0303,-0.14101 0.20458,-0.60078 0.30709,-0.60078 0.0575,0 0.0813,-0.0368 0.0536,-0.0817 -0.0277,-0.0446 0.032,-0.16999 0.13279,-0.27812 0.10078,-0.10813 0.15701,-0.22275 0.125,-0.25475 -0.032,-0.032 -0.0125,-0.0584 0.0433,-0.0584 0.0562,0 0.12889,-0.10813 0.1622,-0.24005 0.0329,-0.13236 0.1051,-0.24049 0.16003,-0.24049 0.0549,0 0.0735,-0.0433 0.0407,-0.096 -0.0324,-0.0528 -0.0134,-0.096 0.0424,-0.096 0.0562,0 0.10165,-0.0878 0.10165,-0.1955 0,-0.10726 0.0649,-0.21972 0.14403,-0.24999 0.0787,-0.0307 0.1237,-0.0874 0.0991,-0.12673 -0.0242,-0.0394 0.0385,-0.16004 0.13927,-0.26817 0.10034,-0.10813 0.15657,-0.22275 0.12456,-0.25475 -0.032,-0.032 -0.005,-0.0584 0.0597,-0.0584 0.0649,0 0.0952,-0.0368 0.0675,-0.0813 -0.0277,-0.045 0.032,-0.17041 0.13278,-0.27811 0.10035,-0.10813 0.15657,-0.22318 0.12457,-0.25519 -0.032,-0.032 -0.0126,-0.058 0.0437,-0.058 0.0558,0 0.12846,-0.10813 0.16177,-0.24048 0.0333,-0.13235 0.10553,-0.24048 0.16046,-0.24048 0.0549,0 0.0731,-0.0433 0.0402,-0.096 -0.0324,-0.0528 -0.0134,-0.096 0.0424,-0.096 0.0562,0 0.10208,-0.0878 0.10208,-0.19507 0,-0.1077 0.0644,-0.22016 0.1436,-0.25043 0.0787,-0.0303 0.1198,-0.0939 0.0904,-0.14144 -0.0294,-0.0471 -0.005,-0.0861 0.0541,-0.0861 0.0592,0 0.083,-0.0394 0.0532,-0.0882 -0.0303,-0.0485 0.003,-0.14576 0.0731,-0.21626 0.0705,-0.0701 0.13451,-0.17128 0.1423,-0.22405 0.008,-0.0528 0.0588,-0.30363 0.11332,-0.55709 0.28416,-1.32568 -0.11159,-2.96062 -0.91046,-3.75949 -0.25087,-0.25043 -1.71971,-1.459331 -2.11331,-1.738741 -0.14879,-0.105536 -0.34732,-0.264704 -0.44117,-0.352939 -0.0934,-0.08867 -0.26125,-0.209773 -0.37241,-0.269461 -0.11115,-0.05926 -0.17949,-0.144463 -0.15224,-0.189013 0.0277,-0.04455 -0.0467,-0.107265 -0.16523,-0.139705 -0.11851,-0.03201 -0.41046,-0.234427 -0.64835,-0.449823 -0.23789,-0.214964 -0.54887,-0.452852 -0.69074,-0.527678 -0.1423,-0.07526 -0.32699,-0.234428 -0.41046,-0.353371 -0.0835,-0.119377 -0.17344,-0.205016 -0.19983,-0.190743 -0.0268,0.01427 -0.10164,-0.0199 -0.16652,-0.07526 -0.0649,-0.05579 -0.77508,-0.614615 -1.57784,-1.241773 -0.80277,-0.62759 -1.42992,-1.170407 -1.39359,-1.206306 0.0363,-0.03633 0.019,-0.05147 -0.0385,-0.03374 -0.11634,0.03547 -1.57784,-1.073954 -1.57784,-1.198088 0,-0.04325 -0.0433,-0.05233 -0.096,-0.01946 -0.0528,0.03244 -0.096,0.02076 -0.096,-0.02638 0,-0.04671 -0.10683,-0.1423 -0.23702,-0.212369 -0.13062,-0.06964 -0.21453,-0.163494 -0.18685,-0.208476 0.0281,-0.04498 -0.006,-0.08175 -0.0753,-0.08175 -0.0692,-4.32e-4 -0.66652,-0.432523 -1.32698,-0.961066 -0.6609,-0.52811 -1.23658,-0.9602 -1.2794,-0.960633 -0.0428,0 -0.051,-0.04368 -0.0182,-0.09645 0.0324,-0.05277 0.003,-0.09689 -0.0666,-0.09775 -0.13408,-0.0013 -1.7794,-1.268157 -1.94981,-1.501287 -0.0558,-0.07656 -0.19204,-0.191175 -0.30233,-0.255189 -0.37241,-0.215396 -0.9468,-0.63105 -1.32698,-0.959768 l -0.3776,-0.326987 0.10813,-0.856395 c 0.30753,-2.431211 0.4122,-7.909977 0.20805,-10.876651 -0.0554,-0.806655 -0.074,-1.509505 -0.0415,-1.562273 0.0329,-0.05277 0.0216,-0.09559 -0.0247,-0.09559 -0.0463,0 -0.1397,-0.577418 -0.20718,-1.282863 -0.15527,-1.615473 -0.11721,-1.575248 -0.9217,-0.978799" style="fill:#4caf50" />
<path d="m 52.474315,85.929767 c 4.32e-4,0.08823 1.017726,9.915153 1.106393,10.685044 0.09645,0.841689 0.145328,1.305354 0.477938,4.541489 0.187282,1.82395 0.426035,4.11632 0.530273,5.09425 0.104238,0.97794 0.363751,3.44332 0.576553,5.47834 0.212801,2.03545 0.4269,4.04668 0.475775,4.46969 0.04844,0.42257 0.114618,1.07136 0.146625,1.4416 0.03157,0.37024 0.07699,0.82439 0.100345,1.00907 0.02336,0.18512 0.217559,2.02334 0.431658,4.08518 0.214099,2.0614 0.495239,4.76467 0.624563,6.00731 0.4269,4.09945 0.719718,6.95972 0.772486,7.54493 0.02855,0.31704 0.07007,0.68468 0.09256,0.81703 0.02249,0.13235 0.06531,0.5 0.09516,0.81704 0.05147,0.54541 0.08261,0.84255 0.189877,1.80232 0.02509,0.22448 0.328285,3.15482 0.673871,6.51163 1.09385,10.62622 1.086929,10.57648 1.556649,11.51635 0.52119,1.04152 1.444626,1.78503 2.589082,2.08303 0.868938,0.22621 32.883844,0.21886 33.880809,-0.008 1.846873,-0.41998 2.94029,-1.77638 3.208888,-3.97965 0.029,-0.23788 0.1596,-1.16781 0.29109,-2.06616 0.35726,-2.44894 1.10207,-7.66041 1.24307,-8.6989 0.27941,-2.05535 1.31746,-9.38488 1.35466,-9.56351 0.0286,-0.13754 0.29195,-0.29931 0.93036,-0.5705 4.00602,-1.70154 8.87796,-4.5709 12.44454,-7.32909 l 0.59732,-0.46194 -0.30882,-0.15787 c -0.24914,-0.12759 -8.33299,-3.73483 -16.55222,-7.38706 -4.363724,-1.93856 -19.753318,-8.79924 -20.396047,-9.09206 -0.169116,-0.077 -2.137095,-0.95587 -4.373238,-1.95284 -2.236143,-0.99696 -4.184658,-1.86763 -4.329986,-1.93554 -0.145327,-0.0675 -0.264271,-0.17474 -0.264271,-0.23789 0,-0.0631 -0.400084,-0.27724 -0.889267,-0.47534 -4.694603,-1.90137 -8.640076,-4.77938 -11.542736,-8.419055 -0.355967,-0.446364 -0.725341,-0.897918 -0.820929,-1.003886 -0.09559,-0.105535 -0.228804,-0.300171 -0.29671,-0.432522 -0.06747,-0.13192 -0.200691,-0.326555 -0.295413,-0.432523 -1.145321,-1.276375 -3.320478,-6.070025 -4.034573,-8.890507 -0.191175,-0.755617 -0.286763,-1.026809 -0.28633,-0.80925" style="fill:#42a5f5" />
<path d="m 59.481184,60.432547 c -0.444201,0.333475 -1.240043,0.916516 -1.768586,1.296271 -0.904837,0.649649 -3.88665,2.813129 -5.560513,4.034573 -0.415222,0.302766 -0.876724,0.637106 -1.025944,0.743074 -0.148788,0.105536 -1.164784,0.840825 -2.256904,1.634071 -2.27334,1.650075 -3.285011,2.383201 -5.687675,4.124105 -0.942034,0.682521 -2.015556,1.463658 -2.385363,1.736147 -2.240036,1.647912 -4.372373,3.204129 -5.558783,4.056199 -1.313572,0.943765 -2.317457,1.672998 -3.167365,2.301021 -0.831741,0.614615 -5.047541,3.676877 -5.543212,4.025923 -0.149653,0.105968 -0.627158,0.451986 -1.060546,0.769025 -0.433388,0.317039 -1.09731,0.792814 -1.475768,1.057518 -0.378025,0.264272 -0.839094,0.592989 -1.024214,0.730531 -1.760368,1.307084 -2.269879,1.660456 -2.409584,1.670836 -0.0891,0.0065 -0.28633,0.09472 -0.438146,0.196365 -0.151815,0.101211 -0.308389,0.174307 -0.347748,0.162629 -0.03979,-0.01168 -0.07223,0.01687 -0.07223,0.06315 0,0.150086 -2.304914,1.754313 -2.4191,1.683379 -0.06401,-0.03936 -0.08348,-0.02509 -0.04628,0.03504 0.06315,0.102075 -1.080442,0.984421 -1.276374,0.984421 -0.05666,0 -0.102941,0.04585 -0.102941,0.101643 0,0.05623 -0.04974,0.07093 -0.111158,0.0333 -0.06445,-0.03979 -0.08478,-0.02638 -0.04888,0.03201 0.08002,0.129325 -0.387541,0.439011 -0.530273,0.350776 -0.06358,-0.03936 -0.08175,-0.02379 -0.04368,0.03763 0.07785,0.126296 -0.315309,0.422142 -0.449824,0.339098 -0.05363,-0.0333 -0.06531,-0.01038 -0.02682,0.0519 0.04066,0.06574 0.0074,0.111159 -0.08132,0.111159 -0.08218,0 -0.149652,0.03503 -0.149652,0.07785 0,0.109861 -0.586069,0.530705 -0.738749,0.530705 -0.06964,0 -0.105536,0.02119 -0.07959,0.04671 0.0878,0.0878 -0.714527,0.608559 -0.828713,0.538058 -0.06618,-0.04109 -0.08737,-0.02855 -0.05104,0.03028 0.03417,0.05536 -0.08867,0.215396 -0.273354,0.356399 -0.184688,0.140569 -0.335638,0.236157 -0.335638,0.212368 0,-0.02379 -0.134082,0.08218 -0.298441,0.235293 -0.163926,0.153545 -0.354236,0.278977 -0.422142,0.278977 -0.06791,0 -0.148788,0.06488 -0.179064,0.14403 -0.03028,0.07958 -0.118079,0.144463 -0.194635,0.144463 -0.07656,0 -0.153546,0.03503 -0.17128,0.07829 -0.03763,0.09256 -1.4640893,1.170839 -1.5484312,1.170839 -0.031574,0 -0.1980955,0.128892 -0.3702396,0.285898 -0.172144,0.157438 -0.3287173,0.269894 -0.3481808,0.250863 -0.019031,-0.01946 -0.1725766,0.09083 -0.340828,0.244376 -0.1678189,0.153545 -0.3594265,0.258648 -0.4256025,0.233129 -0.066176,-0.02509 -0.1098607,-0.0078 -0.097318,0.03893 0.035034,0.130622 -0.9991277,0.871966 -1.1198015,0.803195 -0.058823,-0.0333 -0.075691,-0.02638 -0.038062,0.01557 0.092992,0.102508 -0.3767271,0.463665 -0.5025913,0.386243 -0.054498,-0.03417 -0.08737,-0.01125 -0.073096,0.05061 0.014706,0.06185 -0.060121,0.162196 -0.1656563,0.223182 -0.1059681,0.06142 -0.2197216,0.14922 -0.2534583,0.195933 -0.033737,0.04628 -0.1163487,0.0506 -0.1833897,0.0091 -0.075692,-0.04715 -0.09775,-0.03633 -0.057958,0.02811 0.082179,0.132352 -0.4052739,0.520757 -0.5497365,0.438145 -0.060121,-0.03417 -0.077854,-0.02768 -0.040225,0.01427 0.061418,0.06791 -0.2880602,0.413063 -0.4692872,0.463233 -0.03936,0.0108 -0.160466,0.1064 -0.2694618,0.21193 -0.1089957,0.10597 -0.3200668,0.27898 -0.4688547,0.38452 -0.4593392,0.32655 -0.6392687,0.4987 -0.6392687,0.61202 0,0.0601 -0.043252,0.10899 -0.09602,0.10899 -0.052768,0 -0.088667,0.0324 -0.079584,0.0722 0.036332,0.15571 -0.2430778,0.59083 -0.3429906,0.53417 -0.058391,-0.0333 -0.076557,-0.0277 -0.040225,0.013 0.036332,0.0402 0.022491,0.18771 -0.030709,0.32785 -0.5358957,1.40613 -0.3585614,2.37412 0.8096827,4.42903 0.8948897,1.57352 0.9074329,1.59904 0.738749,1.49437 -0.081747,-0.0502 -0.099913,-0.0381 -0.054065,0.0363 0.038495,0.0618 0.1016429,0.093 0.1405699,0.0688 0.077422,-0.0476 1.8105405,2.90266 1.7577727,2.99219 -0.017733,0.0303 0.00908,0.0813 0.059688,0.11332 0.1916076,0.12327 0.704147,1.0692 0.6375384,1.17733 -0.038495,0.0623 -0.028979,0.0874 0.022059,0.0562 0.075692,-0.0471 1.4757678,2.21754 1.4757678,2.38753 0,0.0294 -0.050173,0.0229 -0.1111583,-0.0151 -0.069204,-0.0428 -0.084774,-0.026 -0.041522,0.0441 0.038494,0.0619 0.1012103,0.093 0.1401374,0.0692 0.061418,-0.0381 1.4541417,2.26123 1.4541417,2.40093 0,0.0294 -0.050173,0.0225 -0.1111584,-0.0151 -0.069204,-0.0428 -0.084774,-0.0264 -0.04109,0.0441 0.038062,0.0619 0.1016429,0.0926 0.141435,0.0679 0.079152,-0.0489 1.7889148,2.86157 1.7491228,2.97662 -0.01384,0.0389 0.01644,0.0973 0.06704,0.12976 0.105535,0.0675 0.693766,1.00734 0.693766,1.10855 0,0.0368 -0.05017,0.0359 -0.111158,-0.002 -0.0692,-0.0428 -0.08477,-0.0264 -0.04152,0.0441 0.0385,0.0618 0.10121,0.093 0.140137,0.0692 0.06142,-0.0381 1.454141,2.2608 1.454141,2.4005 0,0.0298 -0.04974,0.0229 -0.111158,-0.0147 -0.0692,-0.0428 -0.08477,-0.0264 -0.04109,0.0441 0.03806,0.0619 0.102076,0.0921 0.141868,0.0675 0.07785,-0.048 3.227485,5.36069 3.18899,5.47704 -0.01254,0.0385 0.02076,0.0969 0.07439,0.13019 0.05407,0.0333 0.600342,0.92343 1.214524,1.97836 0.614183,1.05492 1.163054,1.94678 1.220147,1.98225 0.05709,0.035 0.07353,0.11332 0.03633,0.17344 -0.0372,0.0601 -0.03157,0.0977 0.01168,0.0835 0.141868,-0.0458 0.534598,0.29066 0.467125,0.40009 -0.03633,0.0584 -0.02465,0.0943 0.02595,0.0796 0.08218,-0.0238 1.150078,0.4801 1.268157,0.59861 0.174739,0.17431 2.839512,0.16782 2.734409,-0.007 -0.02552,-0.0424 0.733992,-0.36548 1.014266,-0.43165 0.02638,-0.006 0.212369,-0.0848 0.41306,-0.17431 0.952847,-0.42474 1.303623,-0.53287 1.350768,-0.41652 0.02595,0.064 0.05061,0.0381 0.05493,-0.0575 0.0039,-0.096 0.05061,-0.14749 0.103373,-0.11461 0.0532,0.0324 0.09645,0.0182 0.09645,-0.032 0,-0.0731 0.287628,-0.19766 0.576553,-0.24913 0.02638,-0.005 0.199393,-0.0809 0.384513,-0.16869 0.823523,-0.39186 1.33217,-0.5519 1.379315,-0.43511 0.02638,0.0653 0.0506,0.0433 0.05493,-0.0506 0.0043,-0.0986 0.114618,-0.19161 0.271624,-0.22924 0.145328,-0.0346 0.318337,-0.10597 0.384513,-0.15787 0.08391,-0.0657 0.120674,-0.0545 0.121539,0.0372 0.0013,0.0973 0.02076,0.10207 0.07483,0.0169 0.09386,-0.14793 1.442464,-0.72448 1.583466,-0.67733 0.05839,0.0195 0.188148,-0.0463 0.28806,-0.1462 0.09991,-0.0999 0.243511,-0.15787 0.318337,-0.12889 0.07526,0.0285 0.13711,0.008 0.13711,-0.0463 0,-0.0545 0.04325,-0.0722 0.09602,-0.0394 0.05277,0.0324 0.09602,0.0221 0.09602,-0.0238 0,-0.0826 0.836499,-0.41911 0.998263,-0.40181 0.04714,0.005 0.112023,-0.029 0.144462,-0.0757 0.07007,-0.10164 1.163919,-0.52422 1.163919,-0.44983 0,0.0281 0.06791,-0.0164 0.151383,-0.0995 0.134515,-0.13494 0.337368,-0.19506 0.545411,-0.16262 0.03979,0.006 0.07223,-0.0368 0.07223,-0.0956 0,-0.0623 0.09948,-0.0882 0.237455,-0.0623 0.130622,0.0251 0.216261,0.0117 0.190742,-0.0298 -0.02595,-0.042 -0.003,-0.10294 0.05104,-0.13624 0.05363,-0.0333 0.09732,-0.0112 0.09732,0.0484 0,0.0675 0.05233,0.0562 0.137974,-0.029 0.07526,-0.0757 0.496969,-0.28027 0.936845,-0.45501 0.439875,-0.17431 0.849042,-0.35467 0.909163,-0.40095 0.06055,-0.0459 0.24005,-0.093 0.399218,-0.10467 0.159169,-0.0112 0.275085,-0.0445 0.257351,-0.0731 -0.06098,-0.0995 1.5653,-0.69463 1.689002,-0.61807 0.08477,0.0523 0.09775,0.0368 0.04282,-0.0519 -0.05753,-0.0934 -0.03417,-0.11029 0.0865,-0.064 0.09083,0.0346 0.141868,0.0259 0.113754,-0.0195 -0.0506,-0.0817 0.738316,-0.42777 0.975339,-0.42777 0.06791,0 0.123269,-0.0359 0.123269,-0.08 0,-0.0441 0.03244,-0.0709 0.0718,-0.0597 0.03979,0.0112 0.166089,-0.0316 0.280708,-0.0956 0.163926,-0.0908 0.218856,-0.09 0.256918,0.004 0.02811,0.0701 0.05104,0.0502 0.0558,-0.0489 0.0039,-0.0926 0.06877,-0.16826 0.143597,-0.16826 0.07483,0 0.338666,-0.0869 0.586501,-0.1929 l 0.450257,-0.19334 0.446796,0.36678 c 1.214524,0.99567 3.284145,2.34817 5.973572,3.90222 2.200243,1.27162 3.695475,2.05924 4.206284,2.21581 0.119809,0.0368 0.19723,0.0995 0.172577,0.13971 -0.02509,0.0402 0.0069,0.0735 0.0705,0.074 0.06401,4.3e-4 0.721448,0.26514 1.461494,0.58866 1.806216,0.78936 1.89099,0.80752 1.827409,0.39057 -0.02725,-0.17776 -0.28806,-2.63709 -0.57958,-5.46535 -0.291521,-2.82827 -0.548872,-5.29365 -0.571795,-5.47877 -0.02292,-0.18469 -0.06747,-0.61721 -0.09905,-0.96107 -0.03157,-0.34342 -0.07656,-0.77594 -0.09948,-0.96106 -0.05277,-0.41998 -0.223182,-2.00258 -0.285465,-2.64315 -0.02509,-0.26427 -0.13192,-1.2807 -0.237023,-2.25863 -0.105103,-0.97794 -0.473612,-4.52462 -0.819631,-7.88187 -0.346018,-3.35681 -0.647054,-6.25471 -0.669545,-6.4394 -0.02249,-0.18512 -0.06704,-0.59601 -0.09948,-0.91348 -0.03201,-0.31704 -0.07699,-0.74957 -0.09991,-0.96107 C 53.85794,99.459676 53.81166,99.022395 53.76711,98.560893 53.739,98.270238 53.653357,97.470071 53.5768,96.782792 52.686236,88.805341 52.362276,85.075265 52.535285,84.795422 c 0.03547,-0.05796 0.02336,-0.07958 -0.02682,-0.04844 -0.112023,0.0692 -0.297576,-1.492636 -0.366779,-3.085618 -0.01903,-0.440308 -0.06012,-0.826119 -0.09126,-0.85726 -0.113321,-0.112889 -0.06315,-1.769884 0.05147,-1.699382 0.07439,0.04585 0.08175,0.0199 0.02379,-0.08261 -0.04628,-0.08218 -0.06834,-0.509945 -0.04888,-0.950253 0.01903,-0.440308 0.06445,-0.720583 0.100778,-0.6224 0.03633,0.09775 0.0692,-0.118511 0.07353,-0.480533 0.01427,-1.188573 0.02379,-1.283728 0.129757,-1.283728 0.05752,0 0.07958,-0.04066 0.04888,-0.08996 -0.07915,-0.12846 0.152248,-1.45198 0.244375,-1.395319 0.04196,0.02638 0.05753,-0.05666 0.03417,-0.184255 -0.06142,-0.339098 0.41652,-2.088652 0.610723,-2.236575 0.09905,-0.07483 0.117213,-0.125864 0.04628,-0.127594 -0.08305,-0.0022 -0.09299,-0.06704 -0.03417,-0.21929 0.04628,-0.118943 0.139705,-0.410896 0.207611,-0.648784 0.06791,-0.237887 0.153113,-0.475775 0.189013,-0.528975 0.0359,-0.05277 0.09386,-0.214964 0.128459,-0.360292 0.03893,-0.161331 0.128027,-0.264704 0.22967,-0.265569 0.112023,-0.0013 0.129324,-0.02552 0.05233,-0.07439 -0.119376,-0.07569 0.746102,-2.212786 0.94636,-2.336488 0.05363,-0.0333 0.09126,-0.0891 0.08434,-0.124134 -0.02811,-0.140137 0.510377,-1.010806 0.593421,-0.959335 0.04888,0.02984 0.07829,-0.0035 0.06574,-0.07483 -0.02941,-0.164359 0.206313,-0.658732 0.314011,-0.658732 0.04412,0 0.0718,-0.03244 0.06099,-0.0718 -0.06272,-0.228372 0.751292,-1.403969 0.905703,-1.308814 0.06315,0.03936 0.07699,0.02033 0.03503,-0.04801 -0.0917,-0.148355 0.314877,-0.801897 0.447661,-0.719718 0.05623,0.03503 0.07656,0.02119 0.04455,-0.03028 -0.06747,-0.108995 0.977934,-1.459332 2.015124,-2.602922 0.395325,-0.436415 0.700687,-0.793247 0.678195,-0.793247 -0.02206,0 -0.403976,0.272922 -0.848177,0.606397" style="fill:#7e57c2" />
</svg>
