<svg xmlns="http://www.w3.org/2000/svg" viewBox="0 0 160 160"><path d="M 78.065104,2.2283233e-4 A 5.0023591,5.0003046 0 0 0 77.732808,0.00760444 C 62.538715,0.98373157 47.911585,5.9429386 35.426225,14.357438 c -0.05044,0.03379 -0.09733,0.06206 -0.147697,0.09596 a 5.0023591,5.0003046 0 0 0 -0.01478,0.0074 c -37.4640961,25.376309 -46.557649,75.50157 -20.115727,111.565512 26.484646,36.12283 78.329713,44.77892 115.946149,19.48743 12.44336,-8.36627 22.28985,-19.85014 28.44562,-33.23197 a 5.0023591,5.0003046 0 0 0 -7.07449,-6.40723 C 124.42648,122.30073 87.857009,114.98868 69.041082,89.324988 50.193913,63.618997 55.399566,28.629086 81.092808,8.9688691 A 5.0023591,5.0003046 0 0 0 78.065104,2.2283233e-4 Z M 63.066915,13.013987 C 44.200966,36.546161 42.43395,69.946368 60.97706,95.237651 c 18.588177,25.353059 51.72362,35.010149 81.14975,25.842989 -4.68785,6.11617 -10.05642,11.72625 -16.61542,16.13618 C 92.311768,159.53865 46.465885,151.81987 23.219423,120.11365 0.01403073,88.463985 7.8098702,45.148212 40.861315,22.750319 c 0.04736,-0.03186 0.09377,-0.06478 0.140296,-0.09596 a 5.0023591,5.0003046 0 0 0 0.01474,-0.0074 c 6.697682,-4.513893 14.235405,-7.476484 22.050542,-9.633 z"/></svg>
