<svg xmlns="http://www.w3.org/2000/svg" viewBox="0 0 160 160"><path d="M140.04 149.998H85v-70h55.04zm-119.952-70H75v70H20.087zM10 50.065h65v19.933H10zm140 19.933H85V50.065h65zM38.887 14.89c12.438 0 25.415 14.62 32.52 25.17H54.475c-11.66 0-24.527-6.147-24.527-17.255 0-5.472 2.757-7.915 8.94-7.915zm82.348 0c6.182 0 8.94 2.598 8.94 8.073 0 11.107-12.398 17.1-24.058 17.1H89.19C96.295 29.51 108.8 14.89 121.235 14.89zM160 50.065c0-5.522-4.478-10-10-10h-17.07c4.418-4.357 7.245-10.07 7.245-17.105 0-8.662-4.975-18.072-18.94-18.072-18.375 0-33.725 19.565-40.938 30.532C73.08 24.455 57.26 4.89 38.887 4.89c-13.965 0-18.94 9.41-18.94 18.073 0 7.032 2.905 12.747 7.413 17.105H10c-5.522 0-10 4.477-10 10V80h10.088v70c0 5.522 4.477 10 10 10h119.95c5.522 0 10-4.478 10-10V79.998H160z"/></svg>