<svg xmlns="http://www.w3.org/2000/svg" width="160" height="160"><path d="M80 60a40 40 0 0 0-40 40 40 40 0 0 0 40 40 40 40 0 0 0 40-40 40 40 0 0 0-40-40zm0 10a7.5 7.5 0 0 1 7.5 7.5v25a7.5 7.5 0 1 1-15 0v-25A7.5 7.5 0 0 1 80 70zm0 45a7.5 7.5 0 1 1 0 15 7.5 7.5 0 0 1 0-15zm74.475-52.977h-13.794V40.212H19.313v21.811H5.518C2.472 62.023 0 64.463 0 67.468c0 3.012 2.472 5.445 5.518 5.445h13.795v70.373c0 9.203 7.557 16.66 16.88 16.66h87.614c9.323 0 16.88-7.457 16.88-16.66V72.913h13.795c3.046 0 5.518-2.44 5.518-5.445-.007-3.006-2.472-5.445-5.525-5.445zm-24.824 81.27c0 3.179-2.619 5.771-5.844 5.771H36.193c-3.225 0-5.844-2.592-5.844-5.771V51.108h99.302zM20.232 30.836h120.449c3.045 0 5.518-2.44 5.518-5.445 0-3.005-2.466-5.444-5.518-5.444h-40.459V8.397c0-5.005-3.665-8.397-8.736-8.397H72.18c-5.072 0-8.737 3.392-8.737 8.397v11.55H20.226c-3.046 0-5.518 2.439-5.518 5.444.007 3.013 2.479 5.445 5.524 5.445zm54.02-20.173h14.941v9.284h-14.94z"/></svg>