<?xml version="1.0" encoding="utf-8"?>
<!-- Generator: Adobe Illustrator 27.6.1, SVG Export Plug-In . SVG Version: 6.00 Build 0)  -->
<svg version="1.1" id="Warstwa_1" xmlns="http://www.w3.org/2000/svg" xmlns:xlink="http://www.w3.org/1999/xlink" x="0px" y="0px"
	 viewBox="0 0 160 160" style="enable-background:new 0 0 160 160;" xml:space="preserve">
<path d="M24.4,19.2c-2.9,0-5.2,2.3-5.2,5.2c0,1.4,0.6,2.8,1.6,3.7L72.6,80l-51.9,51.9c-2,2-2.1,5.3,0,7.4c2,2,5.3,2.1,7.4,0
	c0,0,0,0,0,0L80,87.4l51.9,51.9c2,2,5.3,2.1,7.4,0c2-2,2.1-5.3,0-7.4c0,0,0,0,0,0L87.4,80l51.9-51.9c2-2,2.1-5.3,0-7.4
	s-5.3-2.1-7.4,0c0,0,0,0,0,0L80,72.6L28.1,20.8C27.1,19.7,25.8,19.2,24.4,19.2z"/>
</svg>
