<svg xmlns="http://www.w3.org/2000/svg" viewBox="0 0 160 160"><path d="M109.426 139.088c3.045 0 5.518-2.44 5.518-5.445V66.622c0-3.006-2.466-5.445-5.518-5.445-3.046 0-5.518 2.44-5.518 5.445v67.021c0 3.006 2.465 5.445 5.518 5.445zm-29.423 0c3.046 0 5.518-2.44 5.518-5.445V66.622c0-3.006-2.465-5.445-5.518-5.445-3.045 0-5.518 2.44-5.518 5.445v67.021c0 3.006 2.466 5.445 5.518 5.445zm-29.429 0c3.046 0 5.518-2.44 5.518-5.445V66.622c0-3.006-2.465-5.445-5.518-5.445-3.045 0-5.518 2.44-5.518 5.445v67.021c.007 3.006 2.473 5.445 5.518 5.445zm103.901-77.011h-13.794V40.265H19.313v21.812H5.518C2.472 62.077 0 64.516 0 67.52c0 3.013 2.472 5.445 5.518 5.445h13.795v70.374c0 9.203 7.557 16.66 16.88 16.66h87.614c9.323 0 16.88-7.457 16.88-16.66V72.966h13.795c3.046 0 5.518-2.44 5.518-5.445-.007-3.005-2.472-5.444-5.525-5.444zm-24.824 81.27c0 3.178-2.619 5.77-5.844 5.77H36.193c-3.225 0-5.844-2.592-5.844-5.77V51.16h99.302zM20.232 30.888h120.449c3.045 0 5.518-2.439 5.518-5.444 0-3.006-2.466-5.445-5.518-5.445h-40.459V8.45c0-5.005-3.665-8.397-8.736-8.397H72.18c-5.072 0-8.737 3.392-8.737 8.397V20H20.226c-3.046 0-5.518 2.44-5.518 5.445.007 3.012 2.479 5.444 5.524 5.444zm54.02-20.173h14.941V20h-14.94z"/></svg>