<svg xmlns="http://www.w3.org/2000/svg" width="160" height="160"><path d="M156.209.158a5.047 5.047 0 0 0-2.598.024L3.703 41.557a5.047 5.047 0 0 0-2.271 8.386L33.127 82.48a5.047 5.047 0 0 0 7.135.094 5.047 5.047 0 0 0 .093-7.136L14.617 49.014 147.98 12.207l-32.884 132.725-28.885-29.653a5.047 5.047 0 0 0-7.156-.074l-27.24 26.826.294-28.623 56.047-55.193a5.047 5.047 0 0 0 .055-7.137 5.047 5.047 0 0 0-7.137-.055l-57.531 56.655a5.047 5.047 0 0 0-1.506 3.543l-.443 42.937a5.047 5.047 0 0 0 8.588 3.647l32.341-31.848 31.674 32.518a5.047 5.047 0 0 0 8.514-2.307L159.85 6.26A5.047 5.047 0 0 0 156.21.158z"/></svg>