<svg xmlns="http://www.w3.org/2000/svg" viewBox="0 0 160 160"><path d="M79.656 0c-10.986 0-20 9.014-20 20 0 9.372 6.597 17.245 15.344 19.375V92.5L25 71.656V39.72c8.62-2.22 15.094-10 15.094-19.282 0-10.986-9.014-20-20-20-10.987 0-20 9.014-20 20 0 9.226 6.363 16.976 14.906 19.25V75a5 5 0 0 0 3.063 4.625L75 103.344v17.375c-8.573 2.253-15 10.034-15 19.281 0 10.986 9.014 20 20 20s20-9.014 20-20c0-9.247-6.427-17.028-15-19.281V83.344l56.938-23.719A5 5 0 0 0 145 55V39.812c8.491-2.309 14.844-10.03 14.844-19.218 0-10.987-9.014-20-20-20-10.987 0-20 9.013-20 20 0 9.316 6.486 17.158 15.156 19.343v11.72L85 72.5V39.187C93.409 36.824 99.656 29.13 99.656 20c0-10.986-9.013-20-20-20zm0 10c5.582 0 10 4.418 10 10s-4.418 10-10 10-10-4.418-10-10 4.418-10 10-10zm-59.562.438c5.582 0 10 4.417 10 10 0 5.582-4.418 10-10 10s-10-4.418-10-10c0-5.583 4.418-10 10-10zm119.75.156c5.582 0 10 4.418 10 10s-4.418 10-10 10-10-4.418-10-10 4.418-10 10-10zM80 130c5.582 0 10 4.418 10 10s-4.418 10-10 10-10-4.418-10-10 4.418-10 10-10z"/></svg>