<svg xmlns="http://www.w3.org/2000/svg" viewBox="0 0 160 160"><path d="M155.001 60h-10.002A4.998 4.998 0 0 0 140 64.999V75A4.998 4.998 0 0 0 144.999 80h10.002A4.998 4.998 0 0 0 160 75.001V65A4.994 4.994 0 0 0 155.001 60zm0 30h-10.002A4.998 4.998 0 0 0 140 94.999V105a4.998 4.998 0 0 0 4.999 4.999h10.002a4.998 4.998 0 0 0 4.999-4.999V95A4.994 4.994 0 0 0 155.001 90zM125.168 0a5.003 5.003 0 0 0-5 4.916h-.166v110.51c0 8.283 6.714 14.997 14.997 14.997.571.227-.68.333-.027.333h19.995a5 5 0 0 0 5-4.999c.02-3.304-2.888-5.706-6.25-5.332H135a5 5 0 0 1-4.999-4.999l.167-110.427a5 5 0 0 0-5-4.999zM44.997 30C36.714 30 30 36.714 30 44.997v45.005H14.997C6.714 90.002 0 96.716 0 105v25.757c0 8.283 6.714 14.997 14.997 14.997h1.5C18.547 153.931 25.935 160 34.743 160c8.688 0 15.998-5.904 18.163-13.914h7.01C62.083 154.096 69.392 160 78.08 160c9.176 0 16.834-6.55 18.496-15.247C102.817 142.512 110 140 110 130.756V89.043c-.79-4.496-14.228-30.97-22.328-44.046C82.902 37.432 78.827 30 72.676 30zm0 9.998H70c2.76 0 3.477 2.598 4.999 4.999L100 90.002H39.998V44.997a5 5 0 0 1 4.999-5zm-30 60.002H100l.193 30.756c.33 1.023-.193 4.244-4.867 2.833-2.917-6.628-9.548-11.248-17.246-11.248-8.565 0-15.801 5.745-18.08 13.58h-7.178c-2.278-7.835-9.515-13.58-18.08-13.58-8.505 0-15.749 5.66-18.079 13.414h-1.666a5 5 0 0 1-5-4.999V105a5 5 0 0 1 5-4.999zm19.746 30.506a10.656 10.656 0 0 1 10.664 10.665 10.656 10.656 0 0 1-10.664 10.664 10.656 10.656 0 0 1-10.665-10.664 10.656 10.656 0 0 1 10.665-10.665zm43.337 0a10.656 10.656 0 0 1 10.664 10.665 10.656 10.656 0 0 1-10.664 10.664 10.656 10.656 0 0 1-10.665-10.664 10.656 10.656 0 0 1 10.665-10.665z"/></svg>