<svg xmlns="http://www.w3.org/2000/svg" viewBox="0 0 160 160"><path d="M72.455 134.739c6.936 0 12.558 5.654 12.558 12.632 0 6.975-5.622 12.629-12.558 12.629-6.937 0-12.56-5.654-12.56-12.629-.002-6.978 5.623-12.632 12.56-12.632zm45.213 0c6.937 0 12.559 5.654 12.559 12.632 0 6.975-5.622 12.629-12.559 12.629-6.936 0-12.558-5.654-12.558-12.629 0-6.978 5.622-12.632 12.558-12.632zm-17.63-115.22l23.886 20.487H76.153zm-32.98 90.387L51.169 50h107.005l1.528-3.298a5.064 5.064 0 0 0-.6-4.597c-.936-1.337-2.472-2.099-4.097-2.099h-15.59l-32.28-27.683a9.988 9.988 0 0 0-14.191 0l-31.68 27.683H48.37l-8.095-27.714C37.112 1.272 29.57 0 26.484 0H4.997C2.24 0 0 2.324 0 5.097a4.99 4.99 0 0 0 4.997 4.997h21.487c.68 0 2.78-.028 4.197 4.897l27.783 101.311c.604 2.169 2.558 3.698 4.797 3.698h67.858c2.104 0 3.987-1.4 4.697-3.398l2.163-6.649zm62.893-53.211c-1.602 1.603-1.734 4.344 0 5.804L142.596 75h-44.03a4.105 4.105 0 0 0-4.104 4.104C94.462 81.37 96.3 85 98.567 85h44.287l-12.9 13.311a4.104 4.104 0 1 0 5.803 5.804L160 80l-24.243-23.305a4.106 4.106 0 0 0-5.806 0z"/></svg>