<svg xmlns="http://www.w3.org/2000/svg" viewBox="0 0 160 160"><path d="M72.455 134.739c6.936 0 12.558 5.654 12.558 12.632 0 6.975-5.622 12.629-12.558 12.629-6.937 0-12.56-5.654-12.56-12.629-.002-6.978 5.623-12.632 12.56-12.632zm45.213 0c6.937 0 12.559 5.654 12.559 12.632 0 6.975-5.622 12.629-12.559 12.629-6.936 0-12.558-5.654-12.558-12.629 0-6.978 5.622-12.632 12.558-12.632zm-17.63-115.22l23.886 20.487H76.153zM147.908 50l-20.387 59.906-72.521.047 3.464 6.35c.604 2.168 2.558 3.697 4.797 3.697h67.858c2.104 0 3.987-1.4 4.697-3.398l23.885-69.9a5.064 5.064 0 0 0-.6-4.597c-.936-1.337-2.472-2.099-4.097-2.099h-15.59l-32.28-27.683a9.988 9.988 0 0 0-14.191 0l-31.68 27.683H48.37l-8.095-27.714C37.112 1.272 29.57 0 26.484 0H4.997C2.24 0 0 2.324 0 5.097a4.99 4.99 0 0 0 4.997 4.997h21.487c.68 0 2.78-.028 4.197 4.897L40 50zM37.069 60c-1.674 1.674-1.592 4.31 0 6.062L49.73 80H4.287A4.287 4.287 0 0 0 0 84.287C0 86.653 1.919 90.031 4.287 90H50l-12.93 13.938A4.286 4.286 0 1 0 43.132 110l25.322-25.58L43.132 60a4.289 4.289 0 0 0-6.064 0z"/></svg>