<svg xmlns="http://www.w3.org/2000/svg" viewBox="0 0 160 160"><path d="M72.454 134.739c6.937 0 12.56 5.654 12.56 12.632 0 6.975-5.623 12.629-12.56 12.629-6.936 0-12.558-5.654-12.558-12.629-.003-6.978 5.622-12.632 12.558-12.632zm45.214 0c6.937 0 12.559 5.654 12.559 12.632 0 6.975-5.622 12.629-12.559 12.629-6.936 0-12.558-5.654-12.558-12.629 0-6.978 5.622-12.632 12.558-12.632zM4.997 0C2.24 0 0 2.324 0 5.097a4.99 4.99 0 0 0 4.997 4.997h21.487c.68 0 2.78-.028 4.197 4.897l27.783 101.311c.604 2.169 2.558 3.698 4.797 3.698h67.858c2.104 0 3.987-1.4 4.697-3.398l23.885-69.9a5.064 5.064 0 0 0-.6-4.597c-.936-1.337-2.472-2.099-4.097-2.099h-15.59l-32.28-27.683a9.988 9.988 0 0 0-14.191 0l-31.68 27.683H48.37l-8.095-27.714C37.112 1.272 29.57 0 26.484 0zm95.041 19.519l23.886 20.487H76.153zM51.168 50h96.74l-20.387 59.906H67.06z"/></svg>