<svg xmlns="http://www.w3.org/2000/svg" viewBox="0 0 160 160"><path d="M140 150h-25v-30h25zm-60-30h25v30H80zM70 95.418h35V110H70zM150 110h-35V95.418h35zM85.524 69.52c7.648 0 15.628 8.99 19.997 15.477H95.11c-7.17 0-15.083-3.78-15.083-10.61 0-3.366 1.696-4.868 5.498-4.868zm50.638 0c3.802 0 5.498 1.596 5.498 4.963 0 6.83-7.624 10.515-14.794 10.515h-10.41c4.37-6.489 12.06-15.479 19.706-15.479zM160 95.417C160 90 155 85 150 85h-6.646c4.13 0 6.642-6.48 6.646-10.518C150 65 145 60 135 60c-11.3 0-25 10-24.012 22.144C110 70 96.298 60 85 60c-10 0-15 5-15 14.483 0 4.325 5 10.517 8.435 10.519H70c-5 0-10 4.998-10 10.416V120h10v30c0 3.396 6.604 10 10 10h59.998c3.396 0 10.002-6.602 10.002-9.998V120h10zm-59.962-75.9l23.886 20.488H76.153zM59.153 80l-7.985-30h107.108l1.425-3.298a5.064 5.064 0 0 0-.6-4.597c-.936-1.337-2.472-2.099-4.097-2.099h-15.59l-32.28-27.683a9.988 9.988 0 0 0-14.191 0l-31.68 27.683H48.37l-8.095-27.714C37.112 1.272 29.57 0 26.484 0H4.997C2.24 0 0 2.324 0 5.097a4.99 4.99 0 0 0 4.997 4.997h21.487c.68 0 2.78-.028 4.197 4.897L48.475 80z"/></svg>