<svg xmlns="http://www.w3.org/2000/svg" viewBox="0 0 160 160"><path d="M 95.007812 0.001953125 C 91.407669 0.001953125 87.807877 1.3614791 85.09375 4.0800781 L 63.126953 26.082031 L 50.720703 13.654297 A 4.9963825 5.0046142 0 0 0 43.65625 13.654297 C 19.906292 37.443384 7.2097033 68.949997 10.855469 97.164062 C 11.348483 100.97943 12.155287 104.64437 13.236328 108.15039 C 12.732071 108.55695 12.238776 108.98702 11.769531 109.45703 L 5.3945312 115.84375 C -1.7998561 123.04999 -1.7998561 134.86212 5.3945312 142.06836 L 18.146484 154.83984 C 25.340868 162.04608 37.157175 162.04608 44.351562 154.83984 L 50.726562 148.45508 C 51.192161 147.98871 51.616654 147.49887 52.019531 146.99805 C 55.519603 148.08077 59.179411 148.88901 62.988281 149.38281 C 91.155942 153.03459 122.61137 140.31643 146.36133 116.52734 A 4.9963825 5.0046142 0 0 0 146.36133 109.45117 L 133.95312 97.023438 L 155.92969 75.009766 C 161.35795 69.572564 161.35795 60.609072 155.92969 55.171875 L 149.55469 48.785156 C 146.84056 46.066559 143.24078 44.707033 139.64062 44.707031 C 136.04049 44.707033 132.4407 46.066564 129.72656 48.785156 L 107.75977 70.787109 L 98.541016 61.552734 L 89.320312 52.318359 L 111.29883 30.304688 C 116.72708 24.867482 116.72708 15.903999 111.29883 10.466797 L 104.92188 4.0800781 C 102.20774 1.3614805 98.607958 0.001953125 95.007812 0.001953125 z M 95.007812 9.9160156 C 96.017504 9.9160156 97.027534 10.325015 97.845703 11.144531 L 104.22266 17.53125 C 105.85899 19.17028 105.85899 21.599254 104.22266 23.238281 L 82.255859 45.240234 L 70.193359 33.158203 L 92.169922 11.144531 C 92.98809 10.325017 93.998123 9.9160156 95.007812 9.9160156 z M 47.365234 24.447266 L 59.587891 36.689453 A 5.00049 5.00049 0 0 0 59.589844 36.691406 L 78.71875 55.849609 L 91.476562 68.628906 L 104.20703 81.380859 A 5.00049 5.00049 0 0 0 104.22266 81.396484 L 123.34961 100.55664 A 5.00049 5.00049 0 0 0 123.42969 100.63477 A 5.00049 5.00049 0 0 0 123.48438 100.6875 L 135.58594 112.81055 C 114.21564 132.41139 87.180991 142.42737 64.269531 139.45703 C 60.065733 138.91203 56.112847 137.96725 52.421875 136.66406 A 5.0004452 5.0004452 0 0 0 51.681641 136.31055 C 38.509518 131.32803 28.893134 121.69525 23.917969 108.49609 A 5.0004452 5.0004452 0 0 0 23.541016 107.71289 C 22.246278 104.02565 21.306084 100.07656 20.763672 95.878906 C 17.79822 72.929701 27.796634 45.852772 47.365234 24.447266 z M 139.64062 54.621094 C 140.65032 54.621091 141.66033 55.03009 142.47852 55.849609 L 148.85352 62.236328 C 150.48985 63.875357 150.48985 66.306285 148.85352 67.945312 L 126.88867 89.945312 L 114.82617 77.863281 L 136.80273 55.849609 C 137.62092 55.030094 138.63093 54.621092 139.64062 54.621094 z M 17.267578 118.10547 C 17.377623 118.32108 17.496878 118.53029 17.609375 118.74414 C 17.668207 118.85517 17.727624 118.96561 17.787109 119.07617 C 22.762352 128.38802 30.065623 135.99582 39.115234 141.31445 C 39.142327 141.33048 39.170142 141.34535 39.197266 141.36133 C 39.769324 141.69628 40.347795 142.02333 40.933594 142.33984 C 41.156538 142.4612 41.380575 142.58055 41.605469 142.69922 C 41.766238 142.78339 41.922221 142.87424 42.083984 142.95703 L 37.273438 147.77539 C 33.87094 151.18349 28.625153 151.18349 25.222656 147.77539 L 12.470703 135.00195 C 9.0682096 131.59386 9.068206 126.3163 12.470703 122.9082 L 17.267578 118.10547 z " /></svg>