<svg xmlns="http://www.w3.org/2000/svg" viewBox="0 0 160 160"><path d="M154.906-.063a5 5 0 0 0-3.437 1.532l-25.656 25.656C113.523 16.463 97.507 10 80 10c-38.6 0-70 31.4-70 70 0 17.507 6.463 33.523 17.125 45.813L1.469 151.469a5 5 0 1 0 7.062 7.062l25.657-25.656C46.477 143.537 62.492 150 80 150c38.6 0 70-31.4 70-70 0-17.507-6.463-33.523-17.125-45.813l25.656-25.656a5 5 0 0 0-3.625-8.594zM80 20c14.794 0 28.304 5.35 38.75 14.188L34.187 118.75C25.35 108.304 20 94.794 20 80c0-33.196 26.804-60 60-60zm45.813 21.25C134.65 51.696 140 65.206 140 80c0 33.196-26.804 60-60 60-14.794 0-28.304-5.35-38.75-14.188l84.563-84.562z"/></svg>