<svg xmlns="http://www.w3.org/2000/svg" viewBox="0 0 160 160"><path d="M18.196 110H80c2.765 0 5-2.24 5-5s-2.235-5-5-5H18.509L37.07 82.07c1.986-1.918 1.952-5.117 0-7.07A4.999 4.999 0 0 0 30 75L-.006 105.155 30 135a4.98 4.98 0 0 0 3.535 1.465 4.999 4.999 0 0 0 3.535-8.535zm-2.915 45.016c.155 2.75 2.233 4.984 4.985 4.984H139.74a4.983 4.983 0 0 0 4.984-4.984v-74.61l6.697 7.016a4.984 4.984 0 0 0 3.596 1.532 4.94 4.94 0 0 0 3.452-1.393 4.986 4.986 0 0 0 .144-7.045L83.79 2.14A4.972 4.972 0 0 0 80.193.608a4.99 4.99 0 0 0-3.596 1.533L30.3 49.425a4.985 4.985 0 0 0 .147 7.048 4.978 4.978 0 0 0 7.048-.147L80.196 12.79l54.739 57.353c-.107.404-.18.82-.18 1.254v78.634L15 150z"/></svg>