<svg xmlns="http://www.w3.org/2000/svg" viewBox="0 0 160 160"><path d="m 39.47787,71.019477 c -1.24114,0 -2.24735,1.006211 -2.24735,2.247344 0,0.34684 0.0797,0.675851 0.22009,0.969205 l -1.49823,1.498229 a 2.241351,2.241351 0 0 0 -0.9692,-0.22009 c -0.56813,0 -1.08382,0.214247 -1.4795,0.561836 l -3.048,-1.690152 c 0.0199,-0.120458 0.0328,-0.244062 0.0328,-0.369913 0,-1.241133 -1.00621,-2.247344 -2.24734,-2.247344 -1.24114,0 -2.24735,1.006211 -2.24735,2.247344 0,0.683941 0.30939,1.292073 0.79122,1.704236 l -2.22862,5.791555 c -0.0204,-4.49e-4 -0.0401,-0.0046 -0.0608,-0.0046 -1.24113,0 -2.24734,1.006211 -2.24734,2.247344 0,1.241133 1.00621,2.247344 2.24734,2.247344 1.24114,0 2.24735,-1.006211 2.24735,-2.247344 0,-0.683942 -0.30939,-1.292073 -0.79122,-1.704236 l 2.22862,-5.791556 c 0.0204,4.5e-4 0.0402,0.0046 0.0608,0.0046 0.57052,0 1.08786,-0.216345 1.48414,-0.566481 l 3.04351,1.690153 a 2.261727,2.261727 0 0 0 -0.033,0.374557 c 0,1.241133 1.00621,2.247344 2.24734,2.247344 1.24113,0 2.24734,-1.006211 2.24734,-2.247344 a 2.241351,2.241351 0 0 0 -0.22009,-0.969205 l 1.49823,-1.498229 a 2.241351,2.241351 0 0 0 0.96921,0.22009 c 1.24113,0 2.24734,-1.006211 2.24734,-2.247344 0,-1.241133 -1.00621,-2.247344 -2.24734,-2.247344 z M 19.99145,66.524789 a 0.74911465,0.74911465 0 0 0 -0.51959,0.22009 l -1.49823,1.498229 a 0.74911465,0.74911465 0 1 0 1.0579,1.0579 l 0.22024,-0.21979 v 19.167897 a 0.74911465,0.74911465 0 0 0 0.74912,0.749114 h 19.16804 l -0.22024,0.22009 a 0.74911465,0.74911465 0 1 0 1.0582,1.058049 l 1.49823,-1.498229 a 0.74911465,0.74911465 0 0 0 0,-1.058049 L 40.00689,86.221861 A 0.74911465,0.74911465 0 0 0 39.46843,85.992482 0.74911465,0.74911465 0 0 0 38.94884,87.27991 L 39.16893,87.5 H 20.75 V 69.081068 l 0.22009,0.22024 a 0.74911465,0.74911465 0 1 0 1.05805,-1.0582 l -1.49823,-1.498229 a 0.74911465,0.74911465 0 0 0 -0.53831,-0.22009 z" /><text x="1" y="60" font-weight="400" font-size="8" font-family="Arial"><tspan>#####</tspan></text><text x="56" y="85" font-weight="700" font-size="15" font-family="Arial"><tspan>Brak danych</tspan></text></svg>
