<svg xmlns="http://www.w3.org/2000/svg" viewBox="0 0 160 160"><path d="M125 0a9.983 9.983 0 0 0-9.938 8.969L85.876 21.906a9.98 9.98 0 0 0-12.219.375l-23.812-8.937C49.05 8.614 44.955 5 40 5c-5.523 0-10 4.477-10 10 0 2.48.91 4.752 2.406 6.5L8.156 90.188C3.52 91.058 0 95.11 0 100c0 5.523 4.477 10 10 10s10-4.477 10-10c0-2.48-.91-4.752-2.406-6.5l24.25-68.688a10.03 10.03 0 0 0 4.531-2.093l23.781 8.937C70.95 36.386 75.045 40 80 40a9.983 9.983 0 0 0 9.938-8.969l29.187-12.968C120.775 19.264 122.801 20 125 20c5.523 0 10-4.477 10-10s-4.477-10-10-10zm25 150H65v-6.126c.61-.445 1.464-.96 2.137-1.269.2-.091.4-.187.59-.296l24.337-14.913a8.51 8.51 0 0 0 1.269-14.127C86.193 107.545 85 94.739 85 87.976V70c0-6.115 9.663-15 21.737-15C119.034 55 130 63.74 130 70v17.976c0 6.669-2.148 19.53-9.493 25.31a8.528 8.528 0 0 0-3.223 7.405 8.528 8.528 0 0 0 4.406 6.765l25.558 14.847c.236.13.536.27.785.379.628.266 1.4.71 1.967 1.102zm2.572-15.173l-26.804-14.847C135.73 112.143 140 96.612 140 87.976V70c0-11.903-17.38-25.032-33.266-25.032C90.853 44.968 75 58.1 75 70v17.976c0 7.852 2.94 23.867 13.005 31.936l-25.821 14.915S55 138.03 55 142.02v10.787c0 3.97 3.223 7.193 7.184 7.193h90.388c3.965 0 7.188-3.223 7.188-7.193V142.02c0-4.232-7.188-7.193-7.188-7.193z"/></svg>