<svg xmlns="http://www.w3.org/2000/svg" viewBox="0 0 160 160"><path d="M55 110H45c-2.76 0-5 2.24-5 5v10c0 2.76 2.24 5 5 5h10c2.76 0 5-2.24 5-5v-10c0-2.76-2.24-5-5-5zm100 5H75c-2.76 0-5 2.24-5 5s2.24 5 5 5h80c2.76 0 5-2.24 5-5s-2.24-5-5-5zm0 30H75c-2.76 0-5 2.24-5 5s2.24 5 5 5h80c2.76 0 5-2.24 5-5s-2.24-5-5-5zM75 95h80c2.76 0 5-2.24 5-5s-2.24-5-5-5H75c-2.76 0-5 2.24-5 5s2.24 5 5 5zm-20 45H45c-2.76 0-5 2.24-5 5v10c0 2.76 2.24 5 5 5h10c2.76 0 5-2.24 5-5v-10c0-2.76-2.24-5-5-5zm0-60H45c-2.76 0-5 2.24-5 5v10c0 2.76 2.24 5 5 5h10c2.76 0 5-2.24 5-5V85c0-2.76-2.24-5-5-5zM147.5.085c-6.905 0-12.5 5.597-12.5 12.5 0 1.417.287 2.755.72 4.025l-11.826 10.305c-2.137-1.702-4.805-2.762-7.75-2.762-3.397 0-6.47 1.365-8.72 3.565l-23.867-11.95c-.465-6.483-5.813-11.615-12.413-11.615-6.902 0-12.5 5.597-12.5 12.5 0 1.89.45 3.662 1.2 5.267L16.865 65.912c-1.365-.51-2.823-.827-4.365-.827-6.903 0-12.5 5.597-12.5 12.5 0 6.902 5.597 12.5 12.5 12.5 6.902 0 12.5-5.598 12.5-12.5 0-1.663-.34-3.245-.93-4.695l43.374-44.357c1.178.365 2.403.62 3.7.62 3.638 0 6.883-1.58 9.168-4.063l23.345 11.705c.082 6.835 5.632 12.358 12.487 12.358 6.905 0 12.5-5.598 12.5-12.5 0-.223-.052-.43-.065-.65l13.871-12a12.427 12.427 0 0 0 5.05 1.082c6.905 0 12.5-5.595 12.5-12.5 0-6.903-5.595-12.5-12.5-12.5z"/></svg>