<svg xmlns="http://www.w3.org/2000/svg" viewBox="0 0 160 160"><path d="M145 30c-8.284 0-15 6.716-15 15 0 2.315.532 4.511 1.469 6.469l-10 10A14.96 14.96 0 0 0 115 60c-3.792 0-7.234 1.43-9.875 3.75L84.781 52.469C84.914 51.665 85 50.84 85 50c0-8.284-6.716-15-15-15-8.284 0-15 6.716-15 15 0 4.565 2.065 8.624 5.281 11.375l-14.875 38.656c-.136-.003-.268-.031-.406-.031-8.284 0-15 6.716-15 15 0 8.284 6.716 15 15 15 8.284 0 15-6.716 15-15 0-4.565-2.065-8.624-5.281-11.375l14.875-38.656c.136.003.268.031.406.031 3.808 0 7.261-1.444 9.906-3.781L100.22 72.5A15.096 15.096 0 0 0 100 75c0 8.284 6.716 15 15 15 8.284 0 15-6.716 15-15a14.96 14.96 0 0 0-1.469-6.469l10-10A14.96 14.96 0 0 0 145 60c8.284 0 15-6.716 15-15 0-8.284-6.716-15-15-15zM14.937 0a5 5 0 0 0-3.468 1.469l-10 10A5 5 0 1 0 8.53 18.53L10 17.063V145a5 5 0 0 0 5 5h127.938l-1.47 1.469a5 5 0 1 0 7.063 7.062l10-10a5 5 0 0 0 0-7.062l-10-10a5 5 0 0 0-3.594-1.531 5 5 0 0 0-3.468 8.593l1.469 1.469H20V17.062l1.469 1.47a5 5 0 1 0 7.062-7.063l-10-10A5 5 0 0 0 14.938 0z"/></svg>