<svg xmlns="http://www.w3.org/2000/svg" viewBox="0 0 160 160"><path d="M145 150h-24.957V10H145v140zm5-150h-34.957c-2.763 0-5 2.238-5 5v150c0 2.763 2.237 5 5 5H150c2.763 0 5-2.237 5-5V5c0-2.762-2.237-5-5-5zM89.96 150H64.947V89.727H89.96V150zm5-70.273H59.947c-2.762 0-5 2.238-5 5V155c0 2.763 2.238 5 5 5H94.96c2.763 0 5-2.237 5-5V84.727c0-2.765-2.235-5-5-5zM35.01 150H10V59.998h25.01V150zm5-100.002H5c-2.763 0-5 2.237-5 5V155c0 2.763 2.237 5 5 5h35.01c2.762 0 5-2.237 5-5V54.998c0-2.763-2.238-5-5-5z"/></svg>