<svg xmlns="http://www.w3.org/2000/svg" viewBox="0 0 160 160"><path d="M110 60c-27.614 0-50 22.386-50 50s22.386 50 50 50 50-22.386 50-50-22.386-50-50-50zm0 10c22.091 0 40 17.909 40 40s-17.909 40-40 40-40-17.909-40-40 17.909-40 40-40zm-.083 10c-2.78 0-5.084 2.22-5.084 5v26.25c0 1.425.63 2.753 1.584 3.667.083.098.16.157.25.25L122 130a4.994 4.994 0 0 0 7.083 0c1.967-1.966 2.006-5.157 0-7.083l-14.166-13.667V85c0-2.78-2.22-5-5-5zM147.5.085c-6.905 0-12.5 5.597-12.5 12.5 0 1.417.287 2.755.72 4.025l-11.826 10.305c-2.137-1.702-4.805-2.762-7.75-2.762-3.397 0-6.47 1.365-8.72 3.565l-23.867-11.95c-.465-6.483-5.813-11.615-12.413-11.615-6.902 0-12.5 5.597-12.5 12.5 0 1.89.45 3.662 1.2 5.267L16.865 65.912c-1.365-.51-2.823-.827-4.365-.827-6.903 0-12.5 5.597-12.5 12.5 0 6.902 5.597 12.5 12.5 12.5 6.902 0 12.5-5.598 12.5-12.5 0-1.663-.34-3.245-.93-4.695l43.374-44.357c1.178.365 2.403.62 3.7.62 3.638 0 6.883-1.58 9.168-4.063l23.345 11.705c.082 6.835 5.632 12.358 12.487 12.358 6.905 0 12.5-5.598 12.5-12.5 0-.223-.052-.43-.065-.65l13.871-12a12.427 12.427 0 0 0 5.05 1.082c6.905 0 12.5-5.595 12.5-12.5 0-6.903-5.595-12.5-12.5-12.5z"/></svg>