<svg xmlns="http://www.w3.org/2000/svg" viewBox="0 0 160 160"><path d="M79.924 0A5 4.998 0 0 0 75 5.07v69.969a5 4.998 0 1 0 10 0V5.068A5 4.998 0 0 0 79.924.002zM.006 79.087a79.81 79.81 0 0 0 2.318 20.072C11.11 134.82 43.14 159.945 79.881 160c36.742.1 68.844-24.975 77.737-60.61s-7.688-72.803-40.15-90.005a5 4.998 0 1 0-4.684 8.83c28.448 15.073 42.924 47.528 35.131 78.756-7.793 31.227-35.823 53.082-68.02 53.033-32.198-.1-60.161-21.986-67.86-53.236-7.7-31.252 6.874-63.662 35.367-78.65a5 4.998 0 1 0-4.656-8.846C16.328 23.168.354 50.28.006 79.086z"/></svg>