<svg xmlns="http://www.w3.org/2000/svg" width="160" height="160"><path d="M38.902.01a4.974 4.974 0 0 0-2.842.68c-2.86 1.68-2.99 2.961-4.012 7.974-1.026 5.037-2.17 11.12 1.206 16.867l38.338 65.277-17.74 31.69c-1.443-3.24-3.748-6.06-6.938-7.933-5.125-3.01-11.276-2.84-16.576-.623-5.3 2.218-10.022 6.415-13.332 12.051-3.31 5.636-4.676 11.805-4.031 17.514.645 5.709 3.492 11.162 8.617 14.172 5.125 3.01 11.275 2.84 16.574.623 5.3-2.217 10.022-6.414 13.332-12.05l25.322-43.116 1.006-1.712 1.006 1.712 25.32 43.115c3.31 5.636 8.032 9.834 13.332 12.051 5.3 2.218 11.449 2.387 16.574-.623 5.125-3.01 7.972-8.463 8.617-14.172.645-5.708-.721-11.878-4.031-17.514-3.31-5.636-8.032-9.833-13.332-12.05-5.3-2.218-11.45-2.387-16.574.622-3.19 1.874-5.495 4.693-6.938 7.932L83.323 92.061l39.074-66.53c3.377-5.75 2.232-11.832 1.205-16.868-1.021-5.013-1.151-6.295-4.011-7.975a5 5 0 0 0-6.844 1.78L77.823 61.93 42.901 2.468a4.995 4.995 0 0 0-4-2.46zm-.492 122.25c1.28.016 2.43.339 3.44.931 2.018 1.186 3.373 3.392 3.743 6.674.371 3.283-.435 7.438-2.718 11.326-2.284 3.889-5.521 6.614-8.569 7.889-3.047 1.275-5.632 1.166-7.65-.02-2.018-1.185-3.374-3.389-3.744-6.672-.371-3.282.433-7.437 2.717-11.326s5.52-6.615 8.568-7.89c1.524-.638 2.933-.928 4.213-.912zm78.832 0c1.28-.016 2.687.274 4.21.912 3.048 1.275 6.285 4.002 8.57 7.89s3.089 8.044 2.718 11.326c-.37 3.283-1.726 5.487-3.744 6.672-2.018 1.186-4.605 1.295-7.652.02-3.048-1.275-6.285-4-8.569-7.889-2.284-3.888-3.087-8.043-2.717-11.326.371-3.282 1.726-5.488 3.744-6.674 1.01-.592 2.16-.915 3.44-.931z"/></svg>