<svg xmlns="http://www.w3.org/2000/svg" viewBox="0 0 160 160"><path d="m 61.900789,57.714757 c -13.9386,7.618067 -19.64003,23.996317 -11.90026,36.686706 7.73976,12.690387 25.57389,16.205387 39.51248,8.587307 l 0.80333,-0.43905 c 0.65692,-2.03589 0.42158,-4.087297 -0.57543,-5.722035 -0.99699,-1.634749 -2.75605,-2.853387 -4.94703,-3.332766 l -0.80331,0.439055 c -9.24501,5.052819 -19.92686,2.614812 -24.42488,-4.760304 -4.49802,-7.375119 -1.38747,-17.351288 7.85754,-22.404106 l 25.10855,-13.722957 c 9.245011,-5.052819 19.926851,-2.614817 24.424871,4.760307 4.26801,6.997971 1.67569,16.329463 -6.49758,21.583015 1.16876,1.34643 2.24002,2.80289 3.19474,4.368278 0.93483,1.532754 1.71667,3.105022 2.35667,4.70135 12.91988,-7.920034 17.9885,-23.620625 10.51133,-35.880439 -7.73975,-12.690386 -25.5739,-16.205378 -39.512481,-8.587312 z m 7.78287,19.735507 c -0.65692,2.035882 -0.42159,4.087289 0.57543,5.72203 0.99699,1.634752 2.75605,2.853385 4.94701,3.332772 l 0.80333,-0.439057 c 9.245,-5.052818 19.92685,-2.614811 24.424871,4.760306 4.49802,7.375119 1.38748,17.351295 -7.857541,22.404115 l -25.10853,13.72296 c -9.24502,5.05282 -19.92686,2.61481 -24.42488,-4.76032 -4.26801,-6.99797 -1.67569,-16.32946 6.49758,-21.58301 -1.16875,-1.346438 -2.24003,-2.802894 -3.19474,-4.368285 -0.93483,-1.532754 -1.71667,-3.105021 -2.35667,-4.701344 -12.91988,7.920031 -17.98849,23.620619 -10.51133,35.880439 7.73976,12.6904 25.57391,16.2054 39.51248,8.58732 l 25.10855,-13.72295 C 112.03781,114.66717 117.73923,98.288917 109.99947,85.598521 102.25971,72.908135 84.425559,69.39314 70.486979,77.011208 Z M 4.667,158.556 C -0.28,155.554 0,160.274 0.004,79.853 0.007,9.882 0.06,6.917 1.398,4.736 4.453,-0.251 0.254,0.002 79.95,0.002 c 78.109,0 75.108,-0.155 78.443,4.066 L 160,6.1 V 80 c 0,73.827 -0.001,73.904 -1.547,75.86 -3.446,4.36 0.746,4.14 -78.6,4.136 -70.912,0 -72.877,-0.04 -75.186,-1.441 z M 150,89.402 V 30 H 10 v 120.415 h 140 z m 0,-74.838 V 10 H 10 v 10 h 140 z" /></svg>