<svg xmlns="http://www.w3.org/2000/svg" width="160" height="160"><path d="M110 60c-27.555 0-50 22.445-50 50s22.445 50 50 50 50-22.445 50-50-22.445-50-50-50zm0 10c22.15 0 40 17.85 40 40s-17.85 40-40 40-40-17.85-40-40 17.85-40 40-40zm0 10a5 5 0 0 0-5 5v20H85a5 5 0 0 0-5 5 5 5 0 0 0 5 5h20v20a5 5 0 0 0 5 5 5 5 0 0 0 5-5v-20h20a5 5 0 0 0 5-5 5 5 0 0 0-5-5h-20V85a5 5 0 0 0-5-5zM9.996 0C4.476 0 0 4.476 0 9.996v139.947c0 5.52 4.476 9.996 9.996 9.996H73.93c-4.548-2.787-8.815-6.173-12.495-9.996L35 150V81.693l14.356-.057c1.546-3.507 3.485-6.864 5.623-9.996L35 71.696c-5.52.016-10.008 4.476-9.996 9.997V150l-15.008-.057V9.996H40V45c0 5.52 4.476 9.996 9.996 9.996h18.118C73.486 50.897 78.46 47.191 85 45V10h15v35c2.293-.256 4.056-.642 6.418-.642 3.583 0 10.164.062 13.582.642V10l4.176-.004h.833l14.995 12.287v33.321c3.687 2.582 6.953 5.654 9.996 8.955v-46.44L129.175 0z"/></svg>