<svg xmlns="http://www.w3.org/2000/svg" viewBox="0 0 160 160"><path d="M132.05 87.05a4.99 4.99 0 0 0-7.008.854l-21.354 32.566-13.272-13.274a4.995 4.995 0 0 0-7.063 0 4.992 4.992 0 0 0 0 7.06l17.654 17.654a4.992 4.992 0 0 0 8.134-1.605l23.765-36.25a4.99 4.99 0 0 0-.856-7.005zm-25.694-33.676c-29.421 0-53.21 23.995-53.21 53.416 0 29.421 23.789 53.21 53.21 53.21s53.416-23.789 53.416-53.21-23.995-53.416-53.416-53.416zm0 9.074c24.47 0 44.342 19.871 44.342 44.342s-19.871 44.342-44.342 44.342S62.22 131.26 62.22 106.79c0-24.47 19.665-44.342 44.136-44.342zM9.996 0C4.476 0 0 4.476 0 9.996v139.947c0 5.52 4.476 9.996 9.996 9.996H73.93c-4.548-2.787-8.815-6.173-12.495-9.996L35 150V81.693l14.356-.057c1.546-3.507 3.485-6.864 5.623-9.997L35 71.696c-5.52.016-10.008 4.476-9.996 9.997V150l-15.008-.057V9.996H40V45c0 5.52 4.476 9.996 9.996 9.996h18.118C73.486 50.897 78.46 47.191 85 45V10h15v35c2.293-.256 4.056-.642 6.418-.642 3.583 0 10.164.062 13.582.642V10l4.176-.004h.833l14.995 12.287v33.321c3.687 2.582 6.953 5.654 9.996 8.955v-46.44L129.175 0z"/></svg>