<svg xmlns="http://www.w3.org/2000/svg" viewBox="0 0 160 160"><path d="m 80,25 a 5,5 0 0 0 -5,5 v 52.070312 l 16.464844,16.464844 a 5,5 0 0 0 7.070312,0 5,5 0 0 0 0,-7.070312 L 85,77.929688 V 30 A 5,5 0 0 0 80,25 Z M 80.853516,-0.0078125 C 73.82839,-0.08496219 66.700848,0.76829851 59.632812,2.6289062 21.936621,12.552148 -3.1558854,48.293675 0.31640625,87.119141 3.7886979,125.94461 34.824777,156.66552 73.683594,159.74219 a 4.99998,4.99998 0 0 0 5.378906,-4.58985 4.99998,4.99998 0 0 0 -4.589844,-5.3789 C 40.407748,147.07633 13.319315,120.26419 10.275391,86.228516 7.2314663,52.192844 29.132021,20.997866 62.177734,12.298828 95.223447,3.5997906 129.64335,19.96882 143.75195,51.091797 a 4.99998,4.99998 0 0 0 6.61914,2.488281 4.99998,4.99998 0 0 0 2.48829,-6.617187 C 139.78293,18.116808 111.29573,0.32650283 80.853516,-0.0078125 Z M 150.03461,70.182579 c -0.4875,0.146261 -0.94698,0.37673 -1.34936,0.677402 l -0.002,5.51e-4 -52.052701,39.214818 -0.0036,0.003 c -2.716602,2.06105 -1.880664,6.29162 1.389766,7.18682 l 0.0021,-5.4e-4 24.278395,6.59633 -21.96418,29.69176 c -1.314111,1.77802 -0.872875,4.03382 0.40875,5.28797 1.28106,1.25363 3.78132,1.67782 5.58035,0.32272 l 52.04928,-39.20292 9.5e-4,-0.004 c 2.71654,-2.06105 1.8827,-6.29218 -1.3877,-7.18738 l -24.28061,-6.60452 21.95925,-29.677263 c 1.1388,-1.53317 0.9897,-3.459583 0.0691,-4.750795 -0.9197,-1.289864 -2.81229,-2.124916 -4.69763,-1.553462 z m -21.80228,27.106596 -6.34288,8.575105 c -1.92008,2.60242 -0.61937,6.31801 2.54261,7.17738 l 20.93807,5.69159 -18.6033,14.01207 6.22758,-8.4191 0.002,-5.6e-4 0.11324,-0.15544 c 1.91998,-2.60226 0.62156,-6.31853 -2.54055,-7.17792 l -20.93338,-5.69066 z" /></svg>