<svg xmlns="http://www.w3.org/2000/svg" viewBox="0 0 160 160"><path d="M157.574 48.57c-.025.025-.052.036-.085.059l-20.38 18.604c-1.47 1.406-3.842 1.406-5.315 0l-.86-1.266c-1.47-1.405-.993-3.678.475-5.08l11.992-10.876-31.263.043-17.976 29.031-6.17-8.679L106.945 40l36.907-.045-12.13-10.879c-1.468-1.405-1.943-3.682-.475-5.085l.86-1.266c1.473-1.405 3.848-1.405 5.313 0l20.068 18.144c.028.024.06.03.085.053l1.33 1.272A3.508 3.508 0 0 1 160 44.753a3.486 3.486 0 0 1-1.096 2.548l-1.33 1.27zm-13.67 81.376l-12.18-12.173c-1.468-1.405-1.944-3.683-.476-5.085l.86-1.267c1.473-1.405 3.848-1.405 5.313 0l20.068 19.395c.028.024.06.03.085.053l1.33 1.271A3.508 3.508 0 0 1 160 134.7a3.486 3.486 0 0 1-1.096 2.548l-1.33 1.272c-.025.024-.052.035-.085.057l-20.38 20.37c-1.47 1.404-3.842 1.404-5.315 0l-.86-1.268c-1.47-1.405-.993-3.677.475-5.08L143.356 140h-36.408l-64.3-89.946H0V40h47.836l64.302 89.946h31.766zm-81.135-25.653l6.168 8.68L47.839 140H0v-10.054h42.649z"/></svg>