<svg xmlns="http://www.w3.org/2000/svg" viewBox="0 0 160 160"><path d="M150.87 59.652a4.966 4.966 0 0 0 3.584 1.527 4.923 4.923 0 0 0 3.44-1.388 4.968 4.968 0 0 0 .143-7.02L83.485 2.714a4.954 4.954 0 0 0-3.583-1.527c-1.35 0-2.644.551-3.583 1.527L1.382 52.77a4.966 4.966 0 0 0 .147 7.022 4.96 4.96 0 0 0 7.022-.146L10 59v66c0 2.744 2.45 5 5.192 5H30l-.16-10-9.681-.125L20 53.205l59.905-39.88zM110 130v-30h10v40h-16.609c-5.07 0-10.128-2.952-13.75-6.5-2.952-2.891-4.406-7.374-4.625-11.5-.22-4.15 1.897-8.117 3.375-12 1.326-3.483 3.333-6.667 5-10h10c-2.25 5-5.247 9.727-6.75 15-.914 3.208-1.744 6.958-.375 10 1.19 2.646 4.224 5 7.125 5zm-65 10h25l5-10H60l12.75-30H50l-5 10h11.875zm-5 20l5-10h97.125c5 0 6.644-6.842 6.5-10-.214-4.687-2.374-9.204-4.75-13.25-3.06-5.213-6.472-9.907-10.125-15-1.068-1.489-1.864-3.434-1.625-5.25.423-3.212 2.76-6.5 5.625-6.5h12.625l5 10H148c-1.667 0-2.67.18-2.5 1 .366 1.774.882 2.576 2 4 3.74 4.764 7.489 9.54 10 15 1.409 3.062 2.527 5.387 2.5 10-.033 5.663-1.489 11.776-4.625 15-3.675 3.778-7.98 5-13.25 5z"/></svg>