<svg xmlns="http://www.w3.org/2000/svg" viewBox="0 0 160 160"><path d="M24.996-.135a5 5 0 0 0-3.914 1.99L1.537 21.4a5 5 0 1 0 7.07 7.07l11.465-11.464v42.93a5 5 0 1 0 10 0v-42.93L41.537 28.47a5 5 0 1 0 7.07-7.07L29.045 1.837a5 5 0 0 0-4.049-1.973zM65.068 30c-6.747-.09-6.747 10.09 0 10h89.871c6.748.09 6.748-10.09 0-10H65.07zm0 29.998c-6.747-.09-6.747 10.09 0 10h39.936c6.748.09 6.748-10.09 0-10H65.068zm0 30c-6.747-.09-6.747 10.09 0 10h89.871c6.748.09 6.748-10.09 0-10H65.07zm-40.072 4.867a5 5 0 0 0-4.924 5.07v42.93L8.607 131.4a5 5 0 1 0-7.07 7.07L21.1 158.034a5 5 0 0 0 7.962-.017l19.545-19.545a5 5 0 1 0-7.07-7.07l-11.465 11.464v-42.93a5 5 0 0 0-5.076-5.07zm40.072 25.133c-6.747-.09-6.747 10.09 0 10l89.871.002c6.748.09 6.748-10.09 0-10l-89.87-.002z"/></svg>