<svg xmlns="http://www.w3.org/2000/svg" viewBox="0 0 160 160"><path d="M5 0a5 5 0 0 0-5 5v40a5 5 0 0 0 5 5h120a5 5 0 0 0 5-5V30h10v31.096L63.787 80.148A5 5 0 0 0 60 85v15h-5a5 5 0 0 0-5 5v50a5 5 0 0 0 5 5h20a5 5 0 0 0 5-5v-50a5 5 0 0 0-5-5h-5V88.904l76.213-19.052A5 5 0 0 0 150 65V25a5 5 0 0 0-5-5h-15V5a5 5 0 0 0-5-5H5zm5 10h110v30H10V10zm104.947 99.95a5 5 0 0 0-3.482 8.585L127.93 135l-16.465 16.465a5 5 0 1 0 7.07 7.07L135 142.07l16.465 16.465a5 5 0 1 0 7.07-7.07L142.07 135l16.465-16.465a5 5 0 0 0-3.633-8.584 5 5 0 0 0-3.437 1.514L135 127.93l-16.465-16.465a5 5 0 0 0-3.588-1.516zM60 110h10v40H60v-40z"/></svg>