<svg xmlns="http://www.w3.org/2000/svg" viewBox="0 0 160 160"><path d="M90 147.034V155c0 2.618-2.382 5-5 5H25c-2.618 0-5-2.382-5-5V5c0-2.618 2.382-5 5-5h60c2.618 0 5 2.382 5 5v37.203l-10 5V10H30v140h50v-7.424zM60 95c0-24.794 20.206-45 45-45s45 20.206 45 45-20.206 45-45 45-45-20.206-45-45zm10 0c0 19.39 15.61 35 35 35s35-15.61 35-35-15.61-35-35-35-35 15.61-35 35zm9.938.01c.032-2.62 2.444-4.97 5.062-4.94l14.93.002V75c-.04-2.64 2.357-5.07 5-5.07 2.64 0 5.036 2.43 5 5.07v15.072H125c2.642-.038 5.07 2.358 5.07 5 0 2.64-2.428 5.037-5.07 5h-15.07V115c.036 2.642-2.36 5.072-5 5.072-2.643 0-5.04-2.43-5-5.072v-14.928H85c-2.66.033-5.096-2.403-5.062-5.063z"/></svg>