<svg xmlns="http://www.w3.org/2000/svg" viewBox="0 0 160 160"><path d="M160.107 64.888a5 5 0 0 0-5.07-4.924h-70v-42.93L96.5 28.5a5 5 0 1 0 7.07-7.07L84.01 1.866a5 5 0 0 0-7.963.018L56.501 21.429a5 5 0 1 0 7.07 7.07l11.465-11.465v42.93h-70a5 5 0 1 0 0 10h74.182a5 5 0 0 0 1.621 0h74.197a5 5 0 0 0 5.07-5.076zm0 30a5 5 0 0 0-5.07-4.924H5.035a5 5 0 1 0 0 10h70v43l-11.465-11.465a5 5 0 1 0-7.07 7.072l19.56 19.561a5 5 0 0 0 7.964-.014l19.546-19.547a5 5 0 1 0-7.07-7.072l-11.465 11.465v-43h70a5 5 0 0 0 5.07-5.076z"/></svg>