<svg xmlns="http://www.w3.org/2000/svg" viewBox="0 0 160 160"><path d="m 79.999993,60 a 4.2862001,4.375463 0 0 0 -3.939226,2.652359 L 50.346144,123.90272 a 4.2857715,4.3750255 0 0 0 2.251697,5.74392 4.2857715,4.3750255 0 0 0 5.62675,-2.29859 l 8.070979,-19.22277 h 27.408848 l 8.070972,19.22277 a 4.2857715,4.3750255 0 0 0 5.62675,2.29859 4.2857715,4.3750255 0 0 0 2.2517,-5.74392 L 83.93922,62.652359 A 4.2862001,4.375463 0 0 0 79.999993,60 Z m 0,15.48007 10.031385,23.895159 H 69.96861 Z M 60.000001,0 C 54.54649,0 49.998048,4.548443 49.998048,10.001953 V 15 H 30 c -5.453511,0 -10,4.546489 -10,10 v 125 c 0,5.45351 4.546489,10 10,10 h 100 c 5.45351,0 10,-4.54649 10,-10 V 25 c 0,-5.453511 -4.54649,-10 -10,-10 H 109.99805 V 10.001953 C 109.99805,4.548443 105.45546,0 100.00195,0 Z m 0,10.001953 h 40.001949 v 9.853516 A 5.0004949,5.0004949 0 0 0 100,19.999998 v 5 h 0.002 V 30 H 60.000001 Z M 30,25 h 9.999999 9.998049 v 5 c 0,5.45351 4.548442,10.001953 10.001953,10.001953 h 40.001949 c 5.45351,0 9.9961,-4.548443 9.9961,-10.001953 v -5 h 0.002 H 120 130 V 150 H 30 Z" /></svg>