<svg xmlns="http://www.w3.org/2000/svg" viewBox="0 0 160 160"><path d="m 80.00029,54.999998 c 7.051189,0 13.490234,1.94766 18.021109,5.552955 C 102.5523,64.158249 105,69.281865 105,74.892598 105,82.03354 98.574399,86.499064 93.883846,90.604657 89.193279,94.710242 82.482324,101.13587 82.482324,105.34392 82.527874,107.90466 79.931657,110 76.713157,110 c -3.2185,0 -5.814733,-2.09534 -5.769155,-4.65608 0,-8.033554 9.478577,-16.604552 14.403277,-20.915057 4.9247,-4.310523 8.541611,-7.496013 8.541611,-9.536284 0,-3.570462 -1.825633,-6.097812 -4.025433,-7.848224 -2.199789,-1.750411 -5.376033,-2.863153 -9.863167,-2.863153 -4.487111,0 -7.663366,1.112742 -9.863155,2.863153 -2.199811,1.750412 -3.598222,4.27778 -3.598222,7.848243 0.04556,2.560753 -2.550667,4.656079 -5.769167,4.656079 -3.2185,0 -5.814744,-2.095326 -5.769155,-4.656079 0,-5.610733 2.447677,-10.734349 6.978577,-14.339645 4.530889,-3.605295 10.969922,-5.552955 18.021122,-5.552955 z M 77.5,120 c 4.14213,0 7.5,3.35787 7.5,7.5 0,4.14213 -3.35787,7.5 -7.5,7.5 -4.14213,0 -7.5,-3.35787 -7.5,-7.5 0,-4.14213 3.35787,-7.5 7.5,-7.5 z M 60.000001,0 C 54.54649,0 49.998048,4.548443 49.998048,10.001953 V 15 H 30 c -5.453511,0 -10,4.546489 -10,10 v 125 c 0,5.45351 4.546489,10 10,10 h 100 c 5.45351,0 10,-4.54649 10,-10 V 25 c 0,-5.453511 -4.54649,-10 -10,-10 H 109.99805 V 10.001953 C 109.99805,4.548443 105.45546,0 100.00195,0 Z m 0,10.001953 h 40.001949 v 9.853516 A 5.0004949,5.0004949 0 0 0 100,19.999998 v 5 h 0.002 V 30 H 60.000001 Z M 30,25 h 9.999999 9.998049 v 5 c 0,5.45351 4.548442,10.001953 10.001953,10.001953 h 40.001949 c 5.45351,0 9.9961,-4.548443 9.9961,-10.001953 v -5 h 0.002 H 120 130 V 150 H 30 Z" /></svg>