<svg xmlns="http://www.w3.org/2000/svg" width="160" height="160"><path d="M145 150.248c3.111 0 5.21 2.612 5.161 5-.049 2.387-1.811 4.752-5.161 4.752h-31.643c.399-3.686 1.594-7.173 3.587-10.462 1.993-3.313 5.928-7.697 11.807-13.152 4.733-4.409 7.635-7.398 8.706-8.967 1.445-2.167 2.167-4.31 2.167-6.427 0-2.342-.635-4.135-1.905-5.38-1.246-1.27-2.977-1.906-5.194-1.906-2.192 0-3.936.66-5.231 1.98-1.295 1.32-2.043 3.512-2.242 6.576-.135 2.06-2.98 3.897-5.585 3.726-2.606-.17-5.06-2.507-4.877-4.772.623-5.779 2.578-9.926 5.866-12.442s7.398-3.774 12.33-3.774c5.406 0 9.653 1.457 12.742 4.372 3.089 2.914 4.633 6.538 4.633 10.873 0 2.466-.448 4.82-1.345 7.062-.872 2.217-2.267 4.546-4.185 6.987-1.27 1.619-3.562 3.948-6.875 6.987s-5.418 5.057-6.315 6.053c-.871.996-1.581 1.968-2.13 2.914zM15 35a5 5 0 0 0-3.535 1.465 5 5 0 0 0 0 7.07L47.93 80l-36.465 36.465a5 5 0 0 0 0 7.07 5 5 0 0 0 7.07 0L55 87.07l36.465 36.465a5 5 0 0 0 7.07 0 5 5 0 0 0 0-7.07L62.07 80l36.465-36.465a5 5 0 0 0 0-7.07 5 5 0 0 0-7.07 0L55 72.93 18.535 36.465A5 5 0 0 0 15 35z"/></svg>