<svg xmlns="http://www.w3.org/2000/svg" viewBox="0 0 160 160"><path d="M134.924-.07a5 5 0 0 0-3.914 1.99l-19.545 19.545a5 5 0 1 0 7.07 7.07L130 17.07V60a5 5 0 1 0 10 0V17.07l11.465 11.465a5 5 0 1 0 7.07-7.07L138.973 1.902a5 5 0 0 0-4.05-1.972zM5.195 20c-6.761-.096-6.761 10.096 0 10H40.07v105.074c-.095 6.663 10.096 6.663 10 0V30H85.3c6.762.096 6.762-10.096 0-10H5.196zm129.729 74.93A5 5 0 0 0 130 100v42.93l-11.465-11.465a5 5 0 1 0-7.07 7.07l19.562 19.563a5 5 0 0 0 7.963-.018l19.545-19.545a5 5 0 1 0-7.07-7.07L140 142.93V100a5 5 0 0 0-5.076-5.07z"/></svg>