<svg xmlns="http://www.w3.org/2000/svg" viewBox="0 0 160 160"><path d="M5 20c-2.76 0-5 2.24-5 5v20c0 2.76 2.24 5 5 5h30c2.76 0 5-2.24 5-5V25c0-2.76-2.24-5-5-5H5zm60 0c-2.76 0-5 2.24-5 5v20c0 2.76 2.24 5 5 5h30c2.76 0 5-2.24 5-5V25c0-2.76-2.24-5-5-5H65zm60 0c-2.76 0-5 2.24-5 5v20c0 2.76 2.24 5 5 5h30c2.76 0 5-2.24 5-5V25c0-2.76-2.24-5-5-5h-30zM5 70c-2.76 0-5 2.24-5 5v20c0 2.76 2.24 5 5 5h30c2.76 0 5-2.24 5-5V75c0-2.76-2.24-5-5-5H5zm60 0c-2.76 0-5 2.24-5 5v20c0 2.76 2.24 5 5 5h30c2.76 0 5-2.24 5-5V75c0-2.76-2.24-5-5-5H65zm60 0c-2.76 0-5 2.24-5 5v20c0 2.76 2.24 5 5 5h30c2.76 0 5-2.24 5-5V75c0-2.76-2.24-5-5-5h-30zM5 120c-2.76 0-5 2.24-5 5v20c0 2.76 2.24 5 5 5h30c2.76 0 5-2.24 5-5v-20c0-2.76-2.24-5-5-5H5zm60 0c-2.76 0-5 2.24-5 5v20c0 2.76 2.24 5 5 5h30c2.76 0 5-2.24 5-5v-20c0-2.76-2.24-5-5-5H65zm60 0c-2.76 0-5 2.24-5 5v20c0 2.76 2.24 5 5 5h30c2.76 0 5-2.24 5-5v-20c0-2.76-2.24-5-5-5h-30z"/></svg>