<svg xmlns="http://www.w3.org/2000/svg" viewBox="0 0 160 160"><path d="M5.066 0c-6.75-.09-6.75 10.09 0 10H154.94c6.75.09 6.75-10.09 0-10H5.065zm0 29.998c-6.75-.09-6.75 10.09 0 10h99.916c6.75.09 6.75-10.09 0-10H5.066zm0 30c-6.75-.09-6.75 10.09 0 10H154.94c6.75.09 6.75-10.09 0-10H5.065zm0 30c-6.75-.09-6.75 10.09 0 10L154.94 100c6.75.09 6.75-10.09 0-10L5.065 89.998zm69.93 20.248a5 5 0 0 0-4.924 5.07v27.55L58.607 131.4c-4.712-4.907-11.978 2.358-7.07 7.07L71.1 158.034c2.007 2.63 5.967 2.62 7.963-.017l19.544-19.545c4.908-4.712-2.357-11.977-7.07-7.07l-11.465 11.465v-27.55a5.001 5.001 0 0 0-5.076-5.07z"/></svg>