<svg xmlns="http://www.w3.org/2000/svg" viewBox="0 0 160 160"><path d="M50 20a10.001 10.001 0 0 0-10 10v48.365a10.001 10.001 0 0 0 0 3.24V130a10.001 10.001 0 0 0 10 10h40c20.873 0 35-17.558 35-35 0-9.873-4.642-19.668-12.355-26.41.446-.588 1.034-1.116 1.42-1.723C118.6 69.732 120 61.897 120 55c0-6.898-1.4-14.732-5.936-21.867C109.53 25.997 100.684 20 90 20H50zm10 20h30c4.316 0 5.471 1.167 7.186 3.863C98.9 46.56 100 51.226 100 55s-1.1 8.44-2.814 11.137C95.47 68.833 94.316 70 90 70H60V40zm0 50h30c9.127 0 15 8.872 15 15s-5.873 15-15 15H60V90z"/></svg>