<svg xmlns="http://www.w3.org/2000/svg" width="160" height="160"><path d="M155 95a5 5 0 0 0-3.535 1.465L100 147.93l-31.465-31.465a5 5 0 0 0-7.07 7.07l35 35a5 5 0 0 0 7.07 0l55-55A5 5 0 0 0 155 95zM35 0a5 5 0 0 0-4.682 3.244l-30 80a5 5 0 1 0 9.364 3.512l10.072-26.858A5 5 0 0 0 20 60h30c.083-.032.165-.066.246-.102l10.072 26.858a5 5 0 1 0 9.364-3.512l-30-80A5 5 0 0 0 35 0zm0 19.24L46.535 50h-23.07zM85 0a5 5 0 0 0-5 5v80a5 5 0 1 0 10 0v-1.047C94.111 87.68 99.221 90 105 90c14.423 0 25-14.031 25-30s-10.577-30-25-30c-5.779 0-10.889 2.32-15 6.047V5a5 5 0 0 0-5-5zm20 40c7.668 0 15 8.355 15 20s-7.332 20-15 20-15-8.355-15-20 7.332-20 15-20z"/></svg>