<svg xmlns="http://www.w3.org/2000/svg" viewBox="0 0 160 160"><path d="M79.985 29.68c-30.906 0-63.51 16.232-79.451 47.912a5 5 0 0 0-.28 3.824c5.493 16.538 18.007 28.74 32.692 36.709C47.632 126.095 64.582 130 80.016 130c30.87 0 63.555-15.918 79.461-47.936a5 5 0 0 0 .266-3.81c-5.482-16.385-17.987-28.567-32.668-36.574-14.681-8.007-31.637-12-47.09-12zm.053 15.418a5 5 0 1 1-.043 10 14.909 14.909 0 0 0-10.6 4.357 14.907 14.907 0 0 0-4.379 10.59 5 5 0 1 1-10 .021 24.919 24.919 0 0 1 25.022-24.968zm31.623.513a84.541 84.541 0 0 1 10.627 4.848c12.37 6.747 22.324 16.486 27.164 28.95C135.057 106.446 106.838 120 80.016 120c-13.72 0-29.27-3.593-42.3-10.664-12.363-6.71-22.31-16.433-27.166-29.043 8.585-15.925 22.058-27.28 37.207-33.863A40 40 0 0 0 40.017 70a40 40 0 0 0 40 40 40 40 0 0 0 40-40 40 40 0 0 0-8.356-24.389z"/></svg>