<svg xmlns="http://www.w3.org/2000/svg" viewBox="0 0 160 160"><path d="M147.034 90H155c2.618 0 5-2.382 5-5V25c0-2.618-2.382-5-5-5H5c-2.618 0-5 2.382-5 5v60c0 2.618 2.382 5 5 5h37.203l5-10H10V30h140v50h-7.424zM95 60c-24.794 0-45 20.206-45 45s20.206 45 45 45 45-20.206 45-45-20.206-45-45-45zm0 10c19.39 0 35 15.61 35 35s-15.61 35-35 35-35-15.61-35-35 15.61-35 35-35zm.01 9.938c-2.62.032-4.97 2.444-4.94 5.062l.002 14.93H75c-2.64-.04-5.07 2.357-5.07 5 0 2.64 2.43 5.036 5.07 5h15.072V125c-.038 2.642 2.358 5.07 5 5.07 2.64 0 5.037-2.428 5-5.07v-15.07H115c2.642.036 5.072-2.36 5.072-5 0-2.643-2.43-5.04-5.072-5h-14.928V85c.033-2.66-2.403-5.096-5.063-5.062z"/></svg>