<svg xmlns="http://www.w3.org/2000/svg" viewBox="0 0 160 160"><path d="M113.64.082C101.796.082 89.95 4.6 80.915 13.635l-9.701 9.699a5 5 0 1 0 7.072 7.072l9.7-9.7c14.273-14.275 37.036-14.275 51.31 0 14.274 14.273 14.274 37.036 0 51.31l-9.701 9.699a5 5 0 1 0 7.072 7.072l9.7-9.701c18.068-18.07 18.068-47.382 0-65.451C137.33 4.6 125.485.082 113.64.082zM35.179 9.934a5 5 0 0 0-4.852 6.775l20.04 54.986a5 5 0 0 0 2.845 2.932l47.935 19.135 15.147 41.56-8.309-3.86a5 5 0 1 0-4.213 9.07l18.684 8.679a5 5 0 0 0 7.465-2.748l8.668-18.662a5 5 0 1 0-9.07-4.213l-3.844 8.273-15.899-43.627a5 5 0 0 0-2.843-2.931L58.996 66.168 39.723 13.285a5 5 0 0 0-4.545-3.351zm-8.489 59.85a5 5 0 0 0-3.437 1.51l-9.701 9.702c-18.07 18.07-18.07 47.384 0 65.453 18.069 18.07 47.384 18.07 65.453 0l9.701-9.701a5 5 0 1 0-7.072-7.072l-9.701 9.701c-14.274 14.274-37.035 14.274-51.309 0-14.274-14.274-14.274-37.035 0-51.309l9.701-9.7a5 5 0 0 0-3.635-8.585z"/></svg>