<svg xmlns="http://www.w3.org/2000/svg" viewBox="0 0 160 160"><path d="M10 35A10 10 0 0 0 0 45a10 10 0 0 0 10 10 10 10 0 0 0 10-10 10 10 0 0 0-10-10zm40 5c-2.76 0-5 2.24-5 5s2.24 5 5 5h105c2.76 0 5-2.24 5-5s-2.24-5-5-5H50zM10 75A10 10 0 0 0 0 85a10 10 0 0 0 10 10 10 10 0 0 0 10-10 10 10 0 0 0-10-10zm40 5c-2.76 0-5 2.24-5 5s2.24 5 5 5h105c2.76 0 5-2.24 5-5s-2.24-5-5-5H50zm-40 35a10 10 0 0 0-10 10 10 10 0 0 0 10 10 10 10 0 0 0 10-10 10 10 0 0 0-10-10zm40 5c-2.76 0-5 2.24-5 5s2.24 5 5 5h105c2.76 0 5-2.24 5-5s-2.24-5-5-5H50z"/></svg>