<svg xmlns="http://www.w3.org/2000/svg" viewBox="0 0 160 160"><path d="M14.906.002a4.997 4.997 0 0 0-3.38 1.457l-10.008 9.98a4.997 4.997 0 1 0 7.058 7.077l1.48-1.477v22.893a4.997 4.997 0 1 0 9.995 0V4.996A4.997 4.997 0 0 0 14.906.002zM50.064 20a4.994 5 0 1 0 0 10h104.872a4.994 5 0 1 0 0-10H50.064zm-35.02 35c-5.254 0-10.44 2.462-13.933 6.912a5 5 0 1 0 7.866 6.174C10.65 65.952 12.847 65 15.045 65c.833 0 2.44.39 3.38 1.102.942.711 1.618 1.41 1.618 3.898 0 1.297-.29 1.933-1.256 3.088s-2.712 2.56-4.887 4.207C9.551 80.588 3.414 85.082.361 93.248A5 5 0 0 0 5.045 100h19.998a5 5 0 1 0 0-10H14.277c1.687-1.668 3.593-3.167 5.66-4.732 2.2-1.666 4.518-3.37 6.52-5.762 2.002-2.392 3.586-5.74 3.586-9.506 0-5.206-2.459-9.51-5.586-11.875C21.33 55.761 17.939 55 15.045 55zm35.02 15a4.994 5 0 1 0 0 10h104.872a4.994 5 0 1 0 0-10H50.064zm-34.867 39.994c-5.764-.147-11.744 3.151-13.949 8.608-1.17 3.303 1.984 7.03 5.436 6.423 2.991-.047 3.525-3.543 5.982-4.478 2.454-1.104 6.006-.494 7.229 2.11.932 2.387-1.533 4.514-3.743 4.763-2.62-.143-5.314 1.633-5.638 4.348-.534 2.987 2.135 5.933 5.16 5.752 2.268.1 4.971 2.011 4.318 4.533-.94 2.69-4.45 3.463-6.91 2.56-2.598-.603-3-3.963-5.648-4.484-3.319-1.127-7.006 2.076-6.354 5.52.693 2.9 2.923 5.223 5.334 6.863 6.45 4.274 16.045 2.945 20.815-3.248 3.353-4.04 3.813-10.152 1.042-14.62-.805-1.286-2.238-2.281-.527-3.474 3.16-4.342 3.112-10.655-.14-14.938-2.81-3.942-7.602-6.219-12.407-6.238zM50.064 120a4.994 5 0 1 0 0 10h104.872a4.994 5 0 1 0 0-10H50.064z"/></svg>