<svg xmlns="http://www.w3.org/2000/svg" viewBox="0 0 160 160"><path d="M109.426 139.088c3.045 0 5.518-2.44 5.518-5.445v-67.02c0-3.007-2.466-5.446-5.518-5.446-3.046 0-5.518 2.44-5.518 5.445v67.02c0 3.007 2.465 5.446 5.518 5.446zm-29.423 0c3.046 0 5.518-2.44 5.518-5.445v-67.02c0-3.007-2.464-5.446-5.517-5.446-3.045 0-5.518 2.44-5.518 5.445v67.02c0 3.007 2.466 5.446 5.518 5.446zm-29.43 0c3.047 0 5.52-2.44 5.52-5.445v-67.02c0-3.007-2.466-5.446-5.52-5.446-3.044 0-5.517 2.44-5.517 5.445v67.02c.007 3.007 2.473 5.446 5.518 5.446zm103.902-77.01H140.68V40.264H19.314v21.812H5.518C2.472 62.077 0 64.517 0 67.52c0 3.014 2.472 5.446 5.518 5.446h13.795v70.374c0 9.203 7.557 16.66 16.88 16.66h87.614c9.323 0 16.88-7.457 16.88-16.66V72.966h13.795c3.046 0 5.518-2.44 5.518-5.445-.007-3.004-2.472-5.443-5.525-5.443zm-24.824 81.268c0 3.18-2.618 5.77-5.843 5.77H36.193c-3.225 0-5.844-2.59-5.844-5.77V51.16h99.3zM20.233 30.89h120.45c3.044 0 5.517-2.44 5.517-5.445 0-3.006-2.467-5.445-5.52-5.445h-40.458V8.45c0-5.005-3.665-8.397-8.736-8.397H72.18c-5.072 0-8.737 3.392-8.737 8.397V20H20.226c-3.046 0-5.518 2.44-5.518 5.445.007 3.012 2.48 5.444 5.524 5.444zm54.02-20.174h14.94V20h-14.94z"/></svg>