<svg xmlns="http://www.w3.org/2000/svg" viewBox="0 0 160 160"><path d="M50 45h105c2.76 0 5-2.24 5-5s-2.24-5-5-5H50c-2.76 0-5 2.24-5 5s2.24 5 5 5zM15 30H5c-2.76 0-5 2.24-5 5v10c0 2.76 2.24 5 5 5h10c2.76 0 5-2.24 5-5V35c0-2.76-2.24-5-5-5zm140 85H50c-2.76 0-5 2.24-5 5s2.24 5 5 5h105c2.76 0 5-2.24 5-5s-2.24-5-5-5zm-140-5H5c-2.76 0-5 2.24-5 5v10c0 2.76 2.24 5 5 5h10c2.76 0 5-2.24 5-5v-10c0-2.76-2.24-5-5-5zm140-35H50c-2.76 0-5 2.24-5 5s2.24 5 5 5h105c2.76 0 5-2.24 5-5s-2.24-5-5-5zM15 70H5c-2.76 0-5 2.24-5 5v10c0 2.76 2.24 5 5 5h10c2.76 0 5-2.24 5-5V75c0-2.76-2.24-5-5-5z"/></svg>