<svg xmlns="http://www.w3.org/2000/svg" viewBox="0 0 160 160"><path d="M90 115h-5V70.312c0-.052-.015-.102-.015-.157 0-.055.015-.103.015-.155 0-2.76-2.24-5-5-5H70c-2.76 0-5 2.24-5 5s2.24 5 5 5h5v40h-5c-2.76 0-5 2.24-5 5s2.24 5 5 5h20c2.76 0 5-2.24 5-5s-2.24-5-5-5zM80 55c5.522 0 10-4.478 10-10s-4.478-10-10-10-10 4.478-10 10 4.478 10 10 10zm0-55C35.818 0 0 35.818 0 80c0 44.185 35.818 80 80 80 44.185 0 80-35.815 80-80 0-44.182-35.815-80-80-80zm0 150.157c-38.597 0-70-31.56-70-70.157 0-38.597 31.402-70 70-70 38.597 0 70 31.402 70 70 0 38.597-31.402 70.157-70 70.157z"/></svg>