<svg xmlns="http://www.w3.org/2000/svg" viewBox="0 0 160 160"><path d="M72.773 100.047c.04-5.9.547-9.987 1.527-12.267.973-2.28 3.54-5.287 7.693-9.033 4.027-4.76 6.9-8.427 8.607-10.987 1.707-2.567 2.56-5.653 2.56-9.28 0-4.313-1.147-7.633-3.447-9.947-2.3-2.32-5.586-3.48-9.853-3.48-3.707 0-6.86 1.007-9.46 3.02-2.6 2.014-3.907 7.634-3.907 11.54H55.02l-.187-.366c-.12-6.547 2.187-14.454 6.927-18.4 4.74-3.947 10.78-5.92 18.1-5.92 8.013 0 14.24 2.046 18.673 6.133 4.44 4.087 6.654 9.793 6.654 17.12 0 5.247-1.434 10.053-4.3 14.407C98.013 76.94 94.22 81.4 89.5 85.953c-2.2 2.194-3.527 4.174-3.993 5.92-.467 1.754-.7 4.48-.7 8.18H72.773v-.007zm12.447 25.026H72.64V112.38h12.58v12.693zM80 10c38.6 0 70 31.4 70 70s-31.4 70.153-70 70.153S10 118.593 10 80c0-38.6 31.4-70 70-70m0-10C35.82 0 0 35.82 0 80c0 44.187 35.82 80 80 80 44.187 0 80-35.813 80-80S124.18 0 80 0z"/></svg>