<svg xmlns="http://www.w3.org/2000/svg" viewBox="0 0 160 160"><path d="M119.814 0C96.137 0 80 18.355 80 40.918V60H20C8.97 60 0 68.97 0 80v60c0 11.03 8.97 20 20 20h80c11.03 0 20-8.97 20-20V80c0-11.03-8.97-20-20-20H90V40.918C90 23.873 101.65 10 119.814 10 137.792 10 150 23.58 150 40.918V60a5 5 0 0 0 5 5 5 5 0 0 0 5-5V40.918C160 17.973 143.397 0 119.814 0zM20 70h80c5.513 0 10 4.487 10 10v60c0 5.512-4.487 10-10 10H20c-5.512 0-10-4.488-10-10V80c0-5.513 4.488-10 10-10zm40 20c-5.523 0-10 4.478-10 10 0 3.692 2.025 6.88 5 8.613V125c0 2.76 2.24 5 5 5s5-2.24 5-5v-16.387c2.975-1.732 5-4.923 5-8.613 0-5.522-4.478-10-10-10z"/></svg>