<svg xmlns="http://www.w3.org/2000/svg" viewBox="0 0 160 160"><path d="M134.003 4.23c-5.64-5.64-14.942-5.64-20.582 0L86.536 31.114l-74.039 74.039a4.991 4.991 0 0 0-1.782 2.858L.127 153.888a4.991 4.991 0 0 0 5.985 5.985l45.878-10.588a4.991 4.991 0 0 0 2.957-1.884l83.619-83.618 17.204-17.204c5.64-5.64 5.64-14.942 0-20.582L134.003 4.23zm-7.059 7.058l21.768 21.767c1.852 1.852 1.852 4.614 0 6.466l-13.675 13.675-28.233-28.233 13.675-13.675c1.852-1.852 4.613-1.852 6.465 0zM99.746 32.021l28.232 28.233-77.11 77.11-28.233-28.233 77.11-77.11zm-81.33 87.007l22.556 22.557-17.204 3.97-9.323-9.323 3.97-17.204z"/></svg>