<svg xmlns="http://www.w3.org/2000/svg" width="160" height="160"><path d="M5.066 30c-6.75-.09-6.75 10.09 0 10H154.94c6.751.09 6.751-10.09 0-10zm.102 75.041a5 5 0 0 0 2.672-.877l30-20a5 5 0 0 0 0-8.32l-30-20a5 5 0 1 0-5.547 8.32l23.76 15.84-23.76 15.84a5 5 0 0 0 2.875 9.197zM65.06 59.996c-6.748-.09-6.748 10.09 0 10l89.86.002c6.748.09 6.748-10.09 0-10zm0 30c-6.748-.09-6.748 10.09 0 10l89.878.004c6.748.09 6.748-10.09 0-10zM5.066 120c-6.75-.09-6.75 10.09 0 10H154.94c6.751.09 6.751-10.09 0-10z"/></svg>