<svg xmlns="http://www.w3.org/2000/svg" viewBox="0 0 160 160"><path d="M80.568 10.004c-1.102.01-2.207.04-3.31.09-17.658.798-35.372 6.705-49.38 17.156C-.063 48.098-8.16 83.686 8.89 112.387c17.053 28.7 53.95 43.112 89.51 35.676 35.463-7.417 58.238-33.632 61.517-63.37.386-3.504-.6-6.562-1.87-9.235-1.27-2.672-2.66-4.894-5.114-6.644-8.27-5.9-18.17-5.235-26.54-5.185-8.37.048-14.87-.372-18.864-4.334a5.003 4.995 0 0 0 0-.002c-.254-.252-.635-2.33-.746-2.054.38-.948 1-1.568 2.61-2.368 1.61-.8 4.046-1.5 6.752-2.232 2.706-.73 5.684-1.49 8.594-2.98 2.91-1.487 5.91-4.015 7.286-7.785 1.26-3.446.964-6.948-.054-10.105-1.02-3.156-2.79-6.092-5.663-8.173-12.926-9.365-29.203-13.74-45.737-13.593zm-.012 10.304c14.7-.16 29.054 3.532 39.873 11.37.59.43 1.547 1.703 2.016 3.155.468 1.452.42 2.957.177 3.62-.35.954-.895 1.524-2.448 2.318-1.553.795-3.953 1.502-6.646 2.23-2.693.726-5.676 1.477-8.6 2.93-2.92 1.452-5.952 3.887-7.44 7.605-2.006 5.015-.33 9.557 2.984 12.844 7.356 7.297 17.403 7.287 25.974 7.237 8.57-.05 16.006.002 20.668 3.326-.13-.093 1.165 1.27 1.887 2.793.723 1.522 1.033 3.268.968 3.863-2.802 25.42-21.897 48.052-53.623 54.687-31.632 6.616-64.315-6.528-78.852-30.996C2.957 82.824 9.472 53.453 33.868 35.25c12.16-9.073 28.03-14.146 43.745-14.86a82.788 82.788 0 0 1 2.943-.082zM65.03 32.14c-8.228 0-15.006 6.768-15.006 14.983s6.778 14.982 15.007 14.982c8.23 0 15.008-6.767 15.008-14.982S73.26 32.14 65.03 32.14zm0 9.99c2.823 0 5.004 2.176 5.004 4.993s-2.18 4.994-5.003 4.994c-2.82 0-5-2.177-5-4.994 0-2.817 2.18-4.994 5-4.994zM35.018 65.1c-8.23 0-15.007 6.766-15.007 14.982 0 8.215 6.778 14.982 15.007 14.982 8.23 0 15.007-6.767 15.007-14.982 0-8.216-6.778-14.982-15.007-14.982zm0 9.988c2.822 0 5.002 2.176 5.002 4.994 0 2.817-2.18 4.994-5.003 4.994-2.822 0-5.003-2.177-5.003-4.994 0-2.818 2.18-4.994 5.003-4.994zm75.036 14.982c-8.23 0-15.007 6.766-15.007 14.982 0 8.215 6.778 14.982 15.007 14.982 8.23 0 15.007-6.767 15.007-14.982 0-8.216-6.778-14.982-15.007-14.982zM65.03 95.066c-8.228 0-15.006 6.766-15.006 14.982 0 8.215 6.778 14.982 15.007 14.982 8.23 0 15.008-6.767 15.008-14.982 0-8.216-6.778-14.982-15.007-14.982zm45.023 4.994c2.822 0 5.002 2.176 5.002 4.994 0 2.817-2.18 4.994-5.002 4.994-2.822 0-5.003-2.177-5.003-4.994 0-2.818 2.18-4.994 5.003-4.994zm-45.022 4.994c2.823 0 5.004 2.176 5.004 4.994 0 2.817-2.18 4.994-5.003 4.994-2.82 0-5-2.177-5-4.994 0-2.818 2.18-4.994 5-4.994z"/></svg>