<svg xmlns="http://www.w3.org/2000/svg" viewBox="0 0 160 160"><path d="M5 0a5 5 0 0 0-5 5v100a5 5 0 0 0 5 5h100a5 5 0 0 0 5-5V5a5 5 0 0 0-5-5H5zm5 10h90v90H10V10zm35.02 29.898a5 5 0 0 0-4.477 2.786 5 5 0 0 0-.19.425A5 5 0 0 0 40 44.97l.07 19.998a5 5 0 1 0 10-.035l-.027-7.94 26.492 26.492a5 5 0 1 0 7.072-7.07L57.143 49.95h7.93a5 5 0 1 0-.003-10H45.687a5 5 0 0 0-.668-.05zm74.927 75.051a5 5 0 0 0-3.482 8.586L142.93 150H135a5 5 0 1 0 0 10h19.383a5 5 0 0 0 5.328-3.14 5 5 0 0 0 .002-.005 5 5 0 0 0 .357-1.873l-.07-20a5 5 0 1 0-10 .036l.027 7.939-26.492-26.492a5 5 0 0 0-3.588-1.516z"/></svg>