<svg xmlns="http://www.w3.org/2000/svg" viewBox="0 0 160 160"><path d="M27.072 160c-6.77 0-13.273-2.803-18.455-7.99-11.49-11.526-11.49-30.273-.002-41.792L98.2 15.086c13.978-14 35.388-12.742 51.013 2.902 7.002 7.014 10.93 17.125 10.783 27.753-.147 10.517-4.256 20.58-11.277 27.614l-67.707 72.08c-1.884 2.02-5.044 2.11-7.056.217a5.01 5.01 0 0 1-.212-7.073l67.808-72.19c5.304-5.313 8.347-12.85 8.46-20.785.11-7.94-2.757-15.426-7.858-20.54-9.585-9.604-25.19-14.634-36.79-3.005L15.78 117.19c-7.702 7.72-7.7 20.124-.1 27.744 3.565 3.567 7.796 5.304 12.3 5.032 4.46-.272 9.04-2.558 12.905-6.432l71.28-75.868c2.584-2.588 7.775-8.933 2.49-14.23-2.99-2.997-5.093-2.813-5.784-2.755-1.974.176-4.28 1.54-6.674 3.942l-53.65 57.06c-1.895 2.015-5.058 2.112-7.057.213a5.007 5.007 0 0 1-.213-7.07l53.75-57.167c4.224-4.245 8.545-6.547 12.943-6.94 3.432-.306 8.536.426 13.743 5.647 7.727 7.743 6.766 19.1-2.384 28.27l-71.28 75.863c-5.692 5.71-12.564 9.028-19.458 9.452-.506.035-1.013.05-1.52.05z"/></svg>