<svg xmlns="http://www.w3.org/2000/svg" viewBox="0 0 160 160"><path d="M84.924 29.857A5 5 0 0 0 80 34.927v55.071H70V84.93c0-6.041-3.649-11.031-8.277-14.453C57.093 67.054 51.197 64.93 45 64.93c-7.805 0-16.354 1.884-22.621 5.74a5 5 0 0 0 5.242 8.517C31.354 76.891 39.061 74.93 45 74.93c3.803 0 7.906 1.465 10.777 3.588C58.65 80.64 60 83.15 60 84.93v5.068H10a10.001 10.001 0 1 0 0 20h6.592c-1.136 3.23-1.592 6.638-1.592 9.932 0 6.166 3.651 11.304 8.322 14.677 4.671 3.374 10.567 5.323 16.678 5.323 8.06 0 14.433-4.02 20-8.705v3.705a5 5 0 1 0 10 0v-14.36a5 5 0 0 0 0-1.361v-9.21h10v24.929a5 5 0 1 0 10 0v-1.045c8.216 6.002 18.664 7.814 28.27 3.933 11.161-4.51 18.825-15.249 21.046-27.818H150a10.001 10.001 0 1 0 0-20h-11.838c-3.112-10.307-10.041-18.853-19.59-22.834-9.668-4.03-20.263-2.279-28.572 3.785V34.928a5 5 0 0 0-5.076-5.07zm21.847 45.03a18.13 18.13 0 0 1 1.254.004c2.236.085 4.49.582 6.7 1.504 5.534 2.307 10.147 7.262 12.81 13.603H90v-4.834a5 5 0 0 0 .146-.207c4.346-6.436 10.364-9.876 16.625-10.07zM27.76 109.998H60v7.75c-6.934 6.559-13.475 12.182-20 12.182-3.889 0-7.993-1.387-10.822-3.43-2.83-2.043-4.178-4.404-4.178-6.57 0-3.851.927-7.384 2.76-9.932zm62.24 0h39.102c-2.077 8.724-7.611 15.732-14.579 18.547-8.86 3.58-18.406.377-24.515-8.856a5 5 0 0 0-.008-.011v-9.68z"/></svg>