<svg xmlns="http://www.w3.org/2000/svg" viewBox="0 0 160 160"><path d="M125 45.03h10c2.76 0 5-2.24 5-5v-5c0-2.76-2.24-5-5-5h-10c-2.76 0-5 2.24-5 5v5c0 2.76 2.24 5 5 5zm0 30h10c2.76 0 5-2.24 5-5v-5c0-2.76-2.24-5-5-5h-10c-2.76 0-5 2.24-5 5v5c0 2.76 2.24 5 5 5zm0 30h10c2.76 0 5-2.24 5-5v-5c0-2.76-2.24-5-5-5h-10c-2.76 0-5 2.24-5 5v5c0 2.76 2.24 5 5 5zm0 30h10c2.76 0 5-2.24 5-5v-5c0-2.76-2.24-5-5-5h-10c-2.76 0-5 2.24-5 5v5c0 2.76 2.24 5 5 5zm-100-90h10c2.76 0 5-2.24 5-5v-5c0-2.76-2.24-5-5-5H25c-2.76 0-5 2.24-5 5v5c0 2.76 2.24 5 5 5zm0 30h10c2.76 0 5-2.24 5-5v-5c0-2.76-2.24-5-5-5H25c-2.76 0-5 2.24-5 5v5c0 2.76 2.24 5 5 5zm0 30h10c2.76 0 5-2.24 5-5v-5c0-2.76-2.24-5-5-5H25c-2.76 0-5 2.24-5 5v5c0 2.76 2.24 5 5 5zm0 30h10c2.76 0 5-2.24 5-5v-5c0-2.76-2.24-5-5-5H25c-2.76 0-5 2.24-5 5v5c0 2.76 2.24 5 5 5zM150 0H10C4.503 0 0 4.503 0 10v140c0 5.497 4.503 10 10 10h140c5.497 0 10-4.503 10-10V10c0-5.497-4.502-10-10-10zm0 150H10V10h140z"/></svg>