<svg xmlns="http://www.w3.org/2000/svg" viewBox="0 0 160 160"><path d="M 102.05079,63.909464 C 91.850351,74.578655 84.182975,83.511619 70.286982,98.641475 60.504451,91.979196 49.360699,91.94753 51.176364,110.02726 c 0.804176,3.22616 0.18076,9.48003 0.08084,11.76146 -0.348162,7.94711 -9.344982,13.93479 -5.140382,13.00496 40.575419,2.24325 42.277021,-14.27292 33.599028,-26.83113 l 29.63966,-38.197017 c 9.50847,-15.233685 6.95798,-21.089755 -7.30472,-5.856069 z M 60.000001,0 C 54.54649,0 49.998048,4.548443 49.998048,10.001953 V 15 H 30 c -5.453511,0 -10,4.54649 -10,10 v 125 c 0,5.45351 4.546489,10 10,10 h 100 c 5.45351,0 10,-4.54649 10,-10 V 25 c 0,-5.45351 -4.54649,-10 -10,-10 H 109.99805 V 10.001953 C 109.99805,4.548443 105.45546,0 100.00195,0 Z m 0,10.001953 H 100.00195 V 19.85547 A 5.0004949,5.0004949 0 0 0 100,20 v 5 h 0.002 v 5 H 60.000001 Z M 30,25 h 9.999999 9.998049 v 5 c 0,5.45351 4.548442,10.00195 10.001953,10.00195 h 40.001949 c 5.45351,0 9.9961,-4.54844 9.9961,-10.00195 v -5 h 0.002 10 10 V 150 H 30 Z" /></svg>