<svg xmlns="http://www.w3.org/2000/svg" viewBox="0 0 160 160"><path d="M5 0a5 5 0 0 0-5 5v100a5 5 0 0 0 5 5h45v45a5 5 0 0 0 5 5h100a5 5 0 0 0 5-5V55a5 5 0 0 0-5-5h-45V5a5 5 0 0 0-5-5H5zm5 10h90v42.93l-6.11 6.107 7.073 7.072L107.07 60H150v90H60v-42.93l5.607-5.605-7.072-7.072L52.93 100H10V10zm24.998 19.898a5 5 0 0 0-3.482 8.586L52.98 59.95h-7.93a5 5 0 1 0 0 10h19.384a5 5 0 0 0 5.617-5.638V44.949a5 5 0 1 0-10 0v7.93L38.586 31.414a5 5 0 0 0-3.588-1.516zM86.82 66.11l-7.072 7.07 7.072 7.073 7.07-7.072-7.07-7.07zM72.678 80.252l-7.07 7.07 7.07 7.07 7.07-7.07-7.07-7.07zm22.32 9.646a5 5 0 0 0-4.947 5.702v19.35a5 5 0 1 0 10 0v-7.93l21.465 21.464a5 5 0 1 0 7.07-7.07L107.12 99.95h7.93a5 5 0 1 0 0-10H95.668a5 5 0 0 0-.67-.05z"/></svg>