<svg xmlns="http://www.w3.org/2000/svg" viewBox="0 0 160 160"><path d="M75 45.385q0 5.77-1.827 10.913-1.827 5.144-6.058 8.894-4.23 3.75-10.096 3.75-7.308 0-13.27-5.528-5.962-5.53-8.846-13.03-2.885-7.5-2.885-14.52 0-5.768 1.826-10.912 1.827-5.144 6.058-8.894 4.23-3.75 10.096-3.75 7.404 0 13.317 5.53 5.914 5.527 8.798 12.98Q75 38.267 75 45.384zM42.115 91.827q0 7.692-4.038 13.365-4.04 5.673-11.442 5.673-7.308 0-13.606-5.336-6.3-5.338-9.665-12.838Q0 85.192 0 78.077q0-7.692 4.038-13.413 4.04-5.722 11.443-5.722 7.308 0 13.607 5.337 6.298 5.335 9.663 12.884 3.365 7.547 3.365 14.663zM80 89.23q11.346 0 24.52 9.376 13.172 9.375 22.018 22.788 8.847 13.414 8.847 24.47 0 4.424-1.635 7.357-1.635 2.934-4.663 4.328-3.03 1.394-6.202 1.923-3.173.53-7.308.53-6.54 0-18.03-4.327-11.49-4.327-17.547-4.327-6.346 0-18.51 4.28-12.163 4.278-19.278 4.278-17.597 0-17.597-14.04 0-8.268 5.385-18.412 5.385-10.144 13.413-18.51 8.03-8.365 18.03-14.038 10-5.673 18.557-5.673zm22.98-20.288q-5.865 0-10.095-3.75t-6.058-8.894Q85 51.154 85 45.385q0-7.116 2.885-14.568 2.884-7.452 8.798-12.98 5.913-5.53 13.317-5.53 5.865 0 10.096 3.75 4.23 3.75 6.058 8.895 1.827 5.144 1.827 10.913 0 7.02-2.884 14.52t-8.846 13.03q-5.962 5.527-13.27 5.527zm41.54-10q7.403 0 11.442 5.722Q160 70.383 160 78.076q0 7.115-3.365 14.615-3.366 7.5-9.664 12.837-6.297 5.335-13.605 5.335-7.403 0-11.442-5.673-4.038-5.673-4.038-13.365 0-7.116 3.365-14.664t9.663-12.884q6.3-5.338 13.606-5.338z"/></svg>