<svg xmlns="http://www.w3.org/2000/svg" viewBox="0 0 160 160"><path d="M4.926.002A5 5 0 0 0 0 5v35a5 5 0 0 0 5 5h35c4.453-.002 6.683-5.385 3.535-8.535l-12.36-12.36C50.667 9.401 76.687 5.778 99.755 15.191a69.973 69.973 0 0 1 43.55 64.526 69.97 69.97 0 0 1-43.019 64.879 69.971 69.971 0 0 1-76.387-15.004 5 5 0 1 0-7.058 7.084c22.935 22.85 57.425 29.625 87.299 17.146 29.874-12.478 49.298-41.77 49.166-74.146-.133-32.375-19.796-61.51-49.772-73.742a79.85 79.85 0 0 0-34.752-5.8 80.006 80.006 0 0 0-44.717 16.86L8.535 1.464A5 5 0 0 0 4.925.003z"/></svg>