<svg xmlns="http://www.w3.org/2000/svg" viewBox="0 0 160 160"><path d="M5.066 30c-6.75-.09-6.75 10.09 0 10H154.94c6.751.09 6.751-10.09 0-10H5.066zm29.832 24.963a5 5 0 0 0-2.671.877l-30 20a5 5 0 0 0 0 8.32l30 20a5 5 0 1 0 5.546-8.32L14.013 80l23.76-15.84a5 5 0 0 0-2.875-9.197zm30.163 5.033c-6.748-.09-6.748 10.09 0 10l89.86.002c6.748.09 6.748-10.09 0-10l-89.86-.002zm0 30c-6.748-.09-6.748 10.09 0 10l89.878.004c6.748.09 6.748-10.09 0-10l-89.878-.004zM5.066 120c-6.75-.09-6.75 10.09 0 10H154.94c6.751.09 6.751-10.09 0-10H5.066z"/></svg>