<svg xmlns="http://www.w3.org/2000/svg" viewBox="0 0 160 160"><path d="M155.074 0A5.003 5.003 0 0 1 160 5v35c0 2.76-2.24 5-5 5h-35c-4.452-.002-6.68-5.386-3.534-8.536l12.36-12.36C109.335 9.4 83.315 5.778 60.25 15.192A69.972 69.972 0 0 0 16.7 79.717a69.974 69.974 0 0 0 43.018 64.88 69.966 69.966 0 0 0 76.384-15.005 5 5 0 1 1 7.06 7.085c-22.935 22.85-57.424 29.625-87.297 17.147C25.992 141.342 6.568 112.05 6.7 79.675 6.834 47.3 26.497 18.165 56.47 5.933A79.878 79.878 0 0 1 91.221.135a79.993 79.993 0 0 1 44.716 16.858l15.53-15.53a5.002 5.002 0 0 1 3.608-1.462z"/></svg>