<svg xmlns="http://www.w3.org/2000/svg" viewBox="0 0 160 160"><path d="M119.889.006c-5.754 0-11.508 2.167-15.889 6.5L78.947 31.283a5 5 0 1 0 7.033 7.112l25.051-24.778c4.947-4.892 12.77-4.893 17.717-.002l17.643 17.444c4.947 4.891 4.948 12.468.002 17.36L96.576 97.69c-4.946 4.893-12.77 4.894-17.717.002L64.482 83.477a5 5 0 1 0-7.029 7.11l14.375 14.216c8.764 8.665 23.017 8.662 31.78-.004l49.816-49.27c8.762-8.666 8.762-22.917-.002-31.582L135.779 6.504C131.397 2.17 125.643.005 119.89.006zm-47.614 48.7c-5.754 0-11.507 2.168-15.888 6.501L6.57 104.477c-8.762 8.666-8.76 22.917.004 31.582l17.643 17.443c8.764 8.665 23.015 8.664 31.777-.002l25.053-24.777a5 5 0 1 0-7.031-7.11L48.963 146.39c-4.947 4.892-12.77 4.893-17.717.002l-17.642-17.444c-4.948-4.891-4.947-12.469 0-17.361l49.816-49.27c4.947-4.892 12.767-4.893 17.715-.002L95.512 76.53a5 5 0 1 0 7.031-7.111L88.166 55.203c-4.382-4.332-10.137-6.498-15.89-6.498z"/></svg>