<svg xmlns="http://www.w3.org/2000/svg" viewBox="0 0 160 160"><path d="M78.418.014a79.834 79.834 0 0 0-22.166 3.591C22.804 14.003-.015 45.008 0 80.035a5 5 0 1 0 10-.004c-.014-30.687 19.916-57.765 49.22-66.875 26.994-8.391 56.07.298 74.079 21.483l-.537.537-6.29 6.289c-3.147 3.15-.917 8.533 3.536 8.535h20a5 5 0 0 0 5-5V25a5 5 0 0 0-8.535-3.535l-6.08 6.08C125.425 10.304 103.933.468 81.582.015a79.83 79.83 0 0 0-3.164-.001zm76.533 75.261a5 5 0 0 0-4.943 5.045c-.138 30.624-20.12 57.562-49.385 66.58-26.954 8.306-55.943-.398-73.912-21.537l.535-.535 6.29-6.289c3.147-3.15.917-8.533-3.536-8.535H10a5 5 0 0 0-5 5v20a5 5 0 0 0 8.535 3.535l6.08-6.08C34.55 149.66 55.98 159.495 78.28 159.986a79.822 79.822 0 0 0 25.29-3.529c33.404-10.294 56.282-41.138 56.439-76.092a5 5 0 0 0-5.057-5.09z"/></svg>