<svg xmlns="http://www.w3.org/2000/svg" viewBox="0 0 160 160"><path d="M75.094.246a5 5 0 0 0-4.924 5.07v27.55L58.705 21.4c-4.712-4.907-11.978 2.358-7.07 7.07l19.562 19.563c2.007 2.63 5.968 2.62 7.963-.017L98.705 28.47c4.908-4.712-2.358-11.977-7.07-7.07L80.17 32.865V5.315A5.002 5.002 0 0 0 75.094.246zM5.066 60c-6.755-.096-6.755 10.096 0 10h149.868c6.755.096 6.755-10.096 0-10H5.066zm0 29.998c-6.755-.096-6.755 10.096 0 10h99.913c6.754.096 6.754-10.096 0-10H5.065zm0 30c-6.755-.095-6.755 10.095 0 10h149.868c6.755.095 6.755-10.095 0-10H5.066zm0 30c-6.755-.096-6.755 10.096 0 10l149.868.002c6.755.096 6.755-10.096 0-10l-149.868-.002z"/></svg>