<svg data-bind="svgAttrs" xmlns="http://www.w3.org/2000/svg" x="0" y="0" viewBox="0 0 24 24"><path class="dxd-icon-fill" d="M8.375 2c-1.128 0-2.2.388-3.211 1.162-1.011.765-1.764 1.87-2.26 3.314C2.301 8.223 2 10.14 2 12.227a16.02 16.02 0 0 0 .627 4.477c.321 1.067.695 1.92 1.123 2.563.593.878 1.275 1.553 2.043 2.025S7.422 22 8.375 22c.836 0 1.608-.189 2.318-.566.71-.387 1.342-.907 1.896-1.559.564-.652 1.011-1.486 1.342-2.506.554-1.662.832-3.452.832-5.369 0-2.096-.325-4.027-.977-5.793-.467-1.284-1.201-2.305-2.203-3.061C10.592 2.382 9.523 2 8.375 2zm-.045.977c.545 0 .939.151 1.182.453.37.463.604 1.352.701 2.664.039.557.059 2.515.059 5.877l-.059 6.092c-.058 1.105-.293 1.922-.701 2.451-.243.302-.607.453-1.094.453-.447 0-.808-.113-1.08-.34s-.481-.675-.627-1.346c-.195-.925-.291-2.749-.291-5.469l.189-8.738c.126-.84.369-1.427.729-1.758.243-.227.574-.34.992-.34zM19.492 17a2.41 2.41 0 0 0-1.77.736A2.44 2.44 0 0 0 17 19.508a2.44 2.44 0 0 0 .723 1.771c.491.48 1.079.721 1.77.721a2.44 2.44 0 0 0 1.771-.721c.491-.49.736-1.081.736-1.771s-.246-1.281-.736-1.771A2.38 2.38 0 0 0 19.492 17z"/></svg>