<svg data-bind="svgAttrs" xmlns="http://www.w3.org/2000/svg" x="0" y="0" viewBox="0 0 24 24"><path class="dxd-icon-fill" d="M6 0v4h4V0H6zM0 2v22h12v-2H2V4h2V2H0zm12 0v2h2v6h2V2h-4zM4 6v14h8V6H4zm2 2h4v2H6V8zm0 4h4v2H6v-2zm12.98.008c-2.761.004-4.99.902-4.98 2.008s2.261 1.997 5.021 1.992 4.99-.905 4.979-2.01-2.259-1.995-5.02-1.99zM6 16h4v2H6v-2zm18 .008c.011 1.104-2.218 2.005-4.979 2.01s-5.009-.887-5.021-1.992v1.992c.013 1.105 2.261 1.995 5.021 1.99S24.011 19.104 24 18v-1.992zM24 20c.011 1.104-2.218 2.003-4.979 2.008s-5.009-.885-5.021-1.99v1.99c.013 1.105 2.261 1.997 5.021 1.992s4.99-.903 4.979-2.008V20z"/></svg>