<svg data-bind="svgAttrs" xmlns="http://www.w3.org/2000/svg" x="0" y="0" viewBox="0 0 24 24"><path class="dxd-icon-fill" d="M2 2v16h8v-2H4v-1.9L8 10l2 2 6-6 4 4v1h2V2H2zm6 2c1.1 0 2 .9 2 2s-.9 2-2 2-2-.9-2-2 .9-2 2-2zm12.1 8.77l-1.035 1.795c-.346-.096-.704-.164-1.08-.162-.386.002-.751.074-1.104.178l-1.025-1.775-1.732 1 1.031 1.787c-.487.493-.832 1.119-1.012 1.811H12v2h2.143a3.99 3.99 0 0 0 1.061 1.857L14.199 23l1.732 1 1.014-1.756c.343.094.699.16 1.072.158.365-.002.711-.067 1.047-.16L20.08 24l1.732-1-1.01-1.75a3.99 3.99 0 0 0 1.055-1.848H24v-2h-2.141a3.99 3.99 0 0 0-1.057-1.85l1.029-1.783-1.732-1zm-2.107 3.633a2 2 0 1 1 .018 4 2 2 0 1 1-.018-4z"/></svg>