<svg data-bind="svgAttrs" xmlns="http://www.w3.org/2000/svg" x="0" y="0" viewBox="0 0 24 24"><path class="dxd-icon-fill" d="M0 0v6h2V2h4V0H0zm18 0v2h4v4h2V0h-6zm-6 3L6.641 16.26c-.48 1.275-.961 2.126-1.281 2.551s-.799.679-1.359.764V20h4.801v-.426c-.8-.085-1.201-.169-1.361-.254-.32-.255-.479-.595-.479-1.02 0-.34.158-.766.318-1.361l.16-.34h6.4l.32.766c.24.51.32.851.32.936a.97.97 0 0 1 .08.424c0 .255-.08.255-.24.34-.32.17-.721.086-1.281.086h-.238V20H20v-.426c-.48-.085-.799-.255-1.039-.51-.32-.34-.721-1.19-1.281-2.465L12.24 3H12zm-1.279 5.609l2.398 6.291H8.16l2.561-6.291zM0 18v6h6v-2H2v-4H0zm22 0v4h-4v2h6v-6h-2z"/></svg>