<?xml version="1.0" encoding="utf-8"?>
<!-- Generator: Adobe Illustrator 27.6.1, SVG Export Plug-In . SVG Version: 6.00 Build 0)  -->
<svg version="1.1" id="Warstwa_1" xmlns="http://www.w3.org/2000/svg" xmlns:xlink="http://www.w3.org/1999/xlink" x="0px" y="0px"
	 viewBox="0 0 200 33.5" style="enable-background:new 0 0 200 33.5;" xml:space="preserve">
<path d="M69.7,0.1C60.5,0.1,53,7.6,53,16.7c0,9.2,7.5,16.7,16.7,16.7c9.2,0,16.7-7.5,16.7-16.7C86.4,7.6,78.9,0.1,69.7,0.1z
	 M153.2,4.7c-2.8,0-5.4,0.9-6.7,1.8l1,3.2c1-0.6,2.9-1.5,4.8-1.5c2.6,0,3.7,1.3,3.7,3c0,2.3-2.6,3.2-4.6,3.2h-2v3.2h2
	c2.7,0,5.3,1.2,5.3,4c0,1.8-1.3,3.7-4.7,3.7c-2.2,0-4.4-0.9-5.3-1.4l-1,3.4c1.3,0.8,3.7,1.6,6.6,1.6c5.8,0,9.1-3.1,9.1-7.1
	c0-3.2-2.3-5.3-5.2-5.8v-0.1c2.9-1,4.3-3,4.3-5.5C160.5,7.3,158,4.7,153.2,4.7L153.2,4.7z M178.3,4.7c-0.4,0-0.8,0-1.3,0.1
	c-3.3,0.3-6.2,1.4-8.3,3.5c-2.4,2.3-4.1,5.9-4.1,10.4c0,5.8,3.1,10.1,8.8,10.1c5,0,8.3-3.9,8.3-8.4c0-4.8-3.1-7.6-7.2-7.6
	c-2.3,0-4.1,0.9-5.3,2.3h-0.1c0.6-3.2,2.9-6.2,7.9-6.8c0.9-0.1,1.6-0.1,2.2-0.1V4.7C179,4.7,178.7,4.7,178.3,4.7L178.3,4.7z
	 M187.1,5.1l-1.5,11.8c0.9-0.1,1.9-0.2,3.2-0.2c4.7,0,6.6,1.8,6.6,4.5c0,2.8-2.5,4.3-5.1,4.3c-2.1,0-4.1-0.7-5.2-1.2l-0.9,3.4
	c1.2,0.7,3.5,1.4,6.2,1.4c5.7,0,9.4-3.6,9.4-8.1c0-2.8-1.3-4.8-3.1-5.9c-1.5-1-3.6-1.5-5.7-1.5c-0.7,0-1.2,0-1.7,0.1l0.7-4.7h9V5.1
	C199.3,5.1,187.1,5.1,187.1,5.1z M65.3,7.1c0.3,0,0.8,0.2,1.4,0.5l12.7,7.7c0.5,0.3,0.9,0.9,0.9,1.5c0,0.6-0.4,1.2-0.9,1.6
	l-13.1,7.9c-0.3,0.2-0.6,0.2-0.9,0.2c-1,0-1.8-0.8-1.8-1.8V8.9C63.5,7.9,64.4,7.1,65.3,7.1z M173.2,16.1c2.6,0,4.1,1.9,4.1,4.6
	c0,2.8-1.5,4.8-3.7,4.8c-2.9,0-4.4-2.5-4.4-5.6c0-0.6,0.1-1,0.3-1.4C170,17.1,171.5,16.1,173.2,16.1z"/>
<path d="M93.1,4.3c-0.2,0-0.3,0.1-0.5,0.1l-0.4,0.2c-0.7,0.4-1.1,1.3-0.8,2.1l9,21.1c0.5,0.6,1.6,1,2.8,1c1.2,0,2.3-0.4,2.8-1.1
	l8.5-21.3c0.1-0.8-0.3-1.7-1.1-2l-0.3-0.1c-0.1,0-0.2-0.1-0.3-0.1h-0.5c-0.5,0.1-1,0.3-1.3,0.8l-7.8,20.1L95,5.2
	c-0.3-0.5-0.8-0.9-1.4-0.9C93.6,4.3,93.1,4.3,93.1,4.3z M9.1,4.4C3,4.4,0,7.8,0,14.9v3c0,7.5,5.1,10.5,11.2,10.5h4.7
	c0.9-0.1,1.5-0.7,1.7-1.6v-0.5c-0.1-0.8-0.8-1.5-1.6-1.6h-4.8c-2.7,0-7.3,0-7.4-6h12.4c1,0,1.9-0.8,1.9-1.9v-1.8
	C18,7.7,15.2,4.4,9.1,4.4z M28.9,4.4c-1,0-1.9,0.8-1.9,1.9v20.3c0,0.9,0.7,1.6,1.6,1.8h0.5c0.8-0.1,1.5-0.8,1.6-1.6V8.1h3.8
	c3.2,0,7.5,0.4,7.5,6.8v12c0.2,0.8,0.9,1.4,1.7,1.4h0.3c0.9,0,1.6-0.7,1.7-1.5V14.9c0-7.4-5-10.5-11.3-10.5
	C34.6,4.4,28.9,4.4,28.9,4.4z M121.1,4.4c-0.9,0.1-1.6,0.9-1.6,1.8v0.1c0,0.9,0.7,1.7,1.6,1.8h6.4c2.9,0,4.8,0.4,5.2,5.2H128
	c-2.2,0-8.9,0-8.9,7.4c0,5.6,3.9,7.6,7.3,7.6h8.2c1,0,1.9-0.8,1.9-1.9V14.9c0-7.4-2.7-10.5-8.9-10.5L121.1,4.4L121.1,4.4z M9.1,8.1
	c2.8,0,5.2,0.5,5.2,6.7H3.7C3.7,8.6,6.3,8.1,9.1,8.1z M128,17h4.7v7.6h-6.4c-1.6,0-3.6-0.7-3.6-3.9C122.8,18.2,123.5,17,128,17z"/>
</svg>
