<svg xmlns="http://www.w3.org/2000/svg" viewBox="0 0 200 44"><path d="m 69.703393,0.0704112 c -9.228957,0 -16.720282,7.50596 -16.720282,16.6635688 0,9.22395 7.491325,16.72811 16.720282,16.72811 9.238971,0 16.739849,-7.50416 16.739849,-16.72811 0,-9.1576088 -7.500878,-16.6635688 -16.739849,-16.6635688 z m 83.456717,4.588349 c -2.77507,0 -5.40472,0.903275 -6.7378,1.803264 l 1.00921,3.205586 c 0.97009,-0.648393 2.88037,-1.478599 4.79175,-1.478599 2.59357,0 3.74539,1.334963 3.74539,2.9571958 0,2.306927 -2.59154,3.240791 -4.61182,3.240791 l -2.01644,0 0,3.242746 2.01644,0 c 2.70497,0 5.33352,1.189373 5.33352,3.964444 0,1.838782 -1.33153,3.747346 -4.71744,3.747346 -2.23432,0 -4.43298,-0.900693 -5.33547,-1.441438 l -1.00725,3.350316 c 1.25924,0.828641 3.7109,1.623329 6.55982,1.623329 5.79798,0 9.1141,-3.134706 9.1141,-7.097663 -0.0363,-3.17437 -2.30895,-5.299328 -5.15162,-5.840072 l 0,-0.06846 c 2.87897,-1.010141 4.32237,-3.026667 4.32237,-5.47629 0,-3.0642188 -2.44931,-5.7325028 -7.31476,-5.7325028 z m 25.16745,0.06063 c -0.36941,0.01361 -0.7928,0.04928 -1.2791,0.121255 -3.34961,0.251596 -6.19853,1.403808 -8.32396,3.457886 -2.44962,2.3056738 -4.07202,5.9455308 -4.07202,10.4479798 0,5.80299 3.13698,10.127224 8.82857,10.127224 4.9731,0 8.2516,-3.893015 8.2516,-8.359164 0,-4.757801 -3.13447,-7.639425 -7.17002,-7.639425 -2.34323,0 -4.10652,0.93621 -5.26311,2.266792 l -0.10565,0 c 0.57454,-3.23946 2.91777,-6.2304528 7.85457,-6.8062458 0.86494,-0.1089 1.58515,-0.144574 2.23355,-0.109526 l 0,-3.495047 c -0.27038,-0.01752 -0.58503,-0.02535 -0.95446,-0.01177 z m 8.80705,0.336402 -1.50989,11.8170508 c 0.89999,-0.107648 1.8718,-0.21514 3.20364,-0.21514 4.65015,0 6.63021,1.764618 6.63021,4.467089 0,2.775071 -2.48318,4.251949 -5.07925,4.251949 -2.12543,0 -4.14398,-0.684851 -5.15162,-1.224344 l -0.90163,3.352273 c 1.22418,0.683441 3.49566,1.367117 6.23318,1.367117 5.72789,0 9.44074,-3.638761 9.44074,-8.10491 0,-2.846419 -1.29788,-4.829853 -3.06281,-5.947642 -1.54713,-1.043937 -3.64181,-1.511848 -5.69339,-1.511848 -0.68469,0 -1.15338,0.03552 -1.65658,0.105621 l 0.68455,-4.6822278 9.00653,0 0,-3.674981 -12.14368,0 z M 65.318455,7.0878862 c 0.325448,0 0.803527,0.164758 1.390585,0.488954 l 12.660011,7.6550708 c 0.529479,0.331707 0.899669,0.868697 0.899669,1.502069 0,0.649644 -0.37019,1.241396 -0.899669,1.556831 l -13.137238,7.942576 c -0.284131,0.153962 -0.58791,0.207318 -0.913358,0.207318 -0.962575,0 -1.777848,-0.809239 -1.777848,-1.76806 l 0,-15.8186548 c 0,-0.960072 0.815273,-1.766104 1.777848,-1.766104 z M 173.15444,16.117898 c 2.59482,0 4.07396,1.910207 4.07396,4.648978 0,2.808868 -1.47798,4.789798 -3.74735,4.789798 -2.91902,0 -4.35803,-2.520501 -4.43188,-5.62102 0,-0.610841 0.10853,-1.04253 0.28751,-1.404278 0.68469,-1.405686 2.16048,-2.413478 3.81776,-2.413478 z"/><path d="m 93.110622,4.2793312 c -0.165228,0.01252 -0.335693,0.06204 -0.490906,0.127128 l -0.385301,0.160378 c -0.705972,0.441858 -1.058798,1.32268 -0.809705,2.133797 l 8.96351,21.1443468 c 0.53073,0.644637 1.62991,1.049102 2.8203,1.036585 1.18788,0 2.27555,-0.413617 2.79877,-1.06201 l 8.54888,-21.2988578 c 0.14895,-0.82864 -0.31465,-1.716582 -1.13829,-2.045785 l -0.33053,-0.132996 c -0.0901,-0.02128 -0.19574,-0.05007 -0.29338,-0.06259 l -0.50264,0 c -0.51195,0.07385 -0.96696,0.339921 -1.26737,0.784283 L 103.19286,25.200715 94.96865,5.2220352 c -0.307924,-0.525723 -0.833958,-0.868852 -1.41601,-0.942704 l -0.442018,0 z M 9.1258461,4.3634322 C 2.9848908,4.3634322 0,7.7820452 0,14.850528 l 0,2.963063 c 0,7.537879 5.0918548,10.473406 11.167721,10.473406 l 4.748725,0 c 0.853676,-0.08011 1.533908,-0.741804 1.656577,-1.584214 l 0,-0.547629 C 17.455361,25.336527 16.81135,24.674523 15.992722,24.563119 l -4.825001,0 c -2.7250024,0 -7.2801813,-0.0091 -7.4203734,-6.002405 l 12.4155314,0 c 1.036427,0 1.865851,-0.818862 1.865851,-1.867806 l 0,-1.84238 c 0,-7.1673688 -2.83578,-10.4870958 -8.9028839,-10.4870958 z m 19.7948329,0 c -1.028917,0 -1.869761,0.826372 -1.869761,1.867805 l 0,20.2955218 c 0.04631,0.906248 0.734683,1.642576 1.609638,1.760238 l 0.522203,0 c 0.837403,-0.100138 1.49933,-0.76981 1.605727,-1.595948 l 0,-18.5998278 3.813845,0 c 3.234453,0 7.535765,0.44311 7.535765,6.7593068 l 0,12.016545 c 0.182752,0.779824 0.876286,1.386127 1.70743,1.419924 l 0.277726,0 c 0.8712,-0.0388 1.591175,-0.683755 1.742633,-1.541186 l 0,-11.895283 c 0,-7.3576308 -5.001182,-10.4870958 -11.263554,-10.4870958 l -5.681652,0 z m 92.134671,0 c -0.89749,0.142696 -1.56661,0.913836 -1.56661,1.832601 l 0,0.05281 c 0,0.925024 0.66912,1.682161 1.56661,1.842382 l 6.42094,0 c 2.9353,0 4.82595,0.387173 5.16141,5.1574908 l -4.67832,0 c -2.20428,0 -8.94004,-7.9e-5 -8.94004,7.430152 0,5.620238 3.92611,7.608133 7.29325,7.608133 l 8.23594,0 c 1.02641,0 1.86782,-0.831614 1.86782,-1.858027 l 0,-11.578443 c 0,-7.3576298 -2.67017,-10.4870948 -8.94006,-10.4870948 l -6.42094,0 z M 9.1258461,8.0912212 c 2.8326499,0 5.1770499,0.505617 5.1770499,6.7417038 l -10.5672835,0 c 0,-6.2310798 2.5525766,-6.7417038 5.3902336,-6.7417038 z m 118.8335339,8.8970148 4.71548,0 0,7.574883 -6.36227,0 c -1.62599,0 -3.55568,-0.676088 -3.55568,-3.884255 0,-2.499692 0.78765,-3.690628 5.20247,-3.690628 z m 22.19854,18.562669 0,2.096636 c 0,0.433097 0.0113,0.872921 0.0333,1.326045 l -0.0333,0 c -0.24408,-0.371762 -0.51994,-0.63619 -0.82536,-0.790152 -0.30792,-0.153962 -0.67217,-0.230786 -1.09526,-0.230786 -0.80235,0 -1.41592,0.266696 -1.8365,0.79993 -0.42058,0.530731 -0.63368,1.302731 -0.63368,2.307865 0,0.957569 0.212,1.689123 0.63759,2.188561 0.42558,0.500689 1.03948,0.749078 1.84434,0.749078 0.82864,0 1.46451,-0.332099 1.90887,-0.995512 l 0.0411,0 0.133,0.887942 0.34814,0 0,-8.339607 -0.52221,0 z m 13.6301,0 0,8.339607 0.33248,0 0.15061,-0.878163 0.0469,0 c 0.19276,0.312931 0.45523,0.559285 0.78819,0.72952 0.33171,0.171486 0.70511,0.256213 1.12068,0.256213 0.78483,0 1.3956,-0.260515 1.8287,-0.786239 0.4356,-0.525724 0.65323,-1.27449 0.65323,-2.243324 0,-0.985106 -0.20692,-1.734028 -0.61999,-2.247234 -0.41181,-0.511955 -1.02626,-0.768637 -1.84238,-0.768637 -0.44061,0 -0.81362,0.08372 -1.12656,0.246433 -0.31293,0.163976 -0.57907,0.421519 -0.80187,0.774505 l -0.0372,0 0.0156,-0.459618 c 0.015,-0.262862 0.0215,-0.550992 0.0215,-0.866427 l 0,-2.096636 -0.53003,0 z m -11.14817,0.002 0,8.339607 0.53002,0 0,-8.339607 -0.53002,0 z m 17.94072,0.377472 c -0.22156,0 -0.33444,0.174615 -0.33444,0.516336 0,0.347979 0.11291,0.520247 0.33444,0.520247 0.11265,0 0.20145,-0.04624 0.26404,-0.138862 0.0613,-0.09513 0.0939,-0.219913 0.0939,-0.381385 0,-0.163976 -0.0326,-0.29126 -0.0939,-0.381384 -0.0626,-0.08887 -0.15139,-0.134952 -0.26404,-0.134952 z m 9.89058,2.022316 c -0.97134,0 -1.64681,0.303074 -2.02232,0.911412 l -0.0352,0 -0.0998,-0.797974 -0.44984,0 0,5.824426 0.52806,0 0,-3.213409 c 0,-0.789838 0.16532,-1.362266 0.48701,-1.715252 0.32545,-0.351734 0.83225,-0.526116 1.52946,-0.526116 0.51571,0 0.90146,0.13237 1.14805,0.398987 0.24659,0.266617 0.36769,0.693845 0.36769,1.277149 l 0,3.778641 0.52613,0 0,-3.809935 c 0,-1.418202 -0.65872,-2.127929 -1.97929,-2.127929 z m 6.06499,0 c -0.77482,0 -1.39153,0.279526 -1.85217,0.839046 -0.45437,0.55952 -0.68257,1.30281 -0.68257,2.231589 0,0.941296 0.2361,1.669251 0.708,2.192471 0.4744,0.523221 1.13758,0.782327 1.98124,0.782327 0.33796,0 0.64332,-0.02496 0.9212,-0.07628 0.27914,-0.05132 0.58346,-0.149425 0.91141,-0.293374 l 0,-0.481131 c -0.38678,0.153962 -0.70481,0.252927 -0.95641,0.299241 -0.25159,0.04631 -0.54074,0.07041 -0.8762,0.07041 -0.68219,0 -1.20573,-0.209898 -1.57248,-0.631728 -0.36676,-0.42058 -0.55185,-1.033456 -0.55936,-1.834559 l 4.19328,0 0,-0.428323 c 0,-0.821131 -0.19708,-1.472497 -0.59262,-1.951907 -0.3968,-0.47941 -0.93613,-0.717786 -1.62332,-0.717786 z m 5.53104,0 c -0.65841,0 -1.17162,0.126581 -1.53336,0.379429 -0.36926,0.2541 -0.55154,0.598481 -0.55154,1.036584 0,0.272876 0.0598,0.507964 0.17994,0.698226 0.12016,0.191514 0.29721,0.362921 0.53003,0.51438 0.23657,0.153962 0.6469,0.335384 1.2302,0.545674 0.54325,0.192765 0.93371,0.387174 1.17154,0.588702 0.23658,0.200275 0.35595,0.446394 0.35595,0.739297 0,0.317938 -0.14997,0.573212 -0.44788,0.764726 -0.29916,0.192765 -0.73586,0.285549 -1.3104,0.285549 -0.6509,0 -1.26759,-0.147703 -1.85215,-0.438103 l 0,0.573055 c 0.45563,0.23908 1.07233,0.357914 1.85215,0.357914 0.7285,0 1.29038,-0.138862 1.68592,-0.4205 0.3968,-0.281638 0.59848,-0.682112 0.59848,-1.202828 0,-0.261611 -0.0617,-0.48786 -0.18189,-0.680625 -0.11641,-0.190262 -0.29878,-0.364877 -0.53786,-0.516336 -0.24033,-0.151459 -0.62233,-0.322709 -1.14805,-0.510468 -0.62837,-0.227814 -1.04957,-0.430672 -1.26737,-0.612172 -0.2153,-0.182751 -0.32271,-0.424803 -0.32271,-0.731475 0,-0.27538 0.14066,-0.494823 0.41854,-0.651288 0.27914,-0.158969 0.65355,-0.236654 1.13046,-0.236654 0.49067,0 1.01805,0.118676 1.59009,0.354004 l 0.19753,-0.483088 c -0.56202,-0.236575 -1.15675,-0.354003 -1.78762,-0.354003 z m -34.92504,0.0097 c -0.62586,0 -1.25876,0.151927 -1.89714,0.449838 l 0.19755,0.461573 c 0.5783,-0.300414 1.13859,-0.447882 1.67809,-0.447882 0.49943,0 0.86407,0.140819 1.08938,0.422457 0.22406,0.280386 0.3364,0.701668 0.3364,1.253678 l 0,0.385296 -1.1109,0.03129 c -0.89623,0.01752 -1.5817,0.187758 -2.0536,0.500689 -0.47441,0.315435 -0.71193,0.756355 -0.71193,1.322134 0,0.520717 0.15928,0.927527 0.47722,1.220431 C 155.46514,43.853548 155.91155,44 156.48108,44 c 0.42308,0 0.78929,-0.08074 1.09721,-0.234698 0.30792,-0.156466 0.61069,-0.41925 0.90359,-0.796019 l 0.0411,0 0.13495,0.921191 0.39116,0 0,-3.874476 c 0,-0.703468 -0.15982,-1.221916 -0.47525,-1.554874 -0.31418,-0.332959 -0.79079,-0.498735 -1.43167,-0.498735 z m 13.17831,0.103655 0,5.826381 0.53198,0 0,-5.826381 -0.53198,0 z m 2.20029,0 0,0.471351 3.20364,0 -3.45789,5.016673 0,0.336401 4.16001,0 0,-0.471352 -3.48721,0 3.47744,-5.016674 0,-0.336399 -3.89599,0 z m 22.88894,0 0,3.806021 c 0,1.418203 0.66349,2.125974 1.98906,2.125974 0.97009,0 1.64359,-0.301665 2.02036,-0.9075 l 0.0333,0 0.0978,0.79993 0.44984,0 0,-5.824425 -0.52416,0 0,3.215363 c 0,0.787334 -0.16672,1.360859 -0.49091,1.711341 -0.32795,0.349231 -0.83726,0.52416 -1.52946,0.52416 -0.51821,0 -0.90342,-0.134874 -1.15001,-0.398987 -0.24659,-0.269121 -0.36964,-0.693845 -0.36964,-1.277149 l 0,-3.774728 -0.52613,0 z m -8.87354,0.357914 c 0.51821,0 0.92291,0.189323 1.21456,0.571099 0.2929,0.381775 0.44005,0.909533 0.44005,1.584212 l -3.60066,0 c 0.0588,-0.69721 0.25661,-1.230601 0.59457,-1.599859 0.33922,-0.371762 0.79196,-0.555452 1.35148,-0.555452 z m -38.29884,0.0098 c 0.67719,0 1.16646,0.197772 1.46687,0.594568 0.30292,0.393042 0.45375,1.041434 0.45375,1.940172 l 0,0.09193 c 0,0.879961 -0.15366,1.510204 -0.46158,1.893231 -0.30793,0.381776 -0.79014,0.573056 -1.44729,0.573056 -1.28177,0 -1.92453,-0.826295 -1.92453,-2.476067 0,-0.851172 0.16249,-1.497921 0.47917,-1.946038 0.32044,-0.444362 0.80024,-0.670846 1.43361,-0.670846 z m 17.9994,0 c 1.27175,0 1.90693,0.842098 1.90693,2.526918 0,0.82113 -0.15945,1.454736 -0.48114,1.899098 -0.32044,0.445614 -0.79969,0.666935 -1.43557,0.666935 -0.65465,0 -1.13689,-0.19128 -1.44731,-0.573055 -0.30793,-0.383028 -0.46156,-1.013271 -0.46156,-1.893232 l 0,-0.09193 c 0,-0.901241 0.14606,-1.551589 0.44397,-1.942127 0.29666,-0.394293 0.78748,-0.592613 1.47468,-0.592613 z m -7.71375,2.495625 0,0.573054 c 0,0.630868 -0.17665,1.123813 -0.5359,1.480554 -0.35924,0.354238 -0.84937,0.533938 -1.47272,0.533938 -0.40556,0 -0.7238,-0.100376 -0.94661,-0.303151 -0.2228,-0.202779 -0.33446,-0.48653 -0.33446,-0.850781 0,-0.45688 0.17369,-0.791403 0.52417,-1.009202 0.34923,-0.214045 0.93184,-0.344537 1.75046,-0.383341 l 1.01506,-0.04107 z"/></svg>
