<svg xmlns="http://www.w3.org/2000/svg" viewBox="0 0 160 160"><path d="M106.915 76.582l-35.868-22.01A3.986 3.986 0 0 0 65 57.988v44.027a3.988 3.988 0 0 0 6.045 3.414l35.868-22.018a3.99 3.99 0 0 0 .002-6.828zM120 80c0 22.091-17.909 40-40 40s-40-17.909-40-40 17.909-40 40-40 40 17.909 40 40zm30.005-4.695c-.425-.305-1.225-.725-2.24-.96l-18.54-4.63-1.72-5.255a50.97 50.97 0 0 0-2.987-7.143l-2.51-4.932 9.794-16.333c.625-1 .918-1.895 1.005-2.422l-6.577-6.567c-.635.2-1.357.46-1.705.697l-16.46 10.498-5.117-2.648a49.28 49.28 0 0 0-7.515-3.155l-5.45-1.762-4.12-18.613c-.19-.995-.723-1.797-1.088-2.085h-9c-.305.425-.723 1.225-.955 2.238L70.217 30.64l-5.327 1.69a49.317 49.317 0 0 0-8.148 3.423L51.6 38.468 35.137 27.975c-.672-.455-1.392-.712-2.044-.712l-6.558 6.382c.087.518.36 1.372.905 2.245l10.228 17.04-2.433 4.898c-1.135 2.31-2.035 4.477-2.735 6.624l-1.717 5.26-18.358 4.59c-1.155.263-1.99.693-2.425 1V84.6a.05.05 0 0 1 .023-.005c.167 0 .99.585 1.675.71l18.862 4.177 1.733 5.513c.704 2.245 1.667 4.585 2.94 7.152l2.432 4.9-10.12 16.863c-.627 1.005-.917 1.9-1.005 2.425l6.575 6.573c.638-.205 1.355-.463 1.7-.7l16.768-10.688 5.137 2.71a49.832 49.832 0 0 0 8.11 3.41l5.315 1.692 4.56 18.246c.265 1.155.69 1.99 1 2.425H85c-.068-.103.575-.975.708-1.698l4.2-18.97 5.444-1.76a49.942 49.942 0 0 0 7.613-3.195l5.117-2.657L124.2 131.99c.675.46 1.397.715 2.045.715l6.563-6.378c-.088-.52-.363-1.377-.908-2.252l-9.898-16.483 2.526-4.94c1.362-2.665 2.402-5.165 3.174-7.645l1.728-5.522 18.482-4.103c1.118-.207 1.988-.852 2.173-1.202zm.072 19.842l-12.832 2.848c-1 3.2-2.31 6.263-3.813 9.207l6.943 11.568c2.592 4.143 3.902 10.238 0 14.143l-7.075 7.07c-3.902 3.904-10.492 3.202-14.473.442l-11.254-7.17a59.764 59.764 0 0 1-9.145 3.837l-2.88 12.988C94.688 154.842 90.522 160 85 160H75c-5.523 0-8.908-5.235-10-10l-3.208-12.832a59.842 59.842 0 0 1-9.74-4.096l-11.537 7.348c-3.978 2.76-10.57 3.462-14.473-.443l-7.072-7.07c-3.905-3.907-2.595-10 0-14.142l7.305-12.175c-1.37-2.76-2.585-5.615-3.522-8.597l-12.83-2.848C5.156 94.288 0 90.122 0 84.6v-10c0-5.522 5.235-8.907 10-10l12.992-3.248c.898-2.755 2.02-5.4 3.29-7.965L18.97 41.2c-2.592-4.14-3.902-10.235 0-14.14l7.075-7.07c3.903-3.907 10.493-3.202 14.473-.445l11.562 7.368a59.257 59.257 0 0 1 9.798-4.116L65.078 10c1.094-4.765 4.477-10 10-10h10c5.522 0 9.687 5.157 10.547 9.922l2.885 13.023a59.246 59.246 0 0 1 9.037 3.79l11.28-7.188c3.98-2.76 10.573-3.462 14.473.445l7.075 7.07c3.902 3.908 2.592 10 0 14.14l-6.947 11.583a60.132 60.132 0 0 1 3.58 8.57L150 64.6c4.765 1.095 10 4.478 10 10v10c0 5.522-5.155 9.688-9.922 10.547z"/></svg>